/* XPM */
static char*source[]={
"32 32 7 1",
". c None",
"# c #000000",
"a c #ffffff",
"b c #c0c000",
"c c #ffffc0",
"d c #404000",
"e c #808000",
"................................",
"................................",
"................................",
"................................",
"................................",
"................................",
".................##.............",
"................#aa##...........",
"...............#aaaaa##.........",
"..............#aaaaaaaa##.......",
".............#aaabbaaaaaa##.....",
"............#aaaaaabbaaaaaa##...",
"...........#aaabbaaaabbaaaaaa##.",
"..........#aaaaaabbaaaaaaaaaaa#.",
".........#caabbaaaabbaaaaaaaad#.",
"........#aaaccabbaaaabbaaaaadb#.",
".......#aaacaaaacbbaaaaaaaadb#..",
"......#acacaacaaaaabbaaaaadb#...",
".....#ccacacaaacaacacaaaadb#....",
"....#cccccaacaaaaacaaaaadb#.....",
"...#ccccccccacacaacaaacdb#......",
"..#eccccccccccaaccaacadb#.......",
"..#beeccccccccacaaccadb#........",
"..##bbeeccccccccccaadb#.........",
"....##bbeecccccccccdb#..........",
"......##bbeeccccccdb#...........",
"........##bbeecccdb#............",
"..........##bbeedb#.............",
"............##bbb#..............",
"..............###...............",
"................................",
"................................"};
