/* XPM */
static char*kicongrid[]={
"32 32 11 1",
". c None",
"# c #000000",
"a c #ffffff",
"b c #ffffc0",
"c c #c0c000",
"d c #ffff00",
"e c #808080",
"f c #404000",
"g c #004040",
"h c #004000",
"i c #a0a0a4",
"................................",
"................................",
"................................",
"................................",
".............#....###...........",
"............#a##.#aba##.........",
"...........#aaaa#aaaaaa##.......",
"..........#aaaa#aaaaaaaba##.....",
".........#aaaa#aaaaaaaaaaab##...",
"........#aaba#aaaaaaabaabaaaa##.",
".......#aaba#baaaaa#baaaaaabaaa#",
"......#aaaa#aaaaab#a##baaaaaaa#.",
".....#aaba#aacbba#aaaa##baaab#..",
"....#bbaa#abaacc#aaaaaaa##aa#...",
"...#bbbb#aaabaa#aaabaaaaaa##....",
"..#bbbb#bacaaa#aaaaaaaabaaaa##..",
".#bbbb#bbaacc#aacaaaaaaaaaaaba#.",
"#ddbb#bbbbba#aaaaccaaaaaaaaaaaa#",
"#edddfgcbbbfaacaaaaccaaaaaaaaa#e",
".#hedddfhcfabaaccaaabccaaaaaa#e.",
"...##edddhaacbbaaccbaaaccaab#i..",
".....##e#baaaccabaaccbaabaa#i...",
"......##bacbaabccbaaaccabb#e....",
"......#bbbbccaabbccaaaaab#i.....",
".....#bbbbbbbccabbaccaab#i......",
".....#ebbbbbbbbccbaabba#i.......",
"......##ebbbbbbbbccaabhe........",
"........##ebbbbbbbbbb#e.........",
"..........##ibbbbbbbhe..........",
"............##ebbbb#e...........",
"..............#hee#i............",
"................##i............."};
