/* XPM */
static char * folder_xpm[] = {
"15 13 5 1",
" 	c #FFFFFFFFFFFF",
".	c #79E77DF779E7",
"X	c #BEFBBEFBBEFB",
"o	c #FFFFFFFF0000",
"O	c #000000000000",
"  .....        ",
" .XoooX.       ",
".XoooooX...... ",
".            .O",
". ooooooooooo.O",
". ooooooooooo.O",
". ooooooooooo.O",
". ooooooooooo.O",
". ooooooooooo.O",
". ooooooooooo.O",
". ooooooooooo.O",
"..............O",
" OOOOOOOOOOOOOO"};
