#define midilogo_width 48
#define midilogo_height 48
static unsigned char midilogo_bits[] = {
 0x00,0x00,0x00,0x00,0x00,0x00,0x00,0x00,0x00,0x00,0x00,0x00,0x00,0x00,0x00,
 0x00,0x00,0x00,0x00,0x00,0x00,0x00,0x00,0x00,0x00,0x00,0x00,0x00,0x00,0x00,
 0x00,0x00,0x00,0x00,0x00,0x00,0x00,0x00,0x00,0x00,0x00,0x00,0x00,0x00,0x00,
 0x00,0x00,0x00,0xe9,0x1c,0x00,0x00,0x00,0x00,0x25,0x05,0x00,0x00,0xf0,0x01,
 0x23,0x0d,0x00,0x00,0x10,0x01,0x25,0x05,0x00,0x00,0x10,0x01,0xe9,0x1c,0x00,
 0x00,0x10,0x01,0x00,0x00,0x00,0x00,0x10,0x01,0x00,0x00,0x00,0x00,0x10,0x01,
 0x00,0x00,0x00,0x00,0x10,0x01,0xff,0xfd,0xe1,0xc3,0x1f,0xf9,0x01,0x02,0x22,
 0x22,0x00,0x89,0x01,0x00,0x24,0x12,0x00,0x89,0x61,0x30,0x24,0x12,0x0e,0x89,
 0x91,0x48,0x24,0x12,0x11,0x89,0x91,0x48,0x24,0x12,0x11,0x89,0x91,0x48,0x24,
 0x12,0x11,0x89,0x91,0x48,0x24,0x12,0x11,0x89,0x91,0x48,0x24,0x12,0x11,0x89,
 0x91,0x48,0x24,0x12,0x11,0x89,0x91,0x48,0x24,0x12,0x11,0x89,0x91,0x48,0x24,
 0x12,0x11,0x89,0x91,0x48,0x24,0x12,0x11,0x89,0x91,0x48,0x24,0x12,0x0e,0x89,
 0x91,0x48,0x24,0x12,0x00,0x89,0x91,0x48,0x24,0x22,0x00,0x89,0x9f,0xcf,0xe7,
 0xc3,0xff,0xf9,0x00,0x00,0x00,0x00,0x00,0x00,0x00,0x00,0x00,0x00,0x00,0x00,
 0x00,0x00,0x00,0x00,0x00,0x00,0x27,0xd7,0x49,0x20,0xe9,0x64,0xa9,0x90,0x54,
 0x50,0x29,0x95,0xa9,0x96,0x54,0x50,0x29,0x95,0xa9,0x94,0x5c,0x70,0x29,0x95,
 0x27,0x97,0xd4,0x51,0xe6,0x64,0x00,0x00,0x00,0x00,0x00,0x00,0x00,0x00,0x00,
 0x00,0x00,0x00,0x00,0x00,0x00,0x00,0x00,0x00,0x00,0x00,0x00,0x00,0x00,0x00,
 0x00,0x00,0x00,0x00,0x00,0x00,0x00,0x00,0x00,0x00,0x00,0x00,0x00,0x00,0x00,
 0x00,0x00,0x00};
