#define speeddown_width 16
#define speeddown_height 16
static unsigned char speeddown_bits[] = {
 0x00,0x00,0x00,0x00,0x00,0x00,0xf8,0x1f,0xf0,0x0f,0xe0,0x07,0xc0,0x03,0x80,
 0x01,0x00,0x00,0xf8,0x1f,0xf0,0x0f,0xe0,0x07,0xc0,0x03,0x80,0x01,0x00,0x00,
 0x00,0x00};
