#define speedup_width 16
#define speedup_height 16
static unsigned char speedup_bits[] = {
 0x00,0x00,0x00,0x00,0x80,0x01,0xc0,0x03,0xe0,0x07,0xf0,0x0f,0xf8,0x1f,0x00,
 0x00,0x80,0x01,0xc0,0x03,0xe0,0x07,0xf0,0x0f,0xf8,0x1f,0x00,0x00,0x00,0x00,
 0x00,0x00};
