/* XPM */
static char * ksmiletris_xpm[] = {
"32 32 159 2",
"  	c None",
". 	c #020204",
"+ 	c #16160C",
"@ 	c #EEE65C",
"# 	c #EEEA54",
"$ 	c #EAE65C",
"% 	c #E6E25C",
"& 	c #EAE25C",
"* 	c #DEDA5C",
"= 	c #161614",
"- 	c #EAE254",
"; 	c #F2EA54",
"> 	c #F2EE5C",
", 	c #EEE654",
"' 	c #E6E254",
") 	c #E6DE54",
"! 	c #E2DA54",
"~ 	c #DED654",
"{ 	c #DAD654",
"] 	c #D6D254",
"^ 	c #F2EA5C",
"/ 	c #F6EE54",
"( 	c #EAE654",
"_ 	c #E2DA5C",
": 	c #E2D65C",
"< 	c #DAD254",
"[ 	c #D6CE54",
"} 	c #CEC654",
"| 	c #D6CE4C",
"1 	c #060604",
"2 	c #F6EE5C",
"3 	c #FAF264",
"4 	c #FAF274",
"5 	c #FAF67C",
"6 	c #F6EE6C",
"7 	c #EEEA64",
"8 	c #E2DE54",
"9 	c #D6D24C",
"0 	c #D2CE54",
"a 	c #CEC64C",
"b 	c #FEFA94",
"c 	c #FEFEAC",
"d 	c #FEFA9C",
"e 	c #FAF284",
"f 	c #F2EA74",
"g 	c #EAE664",
"h 	c #DAD24C",
"i 	c #CECA54",
"j 	c #C6BE4C",
"k 	c #F2EA64",
"l 	c #FAF25C",
"m 	c #FEFAB4",
"n 	c #FEFECC",
"o 	c #FEFEDC",
"p 	c #FEFAAC",
"q 	c #FAF28C",
"r 	c #E2D654",
"s 	c #D2CA54",
"t 	c #CAC64C",
"u 	c #BAB24C",
"v 	c #FEFEE4",
"w 	c #FEFEF4",
"x 	c #FEFEEC",
"y 	c #9E9E8C",
"z 	c #8E8A5C",
"A 	c #EEEA6C",
"B 	c #827E3C",
"C 	c #8A863C",
"D 	c #D2CE4C",
"E 	c #CAC254",
"F 	c #C2BA4C",
"G 	c #BAB654",
"H 	c #FAFAEC",
"I 	c #AAAA8C",
"J 	c #4E4E3C",
"K 	c #464634",
"L 	c #8A862C",
"M 	c #E6DE5C",
"N 	c #8E8A3C",
"O 	c #46421C",
"P 	c #464624",
"Q 	c #928E34",
"R 	c #CECA4C",
"S 	c #FEF67C",
"T 	c #FEFEC4",
"U 	c #727234",
"V 	c #464224",
"W 	c #3A3A24",
"X 	c #525224",
"Y 	c #5E5E24",
"Z 	c #3E3E24",
"` 	c #565624",
" .	c #D2CA4C",
"..	c #C6BE54",
"+.	c #FEFA8C",
"@.	c #FEFED4",
"#.	c #26261C",
"$.	c #363614",
"%.	c #CAC24C",
"&.	c #BEB64C",
"*.	c #B6B254",
"=.	c #FEFEB4",
"-.	c #FEFEBC",
";.	c #6E6E34",
">.	c #5E5A2C",
",.	c #3E3E14",
"'.	c #BEBA54",
").	c #B6AE4C",
"!.	c #FEFAA4",
"~.	c #FEF694",
"{.	c #66662C",
"].	c #464214",
"^.	c #5A5624",
"/.	c #4A4A1C",
"(.	c #C6C254",
"_.	c #F6EE7C",
":.	c #F2EA7C",
"<.	c #EEE66C",
"[.	c #CAC654",
"}.	c #C2BE54",
"|.	c #B6AE54",
"1.	c #B2AA54",
"2.	c #EEE664",
"3.	c #EAE66C",
"4.	c #E6E264",
"5.	c #B6B24C",
"6.	c #B2AA4C",
"7.	c #C2BA54",
"8.	c #B2AE4C",
"9.	c #AEAA54",
"0.	c #E2DA4C",
"a.	c #C2BE4C",
"b.	c #BAB254",
"c.	c #D2CA34",
"d.	c #7E7A24",
"e.	c #BAB63C",
"f.	c #0A0A04",
"g.	c #B2AE3C",
"h.	c #AEAA34",
"i.	c #9A922C",
"j.	c #B2AA2C",
"k.	c #AAA634",
"l.	c #BEB654",
"m.	c #626224",
"n.	c #B2AE34",
"o.	c #AAA234",
"p.	c #625E24",
"q.	c #AEA64C",
"r.	c #AAA63C",
"s.	c #A6A23C",
"t.	c #B6B234",
"u.	c #BAB244",
"v.	c #969234",
"w.	c #AAA64C",
"x.	c #6E6A34",
"y.	c #9A963C",
"z.	c #B2AE54",
"A.	c #060204",
"B.	c #2A2A14",
"                          . . . . . . .                         ",
"                    + . . @ # $ $ % & * . . =                   ",
"                . . - ; > @ , , - ' ) ! ~ { ] . .               ",
"              . , ^ / > @ ; @ @ ( ' ' _ : < [ } | 1             ",
"            . $ 2 3 4 5 4 6 7 & ' ' ) 8 ! ~ 9 0 a < .           ",
"          . 2 / 5 b c c d e f g ' ) 8 ! ~ h < 9 i a j .         ",
"        . k l 5 m n o n p q f g ' 8 ! r r { h | s t t u .       ",
"      . - l 5 m v w x y z ' A & 8 ) ) B C h [ 9 D s E F G 1     ",
"      . ^ 3 d o w H I J K L M % ! ~ N O P Q s 0 R R t F F .     ",
"    . - > S T v w w U V W X % M ! ! Y Z W ` h  .s } E ..F u .   ",
"    . ; 2 +.T @.o n U W #.V % ) ~ r Y $.#.P ] D  .R %...&.*..   ",
"    . 2 2 b =.-.T T ;.#.. $.~ 8 : ~ >.#.= ,. .R i } E F '.)..   ",
"  . - ; ^ e !.!.~.q {.. . ].~ ~ ~ ~ ^.. . /.s R a %.(.F F ).).. ",
"  . @ , ^ f _._.:.<.g ].O ~ r ~ < < | $.W | D R [.} j }.G |.1.. ",
"  . # # @ 2.<.3.4.M 8 ~ ~ ~ ~ h { [ | | | D i R %.E j F G 5.6.. ",
"  . - , ( @ % & & % _ * ~ ~ h < | 9 [ [ 0 i  .} [.%.7.F G 8.9.. ",
"  . & - ' $ ' % | 0.0.~ { ~ h < [ | D  .R i t %.&.a.'.&.b.6.9.. ",
"  . ' ' ' ) ) 0.L c.r ~ h h < | | 0 [ i s t } F d.e.F G ).6.9.. ",
"  f.) ) 8 8 8 0.>.j ~ ~ 9 9 ] [  . .D a } t t G ^.g.&.G ).1.8.. ",
"  . 8 ) 0.! ! ~ . h.h | < [ | D 0 i i [.R E j i.. j.G ).1.6.).. ",
"    . ~ ! r ~ h j.. h.D | [ s  .D  .a } a j k.. g.l.G 5.1.1..   ",
"    . ] < h ~ h t . m.n.0 D D i } } [.%.j o.p.. &.G ).1.6.q..   ",
"    . 9 ] | ] |  .o.. p.a s D R R a [.%.).^.. r.u *.8.9.1.s..   ",
"      . a [ | [ |  .t.. . n.F a.F '.u.6.. . v.u *.).6.9.w..     ",
"      . R i R i D i a e.B . . . . . . . Q j.u ).1.1.6.w.s..     ",
"        . F } a [.a t a %.s.B x.x.x.L y.&.b.).|.8.9.9.q.1       ",
"          . i j E %.%.j j j a.a.7.l.&.G 5.z.8.6.9.6.9..         ",
"            . }.&.'.a.}.F 7.&.&.G G b.5.).8.1.6.9.z..           ",
"              . 5.z.).G G G u u 5.8.1.z.1.6.1.q.s.1             ",
"                . . 8.9.).).|.1.1.1.6.9.9.1.9.. A.              ",
"                    . . . 6.9.6.6.6.6.s.B.. .                   ",
"                          . . . . . A..                         "};
