/* XPM */
static char * large_ksmiletris_xpm[] = {
"48 48 162 2",
"  	c None",
". 	c #000000",
"+ 	c #1B1B1B",
"@ 	c #E6E161",
"# 	c #F4ED61",
"$ 	c #F0E968",
"% 	c #EDE661",
"& 	c #F0E961",
"* 	c #E9E461",
"= 	c #F0E970",
"- 	c #F8F061",
"; 	c #F0E959",
"> 	c #EDE650",
", 	c #EDE659",
"' 	c #E9E459",
") 	c #E6E159",
"! 	c #E4DD59",
"~ 	c #E1D859",
"{ 	c #DDD550",
"] 	c #D8D150",
"^ 	c #F8F059",
"/ 	c #F4ED50",
"( 	c #E9E450",
"_ 	c #E6E150",
": 	c #CEC950",
"< 	c #CCC550",
"[ 	c #F4ED59",
"} 	c #D1CC50",
"| 	c #C1BD50",
"1 	c #F8F068",
"2 	c #FBF478",
"3 	c #FBF480",
"4 	c #F4ED70",
"5 	c #F4ED68",
"6 	c #EDE961",
"7 	c #E4DD50",
"8 	c #D8D550",
"9 	c #D5CE50",
"0 	c #C5BD50",
"a 	c #BAB450",
"b 	c #FBF468",
"c 	c #FFF880",
"d 	c #FFFB97",
"e 	c #FFFFA6",
"f 	c #FFFB9E",
"g 	c #FBF488",
"h 	c #F4ED78",
"i 	c #E1D850",
"j 	c #C9C150",
"k 	c #C1BA50",
"l 	c #FFF897",
"m 	c #FFFFBC",
"n 	c #FFFFCC",
"o 	c #FFFFD2",
"p 	c #FFFBB5",
"q 	c #FFFBAE",
"r 	c #FBF497",
"s 	c #EDE970",
"t 	c #FFF878",
"u 	c #FFFFE3",
"v 	c #FFFFE8",
"w 	c #FFFFB5",
"x 	c #F4ED80",
"y 	c #FFFFEF",
"z 	c #FFFFFF",
"A 	c #46463C",
"B 	c #464636",
"C 	c #D5CF31",
"D 	c #F0E978",
"E 	c #EDE668",
"F 	c #403E26",
"G 	c #3F3E24",
"H 	c #FFFFC4",
"I 	c #FFFFF8",
"J 	c #63633D",
"K 	c #464538",
"L 	c #464434",
"M 	c #5F5D2F",
"N 	c #E9E468",
"O 	c #585624",
"P 	c #BDB750",
"Q 	c #B4AD50",
"R 	c #FFFBA6",
"S 	c #ABAB40",
"T 	c #444331",
"U 	c #3A3924",
"V 	c #8C8829",
"W 	c #999324",
"X 	c #838024",
"Y 	c #FFFFDA",
"Z 	c #ABAB3C",
"` 	c #464536",
" .	c #454332",
"..	c #8C8828",
"+.	c #969124",
"@.	c #3E3D24",
"#.	c #827E24",
"$.	c #B1AA50",
"%.	c #FFF888",
"&.	c #ABA939",
"*.	c #8A8726",
"=.	c #A9A433",
"-.	c #888526",
";.	c #F8F080",
">.	c #F8F088",
",.	c #A29E2E",
"'.	c #938E24",
").	c #F4ED88",
"!.	c #7E7A29",
"~.	c #797524",
"{.	c #757224",
"].	c #726F24",
"^.	c #ADAA50",
"/.	c #EDE670",
"(.	c #615F26",
"_.	c #615F24",
":.	c #5C5924",
"<.	c #B7B150",
"[.	c #ADA650",
"}.	c #9A9726",
"|.	c #D5CF2A",
"1.	c #888424",
"2.	c #B8B327",
"3.	c #413F24",
"4.	c #C0B824",
"5.	c #3B3A24",
"6.	c #ACA624",
"7.	c #413F26",
"8.	c #BCB724",
"9.	c #A6A024",
"0.	c #989324",
"a.	c #A9A224",
"b.	c #B2AB24",
"c.	c #A6A224",
"d.	c #666324",
"e.	c #9E9A24",
"f.	c #A8A224",
"g.	c #777224",
"h.	c #B4AE24",
"i.	c #565424",
"j.	c #B7B324",
"k.	c #AEA824",
"l.	c #AAA250",
"m.	c #949024",
"n.	c #434224",
"o.	c #454324",
"p.	c #535224",
"q.	c #5A5824",
"r.	c #3D3C24",
"s.	c #3C3B24",
"t.	c #B2AC24",
"u.	c #3A3A24",
"v.	c #767224",
"w.	c #7A7624",
"x.	c #585524",
"y.	c #575424",
"z.	c #575524",
"A.	c #AFA824",
"B.	c #8A8724",
"C.	c #767424",
"D.	c #999150",
"E.	c #A69F50",
"                                                                                                ",
"                                                                                                ",
"                                                                                                ",
"                                                                                                ",
"                                        . . . . . . . . .                                       ",
"                                  . . + @ # $ % & * @ $ @ . . .                                 ",
"                              . . = # - ; > ; , , ' ) ! ~ ~ { ] . .                             ",
"                          . . * ^ / / ; ; ; > > ( ( _ _ ! ~ ~ { : < . .                         ",
"                        . { # [ [ [ [ ; [ ; , , ' ( ) ) ! ~ { { ] ] } | .                       ",
"                      . ~ ^ ^ ^ 1 2 3 2 4 5 6 ' _ ' _ 7 7 ~ ~ { 8 9 } 0 a .                     ",
"                    . 5 ^ ^ b c d e e f g h $ % ) ) ) 7 7 i { ] ] ] } } j k .                   ",
"                  . ! ^ ^ b l m n o p q r h s * ' 7 7 ~ ~ { { { ] 9 9 : < : 0 .                 ",
"                  . t ^ b f o u v u o w l x $ * ) ! 7 ! ~ ~ { 8 ] 9 9 } < j k .                 ",
"                . ^ ^ b f o y z y y A B C D E ) ) ! ! ! F G { ] ] ] } } : < k a .               ",
"              . { ^ ^ c H v I I y J K L M C N ) 7 7 ! O G G O { 9 9 } : < j 0 P Q .             ",
"              . [ / b R o y I y S A K T U V @ ) ! ~ W F G G U X ] 9 } } : < 0 k P .             ",
"            . E [ [ t p Y v v u Z `  .U + ..) ! i ~ +.G @.U + #.9 } : : < < 0 k a $..           ",
"            . ; / ^ %.w n o Y p &. .U + + *.! 7 ~ { +.G U + + X } 9 } : < j j k a P .           ",
"            . b ; # %.q p p H q =.U + + . -.~ ! ~ ~ +.U + + . #.} } : : < j 0 k a Q .           ",
"            . ; / # ;.d q R l >.,.+ + . . -.~ { { ] '.+ + . . #.} : : < j 0 0 k P $..           ",
"          . * , > [ 4 3 g >.).= ! !.. + ~.~ ~ ~ { { ] {.. . ].] } } : < < j k P a Q ^..         ",
"          . > ; ; % $ = D /./.N * ! (._.~ ~ { ] { ] ] ] :.:.] } : : < < j 0 | k <.Q $..         ",
"          . # > > , % % E % N @ ! ! ~ i { { { ] 8 ] 9 9 9 } } } : : < j j 0 k P a Q Q .         ",
"          . ( > , ( , ' ' * ) ) ! ~ ~ { ~ { { { ] ] ] 9 9 9 : } : < < < 0 | k P <.Q [..         ",
"          . & ( ' _ ' ' _ ) 7 7 7 i ~ { { ] ] ] ] 9 ] } } } : : : < j j 0 k P a Q $.^..         ",
"          . _ ' ( ' _ 7 ! 7 }.|.~ ~ { { { { ] 9 9 9 9 9 } } : : < j 1.2.k k P a Q $.$..         ",
"          . ) _ _ ) _ 7 ! 7 3.4.{ { { ] ] ] ] ] 9 } } } : : < < < < 5.6.| k a a Q $.Q .         ",
"          . ~ ! ! 7 ! ! i i 7.8.~ { { 8 ] ] ] 9 9 9 } } : : < < j 0 5.9.P P a Q $.Q <..         ",
"            . ' 7 7 7 ! ~ { 7.0.{ ] ] ] ] 9 9 9 } } : } < : < < j 0.5.a.P a <.Q $.Q .           ",
"            . { ~ ~ i i ~ { 8.+ 0.8 ] ] 9 9 } } } } : < : < j j b.+ c.P P a <.$.$.$..           ",
"            . ] 8 { { { { ] { + d.e.9 9 9 9 } } : } : < < < j f.g.+ k P a <.Q $.$.$..           ",
"            . 0 ] 8 ] ] { 8 ] h.+ i.j.} 9 } } : : < < < j j k.~.+ h.P a <.Q $.Q $.l..           ",
"              . 9 ] ] ] ] 9 9 9 m.n.o.} } } } : : < < < j j p.+ q.P a <.Q Q ^.^.$..             ",
"              . k } 9 9 9 9 9 9 } h.r.s.t.: < : < < j 0 0 u.U v.P a a Q Q $.$.Q ^..             ",
"                . j : : 9 } } } } : h.w.+ + x.y.y.z.y.+ + w.9.A.P <.<.$.$.$.$.$..               ",
"                  . < : < : : : : : < < B.w.+ + + + + C.w.P P a <.Q $.$.^.Q $..                 ",
"                  . Q j < < < < < < < < < j j | 0 | k k P a a <.Q Q Q Q ^.^.$..                 ",
"                    . $.k | j j j j 0 0 0 | k 0 k P P P P <.Q Q Q $.^.$.$.Q .                   ",
"                      . [.a k k | | | | k k P k P P a <.<.<.Q $.$.$.$.$.$..                     ",
"                        . D.Q a a a P P P P a a a <.Q Q Q $.$.$.$.$.$.^..                       ",
"                          . . l.Q Q <.<.<.<.Q Q Q Q Q $.$.$.$.Q Q ^.. .                         ",
"                              . . E.$.Q $.Q Q $.$.$.$.$.$.^.Q [.. .                             ",
"                                  . . . E.^.Q Q Q $.$.Q ^.. . .                                 ",
"                                        . . . . . . . . .                                       ",
"                                                                                                ",
"                                                                                                ",
"                                                                                                ",
"                                                                                                "};
