/* XPM */
static char * mini_smiletris_xpm[] = {
"16 16 5 1",
" 	c None",
".	c #000000000000",
"X	c #FFFFFFFF0000",
"o	c #C71BC30BC71B",
"O	c #861782070000",
"     ......     ",
"   ..XXXXXX..   ",
"  .XXXXXXXXXX.  ",
" .XXXXXXXXXXXX. ",
" .XXX..XX..XXX. ",
".XXXX..XX..XXXX.",
".XXXX..XX..XXXX.",
".XXXX..XX..XXXX.",
".XXXXXXXXXXXXXX.",
".XXX.XXXXXX.XXX.",
".XXX.XXXXXX.XXX.",
" .XXo.XXXX.OXX. ",
" .XXXo....OXXX. ",
"  .XXXXXXXXXX.  ",
"   ..XXXXXX..   ",
"     ......     "};
