/* XPM */
static char * mini_ktalk_xpm[] = {
"16 16 4 1",
" 	s None	c None",
".	c black",
"X	c #F7DEF3CEF7DE",
"o	c #F7DE00000000",
"                ",
"      .  .      ",
"  . . .....     ",
"  .....XXX....  ",
"  ..X..X..X.X.  ",
"  .XXXXX..XXX.  ",
"  .X..XXXXXX..  ",
"  .X..XXXXXXXX. ",
" .XXXXXXXo...X. ",
" .X.XXXoooo..X. ",
" ..XX..oooo..X. ",
"   .X...oo..X.  ",
"   .XX.....X.   ",
"    .XXXXXX.    ",
"     ......     ",
"                "};
