/* XPM */
/* Drawn for the K Desktop Environment */
/* See http://www.kde.org */
static char*ktalk[]={
"16 16 7 1",
"e c #ffffff",
"# c #000000",
"b c #c0c0c0",
"a c #808080",
"c c #c05800",
"d c #ffa858",
". c None",
".##############.",
"#aaaaaaaaaaaaab#",
"#a####bbbb####b#",
"#acccccb######b#",
"#acccc#bb#d###b#",
"#accddbbb#dd##b#",
"#adccdbbbdcd##b#",
"#adcdddbddddd#b#",
"#addd#bbb##dd#b#",
"#addddbbb#ddd#b#",
"#add##bbbb##d#b#",
"#ad#bbbbbbbb##b#",
"#aeeeeeeeeeeeeb#",
"#aebeeebeebeeeb#",
"#bbbbbbbbbbbbbb#",
".##############."};

