/* XPM */
static char * kbiff_xpm[] = {
"32 32 7 1",
" 	c None",
"w	c #FFFFFFFFFFFF",
".	c #000000000000",
"X	c #00003333FFFF",
"o	c #000000009999",
"O	c #33336666FFFF",
"+	c #00000000C0C0",
"         ........               ",
"       ..XXXXXXXX..             ",
"      .XXXXXXXXXXXX..           ",
"     .XXXX.XXXXXXXXXX..         ",
"    .XXX.....XXXXXXXXXX..       ",
"   .XXXX........XXXXXXXXX.      ",
"   .XXX...........XXXXXXXX..    ",
"   .XXX.............XXooooo..   ",
"  .OXXX............XXoooooooo.  ",
"  .OXXXOX.........XXXoooooooo.  ",
"  .OXXXXXXX.......XXooooooooo.  ",
"  .OXXXXXXXOX....XXoooooooooo.  ",
"  .OXXXXXXXOXXX..XXoooooooooo.  ",
"  .OXXXXwXXOXXXXXXXoooooooooo.  ",
"  .OXXwwwwwOXXXXXXXoooooooooo.  ",
"  .OXww+ww+wwXXXXXooooooooooo.  ",
"  .OXwww++w+wwwwXXooooooooooo.  ",
"  .OXXXww++w+wwwXXooooooooooo.  ",
"  .OXXXXXwww+wwXXXoooooooo.oo.  ",
"  .OXXXXXXXwwXXXXXoooooooo.oo.  ",
"  .OXXoXXXXXXXXXXXooooooo..oo.  ",
"  .OXX.oXXXXXXXXXXoooo+o....o.  ",
"  .OXX....XXXXXXXXoooo+. ..oo.  ",
"  .OXX......XXXXXXoooo.  ..o..  ",
"  .XXX...   ..XXXXooo.    .o.   ",
"  .XXX...     .XXXoo.      .    ",
"  .XXX...     .XXXoo.           ",
"  .XXX..      .XXXoo.           ",
"   ..X.       .XXXoo.           ",
"     .        .XXXooo           ",
"              .XXXoo.           ",
"              .XXX..            "};
