/* XPM */
static char *mini_kbiff_xpm[] = {
/* width height colors chars */
"    16    16     7      1",
/* colors */
". c None",
"# c #ffffff",
"a c #000000",
"b c #0033ff",
"c c #000099",
"d c #3366ff",
"e c #0000c0",
/* pixels */
".....aaaa.......",
"...abbbbbba.....",
"..abaaabbbbba...",
"..bbaaaaabbbba..",
".abbaaaaaabcccc.",
".abbbbaaabccccc.",
".abbbbbbabccccc.",
".ab###bbbbccccc.",
".ab#e###bcccccc.",
".abbb#e#bccccac.",
".abcbbbbbccccac.",
".abaabbbbcce.ac.",
".abaa.abbcc..aa.",
".abaa..abca.....",
"..aa...abca.....",
".......abca....."
};
