/* XPM */
static char*aim[]={
"22 22 5 1",
". c None",
"# c #c0c0c0",
"a c #a0a0a4",
"b c #000000",
"c c #808080",
"......................",
"......................",
"..........#...........",
"......................",
"..........a...........",
"..........b...........",
"..........b...........",
".........bbb..........",
"......................",
".......b.....b........",
"..#.abbb.....bbba.#...",
".......b.....b........",
"......................",
".........bbb..........",
"..........b...........",
"..........b...........",
"..........c...........",
"......................",
"..........#...........",
"......................",
"......................",
"......................"};
