/* XPM */
static char*areaselect[]={
"22 22 3 1",
"a c #000000",
"# c #303030",
". c None",
"......................",
"......................",
"......##.##...........",
"....#.......#.........",
"......................",
"..#...........#.......",
"......................",
".#.............#......",
".#.............#......",
"....aa.aa.aa.aa.aa.aa.",
".#..a..........#....a.",
".#.............#......",
"....a...............a.",
"..#.a.........#.....a.",
"......................",
"....#.......#.......a.",
"....a.##.##.........a.",
"......................",
"....a...............a.",
"....aa.aa.aa.aa.aa.aa.",
"......................",
"......................"};
