/* XPM */
static char*fileclose[]={
"22 22 6 1",
". c None",
"d c #808080",
"c c #c0c0c0",
"# c #000000",
"a c #dcdcdc",
"b c #ffffff",
"......................",
"......................",
"......................",
"......................",
"......................",
"......................",
"......................",
"....####..............",
"....#a##########......",
"....#b#aaaacccc#......",
"....#a#aaacaccc#......",
"....#b#caaccccd#......",
"....#a#aacaccdc#......",
"....#a#aacccdcd#......",
"....#a#acacccdc#......",
"....#a#acccdccd#......",
"....#d#dddddddd#......",
"....############......",
"......................",
"......................",
"......................",
"......................"};
