/* XPM */
static char*line[]={
"22 22 2 1",
"# c #303030",
". c None",
"......................",
"......................",
"..........#........#..",
"..........#.......#...",
"..........#......#....",
"..........#.....#.....",
"..........#....#......",
"..........#...#.......",
"..........#..#........",
"..........#.#.........",
"..........##..........",
"..........#...........",
".........##...........",
"........#.#...........",
".......#..#...........",
"......#...#...........",
".....#....#...........",
"....#.....#...........",
"...#......#...........",
"..#.......#...........",
"......................",
"......................"};
