/* XPM */
static char*newwin[]={
"22 22 12 1",
"d c #a0a0a4",
"g c #c0c000",
"h c #808000",
"c c #c05800",
"# c #000000",
"e c #ffff00",
"a c #800000",
"j c #ffdca8",
"i c #ffffc0",
"b c #c00000",
". c None",
"f c #ffffff",
"......................",
"......................",
"................###...",
"...............#aab#..",
"..............###bc#..",
".............#ddd#c#..",
".....###....#efgd##...",
"....##.##..#efged#....",
"...##....##efgeh#.....",
"...#.....#efgeh#......",
"..##....#efgeh#.......",
"..#....#efgeh#........",
"..#...#efgeh###.......",
"..#..#efgeh#..#....#..",
"..#.#efgeh#....#####..",
"..####geh#............",
"..#iij#h#.............",
"..#ijj##..............",
"..##jj#...............",
"..####................",
"......................",
"......................"};
