/* XPM */
static char*pointer[]={
"22 22 3 1",
". c None",
"# c #ffffff",
"a c #000000",
"......................",
"......................",
"......................",
"......##..............",
"......#a#.............",
"......#aa#............",
"......#aaa#...........",
"......#aaaa#..........",
"......#aaaaa#.........",
"......#aaaaaa#........",
"......#aaaaaaa#.......",
"......#aaaaaaaa#......",
"......#aaaaa###.......",
"......#aaaaaa#........",
"......#aa##aa#........",
"......#a#.#aaa#.......",
"......##...#aa#.......",
"...........#a#........",
"............#.........",
"......................",
"......................",
"......................"};
