/* XPM */
static char*selectcircle[]={
"22 22 3 1",
"# c #000000",
"a c #303030",
". c None",
"......................",
"........##.##.........",
"......#.......#.......",
"....#...........#.....",
"...#..................",
".................#....",
"..#...................",
"..................#...",
".#....................",
".#.................#..",
"......................",
".#.................#..",
".#....................",
"..................#...",
"..#...................",
".................#....",
"...#..................",
"....a...........#.....",
"......a.......#.......",
"........##.##.........",
"......................",
"......................"};
