/* XPM */
static char * kiconedit_xpm[] = {
"34 34 110 2",
"  	c None",
". 	c #000000",
"+ 	c #D88D4B",
"@ 	c #DFC19D",
"# 	c #D69D7C",
"$ 	c #EF9A53",
"% 	c #FFC88C",
"& 	c #F7984F",
"* 	c #FFE9CE",
"= 	c #FEAA5C",
"- 	c #FEDEAC",
"; 	c #F9A65B",
"> 	c #F36F07",
", 	c #CC6E2C",
"' 	c #B58369",
") 	c #FFBA81",
"! 	c #FEAD5B",
"~ 	c #FE7B00",
"{ 	c #FB7F03",
"] 	c #994704",
"^ 	c #502100",
"/ 	c #FFB262",
"( 	c #FF8100",
"_ 	c #7A3703",
": 	c #FFAE5D",
"< 	c #FD8403",
"[ 	c #E92929",
"} 	c #FF0000",
"| 	c #FF8301",
"1 	c #FF1212",
"2 	c #FEB162",
"3 	c #FD8303",
"4 	c #FE8100",
"5 	c #8F4005",
"6 	c #FEB064",
"7 	c #FBA95B",
"8 	c #FC7B03",
"9 	c #FFDCA8",
"0 	c #FFA858",
"a 	c #FF8000",
"b 	c #FFA750",
"c 	c #FFC286",
"d 	c #6B2E03",
"e 	c #FDC78C",
"f 	c #F7A55B",
"g 	c #F97300",
"h 	c #C29A84",
"i 	c #FBD5B3",
"j 	c #F48833",
"k 	c #F37103",
"l 	c #944205",
"m 	c #B76E50",
"n 	c #FFE2D3",
"o 	c #F9C49F",
"p 	c #E08141",
"q 	c #C85F07",
"r 	c #8F4004",
"s 	c #FAD9C4",
"t 	c #D99979",
"u 	c #AE7156",
"v 	c #8D5136",
"w 	c #6F3101",
"x 	c #505050",
"y 	c #7F7F7F",
"z 	c #7F4F48",
"A 	c #F0DCCD",
"B 	c #DE9F7B",
"C 	c #A05D45",
"D 	c #7C4534",
"E 	c #683D19",
"F 	c #462C00",
"G 	c #0B0B00",
"H 	c #FFFFC0",
"I 	c #FFFF00",
"J 	c #D3D350",
"K 	c #E0E086",
"L 	c #A9856D",
"M 	c #A0715C",
"N 	c #A15C3D",
"O 	c #623218",
"P 	c #523C05",
"Q 	c #636600",
"R 	c #737600",
"S 	c #A09C7A",
"T 	c #211F1E",
"U 	c #3E3927",
"V 	c #221B11",
"W 	c #646200",
"X 	c #888841",
"Y 	c #474610",
"Z 	c #A4A500",
"` 	c #323200",
" .	c #838300",
"..	c #808000",
"+.	c #C0C000",
"@.	c #444400",
"#.	c #C0FFC0",
"$.	c #00FF00",
"%.	c #00C000",
"&.	c #008000",
"*.	c #007F00",
"=.	c #C4FFC4",
"-.	c #C0C0FF",
";.	c #7F7FE9",
">.	c #0000C0",
",.	c #000095",
"'.	c #000080",
").	c #000021",
"!.	c #000020",
"~.	c #00001E",
"                                                                    ",
"                                                        . . .       ",
"                                                      . + @ # .     ",
"                                                    . $ % & * # .   ",
"                                                  . = - ; > , ' .   ",
"                                                . ) - ! ~ { ] ^ .   ",
"                                              . ) - / ( { ] _ .     ",
"  . . . . . . . . . . .                     . ) - : < { ] _ .       ",
"  .         . [ } } } .                   . ) - : | { ] _ .         ",
"  .         . } } 1 } .                 . ) - 2 3 { ] _ .           ",
"  .         . } } } } .               . ) - ! 4 { 5 _ .             ",
"  .         . } } } } .             . = - 6 4 { ] _ .               ",
"  . . . . . . . . . . . . . . . . . $ - 7 8 { ] _ .                 ",
"  . 9 9 9 9 . 0 0 0 0 . a a b c d + e f g { ] _ .                   ",
"  . 9 9 9 9 . 0 0 0 0 . a a b c h i j k { l _ .                     ",
"  . 9 9 9 9 . 0 0 0 0 . a b c m n o p q r _ .                       ",
"  . 9 9 9 9 . 0 0 0 0 . a b c h s t u v w .                         ",
"  . . . . . . . . . . . x y z A B C D E F G                         ",
"  . H H H H . I I I I . J K L M N O P Q R .                         ",
"  . H H H H . I I I I x K S T U V W R R R .                         ",
"  . H H H H . I I I I x K X Y Z ` R R  ....                         ",
"  . H H H H . I I I I . +.+.+.+.@..........                         ",
"  . . . . . . . . . . . . . . . . . . . . . . . . . .               ",
"  . #.#.#.#.. $.$.$.$.. %.%.%.%.. &.&.&.&.. &.&.&.&..               ",
"  . #.#.#.#.. $.$.$.$.. %.%.%.%.. &.&.*.&.. &.*.&.&..               ",
"  . #.#.=.#.. $.$.$.$.. %.%.%.%.. &.&.&.&.. &.*.&.&..               ",
"  . #.#.#.#.. $.$.$.$.. %.%.%.%.. &.&.&.&.. &.&.&.&..               ",
"  . . . . . . . . . . . . . . . . . . . . . . . . . .               ",
"  . -.-.-.-.. ;.;.;.;.. >.>.>.>.. ,.,.,.,.. '.'.'.'.).              ",
"  . -.-.-.-.. ;.;.;.;.. >.>.>.>.. ,.,.,.,.. '.'.'.'.!.              ",
"  . -.-.-.-.. ;.;.;.;.. >.>.>.>.. ,.,.,.,.. '.'.'.'.!.              ",
"  . -.-.-.-.. ;.;.;.;.. >.>.>.>.. ,.,.,.,.. '.'.'.'.~.              ",
"  . . . . . . . . . . . . . . . . . . . . . . . . . .               ",
"                                                                    "};
