/* XPM */
static char*logo[]={
"202 39 28 1",
"g c #6d6d6d",
"f c #373737",
"b c #858585",
"# c #828282",
"h c #676767",
"j c #646464",
"l c #595959",
"z c #3e3e3e",
"v c #2b2b2b",
"s c #696969",
"x c #4e4e4e",
"e c #565656",
"n c #3b3b3b",
"k c #5e5e5e",
"c c #818181",
"i c #666666",
"t c #4b4b4b",
"w c #535353",
"m c #5b5b5b",
"o c #404040",
"p c #484848",
"u c #505050",
"d c #606060",
"y c #454545",
"a c #838383",
"r c #686868",
"q c #323232",
". c #787878",
"..........................................................................................................................................................................................................",
"..........................................................................................................................................................................................................",
"..........................................................................................................................................................................................................",
"..........................................................................................................................................................................................................",
"..........................................................................................................................................................................................................",
"..........................................................................................................................................................................................................",
"..........................................................................................................................................................................................................",
"..........................................................................................................................................................................................................",
"...............................................................................................................................................##aab.....##...............................................",
"...........#aaaaaaa..#aaaaa#aaaaaaaaa##........aaaaaaaaaaaa#.......aaaaaaa#..............................................#aaaaaaaaaaaa........#abbba....abb#..............................................",
"...........##bbbb##..#bbba####bbba###aba#......#abbba####bb#.......#abbba#...............................................##bbba####aba........cca##defg#bbbch......#......................................",
".............a##chhhhab#ghhhhc###ghhhhc#aagg....#ccciiiiigchihggg...#cccjjjjhgg...........................................#chhkllllmidllggg....c#innnohcbbpqqkggg#a#......................................",
".............aaiiiii#bagiiihh#a#iiiiiiicigcrsgg.a#.jjjjii.#ddihhgg..a#rmmmdjihsg..........................................##coootddd#tnehhsg...#bbnnnudjccqqquigabbc.h....................................",
"............#bbiiii#b#jiiiijj#baiiijkdd##iiiihhgbbcjjjdddg#jdjiihsg.bbcmmmdddjirg.........................................ab#oookddd#jnljiihg..abannnlmmkkqqqldcbbaknkggg.................................",
"............abaiiicbgmjiijdkkbb#iiimllm#biiijji#bb.jjdlkimkddddjihg#bbrmmkllmi#abba#....#abbba#....#aaaba..#aba...........bb#ooollgmkdnmdd#abbaab#nnnj###bcul##abaovv.hh.#abba#....##aab#.#ba.............",
"............abaiiiahudijkkmmhbb#iiiuuue#bciijmk#bbjjjku##lmddkkdjhg#bbmmmmuugbb#.bbb#..abbaccaba...#abbb#cabbbb#..........bbhooowhaemkwkiaba#gcbbinnnd#bbbcdkhgbb#vvtricbba#.abac..#abbbcabbb#............",
"............bb#iii#pkimlmmmm.bbiiidtpxw#bciiill#b#jjjhcbhlkkdkkdjhgab#mmmetibb#ijdlldi#bbagdwwwigggg##ggmxjgb#ltlgggg....#bboool.a#wlkdiabbrkunnxtnnttpagjuqtlgcjyvvntuabbclnvvnjhggg#hmtvcbivqhggg.......",
"...........#bbciigakieuelmmm#baiiimpyxebbciiilubb#jjj#bbxkdddddjihgbb#mmmuwbbbjllg#lleabbiwwk#akwkhh##jxxxjgjttttdihrg...abaoooiabiwykdabbcynycbannnxpmajqqqelca#vvvxw#abcvvn.bdvfjh##kvvvjqvvvmhhsg......",
"...........#bbiii##imyxwlmkdabaiiiwyyxkbbciiiwebbcjjjw.#mdkddjjihrcbbcmmmtcbb#lldiikle#bcewljabgwudjab#xxxdm#btttkdjirg..ab#oooul#lyud#bbaynnjab#nnntocbbqqqle#b#vvvehbbavvvm#b#vvpj#bbvvqxynvvkjihsg.....",
"...........abaiiiiiijotulmdjbb#iiixypucbbiiijwjbbjjjdmjgddmddjiihg#bbmmmmtaballljddkm#baeewkkbbgwulkbbcxxel.batttllkjig..bbhoooxtiyzlkabbtnnmcbb.nnnyo#baqqnewbbcvvzu#bbovvok#b#vvvkab#vvqtllulmkdihg.....",
"...........bb#iii#iiiwyxekj#bbgiijtypwabaiiijo#bajjjlyzoldmkdjihggabammmlwbb#llkkmmlibb.eewlgbbiwuegbbjxxewbb#ttuuwlkirg#bbkooxtootzlhbb#nnydabbtnnpyobbgqqtwdbbjvvttab#vvvwlbbcvvvebbhvvvwuuuwlmkjhg.....",
"...........bb#iiibiiijotekj#bbiiiktytgbb#iijdo#b#jjjwozyd.lmkjihg.ab#mmmwibbdllkleklgbbeeelw#bbwwue#bbxxxxjbbrttutxwmjhg#bboooupootzkcbbxnnl.#b#nnnpojbbeqqwu.bbqvvxpbbdvvvedbbdvvvhbbuvvnxptxwlmdjhg.....",
"..........#bbiiijc#iiiwpwmjabaiiilpylabb.iijlzbbcjjjtoopacmmkjirg.bbcmmmxibamlllwmal.baeewetab#wwuwab#xxxwcbbtttjptumjhgab#ooouyoy.al#bannnd##bmnnnjocbbqqqdx#baqvv#pbbovvyu#bbvvvz.bbvvvppypuemkjirg.....",
"..........abaiiikuaiiiioumjbb#iiiwpwabb#iijdpjbb.jjdpoo#bikddjirg#bbrmmmtmb#lllwlarljb#eewugbbcwuuxbbcxxxtab#tttpppumjhgbb#oooxyoib#mxa#nno#la#innnwoab#qqwutabcqvwlpabvvvpebbavvvp#b#vvvxpytwmdjihg......",
"..........abaiiilod#iiiktecbbciiiegabbaiiijwy#bbjjjkpm#bakddjjirgabbmmmmtya#lll.a#wml##eeweabblwueibbjxxwpbbcttltxxwmjh#bbhoootugbbhlebinnjhtai.nntyycbgqqwupabjqvlxpubvvvx#bbdvvqxbbcvvvtppxldihsg.......",
"........abbb#iiiuzndiiiicbbbbiii#bb##hiiijm#bbb#jjj#bbbb#ddjjji#bbb#mmmepyk#lll#ixeldi#eewbb#lwwwwcbbxxxwpablttutttwm.bbbbooohbbbbbmnkbinnxtpsamnnpyzabpqquxzabyvvutfthwvv#bajvvvxkbbkvvztptwmjhgg........",
"...........ghiiitozowiiijulkjiiijpyxmjiijmwtppudjjdmyytldddjjjihgg.jmmmepyxwmllluwlmdjjkwwjptwwweukpwxxxxpyitttupttwkjhg.iooottypwezndiknnnyzwhnnnnnyyhfqqonpthqvvzvptuwvvewpzvvoutptvvvttpxekisg.........",
"..........hiiiiiikoptldiiikiiiiiiiiiijjdklwxtmjjjjddddddddddddjhsimmmmmmlpxemmllllelkjjdmwwwwwelwutxexxwxppxxttxxptwkihhyyoooooozzzzndkmnnnyppuznnnyopunqqntpxwovvnpptwlwfvnqvqueuxxxvvvuttumjhg..........",
"...........ghjmwtypxwwwxtxulmkmexppxwmkkmlwuwlmkkmwxppuekdddddjhsggrikexptulmmleuxulkdddklewwweewuuwlmmeuxxwllluttxekihggghdluppxwmddkkmewxpptuwwutyytulewuttxwleeuttxwlmluttuwewwuwelmlwuuekirg..........",
"...........ghjmexxuelmlewuwlmkmeuxxuemkkmlllmkdjdkeutxwlkkkkkdjhsgghidluxuemddmewuwlkdjjdkleweeleeelkkkmewelmkmeuuwmdirgggidmwxxuemkkkmmlewxxuwlleuttuemmlwuuwlmmmeuuwlmkmleweeleeelmkkmleemdig...........",
"...........ghidmeelmdddkmllmkkkmewwemkkkkkkkdjiijdmewelmkddddjihgggridmlelmdjjdmlelmkjjiijkmmmmmmmkdjjjdmmmddddmllmkjhgggghjklwwemkdddkkkmleeelmmmlewlmkdkmlllkddkmlelkdjddmmmmmmmmkdjjdkmkdihg...........",
"...........gshjdkkddiiijdddddjddkmmkddjjjjjihhhhhjdkkkkdjjjjjihgg.gghidkkkdiiiijdkkdjihhhiijddddddjihhiijdjiiiiddkdjhsg..ghijkkkkddjjjjjjddkkkddjddkkddjjjdkkdjiijdkkdjiiiijddddddjiihhijjjihg............",
"............grhiiiihhrrhhiiiiiiiijjiiiihhhhrggggshiijjiiiihhhhgg...gghiiiiihrshhiiiihhsggghhiiiiiihrggshhhhhsrhiiiihgg...gghhijjiiiiiihhhhiiiiiihiiiiihhhhiiiihhhhiiiihhsshhiiiiiihhgggrhhhrg.............",
".............ggsrrsggggggggsggssrhhrssgggggg....gggrhhrsgggggg......gggrrsggggggsrhrggg...ggsrrrsggg..ggggggggggssgg.......ggshhrssggggggggsrrsgggsrrsgggggssggggggssggg.ggggrrrsggg...ggggg..............",
"................gg..............gggg...............gggg.................g........ggg.........ggg..............................ggg...........gg.....gg........................gggg.........................",
"..........................................................................................................................................................................................................",
"..........................................................................................................................................................................................................",
"..........................................................................................................................................................................................................",
".........................................................................................................................................................................................................."};
