P1
7 10
0000001
0000011
0000110
0001100
0001100
0011000
0110000
0110000
1100000
1000000
