P1
4 10
1111
1111
1111
1111
1111
1111
0111
0110
0110
0110
