P1
8 9
01100000
11111100
01111110
00111110
00111110
00011111
00001111
00001111
00000011
