P1
5 11
01000
11100
01111
11110
11110
11110
11110
01110
01100
01100
00100
