P1
6 11
010000
111110
111110
011110
011110
011110
001111
001111
000111
000011
000011
