P1
4 10
0010
0011
0111
0111
0111
0110
1110
1110
1100
1100
