P1
5 8
00001
00011
00011
00110
01100
11000
11000
10000
