P1
7 6
0000010
0000111
0001111
0011100
1111000
1100000
