P1
8 8
11111100
11111100
01111110
01111110
00111110
00011110
00001110
00000011
