P1
5 10
11000
11110
01111
01111
01111
01111
00111
00111
00111
00011
