P1
8 7
00001100
11111110
11111110
11111110
00111110
00001111
00000001
