/* XPM */
static char * large_karm_xpm[] = {
"48 48 245 2",
"  	c None",
". 	c #020204",
"+ 	c #4ABE3C",
"@ 	c #46BE34",
"# 	c #46BA34",
"$ 	c #42B634",
"% 	c #42B22C",
"& 	c #3EAE2C",
"* 	c #3EAA2C",
"= 	c #2E762C",
"- 	c #3AA624",
"; 	c #265224",
"> 	c #366234",
", 	c #369E24",
"' 	c #369A1C",
") 	c #32961C",
"! 	c #329214",
"~ 	c #2E8E14",
"{ 	c #2E8A14",
"] 	c #2A860C",
"^ 	c #4AC23C",
"/ 	c #46BE3C",
"( 	c #46B634",
"_ 	c #42B234",
": 	c #42AE2C",
"< 	c #A6A6A4",
"[ 	c #BEBEBC",
"} 	c #E6E6E4",
"| 	c #32921C",
"1 	c #328E14",
"2 	c #2E8614",
"3 	c #2A820C",
"4 	c #022204",
"5 	c #4EA64C",
"6 	c #E2E2E4",
"7 	c #FEFEFC",
"8 	c #DEDEDC",
"9 	c #7E7E7C",
"0 	c #868684",
"a 	c #164614",
"b 	c #FAB2B4",
"c 	c #FEB6B4",
"d 	c #727274",
"e 	c #7A7A7C",
"f 	c #8E8A8C",
"g 	c #EEEEEC",
"h 	c #523A0C",
"i 	c #8E7E64",
"j 	c #C6BEAC",
"k 	c #F2F2F4",
"l 	c #422E0C",
"m 	c #72664C",
"n 	c #9E9A8C",
"o 	c #CECECC",
"p 	c #5E5E5C",
"q 	c #6A6664",
"r 	c #EAEAEC",
"s 	c #BDBDBB",
"t 	c #B5B5B3",
"u 	c #AEAEAC",
"v 	c #B2B2EC",
"w 	c #BABAF4",
"x 	c #161614",
"y 	c #222224",
"z 	c #9292C4",
"A 	c #C2C2F4",
"B 	c #D2D2FC",
"C 	c #828284",
"D 	c #3A3A3C",
"E 	c #A2A2A4",
"F 	c #BABABC",
"G 	c #AEAEEC",
"H 	c #BEBEFC",
"I 	c #000000",
"J 	c #121214",
"K 	c #969694",
"L 	c #FF9E9E",
"M 	c #363634",
"N 	c #1A1A1C",
"O 	c #FFFFFF",
"P 	c #9A1A1C",
"Q 	c #C60E0C",
"R 	c #FF6B6B",
"S 	c #524644",
"T 	c #262624",
"U 	c #666664",
"V 	c #6A6A6C",
"W 	c #565654",
"X 	c #C2C2C4",
"Y 	c #7A1E1C",
"Z 	c #9E0204",
"` 	c #DE0A0C",
" .	c #8E8E8C",
"..	c #C6C6C4",
"+.	c #9E9E9C",
"@.	c #020A04",
"#.	c #CEDBDE",
"$.	c #EEF6F8",
"%.	c #F2F9FB",
"&.	c #F3F9FB",
"*.	c #F1F8FA",
"=.	c #EDF7FA",
"-.	c #E7F3F6",
";.	c #424244",
">.	c #CACACC",
",.	c #0E0E0C",
"'.	c #F8FBFD",
").	c #F1F4F5",
"!.	c #F8FCFD",
"~.	c #F6FBFC",
"{.	c #808080",
"].	c #B3B3B5",
"^.	c #F8F9FB",
"/.	c #F8FBFB",
"(.	c #E2EAEB",
"_.	c #E8F4F8",
":.	c #3EA624",
"<.	c #5A5A5C",
"[.	c #FDFEFE",
"}.	c #636363",
"|.	c #D6D6D4",
"1.	c #E8F5F9",
"2.	c #767674",
"3.	c #0A260C",
"4.	c #3AA224",
"5.	c #2A2A2C",
"6.	c #F3F4F3",
"7.	c #F7FAFA",
"8.	c #F7FBFD",
"9.	c #F6F6F4",
"0.	c #E7F5F8",
"a.	c #E1EAEC",
"b.	c #BEBABC",
"c.	c #E2E9EA",
"d.	c #FCFDFE",
"e.	c #FCFEFE",
"f.	c #EEF8FA",
"g.	c #E4F3F8",
"h.	c #E6F4F8",
"i.	c #E1EEF1",
"j.	c #1A1E1C",
"k.	c #666264",
"l.	c #F7FBFC",
"m.	c #FBFDFE",
"n.	c #F9FCFD",
"o.	c #E6AAAC",
"p.	c #DEF1F6",
"q.	c #3A9E24",
"r.	c #626264",
"s.	c #CFEAF1",
"t.	c #F0F3F5",
"u.	c #FBFDFD",
"v.	c #E3F3F7",
"w.	c #DCE8EB",
"x.	c #4A4A4C",
"y.	c #F1F8F9",
"z.	c #F5FBFC",
"A.	c #F4F9F9",
"B.	c #E2F3F7",
"C.	c #E1F1F5",
"D.	c #DDF1F6",
"E.	c #DDF0F6",
"F.	c #C9E5EE",
"G.	c #F4FAFC",
"H.	c #F5FAFC",
"I.	c #B24A4C",
"J.	c #E0F2F7",
"K.	c #DCF0F6",
"L.	c #DCF0F5",
"M.	c #DBF0F5",
"N.	c #C3E0EA",
"O.	c #DADADC",
"P.	c #6A7274",
"Q.	c #8EA2AC",
"R.	c #C00000",
"S.	c #D9EFF5",
"T.	c #BDDBE6",
"U.	c #F0F9FB",
"V.	c #B2B3B5",
"W.	c #EFF8FB",
"X.	c #EFF8FA",
"Y.	c #EBF6F9",
"Z.	c #8E9AA4",
"`.	c #CAD6D7",
" +	c #D2ECF3",
".+	c #D4EDF3",
"++	c #D5EDF4",
"@+	c #D6EDF4",
"#+	c #B7D6E2",
"$+	c #EEF7FA",
"%+	c #ECF7FA",
"&+	c #E9F5F9",
"*+	c #E6F6F6",
"=+	c #CDE9F1",
"-+	c #D0EBF2",
";+	c #D3ECF3",
">+	c #B0D1DF",
",+	c #EDF6F8",
"'+	c #ECF5F8",
")+	c #E9F6F9",
"!+	c #D3EAF1",
"~+	c #AACCDB",
"{+	c #FEEEEC",
"]+	c #62625C",
"^+	c #E3EAEE",
"/+	c #E9F4F7",
"(+	c #CFEAF2",
"_+	c #CEE0E4",
":+	c #A4C7D7",
"<+	c #36961C",
"[+	c #FEBEBC",
"}+	c #8A8A8C",
"|+	c #ECF6F9",
"1+	c #E2F2F7",
"2+	c #DFF1F6",
"3+	c #D0EBF3",
"4+	c #CEEAF2",
"5+	c #D1EBF2",
"6+	c #FEF2F4",
"7+	c #FEAEAC",
"8+	c #D6EEF4",
"9+	c #D0E6ED",
"0+	c #9ABECC",
"a+	c #FED6D4",
"b+	c #FEBABC",
"c+	c #2A2E2C",
"d+	c #D7EEF4",
"e+	c #CFEBF2",
"f+	c #CCE0E6",
"g+	c #9EC2D4",
"h+	c #D1E6EC",
"i+	c #021204",
"j+	c #1E1E1C",
"k+	c #E3F2F7",
"l+	c #DCE9EB",
"m+	c #B6B6B5",
"n+	c #CFDFE4",
"o+	c #063A04",
"p+	c #0A720C",
"q+	c #164A14",
"r+	c #1A3E1C",
"s+	c #023604",
"t+	c #121E14",
"u+	c #424644",
"v+	c #021604",
"                                                                                                ",
"                                                                                                ",
"      . . . . . . . . . . . . . . . . . . . . . . . . . . . . . . . . . . . . . . . . .         ",
"    . + @ @ # # # $ $ $ % % & & & * * = - = ; ; > , = , ' ' ) ) ) ! ! ! ~ ~ { { { ] ] ] . .     ",
"    . ^ + / @ # # ( $ $ _ % % : & * * = < [ } } [ < = , ' ' ' ) ) | | ! 1 ~ ~ { { 2 ] 3 4 .     ",
"    . @ 5 6 7 7 7 7 7 7 7 7 7 7 7 7 7 7 8 9 [ [ 0 8 7 7 7 7 7 7 7 7 7 7 7 7 7 7 6 9 a 3 4 .     ",
"    . @ 8 7 7 7 7 7 7 7 7 7 7 7 7 7 7 7 7 8 0 0 6 7 7 7 7 7 7 7 7 7 7 7 7 7 7 7 7 6 9 a 4 .     ",
"    . # 6 7 b 7 c 7 7 7 7 7 7 7 7 7 7 7 7 6 d e 8 7 7 7 7 7 7 7 7 7 7 7 7 b 7 b 7 7 9 a 4 .     ",
"    . # 6 7 c 7 c c 7 7 7 7 7 7 7 7 7 7 7 8 d e 6 7 7 7 7 7 7 7 7 7 7 7 7 c 7 c b 7 9 a 4 .     ",
"    . # 8 7 b 7 7 b 7 7 7 7 7 7 7 7 [ f } 6 d e 8 g f [ 7 7 7 7 7 7 7 7 7 b 7 7 b 7 9 a 4 .     ",
"    . # 6 7 7 7 7 7 7 7 7 7 7 7 7 6 f h i j 7 7 j i h f 6 7 7 7 7 7 7 7 7 7 7 7 7 k 9 a 4 .     ",
"    . $ 8 7 7 7 7 7 7 7 7 7 7 7 7 8 f l m n o o n m l f 8 7 7 7 7 7 7 7 7 7 7 7 7 g 9 a 4 .     ",
"    . $ 6 7 7 7 7 7 7 7 7 7 7 7 7 7 [ f } 8 d e 8 g f [ 7 7 7 7 7 7 7 7 7 7 7 7 7 k 9 a 4 .     ",
"    . ( 8 7 7 7 7 7 7 7 7 7 7 7 7 7 7 7 } [ p q [ r 7 7 7 7 7 7 7 7 7 7 7 7 7 7 7 g 9 a 4 .     ",
"    . _ 6 7 s s s t t t t t u u u 7 7 7 7 8 d e 8 7 7 7 7 s s s t t t t t u u u u k 9 a 4 .     ",
"    . % 8 7 7 7 7 7 7 7 7 7 7 7 7 7 7 7 7 6 d e 6 7 7 7 7 7 7 7 7 7 7 7 7 7 7 7 7 7 9 a 4 .     ",
"    . % 6 7 v 7 v w 7 7 7 7 7 7 7 7 7 7 7 8 d e 6 7 7 7 7 7 7 x x x y 7 7 z k A B 7 9 a 4 .     ",
"    . & 8 7 w 7 w 7 7 7 7 7 7 7 7 7 7 7 7 6 d C 8 7 7 7 7 7 D q 9 E F D 7 G g B H 7 9 a 4 .     ",
"    . : 6 7 v 7 r H 7 7 7 7 7 7 7 7 7 7 7 u I I u 7 7 7 7 7 J q 9 E F . 7 v 7 7 v K I I 4 .     ",
"    . & 8 7 7 7 7 7 7 7 7 7 7 7 7 7 7 7 7 y L L . 7 7 7 J . . . . . . . . M 7 7 7 N O 6 . .     ",
"    . * 6 7 7 7 7 7 7 7 7 7 7 7 7 7 7 7 I P Q R L S y T p U U U U U U V V W y y I O 6 X e .     ",
"    . * 8 7 7 7 7 7 7 7 7 7 7 7 7 7 7 7 I Y Z ` R S M D e  .[ [ [ [ [ [ 0 V M M D 6 ..+.W .     ",
"    . * 6 7 7 7 7 7 7 7 7 7 7 7 7 7 7 7 7 M Y Z @.p 9 0 [ #.$.%.&.*.=.-.#.[ 0 C ;.M +.W . .     ",
"    . - 8 7 s s s t t t t t u u u 7 7 7 7 >.I ,.C 9 [ #.'.).!.~.{.].^./.(._.#.[ 9 U . I 4 .     ",
"    . :.6 7 7 7 7 7 7 7 7 7 7 7 7 7 7 7 7 <.;.p 9 E #.[.}.|.!.~.{.O 7 7 u }.1.#.[ 2.<.3.. .     ",
"    . 4.8 7 v 7 v 7 7 7 7 7 7 7 7 7 7 7 r 5.M C [ #.6.O |.u 7.8.{.O 9.7 Q [ 0.a.#.[ 9 x . .     ",
"    . 4.6 7 w 7 w H 7 7 7 7 7 7 7 7 7 7 b.T M 0 #.c.d.[.O e.e.!.{.O f.g.Q 0.h.g.i.#.9 j.. .     ",
"    . 4.8 7 v 7 H B 7 7 7 7 7 7 7 7 7 7 0 W k.[ l.}.|.m.[.O e.n.{.O g.Q o.h.g.|.}.p.[ d ;..     ",
"    . q.6 7 7 7 7 7 7 7 7 7 7 7 7 7 7 7 D r.[ s.t.|.u e.u.e.O m.{.f.g.Q g.v.v.u |.w.s.[ x..     ",
"    . , 8 7 7 7 7 7 7 7 7 7 7 7 7 7 7 7 . U [ y.z.~.A.e.!.n.m.O {.p.Q o.B.C.v.p.D.E.F.[ x..     ",
"    . q.6 7 7 7 7 7 7 7 7 7 7 7 7 7 7 7 . U [ &.G.G.G.H.z.~.8.n.{.I.Q J.p.E.K.L.M.M.N.[ x..     ",
"    . ' 8 7 7 7 7 7 7 7 7 7 7 7 7 7 7 7 . V [ %.}.[ O.%.%.%.%.%.P.Q.R.S.S.S.S.o u }.T.[ x..     ",
"    . ' 6 7 s s s t t t t t u u u 7 7 7 . V [ U.V.o } W.X.f.=.Y.Z.`.P. +.+++@+8 ..V.#+[ x..     ",
"    . ' 8 7 7 7 7 7 7 7 7 7 7 7 7 7 7 7 . U [ X.X.f.$+=.%+Y.&+h.P.P.*+=+-+ +;+.+++++>+[ x..     ",
"    . ' 6 7 v 7 v w 7 7 7 7 7 7 7 7 [ f . V [ ,+=.%+'+0.)+1.h.B.p.S..+-+=+!+=+ +;+;+~+[ x..     ",
"    . ) 8 7 w 7 7 B 7 {+7 7 7 7 7 6 f h I ]+[ s.^+|.u /+0.h.v.J.E.S.++ +(+=+ +u |._+:+[ x..     ",
"    . <+6 7 v 7 H 7 7 [+7 7 7 7 7 6 }+l m I W [ |+}.|.0.h.g.1+2+K.S.@+ +3+4+=+|.}.5+[ p M .     ",
"    . | 8 6+7 7 7 7 7+{+7 7 7 7 7 7 [ }+[ y M [ F.1.0.h.g.g.0.p.L.S.8+=+ +-+4+=+9+0+[ N . .     ",
"    . | 8 7 a+b+7+[+{+7 7 7 7 7 7 7 7 7 r c+M 9 [ F.a.g.|.u 2+D.o 8 d+++u |.e+f+0+[ 9 x . .     ",
"    . | 8 7 7 7 7 7 7 7 7 7 7 7 7 7 7 7 7 C I ;.C [ g+i.}.|.2+E.u X d+++|.}.h+0+[ d M 3.i+.     ",
"    . ! 6 7 7 7 7 7 7 7 7 7 7 7 7 7 7 7 7 d d j+U e [ g+k+l+p.K.}.m+d+@+n+0+0+[ 2.<.x o+4 .     ",
"    . ~ = 6 7 7 7 7 7 7 7 7 7 7 7 7 7 7 6 d C C . <.9 [ [ g+g+g+g+g+g+0+0+[ [ 9 M x 9 a 4 .     ",
"    . { p+q+q+q+q+q+q+q+q+q+q+q+q+q+q+r+V e K K s+t+N N 2.[ [ [ [ [ [ [ [ r.N x 3.o+q+q+4 .     ",
"    . ~ { p+a a a a a a a a a a a a a r+q+i+. . . @.. . u+x.x.x.x.x.x.x.x.M . . v+a a a . .     ",
"      . . . . . . . . . . . . . . . . . . . . . . . . . . . . . . . . . . . . . . . . . . .     ",
"        . . . . . . . . . . . . . . . . . . . . . . . . . . . . . . . . . . . . . . . . . .     ",
"                                                                                                ",
"                                                                                                "};
