/* XPM */
static char * khexdit_xpm[] = {
"32 32 113 2",
"  	c None",
". 	c #000000",
"+ 	c #8A8ABC",
"@ 	c #C0C0FF",
"# 	c #FFFFFF",
"$ 	c #FFFFC0",
"% 	c #C0C000",
"& 	c #C0C0C0",
"* 	c #D6D6D4",
"= 	c #D3925D",
"- 	c #F3AD71",
"; 	c #DEBAA6",
"> 	c #808080",
", 	c #4A321D",
"' 	c #F4AE70",
") 	c #FEDEAC",
"! 	c #ED7C1B",
"~ 	c #F1A86A",
"{ 	c #D7A88D",
"] 	c #585858",
"^ 	c #4C331E",
"/ 	c #F7B070",
"( 	c #F68D28",
"_ 	c #EA7004",
": 	c #B85404",
"< 	c #945125",
"[ 	c #6A2E04",
"} 	c #E5A065",
"| 	c #FD9228",
"1 	c #FA7B04",
"2 	c #BE5904",
"3 	c #8A3C04",
"4 	c #F3AA6A",
"5 	c #FE8E1C",
"6 	c #C25C04",
"7 	c #8C3C04",
"8 	c #FCB573",
"9 	c #FE9123",
"0 	c #F87D04",
"a 	c #C05B04",
"b 	c #F1A868",
"c 	c #FD952A",
"d 	c #FE8204",
"e 	c #C05C04",
"f 	c #F0A566",
"g 	c #FD901F",
"h 	c #FC8002",
"i 	c #C56004",
"j 	c #FDB573",
"k 	c #FD8B1B",
"l 	c #F67C02",
"m 	c #BE5A03",
"n 	c #8A3B04",
"o 	c #562806",
"p 	c #F5AD6D",
"q 	c #FC9429",
"r 	c #F77C02",
"s 	c #BF5C03",
"t 	c #8A3C03",
"u 	c #542504",
"v 	c #EDA363",
"w 	c #F88E26",
"x 	c #FA7E02",
"y 	c #C35E03",
"z 	c #532403",
"A 	c #838383",
"B 	c #EEA366",
"C 	c #FCC58B",
"D 	c #F0821C",
"E 	c #EC7202",
"F 	c #BD5903",
"G 	c #8C3D03",
"H 	c #4E2204",
"I 	c #AEAEAE",
"J 	c #E9AB79",
"K 	c #EE7F1D",
"L 	c #E96F02",
"M 	c #BB5703",
"N 	c #A9A9A9",
"O 	c #E3B8A3",
"P 	c #F8C6A3",
"Q 	c #EA8125",
"R 	c #E76C02",
"S 	c #BA5603",
"T 	c #893D09",
"U 	c #8383AE",
"V 	c #E1E1E1",
"W 	c #C29A88",
"X 	c #F8D0BA",
"Y 	c #EEB897",
"Z 	c #CD885F",
"` 	c #B05B1E",
" .	c #8B3C04",
"..	c #E4B6A6",
"+.	c #EAB99E",
"@.	c #C27F5F",
"#.	c #9D5F45",
"$.	c #854F3B",
"%.	c #A87867",
"&.	c #E0B49C",
"*.	c #CB8A6A",
"=.	c #925640",
"-.	c #6E3E24",
";.	c #5E2604",
">.	c #827A64",
",.	c #92634E",
"'.	c #895136",
").	c #A9A9E1",
"!.	c #5E564C",
"~.	c #1F1D1C",
"{.	c #3E3A2C",
"].	c #2A2624",
"^.	c #C6C6C6",
"                      . . .                                     ",
"                    . . . . . .                                 ",
"                . . . . . . . . . .                             ",
"                . + @ @ . . @ @ + .                             ",
"  . . . . . . . . # # # # # # # # . . . . . . . .               ",
". $ $ $ $ $ $ $ . + @ @ @ @ @ @ + . % $ $ $ $ $ $ .             ",
". $ # # # # # # # . . . . . . . . & * # # # # # & .             ",
". $ # # # # # # # # & & & & & & * * # # # # # # & .             ",
". $ # # # # # # # # # . # # # # # # # # # # # # & .   . . .     ",
". $ # # # # # # # # . # . # # # # # # # # # # # & . . = - ; .   ",
". $ # @ @ @ @ @ @ . > & # . @ @ @ @ @ @ @ @ @ # & , ' ) ! ~ { . ",
". $ # # # # # # # ] . > & # . # # # # # # # # # ^ / ) ( _ : < . ",
". $ # # # # # . # & ] . & & # . # # # # # # # [ } ) | 1 2 3 .   ",
". $ # # # # . # . # . # & & & # . # # # # # [ 4 ) 5 1 6 7 .     ",
". $ # @ @ . > & # . # & > . > & # . @ @ @ [ 8 ) 9 0 a 3 .       ",
". $ # # # ] . > & & & > . ] . > . ] # # [ b ) c d e 3 .         ",
". $ # # # & ] . > & & . ] & ] . ] & # [ f ) g h i 7 .           ",
". $ # # # # > ] . > & # . # > > > # [ j ) k l m n o             ",
". $ # @ @ @ @ & ] . > & # . @ @ @ [ p ) q r s t u .             ",
". $ # # # # # # & ] . > . ] # # [ v ) w x y t z A .             ",
". $ # # # # # # # & ] . ] & # [ B C D E F G H I A .             ",
". $ # # # # # # # # > > > # [ J ) K L M t H I I N .             ",
". $ # @ @ @ @ @ @ @ @ @ @ [ O P Q R S T H U U V N .             ",
". $ # # # # # # # # # # # W X Y Z `  .H I I V V & .             ",
". $ # # # # # # # # # # [ ..+.@.#.$.H I I V V # & .             ",
". $ # # # # # # # # # # %.&.*.=.-.;.I I V V # # & .             ",
". $ # @ @ @ @ @ @ @ @ @ >.,.'.H U U ).).).@ @ # & .             ",
". $ # # # # # # # # # !.~.{.I I V V V # # # # # & .             ",
". $ # # # # # # # # # ].].^.V V V # # # # # # # & .             ",
". $ # # # # # # # # # # # # # # # # # # # # # # & .             ",
". & & & & & & & & & & & & & & & & & & & & & & & & .             ",
"  . . . . . . . . . . . . . . . . . . . . . . . .               "};
