/* XPM */
static char * large_khexdit_xpm[] = {
"44 44 140 2",
"  	c None",
". 	c #020204",
"+ 	c #060604",
"@ 	c #06060C",
"# 	c #7E7EAC",
"$ 	c #AEAEE4",
"% 	c #000000",
"& 	c #4E4E64",
"* 	c #8E8EBC",
"= 	c #2E2E3C",
"- 	c #A6A6BC",
"; 	c #E2E2FC",
"> 	c #B2B2BC",
", 	c #8A8A8C",
"' 	c #8E8E8C",
") 	c #D2D2EC",
"! 	c #3A3A3C",
"~ 	c #F6F6FC",
"{ 	c #F2F2FC",
"] 	c #424244",
"^ 	c #FEFEBC",
"/ 	c #E6E6AC",
"( 	c #8A8ABC",
"_ 	c #BEBEFC",
": 	c #323234",
"< 	c #3A3A04",
"[ 	c #C2C20C",
"} 	c #FAFAAC",
"| 	c #FEFEC4",
"1 	c #FEFECC",
"2 	c #FEFEF4",
"3 	c #FAFAEC",
"4 	c #CECECC",
"5 	c #52525C",
"6 	c #22222C",
"7 	c #1E1E1C",
"8 	c #7A7A7C",
"9 	c #A6A69C",
"0 	c #BEBEBC",
"a 	c #F6F6F4",
"b 	c #CACABC",
"c 	c #FEFED4",
"d 	c #FEFEFC",
"e 	c #929294",
"f 	c #5E5E5C",
"g 	c #4E4E4C",
"h 	c #A2A2A4",
"i 	c #CACAC4",
"j 	c #DEDEDC",
"k 	c #EEEEEC",
"l 	c #C6C6C4",
"m 	c #D6D6D4",
"n 	c #FAFAFC",
"o 	c #DA8E4C",
"p 	c #F6C2A4",
"q 	c #D69E7C",
"r 	c #EE9A54",
"s 	c #EEAE7C",
"t 	c #F6A254",
"u 	c #FEE2D4",
"v 	c #121214",
"w 	c #FFFFFF",
"x 	c #FEAA5C",
"y 	c #F6B684",
"z 	c #FEBA84",
"A 	c #EA6E04",
"B 	c #2A2A34",
"C 	c #FEDEAC",
"D 	c #EE7204",
"E 	c #9A4604",
"F 	c #B6826C",
"G 	c #C2C2FC",
"H 	c #363634",
"I 	c #3E3E3C",
"J 	c #FA7E04",
"K 	c #FA7A04",
"L 	c #F27604",
"M 	c #8A3A04",
"N 	c #662E04",
"O 	c #6A2E04",
"P 	c #FE7E04",
"Q 	c #7A3604",
"R 	c #0A0A0C",
"S 	c #FE8204",
"T 	c #2E2E2C",
"U 	c #CACACC",
"V 	c #9E9E9C",
"W 	c #727274",
"X 	c #F2F2F4",
"Y 	c #C2C2C4",
"Z 	c #626264",
"` 	c #828284",
" .	c #B4B4B3",
"..	c #E9E9E7",
"+.	c #B2B2B4",
"@.	c #CDCDCB",
"#.	c #16161C",
"$.	c #8A8AB3",
"%.	c #9D9DCB",
"&.	c #B2B2E7",
"*.	c #F67A04",
"=.	c #868684",
"-.	c #4E2204",
";.	c #1E0E04",
">.	c #FABE84",
",.	c #CECECE",
"'.	c #9C9C92",
").	c #818183",
"!.	c #222224",
"~.	c #B6766C",
"{.	c #FACEB4",
"].	c #EE8A34",
"^.	c #E26A04",
"/.	c #723A1C",
"(.	c #98989A",
"_.	c #AFAFB0",
":.	c #BE7E64",
"<.	c #72729A",
"[.	c #8181B0",
"}.	c #A7A7A9",
"|.	c #AAAAAC",
"1.	c #FAD6C4",
"2.	c #EEBEA4",
"3.	c #D2926C",
"4.	c #B66E54",
"5.	c #925A3C",
"6.	c #8A5244",
"7.	c #E2E2E4",
"8.	c #6E3E24",
"9.	c #7A4A3C",
"0.	c #5E2604",
"a.	c #B69284",
"b.	c #827A64",
"c.	c #6A4A44",
"d.	c #5E564C",
"e.	c #2A2624",
"f.	c #3E3A2C",
"g.	c #AAAAD4",
"h.	c #BABABC",
"i.	c #DADADC",
"                          . . . . . . . .                                               ",
"                          . . . . . . . .                                               ",
"                      + @ # $ . . . + $ # % +                                           ",
"                    . # $ $ $ & . . * $ $ $ # =                                         ",
"                    . - ; ; ; > , ' ) ; ; ; - !                                         ",
"  . . . . . . . . . . > ~ { { { ~ { { ~ ~ ~ > ] . . . . . . . . .                       ",
". ^ ^ ^ ^ ^ ^ ^ ^ / . ( _ _ _ _ _ _ _ _ _ _ # : < [ } | ^ ^ ^ ^ ^ .                     ",
". 1 2 2 2 2 2 2 2 3 4 5 6 6 6 6 6 6 7 6 6 6 6 8 9 0 2 2 2 2 2 a b .                     ",
". c d d d d d d d d d e f g g g & g & g g g g h i j d d d d d ~ 0 .                     ",
". c d d d d d d d d d d k l l l l l l l l l l l m d d d d d d 3 0 .                     ",
". c d d d d d d d d d d d d d d d d d d d d d d d d d d d d d n 0 .         . . .       ",
". c d d d d d d d d d d d d d d d d d d d d d d d d d d d d d ~ 0 .       . o p q .     ",
". c d d d d d d d d d d d d . . d d d d d d d d d d d d d d ~ n 0 .     . r s t u p .   ",
". c d d d d d d d d d d n v m w . d d d d d d d d d d d d d d a 0 .   . x y z A t u q . ",
". c d n n n n n n n n d B ' 0 m w . d d d d d d d d d d d d n n 0 . . x z C D A A E F . ",
". c d G G G G G G G _ _ H I ' 0 m w . _ _ G _ _ _ _ _ G _ _ G a 0 . x z C J K L E M N . ",
". c d d d d d d d d d d d v I ' 0 m w . d d d d d d d d d d d n O x z C P P K E M Q .   ",
". c d d d d d n . 7 d d d d R I 0 0 m w . d d d d d d d d d d O x z C S P P E M Q .     ",
". c d d d d d . m ~ T d d d . U 0 0 0 m w . d d d d d d d d O x z C P S P E M Q .       ",
". c n d d d . ' 0 m a . d . m 0 V W ' 0 m w . d d d d d d O x z C S S S E M Q .         ",
". c d _ _ _ R I ' 0 m X . a Y e Z R I ' 0 m w % _ G G _ O x z C P S S E M Q .           ",
". c d d d d d % I ' Y m X 0 ` ! R  .R I ' 0 m % ..d d O x z C S S S E M Q .             ",
". c d d d d d d % I ' +.m a T H  .@. .% I ' %  .@...O x z C P S P E M Q .               ",
". c d d d d d d d % I ' +.m a ]  .@.@. .% %  .@.@.O x z C P J S E M Q .                 ",
". c d d d d d d d d % I ' 0 m a B  .@.@. . .@.@.O x z C J S J E M Q .                   ",
". c d G _ _ G G G G G % I ' 0 m 0 #.$.%.%.%.&.O t z C *.*.S E M Q .                     ",
". c d d d d d d d d d d % I ' =.m H  .@.....O r z C D L L E M Q -.;.                    ",
". c d d d d d d d 3 d d d % I ' 7  .@.....O o s >.D D L E M Q -.W +                     ",
". c d d d d d d d d d d d d % %  .@.,...O p u t A A D E M Q -.'.).!.                    ",
". c d d d d d d d d d d d d d ..@.@.....~.u {.].^.A E M /.-.(._.).!.                    ",
". c d G G G G _ G G G _ G G G G &.&.&./.u {.p q :.E M Q -.<.[.}.|.!.                    ",
". c d d d d d d d d d d d n d d d ..d ~.1.2.3.4.5.6.N -.'._._.7.9 !.                    ",
". c d d d d d d d d d d d d d d d d 8.u {.3.4.5.9.8.0.(._.}.7.7.0 :                     ",
". c d d d d d d d d d d d d d d d d ~.a.3.4.9./.0.(.'._.}.7.7.d Y H                     ",
". c d d d d d d d d d d d d d d d d b.c.5.8.0.'.(.}._.7.7.7.2 a 0 :                     ",
". c d G G G G G G G G G G G G _ _ d.. e.f.<.<.[.[.g.g.g.G _ G d 0 H                     ",
". c d d d d d d d d d d d d d d d . e.(.(._._.7.7.7.d d d d d d 0 :                     ",
". c d d d d d d d d d d d d d d d j h._._.7.j 7.d d d d d d d d 0 H                     ",
". c d d d d d d d d d d d d d d d d 3 j i.7.2 d d d d d d d d d 0 :                     ",
". c d d d d d d d d d d d d d d d d d 2 d d d d d d d d d d d n 0 H                     ",
". c d d d d d d d d d d d d d d d d d d d d d d d d d d d d d d 0 :                     ",
". 0 0 0 0 0 0 0 0 0 0 0 0 0 0 0 0 0 0 0 0 0 0 0 0 0 0 0 0 0 0 0 0 .                     ",
"  . . . . . . . . . . . . . . . . . . . . . . . . . . . . . . . .                       ",
"                                                                                        "};
