/* XPM */
/* Drawn  by Nico Shirwing for the K Desktop Environment */
/* See http://www.kde.org */
static char*khexdit[]={
"16 16 11 1",
"# c #000000",
"f c #ff8000",
"c c #c0c0c0",
"g c #a0a0a4",
"i c #c0c0c0",
"e c #ffffc0",
"d c #585858",
"h c #a0a0a4",
"a c #c0c0ff",
"b c #ffffff",
". c None",
".....###........",
"....#a#a#.......",
".####aaa####....",
"#bbbb###cbbb#...",
"#bbbbbbbbbbb#...",
"#baaac#aaaab#.#.",
"#bbbbdc#bbbb##e#",
"#bacdbdc#aab#ef#",
"#bb#cd#ddbb#ef#.",
"#bag#cdhaa#ef#..",
"#bbbi#dbb#ef#...",
"#baaahaa#ef##...",
"#bbbbbb#cf#c#...",
"#baaaaa###ab#...",
"#bbbbbbbbbbb#...",
".###########...."};

