/* XPM */
static char * kfax_xpm[] = {
"34 34 131 2",
"  	c None",
". 	c #020204",
"+ 	c #7E827C",
"@ 	c #82827C",
"# 	c #C2C2C4",
"$ 	c #42423C",
"% 	c #96A674",
"& 	c #E2464C",
"* 	c #62625C",
"= 	c #AAE23C",
"- 	c #BE8E8C",
"; 	c #92928C",
"> 	c #72726C",
", 	c #B2B2AC",
"' 	c #E2E2E4",
") 	c #52524C",
"! 	c #F2F2F4",
"~ 	c #8A8A84",
"{ 	c #22221C",
"] 	c #D6D2D4",
"^ 	c #A2A2A4",
"/ 	c #6A6A64",
"( 	c #929A7C",
"_ 	c #32322C",
": 	c #767A74",
"< 	c #EAEAEC",
"[ 	c #5A5A54",
"} 	c #AAAAA4",
"| 	c #4A4A44",
"1 	c #BABABC",
"2 	c #FAFAFC",
"3 	c #928E94",
"4 	c #3A3A34",
"5 	c #8A868C",
"6 	c #CECACC",
"7 	c #BAB6B4",
"8 	c #8E8E84",
"9 	c #DADAD4",
"0 	c #726E84",
"a 	c #9A9A94",
"b 	c #7E7A7C",
"c 	c #828684",
"d 	c #6A6664",
"e 	c #969694",
"f 	c #B6B6B4",
"g 	c #FAF6F4",
"h 	c #726E74",
"i 	c #F2EEEC",
"j 	c #625E64",
"k 	c #AEAEAC",
"l 	c #9E9E9C",
"m 	c #464644",
"n 	c #666664",
"o 	c #767674",
"p 	c #EAE6EC",
"q 	c #565654",
"r 	c #2A2A2C",
"s 	c #A6A6A4",
"t 	c #6A6E64",
"u 	c #363634",
"v 	c #5E5E54",
"w 	c #4E4E4C",
"x 	c #E2DEDC",
"y 	c #02FE04",
"z 	c #C6C6C4",
"A 	c #66626C",
"B 	c #92929C",
"C 	c #767274",
"D 	c #B6B2B4",
"E 	c #E6E6E4",
"F 	c #52525C",
"G 	c #F6F6F4",
"H 	c #8E8A8C",
"I 	c #7A7A74",
"J 	c #EEEEEC",
"K 	c #AEAAAC",
"L 	c #FEFEFC",
"M 	c #3E3E3C",
"N 	c #CECED4",
"O 	c #8E8E94",
"P 	c #DEDEDC",
"Q 	c #9E9A9C",
"R 	c #7E7E7C",
"S 	c #868684",
"T 	c #7E8A7C",
"U 	c #828284",
"V 	c #C6C2C4",
"W 	c #424244",
"X 	c #8EAE4C",
"Y 	c #626264",
"Z 	c #A29EA4",
"` 	c #929294",
" .	c #727274",
"..	c #B2B2B4",
"+.	c #E6E2E4",
"@.	c #525254",
"#.	c #F6F2EC",
"$.	c #8A8A8C",
"%.	c #222224",
"&.	c #DAD6D4",
"*.	c #A6A2A4",
"=.	c #6A6A6C",
"-.	c #323234",
";.	c #EEEAEC",
">.	c #5A5A5C",
",.	c #AAAAAC",
"'.	c #4A4A4C",
").	c #BEBEBC",
"!.	c #FEFAFC",
"~.	c #968E9C",
"{.	c #3A3A3C",
"].	c #8E8E8C",
"^.	c #DADADC",
"/.	c #9A9A9C",
"(.	c #96969C",
"_.	c #B6B6BC",
":.	c #FAF6FC",
"<.	c #F2EEF4",
"[.	c #AEAEB4",
"}.	c #9E9EA4",
"|.	c #46464C",
"1.	c #2E2E2C",
"2.	c #A6A6AC",
"3.	c #6E6E6C",
"4.	c #36363C",
"5.	c #5E5E5C",
"6.	c #4E4E54",
"7.	c #7A7A7C",
"8.	c #D2CED4",
"9.	c #7E7E84",
"0.	c #86868C",
"                                                                    ",
"                                          . .                       ",
"                                        . s r . .                   ",
"                                        . G L s  .. .               ",
"                                        . 2 L L L P k . .           ",
"                                        . L ` ^ ' L L L $.. .       ",
"                                      . 1 L J ^./.3 L L L #.D .     ",
"                                      . ! L L L 2 L L L L G x k .   ",
"                                      . L L L U ..J L L L G E Y .   ",
"                        . . . . .   . U L O ^ 2 9 9.(.J G g p .     ",
"                    . . s s ; ; ~ . . _.G 2 ^.U ^ 2 ^.S /.#.] .     ",
"                . . s ; > >.@.'.m o u 9 ! ~ ^ ' ^.^ R J ^.;.H .     ",
"            . . @ [.o n n 5.[ @.w {.-.E L 2 2 L L !.^.s H ^.n .     ",
"        . .  ., ` o 3.3.n 5.5.| 1.Y 5.J !.L H ; < L !.<.+.8..       ",
"      . e ^ /.0.U 7. .=.n >.-.Y } Z 6.6 p :.G ^.@ ; ] x +.*..       ",
"    . e , $.@ @ 9.7. .'.M '.} k } k o @.Y K x p +.] o H ] H .       ",
"    . ).].9.R S I n { >.R }.O >./ B = ( 0 4.* K 6 V 1 *.K 7..       ",
"    . z l ].0.$.q -.$.$.R =.5.e ~ 3./ X = %  .4.|.5 Q Z }..         ",
"    . l k } s 3.u 7.S U 5.Y e L ,.~ : Y t X = O - =.@. .3 .         ",
"      . . 3.n r ..e =.@.3.` l e ; L K 3 C j + - & - 7.{ '.M . .     ",
"    . -.. 1.1.5.> # | 3.e ~ _.L ,./.c L k ; t t - y T s , 1.| $ .   ",
"  . c . 5.M  .I R # n O } L k $.; L } + 3 ,.,.Y : 9.D @ [ @.w $ .   ",
"    . w 6.` S S R R ).# (.U ).L ,./.U L k > n  .Z ^ >.6.w '.|.M .   ",
"      . .  .S S S U I R ).# c $.l L k /.I n S k + q w @.w w | $ .   ",
"          . . / @ 9.o o 3. .# ).S U , n + ; ..d ) q ) 6.w | m M .   ",
"              . . / :  .> 3.n  .).# U q n ..w [ [ ) @.) '.|.W $ .   ",
"                  . . =.> 3./ Y >.3.# >.) , ) @.@.q w w | | W M .   ",
"                      . . q n n Y >.[ q './.@.q @.) @.w w M . .     ",
"                          . . @.n >.q q w /.@.q @.q w W . .         ",
"                              . . w q q '.a ) ) w $ . .             ",
"                                  . . w 6.$.'.$ . .                 ",
"                                      . . U . .                     ",
"                                          .                         ",
"                                                                    "};
