/* XPM */
static char *magick[] = {
/* columns rows colors chars-per-pixel */
"90 120 8 1",
"  c #ffffff",
". c #595959",
"X c #808080",
"o c #c0c0c0",
"O c #000000",
"+ c #dfdfdf",
"@ c #303030",
"# c #a0a0a4",
/* pixels */
"                                                                                          ",
"                                                                                          ",
"                                                                                          ",
"                                                                                          ",
"                                                                                          ",
"                                                                                          ",
"                                                                                          ",
"                                                                                          ",
"                                                                                          ",
"                                                                                          ",
"                                                                                          ",
"                                                                                          ",
"                                                                                          ",
"                                                                                          ",
"                                                                                          ",
"                                                                                          ",
"                                                                                          ",
"                                                                                          ",
"                                                                                          ",
"                                                                                          ",
"                                                                                          ",
"                                                                                          ",
"                                                                                          ",
"                                                                                          ",
"                                                                                          ",
"                                                                                          ",
"                                                                                          ",
"                                                                                          ",
"                                                                                          ",
"                                                                                          ",
"                                                                                          ",
"                                                                                          ",
"                                                                                          ",
"                                                                                          ",
"                                                                                          ",
"                                                                                          ",
"                                                                                          ",
"                                                                                          ",
"                                                                                          ",
"                                                                                          ",
"                                                                                          ",
"                                                                                          ",
"                                                                                          ",
"             .....X    ......    o....o                                                   ",
"             OOOOO.   oOOOOOX  +@OOOOOO@+                                                 ",
"             OOOOO.   .OOOO@  +@OOOOOOOO@+                                                ",
"             OOOOO.  XOOOOO#  @OOOOOOOOOO#                                                ",
"             OOOOO.  @OOOO@  #OOOOOOOOO@+                                                 ",
"             OOOOO. XOOOOOo  .OOOOO.@O.       o...X+      o.....  .....                   ",
"             OOOOO.+@OOOO.   OOOOO.  o      #.OOOOOO.     #OOOOO  OOOOO                   ",
"             OOOOO..OOOOO+   OOOOO.        #OOOOOOOOO@+   #OOOOO  OOOOO                   ",
"             OOOOO@OOOOO.    OOOOO.       +OOOOOOOOOOO.   #OOOOO  OOOOO                   ",
"             OOOOO@OOOOO#    OOOOO@.o     @OOOOOOOOOOOOo   OOOOO++OOOOO                   ",
"             OOOOO.@OOOO.    OOOOOOO#     OOOOOO..OOOOO.   .OOOO@@OOOO.                   ",
"             OOOOO.#OOOOOo   OOOOOOO#    #OOOOO#  @OOOOO   +.OOOOOOOO@+                   ",
"             OOOOO. OOOOO@   OOOOOOO#    #OOOO.   #OOOOO    .OOOOOOOO.                    ",
"             OOOOO. .OOOOOo  OOOOOOO#    oOOOO@   #OOOOO   .OOOO@@OOOO.                   ",
"             OOOOO. +OOOOO@  OOOOO.#+     OOOOO@###OOOOO   OOOOO++OOOO@                   ",
"             OOOOO.  @OOOOOo OOOOO.       .OOOOOOO#OOOOO  oOOOOO  OOOOO                   ",
"             OOOOO.  #OOOOO@ OOOOO.       +@OOOOOO#OOOOO  #OOOOO  OOOOO                   ",
"             OOOOO.   @OOOOOoOOOOO.        o@OOOOO#OOOOO  #OOOOO  OOOOO                   ",
"             OOOOO.   .OOOOO.OOOOO.         +@OOOO#OOOOO  #OOOOO  OOOOO                   ",
"             #####o   +####o######o           o#.. #####  +#####  #####                   ",
"                                                                                          ",
"                                                                                          ",
"                                                                                          ",
"                                                                                          ",
"                                                                                          ",
"                                                                                          ",
"                                                                                          ",
"                                                                                          ",
"                                                                                          ",
"                                                                                          ",
"                                                                                          ",
"                                                                                          ",
"                                                                                          ",
"                                                                                          ",
"                                                                                          ",
"                                                                                          ",
"                                                                                          ",
"                                                                                          ",
"                                                                                          ",
"                                                                                          ",
"                                                                                          ",
"                                                                                          ",
"                                                                                          ",
"                                                                                          ",
"                                                                                          ",
"                                                                                          ",
"                                                                                          ",
"                                                                                          ",
"                                                                                          ",
"                                                                                          ",
"                                                                                          ",
"                                                                                          ",
"                                                                                          ",
"                                                                                          ",
"                                                                                          ",
"                                                                                          ",
"                                                                                          ",
"                                                                                          ",
"                                                                                          ",
"                                                                                          ",
"                                                                                          ",
"                                                                                          ",
"                                                                                          ",
"                                                                                          ",
"                                                                                          ",
"                                                                                          ",
"                                                                                          ",
"                                                                                          ",
"                                                                                          ",
"                                                                                          ",
"                                                                                          ",
"                                                                                          ",
"                                                                                          ",
"                                                                                          ",
"                                                                                          ",
"                                                                                          ",
"                                                                                          "
};
