/* XPM */
static char * kfax_xpm[] = {
"48 48 119 2",
"  	c None",
". 	c #020204",
"+ 	c #E2DEE4",
"@ 	c #AEAEAC",
"# 	c #FEFEFC",
"$ 	c #F6F6F4",
"% 	c #CECECC",
"& 	c #FAFAFC",
"* 	c #DAD6D4",
"= 	c #EEEEEC",
"- 	c #CACACC",
"; 	c #EAEAEC",
"> 	c #969694",
", 	c #666664",
"' 	c #B6B6B4",
") 	c #FAF6F4",
"! 	c #DEDADC",
"~ 	c #BAB6BC",
"{ 	c #AAAAAC",
"] 	c #E6E6E4",
"^ 	c #9A9A9C",
"/ 	c #F2EEEC",
"( 	c #C6C2C4",
"_ 	c #AEAAAC",
": 	c #F2F2F4",
"< 	c #000000",
"[ 	c #F6F2F4",
"} 	c #E6E2E4",
"| 	c #CECAD4",
"1 	c #96929C",
"2 	c #6E6E6C",
"3 	c #BABABC",
"4 	c #D2CED4",
"5 	c #8E8E8C",
"6 	c #727274",
"7 	c #A6A6A4",
"8 	c #6A6A6C",
"9 	c #9E9E9C",
"0 	c #CECACC",
"a 	c #BEBEBC",
"b 	c #8A8A8C",
"c 	c #86868C",
"d 	c #5E5E5C",
"e 	c #5A5A5C",
"f 	c #565654",
"g 	c #525254",
"h 	c #4E4E4C",
"i 	c #4A4A44",
"j 	c #C6C6C4",
"k 	c #D2D2D4",
"l 	c #AEAEB4",
"m 	c #9E9A9C",
"n 	c #EAE6EC",
"o 	c #6A6A64",
"p 	c #464644",
"q 	c #5A5A54",
"r 	c #9E9EA4",
"s 	c #A2A2A4",
"t 	c #DADADC",
"u 	c #626264",
"v 	c #4A4A4C",
"w 	c #424244",
"x 	c #C2C2C4",
"y 	c #767674",
"z 	c #121214",
"A 	c #828284",
"B 	c #DAD6DC",
"C 	c #7E7E7C",
"D 	c #7A7A7C",
"E 	c #A6A2AC",
"F 	c #F2EEF4",
"G 	c #FEFAFC",
"H 	c #929294",
"I 	c #B2B2B4",
"J 	c #7A767C",
"K 	c #CAC6CC",
"L 	c #C2BEC4",
"M 	c #323634",
"N 	c #726E74",
"O 	c #CAC6C4",
"P 	c #BEBABC",
"Q 	c #827E84",
"R 	c #666264",
"S 	c #B6B2B4",
"T 	c #AAA6AC",
"U 	c #323234",
"V 	c #96969C",
"W 	c #C6C6CC",
"X 	c #B2AEB4",
"Y 	c #A29EA4",
"Z 	c #9A969C",
"` 	c #A9E23F",
" .	c #829264",
"..	c #8E8A94",
"+.	c #363634",
"@.	c #625E64",
"#.	c #BEBAC4",
"$.	c #727272",
"%.	c #62625C",
"&.	c #6E7A54",
"*.	c #7A7A84",
"=.	c #928E94",
"-.	c #86828C",
";.	c #968284",
">.	c #BE8E8C",
",.	c #36363C",
"'.	c #6E6A74",
").	c #FE0204",
"!.	c #BA8A8C",
"~.	c #060604",
"{.	c #0A0A0C",
"].	c #826664",
"^.	c #AE7274",
"/.	c #00FF00",
"(.	c #0E0E0C",
"_.	c #3E3E3C",
":.	c #868684",
"<.	c #52524C",
"[.	c #020604",
"                                                                                                ",
"                                                                                                ",
"                                                          . .                                   ",
"                                                          . + . .                               ",
"                                                        . @ # # $ . . .                         ",
"                                                        . % # # # # & * . .                     ",
"                                                        . = # # # # # # # + . .                 ",
"                                                        . # # # - & # # # # # ; . . .           ",
"                                                        . # # $ > , ' & # # # # ) ! ~ . .       ",
"                                                      . { # # # # ] ^ $ # # # # # / ! ( _ .     ",
"                                                      . - # # # # # # # # # # # # : + % { . <   ",
"                                                      . ] # # # # # # # # # # # # [ } | 1 .     ",
"                                                      . # # # # # ; 2 3 $ # # # # [ } 4 .       ",
"                                    . . . . . .     . 5 # # 6 7 ; # ] ^ 8 9 ] # # [ + 0 .       ",
"                                . . a > > > > b . . . { # # : @ 8 c - # : ' 2 b % / ! ' .       ",
"                            . . a b d e f g h i b > . j # k l = # - b 8 l : # j m n * m .       ",
"                        . . a 5 o , d e g h h p g q . ] # ] r , j # # ; s 8 > t / + 4 .         ",
"                    . . a { 6 8 , u d q f h v p w h . # # # # # $ # # # # & x y m k ( .         ",
"                . z a { b y 6 2 , , d e f h q f . . A ) # # # # # # # # # # ) n B 0 l .         ",
"            . . a { 5 C D y 6 8 8 u d f f f . . a . E } F G # # 3 b k # G F } t 4 ( 1 .         ",
"          . a { H b A A D y 6 8 , u e e . . I I I . J 0 + n F [ [ x C y ' ! * K L ~ .           ",
"        . a { H b C C C D y 6 2 f f . . 7 s 7 7 s 7 . M N O ! + } + + P Q R H 3 S T .           ",
"      U x 7 5 A C C C A D 6 , e . . V ^ ^ V ^ ^ ^ ^ > ^ . M 8 ~ 4 4 % - W X Q Y T Z .           ",
"      U I ^ b C A C C C , q . . b b 5 b b f f b b b `  .b ... +.@.T #.~ S X _ s 9 A .           ",
"      U I { H b A A b 8 f . $.A C C C C g > > f %.A &.` `  .C A . U e 1 T s r 1 H .             ",
"      U a 7 ^ H b b 5 f . $.C C A C f g > > > H > f %.C &.` `  .C Q . +.v *.=...-..             ",
"      . q b { { H 7 e . $.A C C $.g u > H H # t 5 H H f %.C &.` C ;.>.;.A ,.w '.J .             ",
"        . 2 < 8 2 e . f s C C f g u H H H H H 5 # j 5 5 5 f %.C A >.).!.C Q ~.{.e f . . .       ",
"      < . < . . . . e e C x f g u H 5 5 # j 5 5 b b # j b b b f , ].^.C /.C C C (.{._._._..     ",
"    <   . a < f f f f $.C x f u 5 5 5 b b b # j b :.:.:.# j :.:.A <.u C A Q > x h i v p _..     ",
"  <   < . < C < $.$.C A A x u 5 b b # j b b :.:.# W :.:.A A # A -.f C C A x C h h v v p _..     ",
"    <   . a < A A C A C C C s x c c b b # j :.:.:.:.# j A A A , f C A > x <.g h v i p p _..     ",
"      < {.< 8 C C C C C C *.D D s x A :.A A # W C A A C # C f A C C x C g h g h v v p w _..     ",
"          . . f 2 C Q C C C y y 6 6 s x A A C C # j C C , f C C > x f g <.h h v v i p p _..     ",
"              . . e 2 C D D y y 6 6 2 2 9 x C A C C # e C C C x C f f g g h h v v p p w _..     ",
"                  . . f 2 D y y 6 2 2 8 8 8 s x C C A q 6 C x e e q f <.<.h h v p v w w _..     ",
"                      . . q , 8 2 2 8 o , , u u s x C f f f s q f f f h h h i v p p w _._..     ",
"                          . . <., 8 o 8 , u u d d e s f f g 5 f f g g g <.v v i p p w _._..     ",
"                              . . g e , , u %.d e e e f g h 5 e f g <.h h h v v p _._.. .       ",
"                                  . . g e %.d e e f f g <.g b f f g h h h v i _._.[..           ",
"                                      . . _.g d q f f g h h b f f g h h h _._.. .               ",
"                                          . . _.v f g g h h 5 f <.<.g _._.. .                   ",
"                                              . . _.p g h h b f g _._.. .                       ",
"                                                  . . _.v h b _._.. .                           ",
"                                                      . . _.b . .                               ",
"                                                          . .                                   ",
"                                                                                                ",
"                                                                                                "};
