/* XPM */
/* Drawn  by Stephan Kanthak for the K Desktop Environment */
/* See http://www.kde.org */
static char*ksysv[]={
"32 32 7 1",
"a c #ffffff",
"# c #000000",
"b c #c0c0c0",
"c c #808080",
"d c #800000",
"e c #00ff00",
". c None",
".................##.............",
"..............##.#a##...........",
"...........##.#a##aaa##.........",
"...........#a##aaa##aaa##.......",
"...........#aaa##aaa##aaa##.....",
"...........#aaaaa##aaa##aaa##...",
".........#.#abbaaaa##aaa##aaa##.",
".......##a##abbbbaaa##aaaa##aa#.",
".....##aabbb##abbbbaca#aaaa#ba#.",
"...##aabbbbbbb#aabbbcaa#baa#bb#.",
".##aabbbbbbbcc#bbaabcaaa#ba#bb#.",
".#abbbbbbbcccc#cbbba#cc##bb#bb#.",
".#baabbbcccccc#bbbbbbcbc#bb#bb#.",
".#bbbacccbbbac#cbaabbbca#bb#bb#.",
".#bbbbccbbbbbaaccbbaabba#bb#bb#.",
".#bbbbccbbbbbc#cbbbbbaaa#bb#bb#.",
".#bbbbccbddddc#ccbabbbba#bb#bb#.",
".#bbbbccddddcc#cbcbaabba#bb#bb#.",
".#bbbbcccddccc#bcbbbbaaa#bb#bb#.",
".#bbbbcccccccc#cbcbbbbba#bb#bb#.",
".#bbbbcccbbbac#bcbbaabba#bb#bb#.",
".#bbbbccbbbbbaacbcbbbaaa#bb#bb#.",
".#bbbbccbbbbbc#ccbbbbbba#bb#bb#.",
".#bbbbccbceeec#cbcbaabba#bb#bb#.",
".#bbbbcceeeeec#bcbbbbaaa#bb#bb#.",
".#bbbbcceeeecc#cbcbbbbba#bb#bb#.",
".#bbbbccceeccc###bbaabba#bb#bb#.",
".#bbbbccccccc##..##aaaaa#bb##b#.",
".#bbbbccccc##......##aaa##b#.##.",
".##bbbccc##..........##a#.##....",
"...##bc##..............##.......",
".....##........................."};

