/* XPM */
static char *ksysv_qt[] = {
/* width height num_colors chars_per_pixel */
"    16    16       76            2",
/* colors */
".. c #ff2f00",
".# c #9700ff",
".a c #00ffcb",
".b c #e100ff",
".c c #ff00e7",
".d c #00ff28",
".e c #75ff00",
".f c #ff003e",
".g c #2d00ff",
".h c #00f7ff",
".i c #00ebff",
".j c #3e00ff",
".k c #ff0097",
".l c #00ff42",
".m c #b000ff",
".n c #00ff98",
".o c #00b3ff",
".p c #ff005b",
".q c #1300ff",
".r c #008bff",
".s c #00ffb2",
".t c #ffba00",
".u c #00ff73",
".v c #ff0089",
".w c #ffaa00",
".x c #ffa200",
".y c #00ff8a",
".z c #ff0075",
".A c #ff9a00",
".B c #0055ff",
".C c #a2ff00",
".D c #ff8e00",
".E c #8eff00",
".F c #ff00b7",
".G c #00fff7",
".H c #00ffe3",
".I c #ecff00",
".J c #52ff00",
".K c #000dff",
".L c #ff4800",
".M c #ff0014",
".N c #ff0000",
".O c #fae500",
".P c #0400ff",
".Q c #00ff82",
".R c #aaff00",
".S c #00ff18",
".T c #00ff85",
".U c #ccff00",
".V c #8400ff",
".W c #0aff14",
".X c #ff008a",
".Y c #ff00b5",
".Z c #00d4ff",
".0 c #2000ff",
".1 c none",
".2 c #65ff00",
".3 c #ff003a",
".4 c #18ff00",
".5 c #009eff",
".6 c #ffc700",
".7 c #9bff00",
".8 c #00ff69",
".9 c #0070ff",
"#. c #73ff00",
"## c #e5ff00",
"#a c #ff0082",
"#b c #5000ff",
"#c c #37ff00",
"#d c #ff6d00",
"#e c #002eff",
"#f c #ff6500",
"#g c #ff5d00",
"#h c #ff5500",
"#i c #6100ff",
"#j c #6dff00",
/* pixels */
".1.1.1.1.1#c.1.1.1.1.1.1.1.1.1.1",
".1.1.1.W.W.4#c.2.1.1.1.1.1.1.1.1",
".1.1.d.S.1.1.1.2.E.1.1.1.1.6.1.1",
".1.8.l.1.1.1.1.1.E.R.1.1.1.t.1.1",
".1.u.8.1.1.1.1.1.e.U.1.1.t.x.1.1",
".1.n.y.1.1.1.1.1.E.U.O.t.A.D#f#g",
".s.s.s.1.1.1.1.1.e.I.t.1#f#h.1.1",
".a.a.H.1.1.1.1.1#j.6#d.1.....1.1",
".1.G.G.1.1.1.1.1.N.N.N.1.N.N.1.1",
".1.i.i.1.1.1.1.1.#.F.1.1.3.3.1.1",
".1.o.o.1.1.1.1.1.V.b.1.1.z.p.1.1",
".1.1.5.r.1.1.1.g.V.1.1.1.k.v.1.1",
".1.1.1.B.B#e.P.j.1.1.1.1.1.Y.k.X",
".1.1.1.1.K.K.0.1.1.1.1.1.1.1.1.1",
".1.1.1.1.1.P.g.1.1.1.1.1.1.1.1.1",
".1.1.1.1.1.q.g#b.1.#.1.1.1.1.1.1"
};
