/* XPM */
static char * stop_test_xpm[] = {
"16 16 7 1",
".	c none",
"+	c #000000",
"@	c #808080",
"#	c #C0C0C0",
"$	c #FF0000",
"%	c #FFFFFF",
"&	c #008000",
"......+++++.....",
".....+@@@@@+....",
"....+#####@@+...",
"...+##@@@##@+...",
"...+#@$$$@#@+...",
"...+#%$$$%#@+...",
"...+#%$$$%#@+...",
"...+##%%%##@+...",
"...+#######@+...",
"...+##@@@##@+...",
"...+#@&&&@#@+...",
"...+#%&&&%#@+...",
"...+#%&&&%#@+...",
"...+##%%%##+....",
"....+#####+.....",
".....+++++......"};
