/* XPM */
static char * ksysv_restart_xpm[] = {
"16 16 3 1",
" 	c None",
".	c #FFFFFFFFFFFF",
"X	c #000000000000",
"                ",
"     ....XXX    ",
"   .....XXXXX   ",
"  .....XXXXXXX  ",
"  .....XX..XXX  ",
" ......XX..XXXX ",
" ......XXXXXXXX ",
" .......XXXXXXX ",
" ........XXXXXX ",
" ........XXXXXX ",
" ....XX..XXXXXX ",
"  ...XX..XXXXX  ",
"  .......XXXXX  ",
"   .....XXXXX   ",
"    ...XXXX     ",
"                "};
