/* XPM */
static char * start_test_xpm[] = {
"16 16 2 1",
".	c #ffffff",
"+	c +000000",
"......+++++.....",
".....+++++++....",
"....+++++++++...",
"...++++++++++...",
"...++++++++++...",
"...++++++++++...",
"...++++++++++...",
"...++++++++++...",
"...++++++++++...",
"...++++++++++...",
"...++++++++++...",
"...++++++++++...",
"...++++++++++...",
"...+++++++++....",
"....+++++++.....",
".....+++++......"};
