/* XPM */
/* Drawn for the K Desktop Environment */
/* See http://www.kde.org */
static char*ksysv[]={
"16 16 7 1",
"a c #ffffff",
"# c #000000",
"b c #c0c0c0",
"c c #808080",
"d c #800000",
"e c #00ff00",
". c None",
".......###......",
".....##aa###....",
".....#a##aa###..",
"...###bba##aa#b.",
".##bb##abba#a#b.",
"#bbbbcc#bac#b#b.",
"#bacbba#abbab#b.",
"#bbcbdc#bbaab#b.",
"#bbcddc#cabab#b.",
"#bbcccc#cbbab#b.",
"#bbcbba#cbaab#b.",
"#bbcbec#cabab#b.",
"#bbceec#cbbab#b.",
"#bbcc##.##aa##..",
"#bb##.....##....",
".##............."};

