/* XPM */
static char *plus[] = {
/* width height num_colors chars_per_pixel */
"    16    16        3            1",
/* colors */
". c none",
"# c #000000",
"a c #ffffff",
/* pixels */
"................",
"................",
"................",
"................",
"................",
"................",
"................",
"................",
"................",
"#######.........",
"#aaaaa#.........",
"#aa#aa#.........",
"#a###a#.........",
"#aa#aa#.........",
"#aaaaa#.........",
"#######........."
};
