/* XPM */
static char * ksysv_stop_xpm[] = {
"16 16 5 1",
".	c #ff00ff",
"+	c #000000",
"@	c #FF0000",
"#	c #808000",
"$	c #008000",
"......++++......",
"....+++@@+++....",
"...+++@@@@+++...",
".....+@@@@+.....",
".....++@@++.....",
"....++++++++....",
"...++++##++++...",
".....+####+.....",
".....+####+.....",
".....++##++.....",
"....++++++++....",
"...++++$$++++...",
".....+$$$$+.....",
".....+$$$$+.....",
".....++$$++.....",
"......++++......"};
