/* XPM */
static char *magick[] = {
/* columns rows colors chars-per-pixel */
"90 110 40 1",
"  c #000000",
". c #00003c",
"X c #003c00",
"o c #3c0000",
"O c #3c3c00",
"+ c #303030",
"@ c #595959",
"# c #000080",
"$ c #0000be",
"% c #0000ff",
"& c #008000",
"* c #00be00",
"= c #00ff00",
"- c #008080",
"; c #00bebe",
": c #00ffff",
"> c #800000",
", c #be0000",
"< c #be5900",
"1 c #ff0000",
"2 c #800080",
"3 c #be00be",
"4 c #ff00ff",
"5 c #808000",
"6 c #bebe00",
"7 c #ff8200",
"8 c #ffaa59",
"9 c #ffff00",
"0 c #808080",
"q c #a0a0a4",
"w c #bebeff",
"e c #beffbe",
"r c #beffff",
"t c #ffbebe",
"y c #ffbeff",
"u c #ffdfaa",
"i c #ffffbe",
"p c #c0c0c0",
"a c #dfdfdf",
"s c #ffffff",
/* pixels */
"ssssssssssssssssssssssssssssssssssssssssssssssssssssssssssssssssssssssssssssssssssssssssss",
"ssssssssssssssssssssssssssssssssssssssssssssssssssssssssssssssssssssssssssssssssssssssssss",
"ssssssssssssssssssssssssssssssssssssssssssssssssssssssssssssssssssssssssssssssssssssssssss",
"ssssssssssssssssssssssssssssssssssssssssssssssssssssssssssssssssssssssssssssssssssssssssss",
"ssssssssssssssssssssssssssssssssssssssssssssssssssssssssssssssssssssssssssssssssssssssssss",
"ssssssssssssssssssssssssssssssssssssssssssssssssssssssssssssssssssssssssssssssssssssssssss",
"ssssssssssssssssssssssssssssssssssssssssssssssssssssssssssssssssssssssssssssssssssssssssss",
"ssssssssssssssssssssssssssssssssssssssssssssssssssssssssssssssssssssssssssssssssssssssssss",
"ssssssssssssssssssssssssssssssssssssssssssssssssssssssssssssssssssssssssssssssssssssssssss",
"ssssssssssssssssssssssssssssssssssssssssssssssssssssssssssssssssssssssssssssssssssssssssss",
"ssssssssssssssssssssssssssssssssssssssssssssssssssssssssssssssssssssssssssssssssssssssssss",
"ssssssssssssssssssssssssssssssssssssssssssssssssssssssssssssssssssssssssssssssssssssssssss",
"ssssssssssssssssssssssssssssssssssssssssssssssssssssssssssssssssssssssssssssssssssssssssss",
"ssssssssssssssssssssssssssssssssssssssssssssssssssssssssssssssssssssssssssssssssssssssssss",
"ssssssssssssssssssssssssssssssssssssssssssssssssssssssssssssssssssssssssssssssssssssssssss",
"ssssssssssssssssssssssssssssssssssssssssssssssssssssssssssssssssssssssssssssssssssssssssss",
"ssssssssssssssssssssssssssssssssssssssssssssssssssssssssssssssssssssssssssssssssssssssssss",
"ssssssssssssssssssssssssssssssssssssssssssssssssssssssssssssssssssssssssssssssssssssssssss",
"ssssssssssssssssssssssssssssssssssssssssssssssssssssssssssssssssssssssssssssssssssssssssss",
"ssssssssssssssssssssssssssssssssssssssssssssssssssssssssssssssssssssssssssssssssssssssssss",
"ssssssssssssssssssssssssssssssssssssssssssssssssssssssssssssssssssssssssssssssssssssssssss",
"ssssssssssssssssssssssssssssssssssssssssssssssssssssssssssssssssssssssssssssssssssssssssss",
"ssssssssssssssssssssssssssssssssssssssssssssssssssssssssssssssssssssssssssssssssssssssssss",
"ssssssssssssssssssssssssssssssssssssssssssssssssssssssssssssssssssssssssssssssssssssssssss",
"ssssssssssssssssssssssssssssssssssssssssssssssssssssssssssssssssssssssssssssssssssssssssss",
"ssssssssssssssssssssssssssssssssssssssssssssssssssssssssssssssssssssssssssssssssssssssssss",
"ssssssssssssssssssssssssssssssssssssssssssssssssssssssssssssssssssssssssssssssssssssssssss",
"ssssssssssssssssssssssssssssssssssssssssssssssssssssssssssssssssssssssssssssssssssssssssss",
"ssssssssssssssssssssssssssssssssssssssssssssssssssssssssssssssssssssssssssssssssssssssssss",
"ssssssssssssssssssssssssssssssssssssssssssssssssssssssssssssssssssssssssssssssssssssssssss",
"ssssssssssssssssssssssssssssssssssssssssssssssssssssssssssssssssssssssssssssssssssssssssss",
"ssssssssssssssssssssssssssssssssssssssssssssssssssssssssssssssssssssssssssssssssssssssssss",
"ssssssssssssssssssssssssssssssssssssssssssssssssssssssssssssssssssssssssssssssssssssssssss",
"ssssssssssssssssssssssssssssssssssssssssssssssssssssssssssssssssssssssssssssssssssssssssss",
"ssssssssssssssssssssssssssssssssssssssssssssssssssssssssssssssssssssssssssssssssssssssssss",
"ssssssssssssssssssssssssssssssssssssssssssssssssssssssssssssssssssssssssssssssssssssssssss",
"ssssssssssssssssssssssssssssssssssssssssssssssssssssssssssssssssssssssssssssssssssssssssss",
"ssssssssssssssssssssssssssssssssssssssssssssssssssssssssssssssssssssssssssssssssssssssssss",
"ssssssssssssssssssssssssssssssssssssssssssssssssssssssssssssssssssssssssssssssssssssssssss",
"sssssssssssaqqqqqsssssssssssssssssssssssssssssssssssssssssssssssssssssssssssssssssssssssss",
"sssssssssssq     sssssssssssssssssssssssssssssssssssssssssssssssssssssssssssssssssssssssss",
"sssssssssssq     sssssssssssssssssssssssssssssssssssssssssssssssssssssssssssssssssssssssss",
"sssssssssssq     sssssssssssssssssssssssssssssssssssssssssssssssssssssssssssssssssssssssss",
"sssssssssssq     sssssssssssssssssssssssssssssssssssssssssssssssssssssssssssssssssssssssss",
"sssssssssssq     sssssssssssssssssssssssssssssssssssssssssssssssssssssssssssssssssssssssss",
"sssssssssssq     ssp@@@@@pssssssq@   @qssssssssssa0+  +@pssssssssssp@+  @0asssssssssssssss",
"sssssssssssq     ss+    +sssssa+       +asssssssq+       @ssssssss@       +qssssssssssssss",
"sssssssssssq     sp     0ssssa+         +asssssq          @ssssss@          qsssssssssssss",
"sssssssssssq     s+    +sssss+           +ssssa            0ssss0            assssssssssss",
"sssssssssssq     p     0ssssq             0sss@             asss             +ssssssssssss",
"sssssssssssq     @     sssss@     @q@     @sss      0q+     qssq     +q0      ssssssssssss",
"sssssssssssq     q     assss     +sss+     ssq     0ssa     @ss@     assq     qsssssssssss",
"sssssssssssq     s     @ssss     qsssq     ssq     asss@    @ss@    +ssss     qsssssssssss",
"sssssssssssq     s@     ssss     qsssq     ssq     ssss+    @ss@    @sssa     qsssssssssss",
"sssssssssssq     sp     qsss     qqsp+    @ssq     sqs0     qss@    @paa@     ssssssssssss",
"sssssssssssq     ss+    +sss     q@       0ssq     s        ass@    @q       +ssssssssssss",
"sssssssssssq     ss@     pss     q@      +assq     s       @sss@    @q       qssssssssssss",
"sssssssssssq     ssa     +ss     q@      qsssq     s      +asss@    @q      @sssssssssssss",
"sssssssssssq     sss+     as     q@     qssssq     s     +assss@    @q     @ssssssssssssss",
"sssssssssssq     sssq     @s     q@   +psssssq     s    @asssss@    @q   +0sssssssssssssss",
"ssssssssssssssssssssssssssss     qaqqssssssssq     sqqassssssss@    @aqqasssssssssssssssss",
"ssssssssssssssssssssssssssss     qsssssssssssq     ssssssssssss@    @sssssssssssssssssssss",
"ssssssssssssssssssssssssssss     qsssssssssssq     ssssssssssss@    @sssssssssssssssssssss",
"ssssssssssssssssssssssssssss     qsssssssssssq     ssssssssssss@    @sssssssssssssssssssss",
"ssssssssssssssssssssssssssss     qsssssssssssq     ssssssssssss@    @sssssssssssssssssssss",
"ssssssssssssssssssssssssssss     qsssssssssssq     ssssssssssss@    @sssssssssssssssssssss",
"ssssssssssssssssssssssssssss     qsssssssssssq     ssssssssssss@    @sssssssssssssssssssss",
"ssssssssssssssssssssssssssssssssssssssssssssssssssssssssssssssssssssssssssssssssssssssssss",
"ssssssssssssssssssssssssssssssssssssssssssssssssssssssssssssssssssssssssssssssssssssssssss",
"ssssssssssssssssssssssssssssssssssssssssssssssssssssssssssssssssssssssssssssssssssssssssss",
"ssssssssssssssssssssssssssssssssssssssssssssssssssssssssssssssssssssssssssssssssssssssssss",
"ssssssssssssssssssssssssssssssssssssssssssssssssssssssssssssssssssssssssssssssssssssssssss",
"ssssssssssssssssssssssssssssssssssssssssssssssssssssssssssssssssssssssssssssssssssssssssss",
"ssssssssssssssssssssssssssssssssssssssssssssssssssssssssssssssssssssssssssssssssssssssssss",
"ssssssssssssssssssssssssssssssssssssssssssssssssssssssssssssssssssssssssssssssssssssssssss",
"ssssssssssssssssssssssssssssssssssssssssssssssssssssssssssssssssssssssssssssssssssssssssss",
"ssssssssssssssssssssssssssssssssssssssssssssssssssssssssssssssssssssssssssssssssssssssssss",
"ssssssssssssssssssssssssssssssssssssssssssssssssssssssssssssssssssssssssssssssssssssssssss",
"ssssssssssssssssssssssssssssssssssssssssssssssssssssssssssssssssssssssssssssssssssssssssss",
"ssssssssssssssssssssssssssssssssssssssssssssssssssssssssssssssssssssssssssssssssssssssssss",
"ssssssssssssssssssssssssssssssssssssssssssssssssssssssssssssssssssssssssssssssssssssssssss",
"ssssssssssssssssssssssssssssssssssssssssssssssssssssssssssssssssssssssssssssssssssssssssss",
"ssssssssssssssssssssssssssssssssssssssssssssssssssssssssssssssssssssssssssssssssssssssssss",
"ssssssssssssssssssssssssssssssssssssssssssssssssssssssssssssssssssssssssssssssssssssssssss",
"ssssssssssssssssssssssssssssssssssssssssssssssssssssssssssssssssssssssssssssssssssssssssss",
"ssssssssssssssssssssssssssssssssssssssssssssssssssssssssssssssssssssssssssssssssssssssssss",
"ssssssssssssssssssssssssssssssssssssssssssssssssssssssssssssssssssssssssssssssssssssssssss",
"ssssssssssssssssssssssssssssssssssssssssssssssssssssssssssssssssssssssssssssssssssssssssss",
"ssssssssssssssssssssssssssssssssssssssssssssssssssssssssssssssssssssssssssssssssssssssssss",
"ssssssssssssssssssssssssssssssssssssssssssssssssssssssssssssssssssssssssssssssssssssssssss",
"ssssssssssssssssssssssssssssssssssssssssssssssssssssssssssssssssssssssssssssssssssssssssss",
"ssssssssssssssssssssssssssssssssssssssssssssssssssssssssssssssssssssssssssssssssssssssssss",
"ssssssssssssssssssssssssssssssssssssssssssssssssssssssssssssssssssssssssssssssssssssssssss",
"ssssssssssssssssssssssssssssssssssssssssssssssssssssssssssssssssssssssssssssssssssssssssss",
"ssssssssssssssssssssssssssssssssssssssssssssssssssssssssssssssssssssssssssssssssssssssssss",
"ssssssssssssssssssssssssssssssssssssssssssssssssssssssssssssssssssssssssssssssssssssssssss",
"ssssssssssssssssssssssssssssssssssssssssssssssssssssssssssssssssssssssssssssssssssssssssss",
"ssssssssssssssssssssssssssssssssssssssssssssssssssssssssssssssssssssssssssssssssssssssssss",
"ssssssssssssssssssssssssssssssssssssssssssssssssssssssssssssssssssssssssssssssssssssssssss",
"ssssssssssssssssssssssssssssssssssssssssssssssssssssssssssssssssssssssssssssssssssssssssss",
"ssssssssssssssssssssssssssssssssssssssssssssssssssssssssssssssssssssssssssssssssssssssssss",
"ssssssssssssssssssssssssssssssssssssssssssssssssssssssssssssssssssssssssssssssssssssssssss",
"ssssssssssssssssssssssssssssssssssssssssssssssssssssssssssssssssssssssssssssssssssssssssss",
"ssssssssssssssssssssssssssssssssssssssssssssssssssssssssssssssssssssssssssssssssssssssssss",
"ssssssssssssssssssssssssssssssssssssssssssssssssssssssssssssssssssssssssssssssssssssssssss",
"ssssssssssssssssssssssssssssssssssssssssssssssssssssssssssssssssssssssssssssssssssssssssss",
"ssssssssssssssssssssssssssssssssssssssssssssssssssssssssssssssssssssssssssssssssssssssssss",
"ssssssssssssssssssssssssssssssssssssssssssssssssssssssssssssssssssssssssssssssssssssssssss",
"ssssssssssssssssssssssssssssssssssssssssssssssssssssssssssssssssssssssssssssssssssssssssss",
"ssssssssssssssssssssssssssssssssssssssssssssssssssssssssssssssssssssssssssssssssssssssssss"
};
