/* XPM */
static char * modemnone_xpm[] = {
"156 67 7 1",
" 	c None",
".	c #585858",
"+	c #FFFFFF",
"@	c #808080",
"#	c #A0A0A0",
"$	c #FF0000",
"%	c #C00000",
"                                                                                                                                                            ",
"                                                                                                                                                            ",
"                                                                                                                                                            ",
"                                                                              .....                                                                         ",
"                                                                           ...++@@@..            ...              .....                                     ",
"                                                                        ...+++#####@@..       ....#...         ...#####..                                   ",
"                                                                     ...++++#########@@..  ....#.#@#@#..    ...#####.####..                                 ",
"                                                                  ...+++#####.....#####@@...#.#.#.#@#@#@...@######.....####..                               ",
"                                                               ...+++#####...++++...#####@@..#.#.#.#.#@#@#.@###...     ..####..                       .     ",
"                                                            ...+++#####...+++####+++..#####@@..@#.#.#.#@#@#....          ..####..                  ...#     ",
"                                                         ...+++#####...+++##########++..#####@@..#.#.#.#.#@#@#.            ..####..             ...###.     ",
"                                                      ...+++#####...+++###############++..#####@@..@#.#.#.#@....             ..####..        ...###...#     ",
"                                                   ...+++#####...+++####################++..#####@@..#@#........               ..####..   ...###...###.     ",
"                                                ...+++#####...+++#########################++..#####@@..@........                 ..####...###...###...      ",
"                                             ...+++#####...+++##############################++..#####@@.........                   ..#####...###...         ",
"                                          ...+++#####...+++###################################++..#####@@.......                      ....###...            ",
"                                       ...+++#####...+++########################################++..#####@@...                      ...###...               ",
"                                    ...+++#####...+++#############################################++..#####@@..                  ...###...                  ",
"                                 ...+++######..+++##################################################++..#####@@..             ...###...                     ",
"                              ...+++..######..+#######################################################++..#####@@..        ...###...                        ",
"                           ...+++###++..####++..########################################################++..#####@@..   ...###...                           ",
"                        ...+++########++..####++..########################################################++..#####@@...###...                              ",
"                     ...+++#####....####++..####++..########################################################++..#####@@....                                 ",
"                  ...+++#####...++++..####++..####++..########################################################++..#####@@..                                 ",
"               ...+++#####...+++####++..####++..####++..########################################################+..######@@..                               ",
"            ...+++#####...+++#########++..####++..####++..######################################################..+########@@..                             ",
"         ...+++#####...+++##############++..####++..####++..#################################################...++#########+++.                             ",
"       ..+++#####...+++###################++..####++..####++..############################################...+++########+++###.                             ",
"      .++#####...+++########################++..####++..####++..#######################################...+++########+++######.                             ",
"     .++#++...+++#############################++..####++..####++..##################################...+++########+++######@@@.                             ",
"     .+###..+###################################++..####++..####++..#############################...+++########+++######@@@@@@.                             ",
"     .+###.+#++##########$$$######################++..####++..####++..########################...+++########+++######@@@@@@@@@.                             ",
"     .+###.+###++######$$$$$$$######################++..####++..####++..###################...+++########+++######@@@@@@@@@@@@.                             ",
"     .+###.+#####++#$$$$$$$$$$$#######################++..####++..####++..##############...+++########+++######@@@@@@@@@@@@@@@.                             ",
"     .+###.+#######%$$$$$$$$############################++..####++..####++..#########...+++########+++######@@@@@@@@@@@@@@@@@@.                             ",
"     .+###.+#######%%%$$##################################++..####++..####++..####...+++########+++######@@@@@@@@@@@@@@@@###@@.                             ",
"     .+###.+#######%%%%++###################################++..####++..####++....+++########+++######@@@@@@@@@@@@@@@@###@@@@@.                             ",
"     .+###.+#######%%%%##++###################################++..####++..####++++########+++######@@@@@@@@@@@@@@@@###@@@@@@@@.                             ",
"     .+###.+#######%%%%####++###################################++..####++..###########+++######@@@@@@@@@@@@@@@@###@@@@@@@@@@@.                             ",
"     .+####.++#####%%%%######++###########$$$#####################++..####++..######+++######@@@@@@@@@@@@@@@@###@@@@@@@@@@@@@..                             ",
"     .+#####..++###%%%%########++#######$$$$$$$####################..+######++...+++######@@@@@@@@@@@@@@@@###@@@@@@@@@@@@@...                               ",
"      .+######..++##%%%##########++##$$$$$$$$$$$################...++#########+++.#####@@@@@@@@@@@@@@@@###@@@@@@@@@@@@@...                                  ",
"      ...#######..++##%############+%$$$$$$$$################...+++########+++##+.##@@@@@@@@@@@@@@@@###@@@@@@@@@@@@@...                                     ",
"         ..#######..++##############%%%$$$################...+++########+++######.@@@@@@@@@@@@@@@###@@@@@@@@@@@@@...                                        ",
"           ..#######..++############%%%%+##############...+++########+++######@@#.@@@@@@@@@@@@###@@@@@@@@@@@@@...                                           ",
"             ..#######..++##########%%%%#++#########...+++########+++######@@@@@#.@@@@@@@@@###@@@@@@@@@@@@@...                                              ",
"               ..#######..++########%%%%###++####...+++########+++######@@@@@@@@#.@@@@@@###@@@@@@@@@@@@@...                                                 ",
"                 ..#######..++######%%%%#####++#.+++########+++######@@@@@@@@@@@#.@@@###@@@@@@@@@@@@@...                                                    ",
"                   ..#######..++####%%%%#######.+########+++######@@@@@@@@@@@@@@#.@@#@@@@@@@@@@@@@...                                                       ",
"                     ..#######..++###%%%#######.+++###+++######@@@@@@@@@@@@@@@@@#.@@@@@@@@@@@@@...                                                          ",
"                       ..#######..++###%#######.+##+++######@@@@@@@@@@@@@@@@###@#.@@@@@@@@@@...                                                             ",
"                         ..#######..++#########.+####+###@@@@@@@@@@@@@@@@###@@@@#.@@@@@@@...                                                                ",
"                           ..#######..++#######.+####@#@@@@@@@@@@@@@@@###@@@@@@@#.@@@@...                                                                   ",
"                             ..#######..++#####.+#####@@@@@@@@@@@@@###@@@@@@@@@@#.@...                                                                      ",
"                               ..#######..++###.+#####@@@@@@@@@@###@@@@@@@@@@@@@...                                                                         ",
"                                 ..#######..++#.+#####@@@@@@@###@@@@@@@@@@@@@...                                                                            ",
"                                   ..#######..+.+#####@@@@###@@@@@@@@@@@@@...                                                                               ",
"                                     ..#######..+#####@@@#@@@@@@@@@@@@@...                                                                                  ",
"                                       ..#############@@@@@@@@@@@@@@...                                                                                     ",
"                                         ..###########@@@@@@@@@@@...                                                                                        ",
"                                           ..#########@@@@@@@@...                                                                                           ",
"                                             ..#######@@@@@...                                                                                              ",
"                                               ..####@@....                                                                                                 ",
"                                                 .....                                                                                                      ",
"                                                                                                                                                            ",
"                                                                                                                                                            ",
"                                                                                                                                                            "};
