/* XPM */
static char * phone_xpm[] = {
"34 29 6 1",
" 	c None",
".	c #000000000000",
"X	c #FFFFFFFFFFFF",
"o	c #FFFFF7DECF3C",
"O	c #FFFF9248A699",
"+	c #861782070000",
"                                  ",
"          ......                  ",
"        ..Xooooo...               ",
"       .oooXXXXXooo...            ",
"      .ooooOO..oXXXooo..          ",
"     .ooooOO.Xo.oooXXooo..        ",
"     ..ooOOO.o O.ooooXXooo..      ",
"     .o..O...o O.Ooo..OXXooo.     ",
"     .ooO. ooo O.OO.XoOOoXooo.    ",
"      .O. ooooooo...o O.OoXooo.   ",
"       . ooXX+ooooo.o O.OooXooo.  ",
"      . ooo+.XX+ooooo O.OooXoooX. ",
"     . ooXX+o+.XX+ooooo.OoooXXXO. ",
"    . ooo+.XX+o+.ooooo .Oooo OOO. ",
"   . ooXX+o+.XX+ooooo O.Oooo OOO. ",
"  . ooo+.XX+o+.ooooo OO..ooo OOO. ",
" . XXoooo+.XX+ooooo OOO.Oooo OO.. ",
" . XXXXoooo+.ooooo OOOO.Ooo....O. ",
" . ooXXXXoooooooo OOOOOO.ooo OOO. ",
" . ooooXXXXooooo OOOOOOO..ooOOO.  ",
" . ooooooXXXXoo OOOOOOOOO......   ",
" ..  ooooooXXX OOOOOOOOOOO..      ",
"   ..  ooooooXOOOOOOOOOO..        ",
"     ..  oooooOOOOOOOO..          ",
"       ..  oooOOOOOO..            ",
"         ..  oOOOO..              ",
"           .. OO..                ",
"             ...                  ",
"                                  "};
