/* XPM */
static char * image_name[] = {
"56 46 38 1",
" 	c #F7F7F3F3F7F7",
".	c #AEAEAAAAAEAE",
"X	c #F7F7F7F7F7F7",
"o	c #000000000000",
"O	c #9E9E9A9A9E9E",
"+	c #868686868E8E",
"@	c #383869699E9E",
"#	c #969692929696",
"$	c #AEAEAEAEB6B6",
"%	c #B6B6B2B2B6B6",
"&	c #000000001010",
"*	c #B6B6AEAEB6B6",
"=	c #9E9E75758686",
"-	c #797986868E8E",
";	c #8E8E8E8E7979",
":	c #717182829696",
">	c #9E9E96969E9E",
",	c #080804040808",
"<	c #696971718E8E",
"1	c #A6A69E9EA6A6",
"2	c #9E9EA6A6AEAE",
"3	c #A6A6A2A2A6A6",
"4	c #A6A69A9A5959",
"5	c #AEAEA6A6AEAE",
"6	c #B6B6BABAC7C7",
"7	c #E7E7EBEBEFEF",
"8	c #51519E9E4949",
"9	c #9E9E9A9AB6B6",
"0	c #FFFFFBFBFFFF",
"q	c #86867D7D7171",
"w	c #BEBEC3C3BEBE",
"e	c #8E8E8E8E9696",
"r	c #A6A665656161",
"t	c #96969A9AAEAE",
"y	c #51515151FFFF",
"u	c #69698E8EAEAE",
"i	c #717171717171",
"p	c #8E8E79796969",
"                                                       .",
"X......................................................o",
" ...............O++@+@+@+@++#O.........................o",
"X....$....$...++@@@@@@@@@@o@o@@O....$....$...$....%....o",
" O...O..$O..+@@o#+#@&@&@*=-@+ooo@O...O...O...O...O...O.o",
" ..........+o@&@o@o.+&@o;:=+o@ooooO....$...............o",
" #$#$#$#.#@o@o@>#&@+@@@=@@.-;,@o@oo#$#.#.O.#$#$#$#$#$#.o",
" $....#.$@o@&@#.+...*@<.=1;-==&@&@oo#$#$......#.......Oo",
" #.#$#.#@&@o@@*+@@+..*$+2:3-o@<o@o@oo#.#.#.#$#.#$#.#.#.o",
" $..#.$@o@&@&@@@@=+.....+$<4++,@&@&@o,#$#$.$#..$#..$#$.o",
" #.#$#+o@o@@@@@=<. . ..+.+.<.+@ooo+o@o@#.#.#$#$#$#.#.#.o",
"X$#...o@&@&@&@@$XX.......5+=+@,@+o@@oo,@#$#$.$#.#$#$.$#o",
" #.O.@@&@@@@=67. .X.X..+.+.8*,@o+oo@+ooo$#.#$#.O.#$#.#.o",
" $#.O@o@&@@+2    X.X......=*+=+@o@&@&@oo@.O.#$#.#$#$#$#o",
" #.#-o@>#+@= . . .X.X....+.+5-@&@o@o@&@ooO.#.#$#$#.#.#$o",
"X##$@@o#>.*@    XX. $.....<4<=o@&@&@o@&@o@#$#O#.#O#.O##o",
" #$++o@+@@ 90. .X.X. ..+.+.:$o@o@,@&@,ooo@$#$#.O.#$#$#$o",
"X##q+.&@*@@X. .X.X.$......+.+@o@&@,@&@o@o,####O##O#####o",
" #$@<49o@9X@ $ . .X.X..+.;.+.o@&@,@o@,@&oo.O.O2O.O.O.O.,",
"X##++9+$o*.*..........$...<=+@&@o@&@oo&@o,##O#O####O###o",
" ##@;+.++o@=-..X.X.$...+.+.8*=@o@&@,@o@ooo##.##O$###we#,",
"X##@+#+.5+&@o@o.........q++=+-+@&@oo&@&@o,#O##O###O####o",
" #O@<O.;.o@o@&@o@+.+.+.+.+.+=@<@+@+@ooooooO##O##O-2##O#,",
"X##@:4##+@&@o@&@&@....;+<4-;<+@r@@@@,@o@o,#O##2-OO##O##o",
" +#@+;<##o@&@o@o@o=o.+.+.<+@+@=@<@@@@&,ooo##O8OO#82##8to",
"X#O@:=+-#@o@&@&@&@o@o@=;++<;=;@@@@@@<=+++-:4--e84+##OtOo",
" ##r@<@;+<@,@,@o@&@&@o@@+@+@<@<@@y@&4    XX7XX  @:#4:-#o",
" O#u@4:=+;@@o@&@,@o@&@o;<+@+@e@@@@@@=7@@@@@@@@@*&8#O###o",
" 8t8=@<@-==;@&@,@&@o@,+@<@+@=@@@@&@&- @ <@&&o&@*&=t<O4eo",
"X>>>t&r+<4:<=@,@&@,@&@<+@+@:@@@@@@@@< @+&oooo&@.o:O##e#o",
" =#+#@@@e@<@;,@o@o@&@@+@+@=@<@yo@&@&4 @@,ooooo@.o4e-O-#o",
"X#-###&@@i@+<@&@&@o++=@@@=@@@@@@@@&&=7@oooooo&@.&+iO##+o",
"X;#-#-;@@@=@+o@,@&+@=@+@=@@@@&@&@&@o- @&oooooo@*o+#4e81o",
" O<#;O=@&@@+@@&@,@@<@@@@@@@@@@@@&,oo+ @@@@@@@@@.o+:e=t=o",
" -O-#<O;@@@@=&@o+@;@=@@@@@yo@&@&@,@o+.*.*.*.*...o+#89p#o",
"X<4#=4:e=@&@@@&@@@@@@@@@@&@@@@&,oooo+@oo&oo&oo&oo-r1<+-o",
" +e:e:#:t+@@@@@&@@@@@yo@@@@&@&@,@&+    X  X  X  X02+O-#o",
" ;=8+;=4<==@@&@@@@@@@@@@&@&@,&oooo+ ..............@+<4+o",
" =O=t<e:O-eet@@&@&@&@&@&@&@&@ooo@+= +++@+@+@ooo@+.o;#=eo",
" ::=8:=4<+;<=e=@&@&@&@&@&@&ooo@+<4-.............=+,@---o",
" -4<1<-:O-+<Oi-=t@@&@&@&@&@@@+++#<+oooooooooooooooo@=r-o",
" 4<:+++;<4<4++ei:=e<4<=++++<;=q+++r+@@@@@@@@@@@@@@@@:+;o",
" <>;=<4<#<><+4<++4e=:+;=<;#+<-;=-;ue=<;=:+>=-++=-++;=:+o",
"X-e=8:=8:=4-+<;+:<e<;<-<4-;<;=-i-+p<;++-+++-;-=-++<-<4-o",
"X=<;=e;=e<:=<++;++-4=-++<++;-=:4<4=:<+r-+q<++<8=+r-++<<o",
".o,o&o,&ooooooooooo&ooooooooooo,o&o,ooooo,ooo,&&ooooo,oo"};
