/* XPM */
static char * filedel_xpm[] = {
"22 22 4 1",
" 	c None",
".	c #000000000000",
"X	c #FFFFFFFFFFFF",
"o	c #DEF6DEF6DEF6",
"                      ",
" .                .   ",
"  .              .    ",
"   . ........   .     ",
"    ..XXXXXXo. .      ",
"     .XXXXXX o.       ",
"     .XXXXXX X..      ",
"     ..XXXXX ....     ",
"     .X.XXXX.   .     ",
"     .XX.XX.XXXo.     ",
"     .XXX..XXXXX.     ",
"     .XXX..XXXXX.     ",
"     .XX.XX.XXXX.     ",
"     .X.XXXX.XXX.     ",
"     ..XXXXXX.XX.     ",
"     .XXXXXXXX.X.     ",
"     .XXXXXXXX.X.     ",
"    ..XXXXXXXXX..     ",
"   . ............     ",
"  .              .    ",
" .                .   ",
"                      "};
