/* XPM */
static char * kjots_xpm[] = {
"32 32 87 1",
" 	c None",
".	c #000000",
"+	c #050505",
"@	c #0B0B0B",
"#	c #111111",
"$	c #171716",
"%	c #1D1D1C",
"&	c #232322",
"*	c #292928",
"=	c #2F2F2D",
"-	c #343433",
";	c #3A3A39",
">	c #40403F",
",	c #464644",
"'	c #4C4C4A",
")	c #525250",
"!	c #585856",
"~	c #FFFFFF",
"{	c #FEFEFE",
"]	c #FDFDFD",
"^	c #FCFCFC",
"/	c #FCFCFB",
"(	c #FEFEFC",
"_	c #5E5E5B",
":	c #FBFBFB",
"<	c #FBFBFA",
"[	c #FAFAFA",
"}	c #FAFAF9",
"|	c #303030",
"1	c #585858",
"2	c #DCDCDC",
"3	c #A0A0A0",
"4	c #C3C3C3",
"5	c #808080",
"6	c #BABABC",
"7	c #F9F9F9",
"8	c #F9F9F8",
"9	c #F8F8F8",
"0	c #F8F8F7",
"a	c #F7F7F7",
"b	c #F7F7F6",
"c	c #F6F6F6",
"d	c #F6F6F5",
"e	c #F5F5F5",
"f	c #F5F5F4",
"g	c #FDFDFC",
"h	c #F4F4F4",
"i	c #F4F4F3",
"j	c #F3F3F2",
"k	c #F3F3F3",
"l	c #F2F2F2",
"m	c #F2F2F1",
"n	c #F1F1F0",
"o	c #F0F0F0",
"p	c #F0F0EF",
"q	c #EFEFEF",
"r	c #EFEFEE",
"s	c #EEEEED",
"t	c #EDEDEC",
"u	c #EDEDEB",
"v	c #ECECEB",
"w	c #EBEBE9",
"x	c #EBEBEA",
"y	c #EAEAE9",
"z	c #E9E9E8",
"A	c #E9E9E7",
"B	c #E8E8E7",
"C	c #EAEAE8",
"D	c #E8E8E6",
"E	c #E7E7E6",
"F	c #E6E6E5",
"G	c #E7E7E5",
"H	c #E6E6E4",
"I	c #E5E5E4",
"J	c #E5E5E3",
"K	c #E4E4E2",
"L	c #E4E4E3",
"M	c #E3E3E2",
"N	c #E3E3E1",
"O	c #E2E2E0",
"P	c #E1E1E0",
"Q	c #E1E1DF",
"R	c #ECECEA",
"S	c #E2E2E1",
"T	c #E0E0DE",
"U	c #DFDFDD",
"V	c #DEDEDC",
"    ......+@#$%&*=-;>,')!       ",
"    .~~~~~~~~{{]]]^^^^/'(_      ",
"    .~~~~~~{{]]^^/::::<,((_     ",
"    .~~~~{{]]^^::<[[[}}>(((!    ",
"    .~~~|12|1|3(45||1}}6>,')    ",
"    .~{{]^^::[}7789900aa666'    ",
"    .{]]^/:[[78990aabbccccc,    ",
"    .]]^.31d53d513.d35.1efe>    ",
"    .g^:[}789abcddeffhhiiii;    ",
"    .^:[31.1(.3(5.13(.1(djj-    ",
"    .:[}89abcdffiikjjlmmmmm=    ",
"    .[}8.15m35.1m1.m.m5.nnn*    ",
"    .}89abdehikjmmnnopppppp&    ",
"    .79abdfhijlmnnppqrrrrrr%    ",
"    .9ab31.51.3r1.53r.31sss$    ",
"    .0bdehkjmnnprrssttttuvu#    ",
"    .ace.1m5.1r3.5v.v.1vswx@    ",
"    .cdfijmnoprsstvvxxxwyyy+    ",
"    .dfi|15o1|3o45||13wxxzz.    ",
"    .efijmnprsttvxwyzzABBBB.    ",
"    .fijmnprsstvxyCzABDEEEE.    ",
"    .fij.315t35513.E35.1FFF.    ",
"    .hkmnprstvxwCzBEGFHIIJI.    ",
"    .ijm|13t1||z|125|1KKKKK.    ",
"    .ijmoqstvxyzADGHILKMNNN.    ",
"    .kln.15t35.1A1..15O3OOO.    ",
"    .jmnprstvxCADGHJKNOPQQQ.    ",
"    .jmnprstRwzBEFILMSPQTTT.    ",
"    .jmnprsuxyzBEFIKNOQTUUU.    ",
"    .jmnprsvxyzBEFJKNOQTUVU.    ",
"    .jmnprsuxyzBEFIKNOQTUUU.    ",
"    ........................    "};
