/* XPM */
static char * large_kjots_xpm[] = {
"44 44 59 1",
" 	c None",
".	c #000000",
"+	c #020204",
"@	c #222224",
"#	c #323234",
"$	c #464644",
"%	c #464234",
"&	c #5A5A5C",
"*	c #FEFEFC",
"=	c #BABABC",
"-	c #5E5E5C",
";	c #FAFAFC",
">	c #303030",
",	c #585858",
"'	c #DCDCDC",
")	c #A0A0A0",
"!	c #C3C3C3",
"~	c #808080",
"{	c #9B9B9B",
"]	c #626264",
"^	c #FDFDFB",
"/	c #FCFCFA",
"(	c #FBFBF9",
"_	c #FFFFFF",
":	c #FAFAF8",
"<	c #F9F9F7",
"[	c #F8F8F6",
"}	c #F7F7F5",
"|	c #4E4E4C",
"1	c #F6F6F4",
"2	c #F5F5F3",
"3	c #F4F4F2",
"4	c #F3F3F1",
"5	c #F2F2F0",
"6	c #F0F0EE",
"7	c #F1F1EF",
"8	c #3A3A3C",
"9	c #363634",
"0	c #EFEFED",
"a	c #EEEEEC",
"b	c #EDEDEB",
"c	c #ECECEA",
"d	c #EBEBE9",
"e	c #EAEAE8",
"f	c #F9F9F9",
"g	c #FEFEFE",
"h	c #E9E9E7",
"i	c #E8E8E6",
"j	c #262624",
"k	c #E7E7E5",
"l	c #E6E6E4",
"m	c #E5E5E3",
"n	c #E4E4E2",
"o	c #E3E3E1",
"p	c #E2E2E0",
"q	c #E1E1DF",
"r	c #E0E0DE",
"s	c #DFDFDD",
"t	c #DEDEDC",
"                                            ",
"      .++@@@@@@####$%%$%%&&&&&&&&&          ",
"      .************************=-;&         ",
"      .************************=&**&        ",
"      .************************=-**;&       ",
"      .************************=&;***-      ",
"      .************************=-&-&&-      ",
"      .***>,'>,>)*!~>>,>)*.'****={{{{]      ",
"      .**************************====-      ",
"      .*************************^^/((&      ",
"      .***.),_~)*~,).*)~.,*).,~.,)(::-      ",
"      .***********************^//(::<&      ",
"      .***),.,*.)*~.,)*.,*,.~^.,~:<<[$      ",
"      .********************^^/((:<[[}|      ",
"      .***.,~*)~.,*,.*.*~.)/,.~:,.}}1%      ",
"      .******************^//(:<<[}}12|      ",
"      .***'.*)>,>>~!*)>,>',>:<[[}1123|      ",
"      .***************^^/(::<[[}12234|      ",
"      .**************^//(:<<[}}122345%      ",
"      .***),.~,.)*,.~)*.),~*)~_,).655|      ",
"      .***********^^/(::<[[}1123445778      ",
"      .***.,:~.,/).~*.*.,*,.~)*~667669      ",
"      .*********^/((:<<[}}123345576609      ",
"      .***>,~*,>)*!~>>,)2~.'34577600a8      ",
"      .******^//(::<[[}12234457760aab8      ",
"      .*****^//(:<<[}}12234557660abbc9      ",
"      .***.),~[)~~,).*)~.,~[.,6.,)bcd9      ",
"      .**^^/(::<[[}11234457760aabccde@      ",
"      .*^/>,)f,>>g>,'~>,>,_~,aabcddeh@      ",
"      .^/((:<<[}}12334557600abbcddehij      ",
"      ./((.,~*)~.,*,..,~*)~.,*,.*.hii@      ",
"      .(::<[}}12234457660aabccdehhikkj      ",
"      .:<<>,'>,>)*!~>>,>)*bcddehhikll@      ",
"      .<[[}112334577600abbcdeehiiklmmj      ",
"      .[[}12234457760aabccdeehikklmmn@      ",
"      .}}1.,:~.,/).~*.*.,*,.~ikllmnno+      ",
"      .112334557600abbcdeehiikllmnoop+      ",
"      .12344577600abccdeehikklmmnoopq+      ",
"      .234457660aabcddehhikklmnnoppqr+      ",
"      .34557660abbcddehiikllmnnopqqrs+      ",
"      .4577600abccdeehiiklmmnoopqqrst+      ",
"      .57760aabccdehhikklmmnoppqrrstt+      ",
"      ................................      ",
"                                            "};
