/* XPM */
/* Drawn  by Mark Donohoe and Nico Schirwing for the K Desktop Environment */
/* See http://www.kde.org */
static char*kjots[]={
"16 16 7 1",
"# c #000000",
"d c #c0c0c0",
"c c #ffffff",
"b c #808080",
"e c #c0c0ff",
"a c #ffdca8",
". c None",
".#..............",
"#a#.............",
".#a#............",
"..#a#...........",
"...#a#.###......",
"....#a##b####...",
".....#a#cbb###..",
"....####ccddd##.",
"...##cccecccc##.",
"..##ccccecec##..",
".##cccccecc##...",
"##cccccccc##....",
".##bccccc##.....",
"...##bcc##......",
".....####.......",
".......#........"};

