/* XPM */
static char * kpaint_xpm[] = {
"34 34 256 2",
"  	c None",
". 	c #020204",
"+ 	c #06820C",
"@ 	c #968214",
"# 	c #8EC294",
"$ 	c #8E1654",
"% 	c #EEC448",
"& 	c #364224",
"* 	c #FDF161",
"= 	c #C88474",
"- 	c #454237",
"; 	c #C6E6D0",
"> 	c #4E6A5C",
", 	c #F4E6B0",
"' 	c #865E3C",
") 	c #98A6A0",
"! 	c #C9C5C4",
"~ 	c #0EC2C4",
"{ 	c #FEF8D2",
"] 	c #6E0604",
"^ 	c #566684",
"/ 	c #C64E14",
"( 	c #F6CACC",
"_ 	c #25241C",
": 	c #D6A64C",
"< 	c #70640C",
"[ 	c #528284",
"} 	c #89898E",
"| 	c #E8E8E9",
"1 	c #A7A5A1",
"2 	c #5A5214",
"3 	c #D3D2D3",
"4 	c #E9EEF7",
"5 	c #747474",
"6 	c #CA2214",
"7 	c #B3B5B4",
"8 	c #DEDE4C",
"9 	c #8C740F",
"0 	c #2424DC",
"a 	c #D9DADC",
"b 	c #BE82BC",
"c 	c #E8CC7C",
"d 	c #EE8224",
"e 	c #56BABC",
"f 	c #163A2C",
"g 	c #EEF7F7",
"h 	c #4BA551",
"i 	c #94969C",
"j 	c #266E04",
"k 	c #C66A64",
"l 	c #CE0604",
"m 	c #656469",
"n 	c #565554",
"o 	c #9A6E4C",
"p 	c #8ADAB4",
"q 	c #F7E7E9",
"r 	c #4CD84C",
"s 	c #16A24C",
"t 	c #CEF4EC",
"u 	c #E6A674",
"v 	c #F6F6F7",
"w 	c #020664",
"x 	c #F7CA57",
"y 	c #464864",
"z 	c #F3F1FA",
"A 	c #AE6E14",
"B 	c #DEDEDF",
"C 	c #EC120C",
"D 	c #E9E9FA",
"E 	c #A8A2F0",
"F 	c #B2B2F4",
"G 	c #F1993C",
"H 	c #AC860C",
"I 	c #AECACC",
"J 	c #957D09",
"K 	c #353535",
"L 	c #E26A64",
"M 	c #696B71",
"N 	c #5C5B5D",
"O 	c #FEFEFC",
"P 	c #5C4E50",
"Q 	c #D6E6D4",
"R 	c #222E74",
"S 	c #828384",
"T 	c #8A8ACC",
"U 	c #ABABA7",
"V 	c #D5D4EC",
"W 	c #7B756F",
"X 	c #BCBCB9",
"Y 	c #64AE64",
"Z 	c #9898E4",
"` 	c #2A7C1C",
" .	c #383E58",
"..	c #12142C",
"+.	c #32861C",
"@.	c #EFC466",
"#.	c #CA9E74",
"$.	c #427A64",
"%.	c #423020",
"&.	c #FEDEAC",
"*.	c #1B2B21",
"=.	c #8C8F9A",
"-.	c #EA0404",
";.	c #5C5C7C",
">.	c #045C60",
",.	c #4C4C4E",
"'.	c #D4BC60",
").	c #EEF0F6",
"!.	c #FE3234",
"~.	c #FEC69C",
"{.	c #72B66C",
"].	c #9C9C9C",
"^.	c #4AD6D4",
"/.	c #FEFAFC",
"(.	c #3D3A37",
"_.	c #DAEAEC",
":.	c #F80E0C",
"<.	c #86CE84",
"[.	c #BE4204",
"}.	c #86B6BC",
"|.	c #FD5D59",
"1.	c #D5D6D7",
"2.	c #767A7C",
"3.	c #D9DBF1",
"4.	c #EFCD78",
"5.	c #569E9C",
"6.	c #FEBE64",
"7.	c #FAFAFB",
"8.	c #DFDDF8",
"9.	c #42BE3C",
"0.	c #46B6B4",
"a.	c #C2DAD4",
"b.	c #068284",
"c.	c #066264",
"d.	c #369E44",
"e.	c #B40210",
"f.	c #428A64",
"g.	c #72DADC",
"h.	c #1E562C",
"i.	c #EA761C",
"j.	c #0C7E80",
"k.	c #EA260C",
"l.	c #7ECA84",
"m.	c #6E6EF4",
"n.	c #46D2D4",
"o.	c #1618B0",
"p.	c #6E8E54",
"q.	c #6A3E2C",
"r.	c #FC8C90",
"s.	c #A68A74",
"t.	c #8A837C",
"u.	c #DAA694",
"v.	c #1E9634",
"w.	c #C2785C",
"x.	c #FA9294",
"y.	c #1EAA7C",
"z.	c #307658",
"A.	c #FE767C",
"B.	c #56966C",
"C.	c #324E8C",
"D.	c #827E7F",
"E.	c #325A8C",
"F.	c #FEFE8C",
"G.	c #36A6AC",
"H.	c #BCEEE8",
"I.	c #76563C",
"J.	c #2A6294",
"K.	c #6A7284",
"L.	c #AED2AC",
"M.	c #171A59",
"N.	c #B6522C",
"O.	c #EED9D4",
"P.	c #6A8E84",
"Q.	c #F6BCC4",
"R.	c #EA6624",
"S.	c #DE7224",
"T.	c #FADA84",
"U.	c #9E7E0C",
"V.	c #0A9A9C",
"W.	c #FAA6A4",
"X.	c #473E2F",
"Y.	c #12929C",
"Z.	c #7E0A54",
"`.	c #6EC8D0",
" +	c #26962C",
".+	c #FE1A0C",
"++	c #C6B2B4",
"@+	c #A28A6C",
"#+	c #DF9B5F",
"$+	c #CECEFC",
"%+	c #02025C",
"&+	c #CE8AAC",
"*+	c #0A0AB4",
"=+	c #66D664",
"-+	c #1E1E14",
";+	c #7EE6B4",
">+	c #C28E8C",
",+	c #D65254",
"'+	c #CABE9C",
")+	c #FE2628",
"!+	c #FA7274",
"~+	c #4E4E94",
"{+	c #7C9498",
"]+	c #FEF29C",
"^+	c #F21E14",
"/+	c #5AA858",
"(+	c #DEF8F0",
"_+	c #96D098",
":+	c #EC8C3C",
"<+	c #C2C2C8",
"[+	c #557D71",
"}+	c #BE8A5C",
"|+	c #62DADC",
"1+	c #5D6369",
"2+	c #F4D6D4",
"3+	c #B0442C",
"4+	c #5E5844",
"5+	c #566A8C",
"6+	c #FA3E3C",
"7+	c #FC9C9C",
"8+	c #3A8E9C",
"9+	c #DA9A8C",
"0+	c #7D6909",
"a+	c #F6EEC0",
"b+	c #CE723C",
"c+	c #F22E34",
"d+	c #4E96A4",
"e+	c #225E54",
"f+	c #FD0504",
"g+	c #DAAEB4",
"h+	c #E6DEF4",
"i+	c #B68E0C",
"j+	c #6262AC",
"k+	c #E1E4F8",
"l+	c #6A5E44",
"m+	c #969294",
"n+	c #72B274",
"o+	c #BE462C",
"p+	c #929EA4",
"q+	c #7A7A7C",
"r+	c #2A2E24",
"s+	c #FEFEC4",
"t+	c #86CA8C",
"u+	c #BABAFC",
"v+	c #9AD694",
"w+	c #FAD2D4",
"x+	c #6EBE74",
"y+	c #FEAEAC",
"z+	c #FACE6C",
"A+	c #FE7E84",
"B+	c #42C63C",
"C+	c #A2A2A9",
"D+	c #3E362C",
"E+	c #E2E2E0",
"F+	c #F8C65C",
"G+	c #7AC6C4",
"                                                                    ",
"                                          . .               . .     ",
"                                      . . U .           . . 6 l .   ",
"                                  . . 1 v v 1 .       . ( r.6+] .   ",
"                              . . 1 E+7.O O a .     . ( |.:.e..     ",
"                          . . 1 v O O O O O O 1 ,.. ,+)+c+k q..     ",
"                      . . 1 | v O 7.O O O O O a . }+>+= ++S .       ",
"                  . . 1 | ).).v O O O 7.O O 7.U K t.D.i D..         ",
"              . . ].k+v w+).D v 7.O { { { O 3 l+O K q+. .           ",
"          . . ].1.k+O.!+|.Q.r.W.q { ]+* * , l+1.3.S .               ",
"      . . ].).).4 2+W.y+7+|.:.f+R., { * '.l+s+n } . ,.              ",
"  . . ].3 z D D Q.x.q w+A+)+f+-.k., F.8 l+s+'.< (.5 S .             ",
"  . C+k+3.D ).D g+L x.A.!.:.-.e.&+c : 4+s+4.< D+S 3 3 .             ",
"    . 3.3.D z 4 n+p.b+.+f+^+$ b u+T P s+@.9 r+5 ! 7.O 1 .           ",
"    . =.k+D 7.; # ; +.A C Z.j+$+k+;.{ c 0+_ N U v O O a .           ",
"      . <+4 v /+Q (+d.` j h.~+Z 5+s+4.9 ..M.7 7.O O O 7.1 .         ",
"      . =.).v {.Y _+/++ j y.R ,.s+% J -+%+o.E O O O O z a .         ",
"        . 8.v /.H.d. +s `.G.> s+F+0+..%+o.0 Z 7.7.O 7.D 8.i .       ",
"        . U D v 7.Y v.p a.[+s+% J _ M.*+0 m.3.O O O 7.k+V $+,.      ",
"          . B ).7.).t e 1+s+% 9 *.m ].F E 3.O.| (+_+f.h+}.K.;..     ",
"          . 1 ).7.7.<+5 s+% 9 *.>.U | ! ~.&.[.o ;+=+r {+H.`.y y .   ",
"            . | O a t.s+@.J *.>.b.g.B X.u a+S.N.<._+h [ _.d+E.M..   ",
"            . U 3 N s+x J *.>.b.~ (+a %.6.G / o+x+r z.[+I 8+E. ..   ",
"              (.2 s+z+U.& e+j.V.^.O a %.G G 3+9+l.9.z.} G+Y.C.M .   ",
"              (.s+4.9 _ 5 ) n.|+(+O a %.:+i.3+O.<.9.$.p+0.J.;.M .   ",
"            . s+T.H X.N <+).O O /.O a K #.d w.7.L.h [+p+5.E.M N .   ",
"          . s+@.J - n 1 v O O O O O a K 1 #+w.7.a B.{+1 ^ M 1+n .   ",
"        . s+% 0+. (.i v O 7.O O 7.O 3 K 1 #+w.g 1.P.7 U } 5 M N .   ",
"      . s+x J .   . U v O 7.O O O E+X K '+#+u.).1.X ! U 1 S 5 m .   ",
"    . s+F+H .       . 3 O O O | <+. ,.-+@+:+q _.3 <+X 7 U =.} m .   ",
"  . @+4.i+.         . U O v X . .     . ,.I.m+U X U m+2.M 4+,.(..   ",
"  . ' 0+.             . 7 . .         . ,.m C+7 7 U ].} 5 n - ,..   ",
"    . .                 .               . . . . . . . . . . . .     ",
"                                                                    "};
