/* XPM */
static char * kpaint_xpm[] = {
"48 48 231 2",
"  	c None",
". 	c #020204",
"+ 	c #AA2A14",
"@ 	c #660204",
"# 	c #C6C6C4",
"$ 	c #A2A2A4",
"% 	c #EA0204",
"& 	c #DADADC",
"* 	c #DEDEDC",
"= 	c #F6CACC",
"- 	c #F6B2B4",
"; 	c #FA8284",
"> 	c #F2322C",
", 	c #B6B6B4",
"' 	c #F6F6F4",
") 	c #FAFAFC",
"! 	c #FEFEFC",
"~ 	c #E6E6E4",
"{ 	c #322A1C",
"] 	c #FA4A4C",
"^ 	c #FE0604",
"/ 	c #D20604",
"( 	c #FAF6F4",
"_ 	c #F21204",
": 	c #F2F2F4",
"< 	c #F6F6FC",
"[ 	c #4A4A4C",
"} 	c #D66664",
"| 	c #FA1614",
"1 	c #DE3634",
"2 	c #8E6244",
"3 	c #EAEAF4",
"4 	c #F2F2FC",
"5 	c #BABABC",
"6 	c #C69A9C",
"7 	c #6E6E6C",
"8 	c #060604",
"9 	c #EEEEFC",
"0 	c #1A160C",
"a 	c #D28A4C",
"b 	c #C6BE9C",
"c 	c #9E9EA4",
"d 	c #AAA6A4",
"e 	c #827674",
"f 	c #EEE6F4",
"g 	c #E2E6EC",
"h 	c #E6E6FC",
"i 	c #EAEAFC",
"j 	c #F2EEFC",
"k 	c #929294",
"l 	c #B29E94",
"m 	c #625A54",
"n 	c #928E8C",
"o 	c #9E9A9C",
"p 	c #7A766C",
"q 	c #9696AC",
"r 	c #EEEAFC",
"s 	c #FAE6E4",
"t 	c #F6F2FC",
"u 	c #FEFEF4",
"v 	c #FEFAEC",
"w 	c #B6B6BC",
"x 	c #3A3A3C",
"y 	c #727274",
"z 	c #D6D2EC",
"A 	c #E2E2FC",
"B 	c #EAD2E4",
"C 	c #FE9A9C",
"D 	c #F6CED4",
"E 	c #FEEE94",
"F 	c #FAEEC4",
"G 	c #E2E2E4",
"H 	c #666664",
"I 	c #222224",
"J 	c #362E2C",
"K 	c #5E5E64",
"L 	c #2E2E2C",
"M 	c #262624",
"N 	c #2A2A34",
"O 	c #AEAEBC",
"P 	c #DEDEF4",
"Q 	c #DEDEFC",
"R 	c #D6D6FC",
"S 	c #FE6E6C",
"T 	c #FEEA54",
"U 	c #EADAAC",
"V 	c #CAD2EC",
"W 	c #B2AEDC",
"X 	c #464644",
"Y 	c #12122C",
"Z 	c #EA9A5C",
"` 	c #F6CE94",
" .	c #766654",
"..	c #4E4634",
"+.	c #7A7E8C",
"@.	c #161614",
"#.	c #EE1204",
"$.	c #E2721C",
"%.	c #F6E2BC",
"&.	c #FEF6B4",
"*.	c #C29E3C",
"=.	c #9E9A7C",
"-.	c #424244",
";.	c #525254",
">.	c #323234",
",.	c #626264",
"'.	c #969694",
").	c #FAE6AC",
"!.	c #FAB64C",
"~.	c #A28A14",
"{.	c #464204",
"].	c #767674",
"^.	c #8E8E8C",
"/.	c #7A7A7C",
"(.	c #B70505",
"_.	c #F6C674",
":.	c #D2A644",
"<.	c #3E3A24",
"[.	c #A6A6A4",
"}.	c #92928C",
"|.	c #C2BEDC",
"1.	c #BACED4",
"2.	c #CE7A54",
"3.	c #691ED4",
"4.	c #9E9AF4",
"5.	c #8E8264",
"6.	c #EABA64",
"7.	c #AE8624",
"8.	c #363634",
"9.	c #EAEEFC",
"0.	c #92CA94",
"a.	c #329634",
"b.	c #72B674",
"c.	c #928E4C",
"d.	c #E61A1C",
"e.	c #0A0A94",
"f.	c #C6C6FC",
"g.	c #E6E2FC",
"h.	c #323274",
"i.	c #4E5204",
"j.	c #9E9E9C",
"k.	c #CECECC",
"l.	c #EAEAEC",
"m.	c #DAF6F4",
"n.	c #3A6604",
"o.	c #6E6EA4",
"p.	c #7E8E94",
"q.	c #CAEAD4",
"r.	c #4AAA4C",
"s.	c #46862C",
"t.	c #06067C",
"u.	c #364E84",
"v.	c #BA9214",
"w.	c #1E265C",
"x.	c #BECABC",
"y.	c #EAF2E4",
"z.	c #0A7E14",
"A.	c #020254",
"B.	c #E6EAE4",
"C.	c #2EB68C",
"D.	c #129A9C",
"E.	c #B6AE8C",
"F.	c #1E1ED4",
"G.	c #6A6AE8",
"H.	c #6ACEAC",
"I.	c #0A9E4C",
"J.	c #3EB2B4",
"K.	c #6AC6CC",
"L.	c #123A34",
"M.	c #D6CEAC",
"N.	c #1F1FB7",
"O.	c #AEAEB4",
"P.	c #EEFAFC",
"Q.	c #56969C",
"R.	c #326A5C",
"S.	c #F2BA34",
"T.	c #5252EC",
"U.	c #D2D2D4",
"V.	c #42B27C",
"W.	c #32325C",
"X.	c #EEEEEC",
"Y.	c #9AE6E4",
"Z.	c #B28E14",
"`.	c #AAAAAC",
" +	c #B0AEEF",
".+	c #626674",
"++	c #5E627C",
"@+	c #6A6A6C",
"#+	c #0A6A6C",
"$+	c #F2B28C",
"%+	c #B6562C",
"&+	c #66DA74",
"*+	c #3EC23C",
"=+	c #56565C",
"-+	c #FEFAFC",
";+	c #AAB2AC",
">+	c #868684",
",+	c #025654",
"'+	c #9EBEBC",
")+	c #828284",
"!+	c #E29A64",
"~+	c #527A74",
"{+	c #7E7E7C",
"]+	c #021E1C",
"^+	c #22CACC",
"/+	c #AEAEAC",
"(+	c #E68A34",
"_+	c #4E9A5C",
":+	c #2A6694",
"<+	c #D6A60C",
"[+	c #564E04",
"}+	c #265A54",
"|+	c #B2B6B4",
"1+	c #CE927C",
"2+	c #CE9A0C",
"3+	c #3A6E64",
"4+	c #627E84",
"5+	c #6E6E74",
"6+	c #8A8A8C",
"7+	c #82A294",
"8+	c #0A0A0C",
"9+	c #725E04",
"0+	c #5A5A5C",
"a+	c #565254",
"b+	c #524E4C",
"c+	c #D6D6D4",
"d+	c #C2BEC4",
"e+	c #464604",
"f+	c #3E3E3C",
"g+	c #7A6214",
"h+	c #0A0604",
"                                                                                                ",
"                                                                                                ",
"                                                            . .                     . . + @     ",
"                                                        . . # $ .               . . + % % @     ",
"                                                    . . # & * # .             . = - ; > @ .     ",
"                                                . . , ' ) ! ! ~ $ .         { = - ] ^ / @ .     ",
"                                            . . , ' ) ! ) ) ! ( # .       . - ; _ % / @ .       ",
"                                        . . , : < ) ! ) ! ! ) ! ~ $ [   . } ] | | 1 2 @ .       ",
"                                    . . , 3 4 < ) ) ! ) ) ! ) ! : 5 [ { + ] | ] 6 $ 7 .         ",
"                                8 . $ & 4 9 4 ) ) ! ) ! ! ) ! ) ! & 0 a b c $ 5 d e .           ",
"                            . . $ f g h i j ) ! ) ! ) ) ! ) ! ) ! k 0 l m e n o p .             ",
"                        . . q g j r f i 9 s t ) ! ) u v v ! ) ! w { x [ 7 k y m .               ",
"                    . . q z A i B C D r B 9 9 t ! v E E E F t G H G G I J K L M                 ",
"                I N O P Q R g C ] ] ; D S ; - t v E E T T E U M w v V W x X                     ",
"            Y . O P A A h i - S C - S S | ^ ^ Z ` E F T T U p  ...q q +.M [                     ",
"        @.. O A h A h Q B C - s D ; ] | ^ ^ #.$.%.v &.T *...=.%...-.+.;.>.,..                   ",
"    . Y '.R R A h h i B ; C s D - ; ] ^ ^ % / > ` E T T { b ).!.~.{.Y ].d ^.Y                   ",
"    @./.V z z A h i i R ; S C C ; ] ^ % % / (.- _._.:.<.b %._.~.{.<.7 [.& 5 }..                 ",
"      . |.R R A i 9 i 1.=.2 2.> ^ ^ % 1 / (.3.4.W 5.2 =.U 6.7.{.8.H d & ' ' , .                 ",
"      . O R R h 9 4 9.0.a.b.c.$.#.^ d./ e.Q f.g.4.h.e F 6.7.i.I H j.k.! ! ! l.^..               ",
"        . |.Q A 9 ) m.b.1.g a.n.$._ / e.o.4.' G h.b F _.~.{.I K 7 k.) ) ) ) ! w .               ",
"        . p.z A i 4 b.0.: q.r.s.n.i.n.t.o.4.z u.b %._.v.<.Y w./.k.' ! ! ! ! ! G ^..             ",
"          . |.A A 9.a.x.y.q.b.a.z.z.z.n.t.o.h.=.%.6.7.i.Y A.w.4.B.) ) ) ) ) < i O .             ",
"          . q & h 9.0.b.a.0.b.z.z.n.C.D.h.Y E.%.!.v.i.. A.t.F.G.g.! ! ! ! ) 9 A & ^..           ",
"            . |.i 4 ) m.H.a.r.z.I.J.K.D.L.M.%.!.v.{.Y A.e.N.F.G.Q ) ) ) ! < i Q R q .           ",
"            . O.P i ' P.q.a.z.I.H.q.Q.R.b U S.v.{.Y A.t.N.F.T.4.! ! ! ! ) 4 A z z z ^..         ",
"              . U.A 9.P.y.b.r.V.B.* R.E.%.S.7.i.{ W.h.F.F.T.4.Q ) ) ) ) < 9 A R f.f./..         ",
"              . O g i X.) P.) Y.J.L.E.).S.Z.i.Y K y `. +4. +Q ! ! ! ) ) r.R.Q R Q..+++++@+      ",
"                . & h 9 ) ) ! 5 L.b %.S.v.{.L.#+y 5 : 9 D $+` %+%+'.Y.&+*+&+p.1.Y.K.o.L =+      ",
"                . w g 4 -+! ;+>+b %.6.v.{.L.,+#+'+g & )+!+%.F $.%+c.&+q.*+*+~+K.m.K.Q.w.W.{+    ",
"                  . & < ' k.p E.F 6.Z.i.]+,+#+D.^+P./+8 %+%.U (+%+%+b.q.r._+R.'+g Q.:+u.A..     ",
"                  M $ G G M =.%.!.<+[+]+#+#+D.^+Y.) O.8 (+` (+$.+ %+b.&+*+R.}+|+'+Q.:+u.w..     ",
"                    . }.m =.` 6.<+[+L.,+,+#+D.^+m.) O.8 (+6.(+%++ 1+b.*+*+R.R.|+K.D.:+u.,.8     ",
"                    m { 5.%._.2+{.<.3+R.D.D.^+Y.P.! /+. $.(+(+%+%+9.0.*+r.R.4+|+J.D.u.u.5+8     ",
"                    J =.F _.2+{.0 ,.6+7+^+^+Y.! ) -+O.. a $.$.+ 1+' 0.*+r.3+$ Q.J.:+u.5+.+8+    ",
"                  M b F ` 2+9+M 7 '.# X.m.m.P.) ! ! /+8+=.$.$.%+D < 0.*+_+~+c Q.J.:+u.7 0+8     ",
"                . b U _.<+9+<.0+{+k.( -+) ) ! ) ) ! O.@.j.a (+%+s < & b.~+~+c 4+4+u..+H a+8     ",
"              . E.F 6.v.i.<.b+y # ! ) ! ! ! ) ! ! ) /+@.o =.Z %+s y.* b.~+'.$ o u.5+H K ;..     ",
"            8.E.F !.Z.{.{.[ K # ( ! ) ) ) ! ) ) ! -+O.@.o 5.Z %+s 9.& 7+~+|+`.$ .+].,.H a+8     ",
"          -.M.%.S.Z.{..   J y G ) ) ! ! ! ) ! ! ) B.^.8 j.=.Z 2.( B.c+;+p.d+/+$ '.+.5+y .+8     ",
"        . M.U S.2+e+J       . # ! ) ) ) ! ) ) X.# # {+. o 6.a 1+( G U.# x.d+O.[.o >+p ].H 8+    ",
"      . M.%.!.<+9+.         . 6+) ! ! ! ) ' 9.U.{+. L . /.a (+D 9.* c+d+d+5 /+`.$ 6+)+{+K .     ",
"    8 =.)._.<+9+.             . * : ) ) l., {+. .   `.. K 2 a c+U.d+d+|+|+/+[.$ $ ^.)+/.b+.     ",
"    . 2 6.Z.9+.               . n G l.# )+. .         . f+x f+=+].`.5 $ k /.K ;.-.x M M L .     ",
"    . 2 g+i..                   . `.[.. .             H f+;.y [./+5 |+/+$ o }.>+y 0+b+X -.H     ",
"      . . h+                    . . .                   8.. . 8 I I Y 8 . . . . . . . . ,.      ",
"                                                                                                ",
"                                                                                                "};
