/* XPM */
static char * ksnake_xpm[] = {
"34 34 191 2",
"  	c None",
". 	c #000000",
"+ 	c #95CFCF",
"@ 	c #50AFAF",
"# 	c #169494",
"$ 	c #57B3B3",
"% 	c #249C9C",
"& 	c #068381",
"* 	c #70BEBE",
"= 	c #259C9C",
"- 	c #008A8A",
"; 	c #4BADAD",
"> 	c #989796",
", 	c #6C6969",
"' 	c #4F4B4B",
") 	c #131212",
"! 	c #262626",
"~ 	c #6E6D6D",
"{ 	c #635F5F",
"] 	c #292424",
"^ 	c #222121",
"/ 	c #FFFFFF",
"( 	c #252525",
"_ 	c #333333",
": 	c #858383",
"< 	c #2F2F2F",
"[ 	c #353535",
"} 	c #EBEBEB",
"| 	c #D9D9D9",
"1 	c #1C7574",
"2 	c #CDCDCD",
"3 	c #0DC3BF",
"4 	c #23E1DF",
"5 	c #10D4D3",
"6 	c #09C8C9",
"7 	c #0C9E96",
"8 	c #15BCB7",
"9 	c #10D2D2",
"0 	c #13D1D1",
"a 	c #07D0CF",
"b 	c #1DE8E5",
"c 	c #1BDFDD",
"d 	c #0CC9CB",
"e 	c #0FD1D2",
"f 	c #15CFCE",
"g 	c #1DDFDD",
"h 	c #25E7E5",
"i 	c #1DDCDA",
"j 	c #16D5D4",
"k 	c #0ECACA",
"l 	c #05C2C3",
"m 	c #0AC9CA",
"n 	c #0BCACA",
"o 	c #12D1D1",
"p 	c #19DDDB",
"q 	c #014E4E",
"r 	c #1ADFDD",
"s 	c #12CFD0",
"t 	c #17B4B1",
"u 	c #09D3D3",
"v 	c #12CFCE",
"w 	c #004444",
"x 	c #30DCDA",
"y 	c #18CCCB",
"z 	c #07C3C4",
"A 	c #03C3C3",
"B 	c #0BD0CF",
"C 	c #0CCECD",
"D 	c #09ACAC",
"E 	c #17B1B0",
"F 	c #17D7D7",
"G 	c #13ABA6",
"H 	c #0FDDDC",
"I 	c #8C8C8C",
"J 	c #2BDCDA",
"K 	c #0FC7C7",
"L 	c #04CBCB",
"M 	c #0CC9C8",
"N 	c #054745",
"O 	c #012222",
"P 	c #000A0A",
"Q 	c #1CB4B4",
"R 	c #1CDAD9",
"S 	c #0ACECF",
"T 	c #1EDCDA",
"U 	c #25E9E8",
"V 	c #1BE4E1",
"W 	c #11DADA",
"X 	c #0BD1D1",
"Y 	c #02CCCD",
"Z 	c #0BC9C8",
"` 	c #032927",
" .	c #064C48",
"..	c #16B8B7",
"+.	c #16D5D5",
"@.	c #12C8C5",
"#.	c #149B90",
"$.	c #0E7269",
"%.	c #032624",
"&.	c #17D5D3",
"*.	c #0DC9C8",
"=.	c #0B615A",
"-.	c #EE4B4B",
";.	c #441616",
">.	c #20DEDC",
",.	c #17D5D4",
"'.	c #10CFCE",
").	c #F17171",
"!.	c #13D2D0",
"~.	c #13CCCB",
"{.	c #0DBBBB",
"].	c #EA2626",
"^.	c #1BD9D7",
"/.	c #10D1D0",
"(.	c #0CB6B3",
"_.	c #1AEAEA",
":.	c #16D6D4",
"<.	c #22E0DD",
"[.	c #0CBDBD",
"}.	c #13AEA9",
"|.	c #19D7D6",
"1.	c #23E0DE",
"2.	c #14D4D3",
"3.	c #13AEAB",
"4.	c #0EADAC",
"5.	c #25E2E0",
"6.	c #1BDAD8",
"7.	c #1BDFDE",
"8.	c #18D7D6",
"9.	c #16D7D7",
"0.	c #11B5AE",
"a.	c #042D2B",
"b.	c #23E1DE",
"c.	c #26E2E0",
"d.	c #1EDDDB",
"e.	c #1CE0DE",
"f.	c #0FBBB6",
"g.	c #1DDBD9",
"h.	c #24E0DD",
"i.	c #23E0DD",
"j.	c #1AD9D8",
"k.	c #11BFB7",
"l.	c #21E6E5",
"m.	c #1DE3E2",
"n.	c #19D9D8",
"o.	c #25E1DE",
"p.	c #22E0DE",
"q.	c #17D4D1",
"r.	c #1BDCDB",
"s.	c #21DFDD",
"t.	c #24E1DE",
"u.	c #1EDFDE",
"v.	c #21DAD7",
"w.	c #24E5E2",
"x.	c #1ADDDC",
"y.	c #25E0DD",
"z.	c #24DDDA",
"A.	c #19A69A",
"B.	c #23E3E0",
"C.	c #19D9D7",
"D.	c #25E3E0",
"E.	c #25E2DF",
"F.	c #25E0DB",
"G.	c #139286",
"H.	c #119A96",
"I.	c #1ED4CF",
"J.	c #19D7D5",
"K.	c #22DAD5",
"L.	c #23E3DF",
"M.	c #18A99D",
"N.	c #14D3D2",
"O.	c #11CFCF",
"P.	c #19D9D9",
"Q.	c #18D8D6",
"R.	c #18DAD8",
"S.	c #18D9D7",
"T.	c #16D6D5",
"U.	c #15D0CE",
"V.	c #10CBCA",
"W.	c #08534E",
"X.	c #031E1D",
"Y.	c #031E1C",
"Z.	c #092624",
"`.	c #1F3E3C",
" +	c #112F2D",
".+	c #06302D",
"++	c #05201E",
"@+	c #162F2E",
"#+	c #0F312F",
"$+	c #1C2237",
"%+	c #021E1D",
"                                                                    ",
"              . . .   . . . .                                       ",
"            . + @ # . + $ % & .                                     ",
"            . * = - . * ; = - .                                     ",
"          . > , ' ) ! ~ { ] ^ / .                                   ",
"          . / ( _ / : / < [ / } .                                   ",
"          . } / / | 1 } / / } 2 1 . .                               ",
"        . 3 1 } | 1 4 1 } | 2 1 5 6 7 .                             ",
"      . 8 9 4 1 1 4 0 a 1 1 1 b c 0 d 7 .                           ",
"    . 8 e f g h i j k l m n o p q r s t .                           ",
"  . 7 u v w x v w y z A B C D q E 4 F G .                           ",
"  . 8 H v I J v I K L M 8 N O P Q R S 7 .                   . .     ",
"    . . T U V W X Y Z `  .7 7 q ..+.@..                   . #.$..   ",
"        . . . . . . %.7 7 8 &.T T *.8 .                 . =.#.#..   ",
"      . -.-.;.      . 7 8 &.>.,.'.8 .                   . #.=..     ",
"    . ).-..         . 8 Z T T !.~.7 .                 . {.#..       ",
"    . -.]..         . 8 &.T ^./.8 .                 . (._..         ",
"    . . . .       . 7 :.<.>.>.Z 7 .               . [.4 }..         ",
"    .   .         . 8 |.1.T 2.8 .               . 3.4 4..           ",
"                . 7 Z 4 5.6.Z 7 .               . 8 7..             ",
"                . 8 8.>.4 9.8 .               . 8 4 0..             ",
"              a.7 Z b.c.d.Z 7 .               . e.4 f..             ",
"              . 8 g.h.i.j.8 .                 . k.l.m.7 .           ",
"            . 7 n.1.o.p.Z 7 .                   . Z 4 q.7 .         ",
"          . 7 r.s.t.h.u.8 .                     . 8 v.4 8 .         ",
"        . 7 8 s.o.o.w.Z 7 .                       . #.x.9 7 .       ",
"        . 8 Z t.y.z.A.#.. . . . . . . . . . . . . . #.B.C.8 .       ",
"      . 7 Z D.y.y.E.F.#.G.H.8 8 8 8 8 8 8 8 8 8 8 #.I.#.J.8 .       ",
"      . 7 8 Z >.E.E.K.L.M.4 4 4 4 4 4 4 4 4 4 4 4 4 4 N.O.7 .       ",
"        . 7 8 P.n.Q.Q.R.Q.R.Q.Q.Q.Q.Q.Q.Q.Q.Q.S.T.U.V.8 7 .         ",
"          . . 7 8 8 8 8 8 8 8 8 8 8 8 8 8 8 8 8 8 7 W.. .           ",
"              X.Y.Y.Y.Y.Z.`. +.+++@+#+$+Y.Y.Y.X.%+. .               ",
"                                                                    ",
"                                                                    "};
