/* XPM */
static char * large_ksnake_xpm[] = {
"48 48 169 2",
"  	c None",
". 	c #000000",
"+ 	c #95CFCF",
"@ 	c #69BABA",
"# 	c #3DA7A7",
"$ 	c #119292",
"% 	c #146F6F",
"& 	c #87C8C8",
"* 	c #61B7B7",
"= 	c #3BA6A6",
"- 	c #169595",
"; 	c #008A8A",
"> 	c #007070",
", 	c #83C7C7",
"' 	c #57B2B2",
") 	c #2B9F9F",
"! 	c #016262",
"~ 	c #010606",
"{ 	c #70BEBE",
"] 	c #4BADAD",
"^ 	c #259C9C",
"/ 	c #9D9D9D",
"( 	c #878787",
"_ 	c #707070",
": 	c #5A5A5A",
"< 	c #030303",
"[ 	c #0B0B0B",
"} 	c #777777",
"| 	c #525252",
"1 	c #2C2C2C",
"2 	c #070707",
"3 	c #0A0A0A",
"4 	c #2A2A2A",
"5 	c #CFCFCF",
"6 	c #616161",
"7 	c #4B4B4B",
"8 	c #343434",
"9 	c #414141",
"0 	c #3B3B3B",
"a 	c #161616",
"b 	c #FFFFFF",
"c 	c #D0D0D0",
"d 	c #010101",
"e 	c #2E2E2E",
"f 	c #252525",
"g 	c #0F0F0F",
"h 	c #262626",
"i 	c #484848",
"j 	c #EBEBEB",
"k 	c #CECECE",
"l 	c #D9D9D9",
"m 	c #F2F2F2",
"n 	c #454545",
"o 	c #CCCCCC",
"p 	c #012222",
"q 	c #001F1F",
"r 	c #0A1F1F",
"s 	c #000202",
"t 	c #020505",
"u 	c #E5E5E5",
"v 	c #F7F7F7",
"w 	c #444646",
"x 	c #1EDCDA",
"y 	c #0B0D0D",
"z 	c #CDCDCD",
"A 	c #011515",
"B 	c #08C5C5",
"C 	c #01BFBF",
"D 	c #12B3AD",
"E 	c #0C9E96",
"F 	c #0BC8C7",
"G 	c #254242",
"H 	c #14D1D0",
"I 	c #2A3838",
"J 	c #D7D7D7",
"K 	c #1B5B5B",
"L 	c #13D0CF",
"M 	c #0ECACA",
"N 	c #0AC7C6",
"O 	c #0FCCCB",
"P 	c #15D2D1",
"Q 	c #004E4E",
"R 	c #20DEDC",
"S 	c #1AD8D6",
"T 	c #014E4E",
"U 	c #1DDCD9",
"V 	c #18D6D4",
"W 	c #09C5C5",
"X 	c #0ECBCA",
"Y 	c #19D6D5",
"Z 	c #21DFDD",
"` 	c #1CD9D8",
" .	c #16D4D2",
"..	c #11CECD",
"+.	c #06C2C2",
"@.	c #07C4C3",
"#.	c #0DC9C9",
"$.	c #12CFCE",
"%.	c #18D5D4",
"&.	c #1DDBD9",
"*.	c #23E0DF",
"=.	c #02BEBE",
"-.	c #17C2BE",
";.	c #004D4D",
">.	c #004242",
",.	c #03BFBF",
"'.	c #00BDBD",
").	c #8C8C8C",
"!.	c #004F4F",
"~.	c #004444",
"{.	c #05C1C1",
"].	c #0CC9C8",
"^.	c #015B5B",
"/.	c #013636",
"(.	c #011313",
"_.	c #19D7D6",
":.	c #010808",
"<.	c #010505",
"[.	c #001111",
"}.	c #010B0B",
"|.	c #15BCB7",
"1.	c #011616",
"2.	c #149B90",
"3.	c #12D0CF",
"4.	c #181818",
"5.	c #190000",
"6.	c #2C0000",
"7.	c #220000",
"8.	c #060000",
"9.	c #131313",
"0.	c #0D0D0D",
"a.	c #17D5D3",
"b.	c #0BC9C8",
"c.	c #F48E8E",
"d.	c #F06969",
"e.	c #ED4444",
"f.	c #17D5D4",
"g.	c #10CECD",
"h.	c #F59D9D",
"i.	c #F27878",
"j.	c #EE5353",
"k.	c #15D3D1",
"l.	c #1CDAD8",
"m.	c #0ECCCB",
"n.	c #01C4C4",
"o.	c #F38787",
"p.	c #F06262",
"q.	c #EC3C3C",
"r.	c #F17171",
"s.	c #EE4B4B",
"t.	c #EA2626",
"u.	c #1FDEDC",
"v.	c #0CCAC9",
"w.	c #01C0C0",
"x.	c #1BD9D7",
"y.	c #22E0DE",
"z.	c #1FDDDB",
"A.	c #13D1D0",
"B.	c #0BC9C9",
"C.	c #23E1DF",
"D.	c #00BFBF",
"E.	c #15D3D2",
"F.	c #000808",
"G.	c #09C7C7",
"H.	c #0EA39B",
"I.	c #001717",
"J.	c #001818",
"K.	c #001010",
"L.	c #011717",
"                                                                                                ",
"                                                                                                ",
"                    . . . . .   . . . . .                                                       ",
"                  . + @ # $ % . & * = - ; .                                                     ",
"                . > , ' ) ; ! ~ { ] ^ ; ; .                                                     ",
"                . / ( _ : . < [ / } | 1 2 [ 3                                                   ",
"              4 5 } 6 7 8 . 9 . ( 6 0 a . b c d                                                 ",
"              e b | 0 f g h i b _ 7 f . b j k d                                                 ",
"              f l b a . m n 0 j b 8 g b j j o p p q r                                           ",
"              s t u b b v w x y j b b j j z A B C D E .                                         ",
"            . D F G j j e x x H I j j j J K L M B C D E .                                       ",
"          . D N O P Q Q R S P O N T T T T U V L M B B D .                                       ",
"        . D W X H Y x Z `  ...F +.B B M L V U V L M B D .                                       ",
"      . D @.#.$.%.&.*.&.%.$.#.@.=.B B B M L V d V L M -..                                       ",
"      . +.F ..;.` Z x >.H X W ,.'.B B B B M . V U V L D .                                       ",
"    . D N O ).!.).R ).~.).N {.'.W ].=.D ^./.(.R R _.].D .                                       ",
"    . W X H Y ).Z `  .).F +.'.W ].. ~ :.:.<.(.R _.].C E .                             . . .     ",
"      . [.%.&.*.&.%.$.#.@.=.=.}.}.. E E E |.(._._.].D 1.                            . ^.2..     ",
"          . *.*.&.%.$.#.@.=.. . E E E |.R R _.3.].C D .                           . ^.2.^..     ",
"          4.5.6.7.8.9.. . 0.. E E |.a.x R _.3.3.b.D E .                         . 2.2.^.2..     ",
"          . c.d.e..         . E D 3._.R x f.g.b.-.D .                           . ^.^.2..       ",
"        . h.i.j..           . E C k.l.*.l.k.m.b.D E .                         . n.*.^..         ",
"        . o.p.q..           . D g.a.x R _.3.].-.D .                         . C *.D .           ",
"        . r.s.t..         . E C 3._.u.x f.g.b.D E .                       . C *.v..             ",
"        . d . .         . E D m.k.l.*.u.k.m.-.E .                       . C *.f.D .             ",
"        .     .         . D C g.a.x R _.3.].D .                       . w.*.f.D .               ",
"                        . D ].3._.R x f.g.-.E .                     . D *.f.v..                 ",
"                      . E C m.k.l.*.l.k.m.D .                     . D f.*.f.D .                 ",
"                      . D b.g.f.x R _.3.-.E .                   . E |.*.2.v..                   ",
"                    . E C b._._.R x f.g.D .                     . |.f.*.f.2..                   ",
"                    . D b._.R R *.l.k.-.E .                     . |.f.*.2.v..                   ",
"                  . E b.b._.R x R _.3.D .                       . E |.f.*.f.D .                 ",
"                . E D b._.R R R x f.-.E .                         . E f.*.f.f.E .               ",
"                . D b._._.R R *.l.k.D .                             . v.f.*.f.|.E .             ",
"              . E b._._.R R R R _.-.E .                             . |.f.*.f.f.|.E .           ",
"            . E |._._.R R R R x a.D .                               . E f.2.f.f.v.|..           ",
"            . -._._.R R R R R R -..                                   . 2.*.x.f.v.C E .         ",
"          . E C _.R R R R R 2.2.2..   . . . . . . . . . . . . . . . . 2.&.2.y.z.A.B.C .         ",
"        . E -._.R R R R R R C.C.2.2.. D D D D D D D D D D D D D D D D |.2.Z 2.V A.B.D..         ",
"        . D -._.R R R R R R R 2.C.2.|.V V V V V V V V V V V V V V V &.y.2.S E.A.A.B.D..         ",
"        F.E D C _._._.R R R R R R 2.C.C.C.C.C.C.C.C.C.C.C.C.C.C.C.C.C.l.V A.A.G.v.B.D .         ",
"        . . E D v.v._._.V V V V V V V V V V V V V V V V V V V V V V V E.g.B.v.v.C D H..         ",
"          . . E H.D v.v.v.v.v.v.v.v.v.v.v.v.v.v.v.v.v.v.v.v.v.v.v.v.C D H.H.H.H.H.H..           ",
"              I.J.E H.H.H.H.H.H.H.H.H.H.H.H.H.H.H.H.H.H.H.H.H.H.H.H.H.H.. . K.. L..             ",
"                  . . . . . . . . . . . . . . . . . . . . . . . . . . .                         ",
"                                                                                                ",
"                                                                                                ",
"                                                                                                "};
