/* XPM */
/* Drawn  by Nico Shirwing for the K Desktop Environment */
/* See http://www.kde.org */
static char*ksnake[]={
"16 16 7 1",
"# c #000000",
"a c #00c0c0",
"b c #ffffff",
"e c #00ffff",
"d c #ff0000",
"c c #00c0c0",
". c None",
"...#####........",
"..#aaaaa#.......",
"..######a#......",
".#ab#b#baa#.....",
"#caaaaaaaa#.....",
"##aaa##aa#.....#",
"..d##eaaa#....##",
"..d.#eaa#....#a#",
"....#eaa#...#a#.",
"...#eaa#...#a#..",
"...#eaa#...#a#..",
"..#eaa#....#aa#.",
".#eaaa#######aa#",
".#aaaaeeeeeeeaa#",
".#aaaaaaaaaaaaa#",
"..#############."};

