/* XPM */
static char * kiconedit_xpm[] = {
"48 48 114 2",
"  	c None",
". 	c #000000",
"+ 	c #D88D4B",
"@ 	c #F5C3A5",
"# 	c #D69D7C",
"$ 	c #EF9A53",
"% 	c #EFAD7A",
"& 	c #F7A156",
"* 	c #FFE2D3",
"= 	c #FEAA5C",
"- 	c #F7B680",
"; 	c #FABF80",
"> 	c #EA6E00",
", 	c #FFBA81",
"' 	c #FEDEAC",
") 	c #F27400",
"! 	c #EE7100",
"~ 	c #994704",
"{ 	c #B58369",
"] 	c #FA7B00",
"^ 	c #F67800",
"/ 	c #893B04",
"( 	c #662D03",
"_ 	c #FE7F00",
": 	c #7A3703",
"< 	c #FFA858",
"[ 	c #FE8204",
"} 	c #FF0000",
"| 	c #FF4444",
"1 	c #FF5B5B",
"2 	c #FE8103",
"3 	c #FF6B6B",
"4 	c #FB7F03",
"5 	c #FD8103",
"6 	c #FA7E03",
"7 	c #F97D03",
"8 	c #3C3C3C",
"9 	c #474747",
"0 	c #F67A02",
"a 	c #F77B02",
"b 	c #FFDCA8",
"c 	c #FFAB7A",
"d 	c #FFB998",
"e 	c #FCB288",
"f 	c #FFAC63",
"g 	c #FFBC7A",
"h 	c #F9C393",
"i 	c #FFD4AA",
"j 	c #FFCB99",
"k 	c #F27601",
"l 	c #F37702",
"m 	c #F57902",
"n 	c #EE7201",
"o 	c #EF7301",
"p 	c #F17501",
"q 	c #FFBBA3",
"r 	c #FFB677",
"s 	c #6B2E03",
"t 	c #F7A056",
"u 	c #EB6F00",
"v 	c #ED7101",
"w 	c #565656",
"x 	c #B76E50",
"y 	c #FACEB2",
"z 	c #EF8A37",
"A 	c #E06800",
"B 	c #E96D00",
"C 	c #6D6D6D",
"D 	c #6E3D22",
"E 	c #D79F7F",
"F 	c #BF7F65",
"G 	c #FFB07C",
"H 	c #7A7A7A",
"I 	c #F8D4C2",
"J 	c #EEBFA5",
"K 	c #D2926E",
"L 	c #925A38",
"M 	c #895344",
"N 	c #4F2302",
"O 	c #424242",
"P 	c #999999",
"Q 	c #AAAAAA",
"R 	c #7A4A3D",
"S 	c #723B1F",
"T 	c #5E2702",
"U 	c #FFFFC0",
"V 	c #FFFF00",
"W 	c #E5E599",
"X 	c #E9E9AA",
"Y 	c #B59180",
"Z 	c #4D4D00",
"` 	c #717100",
" .	c #827966",
"..	c #684B45",
"+.	c #1E1E1E",
"@.	c #DDDD7A",
"#.	c #5E574A",
"$.	c #2B2720",
"%.	c #3F3A2F",
"&.	c #808000",
"*.	c #D3D352",
"=.	c #737300",
"-.	c #CECE3C",
";.	c #AAAA00",
">.	c #C0C000",
",.	c #C0FFC0",
"'.	c #00FF00",
").	c #00C000",
"!.	c #008000",
"~.	c #C0C0FF",
"{.	c #7F7FE9",
"].	c #0000C0",
"^.	c #000095",
"/.	c #000080",
"                                                                                                ",
"                                                                                                ",
"                                                                                . . .           ",
"                                                                              . + @ # .         ",
"                                                                            . $ % & * @ .       ",
"                                                                          . = - ; > & * # .     ",
"                                                                        . = , ' ) ! > ~ { .     ",
"                                                                      . = , ' ] ^ ) ~ / ( .     ",
"                                                                    . = , ' _ _ ] ~ / : .       ",
"                                                                  . < , ' [ _ _ ~ / : .         ",
"    . . . . . . . . . . . . . . .                               . < , ' [ [ _ ~ / : .           ",
"    .             . } } } } } } .                             . < , ' [ [ _ ~ / : .             ",
"    .             . | | } } } } .                           . < , ' [ [ [ ~ / : .               ",
"    .             . 1 | | } } } .                         . < , ' [ [ _ ~ / : .                 ",
"    .             . 1 1 | | } } .                       . < , ' 2 2 _ ~ / : .                   ",
"    .             . 3 1 1 | | | .                     . < , ' 2 4 5 ~ / : .                     ",
"    .             . 3 3 1 1 1 1 .                   . < , ' 6 2 7 ~ / : .                       ",
"    . . . . . . . . 8 9 8 8 8 8 . . . . . . . .   . < , ' 0 a 2 ~ / : .                         ",
"    . b b b b b b . < c d d e e 8 f g h i j j . ~ $ - ' k l m ~ / : .                           ",
"    . b b b b b b . < < e d d e 8 f f g h i i ~ + % ; n o p ~ / : .                             ",
"    . b b b b b b . < < c d q d 9 r g g j i s @ * t > u v ~ / : .                               ",
"    . b b b b b b . < < < c d q w h g h j i x * y z A B ~ / : .                                 ",
"    . b b b b b b . < < < < c d C j h j i D * y @ E F ~ / : .                                   ",
"    . b b b b b b . < < < < < G H i h j i x I J K x L M ( N                                     ",
"    . . . . . . . . . . . . O w H H P Q D * y K x L R S T . .                                   ",
"    . U U U U U U . V V V V V V w W W X x Y K x R S T Z Z ` .                                   ",
"    . U U U U U U . V V V V V V . W W X  ...L D T Z Z ` ` ` .                                   ",
"    . U U U U U U . V V V V V V +.@.W #.. $.%.. Z ` ` ` ` &..                                   ",
"    . U U U U U U . V V V V V V +.*.W . $.=.=.. ` ` ` &.&.&..                                   ",
"    . U U U U U U . V V V V V V . -.-.=.=.;.;.. ` &.&.&.&.&..                                   ",
"    . U U U U U U . V V V V V V . >.>.>.>.>.>.. &.&.&.&.&.&..                                   ",
"    . . . . . . . . . . . . . . . . . . . . . . . . . . . . . . . . . . . .                     ",
"    . ,.,.,.,.,.,.. '.'.'.'.'.'.. ).).).).).).. !.!.!.!.!.!.. !.!.!.!.!.!..                     ",
"    . ,.,.,.,.,.,.. '.'.'.'.'.'.. ).).).).).).. !.!.!.!.!.!.. !.!.!.!.!.!..                     ",
"    . ,.,.,.,.,.,.. '.'.'.'.'.'.. ).).).).).).. !.!.!.!.!.!.. !.!.!.!.!.!..                     ",
"    . ,.,.,.,.,.,.. '.'.'.'.'.'.. ).).).).).).. !.!.!.!.!.!.. !.!.!.!.!.!..                     ",
"    . ,.,.,.,.,.,.. '.'.'.'.'.'.. ).).).).).).. !.!.!.!.!.!.. !.!.!.!.!.!..                     ",
"    . ,.,.,.,.,.,.. '.'.'.'.'.'.. ).).).).).).. !.!.!.!.!.!.. !.!.!.!.!.!..                     ",
"    . . . . . . . . . . . . . . . . . . . . . . . . . . . . . . . . . . . .                     ",
"    . ~.~.~.~.~.~.. {.{.{.{.{.{.. ].].].].].].. ^.^.^.^.^.^.. /./././././..                     ",
"    . ~.~.~.~.~.~.. {.{.{.{.{.{.. ].].].].].].. ^.^.^.^.^.^.. /./././././..                     ",
"    . ~.~.~.~.~.~.. {.{.{.{.{.{.. ].].].].].].. ^.^.^.^.^.^.. /./././././..                     ",
"    . ~.~.~.~.~.~.. {.{.{.{.{.{.. ].].].].].].. ^.^.^.^.^.^.. /./././././..                     ",
"    . ~.~.~.~.~.~.. {.{.{.{.{.{.. ].].].].].].. ^.^.^.^.^.^.. /./././././..                     ",
"    . ~.~.~.~.~.~.. {.{.{.{.{.{.. ].].].].].].. ^.^.^.^.^.^.. /./././././..                     ",
"    . . . . . . . . . . . . . . . . . . . . . . . . . . . . . . . . . . . .                     ",
"                                                                                                ",
"                                                                                                "};
