/* XPM */
/* Drawn  by Nico Shirwing for the K Desktop Environment */
/* See http://www.kde.org */
static char*krn[]={
"32 32 12 1",
". c #000000",
"h c #c0c0c0",
"b c #ffffff",
"g c #808080",
"j c #585858",
"i c #a0a0a4",
"d c #ffc0c0",
"a c #ffffc0",
"f c #ff8000",
"e c #ffa858",
"c c #ffdca8",
"# c None",
"................####......######",
".abab.abab.ababa..##.ababa..####",
".abaa.abaa.abaabaa.#.abaabaa.###",
".aaaa.aaaa.aaaaaaaa..aaaaaaaa.##",
".aaaa.aaaa.aaaaaaaa..aaaaaaaa.##",
".aacc.aacc.aacc.acac.aacc.acac.#",
".caca.caca.caca.cacc.caca.cacc.#",
".ccad.cacc.cccc.cacc.accc.accc..",
".cccc.cccc.cccc.cccc.cccc.ccdc..",
".cdcccccc..cccdcccc..cccc.cccd..",
".cccccccc..cdcdcdcd..cccc.cdcd..",
".ccccccc...ccdcccc...ccec.cedc..",
".cceccccc..cccccccc..cedc.ccce..",
".cededecc..cedcedec..ccec.cedc..",
".cece.ceee.ceed.cecc.c..e.ccee..",
".cefe.cefe.cfee.ced...gh..ceec..",
".edef.eeec.eeee....ghhibh.eded..",
".eefe.eeee.ee...ghbbieedbh.eee..",
".eeee.eef....ghbbbhbddeehbh.fe..",
".eefe....ghhbbbbhigbdddhhbbh.e..",
".ee...gbhbbbhhghhhghbdbbhgibh...",
"...gbhbbhbhgiigihhhbbhgghhbbhh..",
"..hbbgghhhihhhibhbhighhbhhhhhh..",
"#.jhbhiigiijhbbhigihbbhhhhhhhhg.",
".jbjhbhbhibbbhgihbbbhhhhhhhiig..",
".hjbjbhhbhhighbbbibbihhhiig...##",
"#.hjbjbhigihhbbhbihhhiig...#####",
"##.hjbjbhbbhihhhhhiig...########",
"###.hjbjhbhhhhiiig...###########",
"####.hjbjiiiiig...##############",
"#####.hjijig...#################",
"######......####################"};

