/* XPM */
/* Drawn  by Nico Shirwing for the K Desktop Environment */
/* See http://www.kde.org */
static char*krn[]={
"16 16 8 1",
". c #000000",
"e c #ffffff",
"d c #c0c0c0",
"f c #ffc0c0",
"a c #ffffc0",
"c c #ffa858",
"b c #ffdca8",
"# c None",
".........#....##",
".a.aa.aaa..aaa.#",
".a.aa.aaaa.aaaa.",
".b.bb.b.bb.b.bb.",
".b.bb.b.bb.b.bb.",
".bbb..bbb..b.bb.",
".bbbb.bbb..b.bb.",
".cccc.c.c....cc.",
".c.cc....ddd.cc.",
".c....deefccd.c.",
"...deeeeedfeee..",
".deeeedddeeeeed.",
".dedddeeeeed...#",
"#.deeeeed...####",
"##.ddd...#######",
"###...##########"};

