/* XPM */
static char * large_kmidi_xpm[] = {
"48 48 31 1",
" 	c None",
".	c #000000",
"+	c #FFFFFF",
"@	c #252525",
"#	c #020202",
"$	c #050505",
"%	c #090909",
"&	c #0A0A0A",
"*	c #151515",
"=	c #141414",
"-	c #1D1D1D",
";	c #FEFEFE",
">	c #F3F3F3",
",	c #191919",
"'	c #2E2E2E",
")	c #FCFCFC",
"!	c #2D2D2D",
"~	c #010101",
"{	c #060909",
"]	c #020404",
"^	c #101010",
"/	c #E9BC09",
"(	c #EFCB0B",
"_	c #DD9E07",
":	c #1E1E1E",
"<	c #E0A707",
"[	c #FFEF0E",
"}	c #D18304",
"|	c #CF7D03",
"1	c #D48904",
"2	c #C86D02",
"                                                ",
"                                                ",
"                                                ",
"                                                ",
"                                    ..          ",
"                                 .....          ",
"                             +........          ",
"                           ...........          ",
"                         ........@....          ",
"                      .......###$.+++.          ",
"                    ........%..+++....          ",
"                 .......&...+++.......          ",
"                 .....*..+++.=....   .          ",
"    .................#+++....................   ",
"    ....++.+++++++..++......+++++++++.+++++     ",
"    ....++.++++++++....-.+++;;;;++++;.+++++     ",
"    ....++.++++++++...++>>>>>>>>>>>>>.++>++     ",
"    .........................................   ",
"    ....++.+++++++++,++++++++++++++++.+++++     ",
"    ....++.+++++;;;+';;;++++++;;;;;;;.+++++     ",
"    ....++.+)))))))+!)))))))))))))))).+++++     ",
"    .........................................   ",
"    ....++.++++++++++~++++++++++.{].+.+++++     ",
"    ....++.+++++++;;+#+;;;;+;++^/(/_..+++;+     ",
"    ....++.+++++;++++#++++++++:<([(<}.+++++     ",
"    ..........................._/(/_|........   ",
"    ....++.++++++.{].+.+++++++.1_<_12.+++++     ",
"    ....++.+++++^/(/_..+;;;+;;+.|}|2..+++;+     ",
"    ....++.++++:<([(<}.+;;;+;;++....+++++++     ",
"    ............_/(/_|.......................   ",
"    ....++.++++.1_<_12~++++++++++++++++++++     ",
"    ....++.+++++.|}|2..+;;;+;;;;;;;;;;;;;;;     ",
"    ....++.++++++....+++;;;+;;;;;;;;;;;;;;;     ",
"    .........................................   ",
"                                                ",
"                            .          .        ",
"                            .          .        ",
"        ...   .  ...   ...    ......            ",
"          .  .    ... ...   .   .   .  .        ",
"          ...     . ... .   .   .   .  .        ",
"          ...     .  .  .   .   .   .  .        ",
"          .  .    .  .  .   .   .   .  .        ",
"         ..  ..  ..     ..  .  .....   .        ",
"         ..  ..  ..     ..  .  .....   .        ",
"                                                ",
"                                                ",
"                                                ",
"                                                "};
