/* XPM */
static char * large_ksirtet_xpm[] = {
"48 48 239 2",
"  	c None",
". 	c #29292A",
"+ 	c #000000",
"@ 	c #121312",
"# 	c #1A1A1A",
"$ 	c #78C34C",
"% 	c #6CD22A",
"& 	c #4C8A32",
"* 	c #151514",
"= 	c #79E331",
"- 	c #74E82F",
"; 	c #1D1D1D",
"> 	c #82EA36",
", 	c #4AA91E",
"' 	c #161616",
") 	c #232324",
"! 	c #9AF445",
"~ 	c #171717",
"{ 	c #68A04D",
"] 	c #2D7811",
"^ 	c #8DF23E",
"/ 	c #2E910F",
"( 	c #424B40",
"_ 	c #141614",
": 	c #420001",
"< 	c #7F100A",
"[ 	c #141212",
"} 	c #353636",
"| 	c #78FF2A",
"1 	c #083C01",
"2 	c #072F00",
"3 	c #A7FE4B",
"4 	c #95FD44",
"5 	c #79FA30",
"6 	c #176E05",
"7 	c #104F02",
"8 	c #65F122",
"9 	c #9B1715",
"0 	c #E23230",
"a 	c #BC1816",
"b 	c #171515",
"c 	c #9DFF44",
"d 	c #8BFE3E",
"e 	c #8BF63A",
"f 	c #82FA38",
"g 	c #10130E",
"h 	c #DA2725",
"i 	c #201919",
"j 	c #AEFF52",
"k 	c #A0FF4B",
"l 	c #90FF3F",
"m 	c #C4FF5F",
"n 	c #46BD1D",
"o 	c #E92D2C",
"p 	c #D00E0E",
"q 	c #090707",
"r 	c #D1FF66",
"s 	c #BAFF59",
"t 	c #63EB2A",
"u 	c #511301",
"v 	c #2F6304",
"w 	c #37C615",
"x 	c #1D3B18",
"y 	c #80292A",
"z 	c #F33F3A",
"A 	c #001E00",
"B 	c #A22312",
"C 	c #FF373E",
"D 	c #851D0C",
"E 	c #FE2C2B",
"F 	c #B80F0C",
"G 	c #870505",
"H 	c #F33434",
"I 	c #E1FF73",
"J 	c #C02F23",
"K 	c #FF5050",
"L 	c #FF5757",
"M 	c #FF4748",
"N 	c #831D10",
"O 	c #FF3F3E",
"P 	c #FF2321",
"Q 	c #970202",
"R 	c #E1FF6C",
"S 	c #FF5B5B",
"T 	c #FF5959",
"U 	c #FF4A4A",
"V 	c #FF4C4D",
"W 	c #F71412",
"X 	c #7A0101",
"Y 	c #51ED1D",
"Z 	c #FF6D6E",
"` 	c #FF6867",
" .	c #FF605F",
"..	c #FF5A5D",
"+.	c #FF4645",
"@.	c #FFFF87",
"#.	c #FAFF77",
"$.	c #463809",
"%.	c #FF8382",
"&.	c #FF7675",
"*.	c #401500",
"=.	c #FE3534",
"-.	c #FF5555",
";.	c #360611",
">.	c #FFFF93",
",.	c #FFFF45",
"'.	c #B02021",
").	c #FF7C7B",
"!.	c #FF7271",
"~.	c #670201",
"{.	c #FF5E5C",
"].	c #540102",
"^.	c #1A2CA6",
"/.	c #213EE6",
"(.	c #111111",
"_.	c #787878",
":.	c #69FF31",
"<.	c #FFFF5C",
"[.	c #EEDD35",
"}.	c #2637AF",
"|.	c #3E74FF",
"1.	c #457DFF",
"2.	c #3E50E9",
"3.	c #929292",
"4.	c #0C0C0B",
"5.	c #487608",
"6.	c #FFFF6A",
"7.	c #FFFFAD",
"8.	c #9E090D",
"9.	c #FF8887",
"0.	c #FF6362",
"a.	c #2A3BD1",
"b.	c #4783FF",
"c.	c #4D8BFF",
"d.	c #2952FA",
"e.	c #FFFFA3",
"f.	c #972D06",
"g.	c #450419",
"h.	c #5190FF",
"i.	c #5995FF",
"j.	c #528CFF",
"k.	c #4B84FF",
"l.	c #585957",
"m.	c #CAC029",
"n.	c #FFFFC8",
"o.	c #FFFFD3",
"p.	c #FFFFBE",
"q.	c #FFFF9B",
"r.	c #7A6811",
"s.	c #E51B1F",
"t.	c #FF908F",
"u.	c #241A74",
"v.	c #65ACFF",
"w.	c #6BB4FF",
"x.	c #1734C6",
"y.	c #8B7C15",
"z.	c #A4941B",
"A.	c #C96B0D",
"B.	c #7F0C2B",
"C.	c #1C45B5",
"D.	c #71B9FF",
"E.	c #5FA4FF",
"F.	c #081362",
"G.	c #4C420B",
"H.	c #FFFFB4",
"I.	c #6E5B0E",
"J.	c #8D0F26",
"K.	c #152B8F",
"L.	c #4A7FFF",
"M.	c #030B49",
"N.	c #625412",
"O.	c #6A2706",
"P.	c #7F0213",
"Q.	c #4270FF",
"R.	c #FFFFDB",
"S.	c #824111",
"T.	c #02093E",
"U.	c #07104E",
"V.	c #FFFFF0",
"W.	c #3B2E03",
"X.	c #FF3C37",
"Y.	c #0B0C11",
"Z.	c #0F0E0E",
"`.	c #FFFFE5",
" +	c #332976",
".+	c #462CAE",
"++	c #320828",
"@+	c #0D27C7",
"#+	c #FFFFF7",
"$+	c #2C3B93",
"%+	c #7AD3FF",
"&+	c #1935D2",
"*+	c #0A1C8B",
"=+	c #071579",
"-+	c #112CC6",
";+	c #58480B",
">+	c #82D0FF",
",+	c #87DAFF",
"'+	c #420822",
")+	c #77C2FF",
"!+	c #05092D",
"~+	c #494017",
"{+	c #3D51C6",
"]+	c #ABFFFF",
"^+	c #8CE2FF",
"/+	c #73C8FF",
"(+	c #7BC5FF",
"_+	c #5D500F",
":+	c #FFFFFF",
"<+	c #4358CB",
"[+	c #9AF5FF",
"}+	c #BBFFFF",
"|+	c #7DCBFF",
"1+	c #030C61",
"2+	c #DBFFFF",
"3+	c #07115C",
"4+	c #17093A",
"5+	c #0F2DD5",
"6+	c #564F2A",
"7+	c #574915",
"8+	c #FFFFFC",
"9+	c #605527",
"0+	c #6C6540",
"a+	c #242A4E",
"b+	c #040C55",
"c+	c #C9FFFF",
"d+	c #0A1FA6",
"e+	c #94E9FF",
"f+	c #10163F",
"g+	c #181B37",
"h+	c #468CFF",
"i+	c #356AFF",
"j+	c #151729",
"k+	c #6B6137",
"l+	c #161C48",
"m+	c #434860",
"n+	c #111219",
"o+	c #1C2351",
"p+	c #0F1016",
"                                                                                                ",
"                                                                                                ",
"                                  . + @                                                         ",
"                                # $ % & *                                                       ",
"                              # $ = - % & @                                                     ",
"                            ; $ > = = = = , '                                                   ",
"                          ) $ ! > > > > = > , ~                                                 ",
"                        . { ] % ! ^ ^ ^ ^ - / ( _                 : < [                         ",
"                      } $ | 1 2 % 3 4 4 5 6 7 8 , @             : 9 0 a b                       ",
"                    } $ c c - 7 1 d 3 - 7 6 5 e f , g         : 9 0 h h a i                     ",
"                  + $ j 3 k 3 f 6 6 4 ] 6 l c d f f , g     : 9 0 0 h h h a i                   ",
"                + $ m j j j j j l / 1 ] j 3 4 4 l f f n g : 9 0 o o 0 h h h p q                 ",
"              + & = r m s s j j t 6 u v 4 j k c 4 l 5 w x < y z z o o o h h 9 q                 ",
"            + $ / A , r r m s n 2 B C a 1 / k j k l w 2 D E F G 0 H o o o 9 : q                 ",
"          + $ r s ] A % I r , 2 J K L M N A ] j l w 2 B O O P Q < E E H 9 : : q                 ",
"        + $ R r r m n 7 f f 2 0 S T L L U 9 A n w 2 J V M O W W X < E 9 : : +                   ",
"      + $ I I I R R r Y 6 7 z Z `  .S S T U a 1 1 0 ..K M +.P W W G : : : +                     ",
"    + c @.#.I I I I k Y 6 $.C %.&.Z `  . .+.p *.*.=.` -.M U O P W p : ;.+                       ",
"    + 7 j >.@.I I f 6 v ,.,.< '.%.).!.Z -.p ~.P P Q z {.V U U O p ].^./.(._.                    ",
"    # 2 7 k I I :.6 v <.>.@.[.: G %.%. .F X =.{.K E G < =.T U p ].}.|.1.2.) 3.                  ",
"      4.2 7 Y :.6 5.6.7.>.@.@.[.: 8.9.F G +.!.0.K L E : ~.=.F : a.b.c.1.1.d.. _.                ",
"        4.1 7 / 5.,.e.e.e.>.@.@.,.f.Q 8.T %.!.0.T -.L E ~.].g.2.h.i.j.k.1.1.d.+ l.              ",
"          g 1 7 m.n.o.p.e.e.q.>.6.r.~.s.t.%.).` 0.T S U G ].u.v.w.i.k.j.b.1.|.x.+               ",
"            + <.y.r.n.o.p.7.q.<.r.z.,.A.s.9.9.!.` ` -.p X W B.C.D.E.k.k.c.1.x.F.2.+             ",
"          + ,.p.<.$.G.n.n.H.<.I.z.@.q.6.A.9 -.%.!.` p G E -.+.J.K.E.i.L.k.x.M.d.1.d.+           ",
"        + ,.o.p.e.<.G.N.o.#.I.m.q.H.>.>.6.O.~.V 0.a Q =.`  .{.E P.K.Q.Q.K.M.1.k.b.|.d.+         ",
"      + ,.R.o.o.p.7.6.y.z.y.[.H.p.H.e.>.>.6.S.X X F U &.!.` {.E P J.T.U.T.k.b.1.c.1.|.d.+       ",
"    g ,.V.R.R.R.o.p.e.,.W.r.o.o.o.p.H.q.>.e.,.].X X.9.%.&.Z 0.L T E ;.T.c.w.k.b.c.b.|.|.d.Y.    ",
"    Z.,.`.V.`.`.R.p.,.I.,.[.m.o.o.o.p.7.7.#.r. +.+8.t.t.).!.` ` M Q ++F.T.c.w.j.i.c.b.|.@+q     ",
"    Z.G.,.`.#+V.o.<.I.,.n.>.[.z.o.o.n.p.@.z.$+w.%+2.8.t.).).&.K p ++&+D.*+=+Q.w.i.i.1.-+T.4.    ",
"    ) $.;+,.`.`.6.r.<.`.R.7.>.y.W.R.o.>.z.$+v.>+,+%+2.8.t.).K p '+/.)+D.D.d.=+Q.v.h.x.T.!+.     ",
"      (.~+;+,.6.z.#.#+V.`.p.7.@.y.G.o.z.{+)+]+^+>+>+/+2.~.t.G ++d.(+(+)+v.E.d.=+d.&+T.!+(.      ",
"        (.~+_+I.#.:+:+V.V.R.H.p.>.r.W.<+[+}+}+]+^+^+(+w. +~.g.&+>+|+(+)+w.E.E.d.1+T.!+(.        ",
"          * ~+N.,.`.:+:+#+V.o.p.,._+;+}.[+2+}+}+]+[+^+b.3+'+4+*+>+>+|+(+D.v.c.5+M.!+(.          ",
"            ' 6+7+[.`.:+8+#+V.#.;+9+0+a+^.]+2+}+}+]+D.*+1+>+>+b+d.,+,+|+)+i.@+T.a+Z.            ",
"              # 6+;+[.R.:+:+>.y.N.6+* a+1+K.[+2+c+|+d+d+^+^+>+|.*+k.e+,+v.-+T.f+*               ",
"                ' 6+_+m.p.@.y._+9+'     g+1+*+)+%+d+d.[+e+^+^+^+h+d+i+w.x.M.f+4.                ",
"                  ~ 6+N.m.y.N.9+~         j+F.*+d+i.]+e+[+[+e+^+,+h+d+*+M.f+4.                  ",
"                    ~ 6+I.I.k+#             j+F.=+,+2+c+}+]+[+e+^+E.@+M.l+Z.                    ",
"                      ~ 6+k+#                 j+F.=+|+2+}+]+]+[+w.@+U.l+Z.                      ",
"                        } l.                    ) 3+=+D.c+}+]+/+5+b+m+*                         ",
"                                                  n+3+=+h.}+%+-+b+o+@                           ",
"                                                  3.p+3+1+d.&+b+o+~                             ",
"                                                      Y.F.1+F.a+'                               ",
"                                                        Y.F.a+~                                 ",
"                                                          ) +                                   ",
"                                                                                                ",
"                                                                                                "};
