/* XPM */
static char * large_knotes_xpm[] = {
"48 48 246 2",
"  	c None",
". 	c #000000",
"+ 	c #C1C1C1",
"@ 	c #D6D6D6",
"# 	c #EAEAEA",
"$ 	c #FFFFFF",
"% 	c #ADADAD",
"& 	c #989898",
"* 	c #2C2C2C",
"= 	c #2E2E2E",
"- 	c #5E5E5E",
"; 	c #8D8D8D",
"> 	c #BDBDBD",
", 	c #020204",
"' 	c #B6AE1B",
") 	c #E6DE44",
"! 	c #FEFA84",
"~ 	c #FEFE86",
"{ 	c #FEFA8C",
"] 	c #F2EE84",
"^ 	c #FAEE7C",
"/ 	c #FCDA74",
"( 	c #EEEA77",
"_ 	c #F17E4C",
": 	c #F8AA64",
"< 	c #FEF68A",
"[ 	c #FEFA99",
"} 	c #FEFE98",
"| 	c #0E0E04",
"1 	c #F6F286",
"2 	c #DF5A34",
"3 	c #E74A2C",
"4 	c #F9BA6C",
"5 	c #797979",
"6 	c #535353",
"7 	c #FEFABD",
"8 	c #C2C292",
"9 	c #BFBFA8",
"0 	c #C2C2AE",
"a 	c #BCB966",
"b 	c #8B8514",
"c 	c #222224",
"d 	c #0A0A07",
"e 	c #FAFA7C",
"f 	c #E5864C",
"g 	c #CE1E14",
"h 	c #EE663C",
"i 	c #FAEA8C",
"j 	c #575757",
"k 	c #272727",
"l 	c #C2BF89",
"m 	c #C2C2A3",
"n 	c #C2C2B6",
"o 	c #FAFADC",
"p 	c #FEFEEF",
"q 	c #121214",
"r 	c #F4D288",
"s 	c #D0321C",
"t 	c #D32614",
"u 	c #F9C274",
"v 	c #FCE288",
"w 	c #FEFEA6",
"x 	c #C2BF90",
"y 	c #C2C29C",
"z 	c #FEFEFC",
"A 	c #363634",
"B 	c #DA5E34",
"C 	c #C60A04",
"D 	c #FCDE8C",
"E 	c #FEF29C",
"F 	c #FEFAA7",
"G 	c #FEFAB4",
"H 	c #FEFED6",
"I 	c #FEFEE4",
"J 	c #F6EE8C",
"K 	c #F6EE78",
"L 	c #EEDE74",
"M 	c #EF8A4C",
"N 	c #EE7E4C",
"O 	c #F19654",
"P 	c #F6E288",
"Q 	c #FEF69C",
"R 	c #F2C674",
"S 	c #CA1614",
"T 	c #D3120C",
"U 	c #F58E5C",
"V 	c #FAEE94",
"W 	c #FEFEB4",
"X 	c #FEFEC0",
"Y 	c #FEFECC",
"Z 	c #121206",
"` 	c #F1AE5C",
" .	c #DA3624",
"..	c #C70E0C",
"+.	c #C50A04",
"@.	c #C80A0C",
"#.	c #D62A1C",
"$.	c #D0261C",
"%.	c #CD0A0C",
"&.	c #D8221C",
"*.	c #D92A1C",
"=.	c #D94A34",
"-.	c #E77E54",
";.	c #EE9A6C",
">.	c #F5B684",
",.	c #F9B68C",
"'.	c #FBD6A4",
").	c #847B16",
"!.	c #9D931A",
"~.	c #AA9F1D",
"{.	c #BAB21C",
"].	c #4A4A3C",
"^.	c #B2AA8C",
"/.	c #EAE66C",
"(.	c #F2BE6C",
"_.	c #EC9A5C",
":.	c #CC160C",
"<.	c #C30204",
"[.	c #C80E0C",
"}.	c #C70A04",
"|.	c #CF261C",
"1.	c #DF523C",
"2.	c #EE8A64",
"3.	c #F6AA7C",
"4.	c #FABE8C",
"5.	c #FBD29C",
"6.	c #FCDEB4",
"7.	c #C2BA24",
"8.	c #C2BA34",
"9.	c #CAC21E",
"0.	c #DAD23F",
"a.	c #8A8204",
"b.	c #F9B274",
"c.	c #E33E2C",
"d.	c #C90A0C",
"e.	c #CE120C",
"f.	c #EE7654",
"g.	c #F4B27C",
"h.	c #F7C284",
"i.	c #F9DE9C",
"j.	c #EEEAA4",
"k.	c #F6F2AC",
"l.	c #FEF6B4",
"m.	c #FEF6BC",
"n.	c #FAF284",
"o.	c #C6BE28",
"p.	c #BEBA24",
"q.	c #CEC630",
"r.	c #D2CA38",
"s.	c #DED650",
"t.	c #BEB214",
"u.	c #FBD28C",
"v.	c #E75A3C",
"w.	c #C90E0C",
"x.	c #DD2A24",
"y.	c #FBCE8C",
"z.	c #BEB618",
"A.	c #DAD232",
"B.	c #E2DA44",
"C.	c #D6D254",
"D.	c #CAC64C",
"E.	c #060604",
"F.	c #B2AA04",
"G.	c #FAE69C",
"H.	c #E56244",
"I.	c #CF1E14",
"J.	c #EF624C",
"K.	c #C2BA18",
"L.	c #CAC22E",
"M.	c #D6CE24",
"N.	c #D6D23C",
"O.	c #BAB640",
"P.	c #7E7A04",
"Q.	c #827E04",
"R.	c #E46244",
"S.	c #E03A2C",
"T.	c #FAC694",
"U.	c #CEC620",
"V.	c #D2CA2C",
"W.	c #D4CE34",
"X.	c #DED634",
"Y.	c #E2DA31",
"Z.	c #CECA54",
"`.	c #B6B24C",
" +	c #726E04",
".+	c #767204",
"++	c #9A962C",
"@+	c #BAB23C",
"#+	c #BAAE14",
"$+	c #F6EEAC",
"%+	c #F08A6C",
"&+	c #FAD69C",
"*+	c #F6F268",
"=+	c #EEE652",
"-+	c #DBD66C",
";+	c #BEBA50",
">+	c #7A7604",
",+	c #766E04",
"'+	c #A29A24",
")+	c #928A04",
"!+	c #EAE243",
"~+	c #F2EA60",
"{+	c #F2EE74",
"]+	c #BEBA44",
"^+	c #827A04",
"/+	c #AAA62C",
"(+	c #C2BE3C",
"_+	c #BAB210",
":+	c #D6D288",
"<+	c #E6E6BC",
"[+	c #F2EE6C",
"}+	c #EAE65C",
"|+	c #A6A230",
"1+	c #BEBA34",
"2+	c #161604",
"3+	c #DEDA8C",
"4+	c #DEDA7C",
"5+	c #EAE24C",
"6+	c #E6DE54",
"7+	c #EAE260",
"8+	c #F6F27C",
"9+	c #7A7208",
"0+	c #BEB626",
"a+	c #AEA634",
"b+	c #8E8A04",
"c+	c #B6AA04",
"d+	c #FAF27C",
"e+	c #E6DE6C",
"f+	c #EEE67C",
"g+	c #FAF685",
"h+	c #928E0C",
"i+	c #B6AE2C",
"j+	c #120E04",
"k+	c #E6E274",
"l+	c #969224",
"m+	c #E6E26C",
"n+	c #827E1C",
"o+	c #B6B23C",
"p+	c #D2CE4C",
"q+	c #E2DE6C",
"r+	c #8E8614",
"s+	c #161204",
"t+	c #C2B614",
"u+	c #CAC63C",
"v+	c #A29A04",
"w+	c #060204",
"                                                                                                ",
"                                                                                                ",
"                                                                                      . + @     ",
"                                                                                    . + @ #     ",
"                                                                                  . + @ # $     ",
"                                                                                . + @ # $ #     ",
"                                                                              . + @ # $ # @     ",
"                                                                            . + @ # $ # @ +     ",
"                                                                          . + @ # $ # @ + %     ",
"                                                                        . + @ # $ # @ + % &     ",
"                                                                      . + @ # $ # @ + % & *     ",
"                                                                    . + @ # $ # @ + % & *       ",
"                                                                  . + @ # $ # @ + % & *         ",
"                                                                . . @ # $ # @ + % & *           ",
"                                                              . = - . $ # @ + % & *             ",
"                                                            . = - ; . # @ + % & *               ",
"                                                          . = - ; > ; . . % & *                 ",
"                                                ,         . - ; > ; - = . . .                   ",
"                                            , , ' , ,     . . > ; - = . . .                     ",
"                                        , , ' ) ! ) ' , . ; . ; - = . . .                       ",
"                                    , , ' ) ~ ~ ~ { ] . ; > ; . . . . .                         ",
"                                , , ' ) ! ^ / { { ~ . ; > ; - = . . .                           ",
"                            , , ' ) ~ ~ ( _ : < [ } [ . ; - = . ] ) ' , | ,                     ",
"                        , , ' ) ! ~ ! 1 2 3 4 } ~ [ 5 6 . . . 7 7 8 9 0 a b . c d d , ,         ",
"                    , , ' ) ~ ~ ! ~ e f g h i [ } j . k 7 . 7 7 l 8 9 m n n n n o p p ] q       ",
"                , , ' ) ! ~ ! ! ~ { r s t u v } [ . k w 7 7 x x y y m m n p p z z p ] A         ",
"            , , ' ) ~ ~ ! ~ ~ { ~ < B C 3 D E w F [ F G 7 x x m m H o H I p I I o J ,           ",
"        , , ' ) ! e K L M N O P Q R S T U V Q F w w W X 7 7 7 H 7 Y H o H o o H 1 Z ,           ",
"      , ' ) ! ~ ! ( `  ...+.C @.#.$.@.%.&.&.*.#.=.-.;.>.,.'.7 Y 7 H Y Y Y H J ).!.~.{.Z ,       ",
"    ].^./.{ ~ ! ~ ~ { L (._.2 :.<.+.@.[.[.}.}...S |.1.2.3.4.5.6.7 Y Y o J ).!.~.{.7.8.9.0.,     ",
"    , a.G [ ~ ! { { } } } [ V b.c.d.e.f.g.h.i.j.k.G G l.m.7 o 7 o o n.).!.~.{.o.p.9.q.r.s.Z     ",
"    , F a.t.! ~ } ~ [ [ [ } } Q u.v.w.x.y.G F G G G 7 7 Y 7 Y H 1 ).!.~.' z.o.9.r.A.B.C.D.E.    ",
"    , a.w ! a.F.! ~ } } [ F } F w G.H.I.J.F 7 7 7 7 X 7 X o J !.~.' K.K.L.M.A.A.N.C.O.P.Q.,     ",
"    , } a.F.! ! a.F.! ! w w F w F W P R.S.T.G G G G 7 7 J !.~.' o.U.V.W.X.Y.N.Z.`. +.+++@+,     ",
"    , t.! ~ a.F.! ~ a.#+[ X F w W W 7 $+%+&+F G W 7 1 !.~.' 9.M.A.X.) *+=+-+;+>+,+O.'+Q.)+,     ",
"      , F.F.! ! a.F.! ~ a.8.I 7 G X 7 7 7 l.X W J ~.~.' U.Y.!+!+=+~+*+{+]+^+>+/+(+.+Q.Z ,       ",
"        , , F.F.! ~ a.F.! ~ _+:+<+o H Y X 7 J ~.7.7.U.A.!+!+=+[+*+}+Z.P.Q.|+1+P.)+2+d           ",
"            , , F.F.! ! a.F.! < :+:+3+3+4+s.r.0.5+6+7+~+[+8+8+/.D.9+ +0+a+.+b+d ,               ",
"                , , F.F.! ~ a.c+d+< e+f+k.] 8+1 g+d+8+< g+8+-+h+,+|+i+Q.a.j+,                   ",
"                    , , F.F.~ ! a.F.! { {+1 g+< g+< < g+k+l+9+8./+a.Q., d                       ",
"                        , , F.F.~ ~ a.F.! ! {+K 8+8+m+a+n+o+p+^+a., |                           ",
"                            , , F.F.! ! a.c+< g+q+r+r+|+'+)+^+s+|                               ",
"                                , , F.F.! ~ q.t+h+u+O.Q.)+Z ,                                   ",
"                                    , , F.c+[+m+7+v+a.s+,                                       ",
"                                        , w+K._+F.2+,                                           ",
"                                            E.d w+                                              ",
"                                                                                                ",
"                                                                                                "};
