/* XPM */
static char * cd_xpm[] = {
"28 27 13 1",
" 	c none",
".	c #A699A289A699",
"X	c #38E3FBEE30C2",
"o	c #71C682079658",
"O	c #FFFFFFFF0000",
"+	c #B6DA20812081",
"@	c #51445144FFFF",
"#	c #FFFF0000FFFF",
"$	c #B6DAB2CAB6DA",
"%	c #FFFF14514103",
"&	c #B6DAB6DAB6DA",
"*	c #F7DEF7DEF7DE",
"=	c #965892489658",
"                            ",
"         .XoXoooo           ",
"       OoXoXoooooooo        ",
"     +@oOXXooooooooooo      ",
"     #+@XOXXoo.$ooooooo     ",
"   XXo#+@OXoo..oo..ooooo    ",
"  @OOXo#+OXXo$.oo$o$ooooo   ",
"  ++@OOo##XXoo....o..oooo   ",
" o%#++@OXO%Xooooo$o&oooooo  ",
" o#o%#+@OO@X...oo..ooooooo  ",
"oooooo%#+@O.***.ooooooooooo ",
"XXXXXXXXXX.*****.oooooooooo ",
"ooooooooo.**o&&**.ooooooooo ",
"ooooooooo.*o$*=&*.ooooooooo ",
"ooooooooo.**o&$**.ooooooooo ",
"oooooooooo.*****.##oooooooo ",
"oooo=oooooo.***.X@+###ooooo ",
" oo..ooooooo...oOXX@++##oo  ",
" oooo.oooooooooo%OXXO@++##  ",
"  oo.o.ooooooooooOOXXO@@@   ",
"  oooo=ooooooooooO%OXXXO    ",
"   oooo=.oooooooooOoOXOX    ",
"    oooo=o=oooooooO%oOO     ",
"     oooo=oooooooooO%o      ",
"      oooooooooooooO=       ",
"        o=ooooooo==         ",
"            ooo             "};
