/* XPM */
static char * image_name[] = {
"56 46 13 1",
" 	c #F7F7F7F7F7F7",
".	c #B6B6B2B2B6B6",
"X	c #B6B6B6B6B6B6",
"o	c #000000001010",
"O	c #A6A6A2A2A6A6",
"+	c #969692929696",
"@	c #3838FBFB3030",
"#	c #717182829696",
"$	c #FFFFFFFF0000",
"%	c #B6B620202020",
"&	c #51515151FFFF",
"*	c #FFFF0000FFFF",
"=	c #FFFF14144141",
"                                                       .",
" .X..X.X.X.X.X.X.X.X.X.X.X.X.X.X.X.X.X.X.X.X.X.X.X.X.X.o",
" ......................................................o",
" .X..X.................................................o",
" O...O.X.OX.XO.X.OX.XO.X.OX.XO.X.OX.XO.X.OX.XO.X.OX.XO.o",
" X..X..................................................o",
" O.+.O.+XO.+.OX+.O.+.OX+.O.+.OX+.O.+.OX+.O.+.OX+.O.O.OXo",
" .X...O....X..O.X..X..O.X..X..O.X..X..O.X..X..O.X..X..Oo",
" O.O.OXO.O.O.O.O.O.O.O.O.O.O.O.O.O.O.O.O.O.O.O.O.O.O.O.o",
" ...O...OX..O...O...OX..O...OX..O...OX..O...OX..O...O..o",
" OXO.O.O.O.OXO.OXO.O.O.O.OXO.O.O.OXO.O.O.OXO.O.O.OXO.OXo",
" .O..XO.O.O...O.O.OX..O.O@#@####O.O...OXO.O...OXO.O...Oo",
" O.O.O.O.O.O.OXO.O.O.O$#@#@########O.O.O.O.O.O.O.O.OXO.o",
" .OXO.OXO.OXO.O.O.O.%&#$@@###########.O.O.OXO.O.O.O.O.Oo",
" O.O.O.O.O.O.O.O.O.#*%&@$@@##O.#######.O.O.O.O.OXO.O.O.o",
" OO.OOO.OOO.OOO.OO@@#*%&$@##OO##OO#####XOOO.OOO.OOO.OOOo",
" OXO.O.OXO.OXO.OX&$$@#*%$@@#.O##.#.#####.O.OXO.O.O.OXO.o",
" OOOOOOOOOOOOOOOO%%&$$#**@@##OOOO#OO####OOOOOOOOOOOOOOOo",
" O.O.O.O.O.O.O.O*=*%%&$@$=@#####.#X######O.O.O.O.O.O.O.o",
" OOOOOOOOOOOOOOO#*#=*%&$$&@OOO##OO#######OOOOOOOOOOOOOOo",
" OOOXOOO.OOO.OO######=*%&$O   O###########OO.OOOXOOO.OOo",
" OOOOOOOOOOOOOO@@@@@@@@@@O     O##########OOOOOOOOOOOOOo",
" OOOOOOOOOOOOOO#########O  #XX  O#########OOOOOOOOOOOOOo",
" OOOOOOOOOOOOOO#########O #. +X O#########OOOOOOOOOOOOOo",
" +OOO+OOO+OOO+O#########O  #X.  O#########OOO+OOO+OOO+Oo",
" OOOOOOOOOOOOOO##########O     O**########OOOOOOOOOOOOOo",
" OO+O+O+OOO+O+O####+######O   O@&%***#####O+O+O+OOO+O+Oo",
" OOOOOOOOOOOOOOO##OO#######OOO#$@@&%%**##OOOOOOOOOOOOOOo",
" +O+O+O+O+O+O+O+####O##########=$@@$&%%**+O+O+O+O+O+O+Oo",
" OOOOOOOOOOOOOOOO##O#O##########$$@@$&&&OOOOOOOOOOOOOOOo",
" +O+O+O+O+O+O+O+O####+##########$=$@@@$&O+O+O+O+O+O+O+Oo",
" O+OOO+OOO+OOO+OOO####+O#########$#$@$@OOO+OOO+OOO+OOO+o",
" +O+O+O+O+O+O+O+O+O####+#+#######$=#$$O+O+O.O+O+O+O+O+Oo",
" O+O+O+O+O+O+O+O+O+O####+#########$=#O+O+..O+O+O+O+O+O+o",
" +O+O+O+O+O+O+O+O+O+O+############$+O+#...++O+O+O+O+O+Oo",
" ++O+++O+++O+++O+++O+++O+#######+++##...X#+O+++O+++O+++o",
" +O+O+O+O+O+O+O+O+O+O+O+O+O+O+O+#........+O+O+O+O+O+O+Oo",
" ++++++++++++++++++++++++++++++++++OOOO++++++++++++++++o",
" +O+O+O+O+O+O+O+O+O+O+O+O+O+O+O+O+O+O+O+O+O+O+O+O+O+O+Oo",
" ++++++++++++++++++++++++++++++++++++++++++++++++++++++o",
" +++O+++O+++O+++O+++O+++O+++O+++O+++O+++O+++O+++O+++O++o",
" ++++++++++++++++++++++++++++++++++++++++++++++++++++++o",
" +O+++++++O+++++++O+++++++O+++++++O+++++++O+++++++O++++o",
" ++++++++++++++++++++++++++++++++++++++++++++++++++++++o",
" ++++++++++++++++++++++++++++++++++++++++++++++++++++++o",
"Xooooooooooooooooooooooooooooooooooooooooooooooooooooooo"};
