/* XPM */
static char * cdsmallstop_xpm[] = {
"15 24 7 1",
" 	c none",
".	c #FFFFFFFF0000",
"X	c #C71BC30BC71B",
"o	c #0000FFFFFFFF",
"O	c #0000FFFF0000",
"+	c #FFFFFFFFFFFF",
"@	c #000000000000",
"               ",
"     ..XXX     ",
"   o...XXXXX   ",
"  Ooo..XXXX+X  ",
"  OOo..XXX+XX  ",
" XXOOo.XX+XXXX ",
" XXXOo @ XXXXX ",
" XXXXO@ @XXXXX ",
" XXXX+ @ oXXXX ",
" XXX+XX+O.oXXX ",
"  X+XXXXO.ooX  ",
"  +XXXXXO..oo  ",
"   XXXXXOO..   ",
"     XXXOO     ",
"               ",
"               ",
"    @@@@@@@    ",
"    @@@@@@@    ",
"    @@@@@@@    ",
"    @@@@@@@    ",
"    @@@@@@@    ",
"    @@@@@@@    ",
"    @@@@@@@    ",
"               "};
