/* XPM */
static char *cdsmall[] = {
/* width height num_colors chars_per_pixel */
"    18    18        8            1",
/* colors */
". c none",
"# c #000000",
"a c #787878",
"b c #f8fc00",
"c c #b8bcb8",
"d c #00fcf8",
"e c #00fc00",
"f c #f8fcf8",
/* pixels */
"..............##..",
"..............###.",
"......aaaaaa..####",
"....aabbccccaa#c##",
"...adbbbcccccc#cc#",
"..aeddbbccccc##ac#",
"..aeedbbcccc###ac#",
".acceedbcccf###c##",
".acccedaaaacccc###",
".acccceaffacccc###",
".acccceaffacccc.a.",
".accccfaaaadcccca.",
".acccfccfeebdccca.",
"..acfcccceebddca..",
"..afccccceebbdda..",
"...accccceeebba...",
"....aaccceeeaa....",
"......aaaaaa......"
};
