/* XPM */
static char * cdsmallplay_xpm[] = {
"15 24 6 1",
" 	c #FFFFFFFF0000",
".	c #C71BC30BC71B",
"X	c #0000FFFFFFFF",
"o	c #0000FFFF0000",
"O	c #FFFFFFFFFFFF",
"+	c #000000000000",
"               ",
"       ...     ",
"   X   .....   ",
"  oXX  ....O.  ",
"  ooX  ...O..  ",
" ..ooX ..O.... ",
" ...oX + ..... ",
" ....o+ +..... ",
" ....O + X.... ",
" ...O..Oo X... ",
"  .O....o XX.  ",
"  O.....o  XX  ",
"   .....oo     ",
"     ...oo     ",
"               ",
"               ",
"    ++         ",
"    ++++       ",
"    ++++++     ",
"    ++++++++   ",
"    ++++++     ",
"    ++++       ",
"    ++         ",
"               "};
