/* XPM */
static char * Image4_xpm[] = {
"20 20 8 1",
" 	c #C71BC30BC71B",
".	c #000000000000",
"X	c #79E779E779E7",
"o	c #FFFFFFFF0000",
"O	c #BEFBBEFBBEFB",
"+	c #0000FFFFFFFF",
"@	c #0000FFFF0000",
"#	c #FFFFFFFFFFFF",
"              ..    ",
"              ...   ",
"      XXXXXX  ....  ",
"    XXooOOOOXX.O..  ",
"   X+oooOOOOOO.OO.  ",
"  X@++ooOOOOO..XO.  ",
"  X@@+ooOOOO...XO.  ",
" XOO@@+oOOO#...O..  ",
" XOOO@+XXXXOOOO...  ",
" XOOOO@X##XOOOO...  ",
" XOOOO@X##XOOOO X   ",
" XOOOO#XXXX+OOOOX   ",
" XOOO#OO#@@o+OOOX   ",
"  XO#OOOO@@o++OX    ",
"  X#OOOOO@@oo++X    ",
"   XOOOOO@@@ooX     ",
"    XXOOO@@@XX      ",
"      XXXXXX        ",
"                    ",
"                    "};
