/* XPM */
static char * kfract_xpm[] = {
"34 34 214 2",
"  	c None",
". 	c #000000",
"+ 	c #7676DF",
"@ 	c #C1C1F5",
"# 	c #0000C1",
"$ 	c #5353D2",
"% 	c #8484F5",
"& 	c #B5B5F7",
"* 	c #B8B8F0",
"= 	c #A6A6F4",
"- 	c #7979DE",
"; 	c #ACACED",
"> 	c #A0A0E9",
", 	c #9F9FE8",
"' 	c #9D9DE7",
") 	c #A9A9EB",
"! 	c #ABABEF",
"~ 	c #D9D9FA",
"{ 	c #CECEFC",
"] 	c #8989E3",
"^ 	c #6060D8",
"/ 	c #5F5FD7",
"( 	c #6C6CDB",
"_ 	c #B0B0F9",
": 	c #D0D0FA",
"< 	c #B7B7F0",
"[ 	c #9696E7",
"} 	c #8A8AE5",
"| 	c #6969DB",
"1 	c #5E5ED7",
"2 	c #5757D6",
"3 	c #5959D6",
"4 	c #7171DD",
"5 	c #8A8AE4",
"6 	c #B4B4F9",
"7 	c #D9D9FB",
"8 	c #B6B6F1",
"9 	c #9393E8",
"0 	c #8D8DE6",
"a 	c #9797E8",
"b 	c #6464D8",
"c 	c #5C5CD6",
"d 	c #5B5BD6",
"e 	c #6969DA",
"f 	c #7373DE",
"g 	c #9A9AE8",
"h 	c #9595E6",
"i 	c #C3C3F7",
"j 	c #A5A5DB",
"k 	c #06060B",
"l 	c #C8C8F5",
"m 	c #8E8EE7",
"n 	c #7C7CE2",
"o 	c #7979E1",
"p 	c #6F6FDE",
"q 	c #6161D8",
"r 	c #6666D9",
"s 	c #6565D9",
"t 	c #9A9AE7",
"u 	c #8080E1",
"v 	c #9D9DE9",
"w 	c #9393E4",
"x 	c #9494E6",
"y 	c #9191DA",
"z 	c #B8B8D6",
"A 	c #BEBEF6",
"B 	c #C0C0F6",
"C 	c #5D5D61",
"D 	c #B4B4F0",
"E 	c #9090E5",
"F 	c #8484E3",
"G 	c #9999E8",
"H 	c #7070DE",
"I 	c #7A7ADF",
"J 	c #7474DD",
"K 	c #6363D9",
"L 	c #6565DA",
"M 	c #7575DF",
"N 	c #8D8DE5",
"O 	c #7E7EE0",
"P 	c #9C9CE8",
"Q 	c #8E8EEB",
"R 	c #8888C7",
"S 	c #9595B4",
"T 	c #A1A1EB",
"U 	c #6767DB",
"V 	c #7474E1",
"W 	c #9696EC",
"X 	c #8989E2",
"Y 	c #4C4CD1",
"Z 	c #9F9FEA",
"` 	c #9E9EE8",
" .	c #6E6EDC",
"..	c #6A6ADB",
"+.	c #6868DB",
"@.	c #6767DC",
"#.	c #A4A4EB",
"$.	c #0D0DC4",
"%.	c #3D3DE0",
"&.	c #7373B5",
"*.	c #AAAAF3",
"=.	c #6666DB",
"-.	c #5D5DD8",
";.	c #6767DA",
">.	c #6F6FE8",
",.	c #5A5ABC",
"'.	c #7C7CEB",
").	c #8080E2",
"!.	c #8585E2",
"~.	c #0808C0",
"{.	c #4545D3",
"].	c #5656D7",
"^.	c #8C8CE4",
"/.	c #6B6BDC",
"(.	c #7B7BE1",
"_.	c #6A6ADC",
":.	c #9595E8",
"<.	c #0101CF",
"[.	c #201F8E",
"}.	c #7373CD",
"|.	c #4F4FCB",
"1.	c #7676F0",
"2.	c #5353D8",
"3.	c #5555D6",
"4.	c #5E5ED6",
"5.	c #6565DB",
"6.	c #7D7DE7",
"7.	c #A0A0ED",
"8.	c #A7A7EB",
"9.	c #0F0FC4",
"0.	c #0101C3",
"a.	c #0707C0",
"b.	c #B0B0EE",
"c.	c #7979E0",
"d.	c #7F7FE0",
"e.	c #A2A2EA",
"f.	c #5858D7",
"g.	c #0303B5",
"h.	c #5353B6",
"i.	c #5A5ADF",
"j.	c #5A5ADB",
"k.	c #6060D7",
"l.	c #6969DE",
"m.	c #6363D8",
"n.	c #7B7BC2",
"o.	c #7171E0",
"p.	c #0404C0",
"q.	c #0202C2",
"r.	c #0505C4",
"s.	c #0404C4",
"t.	c #0303C1",
"u.	c #7171D9",
"v.	c #8383E2",
"w.	c #3F3FD0",
"x.	c #4747D1",
"y.	c #3636CD",
"z.	c #1E1ED3",
"A.	c #1211AA",
"B.	c #4848B3",
"C.	c #5F5FCF",
"D.	c #5F5FD9",
"E.	c #A2A2F0",
"F.	c #0000BF",
"G.	c #0202C4",
"H.	c #0606C2",
"I.	c #3333CE",
"J.	c #2727CB",
"K.	c #0303C3",
"L.	c #0505C5",
"M.	c #0202AC",
"N.	c #6B6BBF",
"O.	c #8080D4",
"P.	c #0101C2",
"Q.	c #0303C4",
"R.	c #1F1FC9",
"S.	c #4E4ED5",
"T.	c #0202C3",
"U.	c #0606C5",
"V.	c #0404BF",
"W.	c #6D6DCA",
"X.	c #AAAAEE",
"Y.	c #5C5CD9",
"Z.	c #0707C4",
"`.	c #1010C7",
" +	c #0505C6",
".+	c #0404B6",
"++	c #0303A7",
"@+	c #5C5BE4",
"#+	c #1818CC",
"$+	c #0101C4",
"%+	c #0404BD",
"&+	c #01019D",
"*+	c #00009A",
"=+	c #0202C8",
"-+	c #0404C7",
";+	c #0505C2",
">+	c #0404BC",
",+	c #0202AA",
"'+	c #0505C0",
")+	c #0404C3",
"!+	c #0505C3",
"~+	c #0303B4",
"{+	c #0202AB",
"]+	c #010091",
"^+	c #0303B7",
"/+	c #0303B3",
"(+	c #0303AF",
"_+	c #00009F",
":+	c #040301",
"<+	c #10060E",
"[+	c #08082B",
"}+	c #02028E",
"|+	c #2E2FCA",
"1+	c #0B0E2C",
"                                                                    ",
"                                                                    ",
"                                                                    ",
"                                                .                   ",
"                                              . + .                 ",
"                                            . + @ # .               ",
"                                              . $ .                 ",
"                                  .           . % .                 ",
"                                    .   . . . & * = . . .   .       ",
"                                    . . - @ ; > , ' ) ! - . . .     ",
"                                  . - ~ { @ ] - ^ / ( ] _ - .       ",
"                                . - : < [ } | 1 2 3 3 4 5 6 - .     ",
"                                . 7 8 9 0 a b / c d e f g h i j .   ",
"                  k . .       . - l m n o p q r s s t u v w x y .   ",
"                . z A B . C   . D E F G H I J K L M N O P q Q R .   ",
"              . S T 4 U V . . - W X Y Z P ` h  ...+.@.} #.$.%..     ",
"          . . &.*.=.-.2 ;.>.,.'.).!.~.{.].^.[ + /.(._.:.3 <.[..     ",
"  . . . . }.|.1.2.3.3 4.U 5.6.7.8. .9.0.# a.b.c.F d.e.a f.g..       ",
"          . . h.i.j.1 k.l.m.,.n.o.p.q.r.s.t.u.v.).$ w.x.y.z.A..     ",
"              . B.C.D.@.h.. . - E.F.G.r.s.H.h ] I.J.0.0.K.L.M..     ",
"                . B.N.h..     . O.w.P.K.Q.R.S.$.P.T.r.L.L.U.V.g..   ",
"                  . . .       . W.X.Y.Z.s.`.0.s.r.U.U.L.L. +.+++.   ",
"                                . @+#+$+r.r.s.r.U.U.U.L. +%+M.&+.   ",
"                                . *+=+-+ +L.s.r.U.U.U.;+>+,+*+.     ",
"                                  . *+++g.'+)+!+!+!+!+~+{+]+.       ",
"                                    . . *+++g.g.^+/+(+++_+. :+.     ",
"                                    <+  . [+. ++++}+. . .   .       ",
"                                  .           . |+1+                ",
"                                              . + .                 ",
"                                            . + @ # .               ",
"                                              . # .                 ",
"                                                .                   ",
"                                                                    ",
"                                                                    "};
