/* XPM */
static char * kfract_xpm[] = {
"48 48 173 2",
"  	c None",
". 	c #000000",
"+ 	c #7676DD",
"@ 	c #C3C3EF",
"# 	c #4D4DD3",
"$ 	c #9797E5",
"% 	c #5959D6",
"& 	c #0404C1",
"* 	c #5353D4",
"= 	c #7A7ADE",
"- 	c #7979DE",
"; 	c #5151D4",
"> 	c #A3A3E8",
", 	c #7E7EDF",
"' 	c #A7A7E9",
") 	c #BFBFEF",
"! 	c #B4B4EC",
"~ 	c #CACAF1",
"{ 	c #A4A4E8",
"] 	c #A5A5E8",
"^ 	c #8080DF",
"/ 	c #8686E1",
"( 	c #D3D3F4",
"_ 	c #ABABEA",
": 	c #6A6ADA",
"< 	c #7F7FDF",
"[ 	c #8282E0",
"} 	c #BEBEEF",
"| 	c #ADADEA",
"1 	c #5858D6",
"2 	c #6464D9",
"3 	c #9999E6",
"4 	c #9292E4",
"5 	c #AAAAE9",
"6 	c #D7D7F5",
"7 	c #BCBCEE",
"8 	c #ADADEB",
"9 	c #8989E2",
"0 	c #8C8CE3",
"a 	c #5B5BD6",
"b 	c #5A5AD6",
"c 	c #5C5CD7",
"d 	c #9B9BE6",
"e 	c #BBBBED",
"f 	c #C8C8F1",
"g 	c #C4C4F0",
"h 	c #8A8AE2",
"i 	c #8888E2",
"j 	c #5D5DD7",
"k 	c #5B5BD7",
"l 	c #6767D9",
"m 	c #8484E0",
"n 	c #9494E5",
"o 	c #A9A9E9",
"p 	c #A0A0E7",
"q 	c #C7C7F1",
"r 	c #8F8FE3",
"s 	c #8080E0",
"t 	c #5F5FD7",
"u 	c #6262D8",
"v 	c #6060D8",
"w 	c #5E5ED7",
"x 	c #7373DC",
"y 	c #9696E5",
"z 	c #7272DC",
"A 	c #8D8DE3",
"B 	c #9898E6",
"C 	c #9898E5",
"D 	c #C6C6F1",
"E 	c #C5C5F0",
"F 	c #7C7CDF",
"G 	c #6565D9",
"H 	c #6262D9",
"I 	c #6161D8",
"J 	c #7777DD",
"K 	c #9191E4",
"L 	c #6C6CDA",
"M 	c #7171DC",
"N 	c #7070DC",
"O 	c #6363D9",
"P 	c #6B6BDA",
"Q 	c #9D9DE6",
"R 	c #8D8DE2",
"S 	c #9595E5",
"T 	c #8585E1",
"U 	c #6969DA",
"V 	c #2525C9",
"W 	c #0000C0",
"X 	c #6E6EDB",
"Y 	c #6666D9",
"Z 	c #8E8EE3",
"` 	c #0909C2",
" .	c #8787E2",
"..	c #6868DA",
"+.	c #8B8BE2",
"@.	c #5757D6",
"#.	c #7474DD",
"$.	c #8383E0",
"%.	c #2828CA",
"&.	c #2E2ECB",
"*.	c #1A1AC7",
"=.	c #7D7DDF",
"-.	c #0C0CC3",
";.	c #0101C0",
">.	c #373513",
",.	c #5656D6",
"'.	c #3131CC",
").	c #0D0DC3",
"!.	c #8181E0",
"~.	c #2323C8",
"{.	c #5A5AC7",
"].	c #2020C8",
"^.	c #0505C1",
"/.	c #4444D1",
"(.	c #4848B3",
"_.	c #5959C7",
":.	c #5555B6",
"<.	c #2A2ACA",
"[.	c #0202C1",
"}.	c #1414C5",
"|.	c #0303B1",
"1.	c #33330A",
"2.	c #4949B3",
"3.	c #5353B6",
"4.	c #9090E3",
"5.	c #0303C1",
"6.	c #7878DD",
"7.	c #3C3CCF",
"8.	c #040404",
"9.	c #434387",
"0.	c #6262B9",
"a.	c #4F4FB4",
"b.	c #6F6FCB",
"c.	c #7171BD",
"d.	c #47479F",
"e.	c #3F3F86",
"f.	c #1313C5",
"g.	c #4141D0",
"h.	c #58588C",
"i.	c #6969A7",
"j.	c #4E4E8B",
"k.	c #1C1CC7",
"l.	c #3B3BCE",
"m.	c #0202A3",
"n.	c #6D6DCA",
"o.	c #0E0EC4",
"p.	c #010195",
"q.	c #0B2A1B",
"r.	c #0000B0",
"s.	c #030203",
"t.	c #010177",
"u.	c #252927",
"v.	c #0202B1",
"w.	c #1A1B21",
"x.	c #040906",
"y.	c #0101A3",
"z.	c #041513",
"A.	c #000095",
"B.	c #091704",
"C.	c #160615",
"D.	c #302D27",
"E.	c #181813",
"F.	c #05030D",
"G.	c #030303",
"H.	c #081A0D",
"I.	c #191B20",
"J.	c #242F29",
"K.	c #0C1C0E",
"L.	c #020202",
"M.	c #091E22",
"N.	c #0E2B24",
"O.	c #21262E",
"P.	c #052314",
"                                                                                                ",
"                                                                                                ",
"                                                                                                ",
"                                                                                                ",
"                                                                                                ",
"                                                                    .                           ",
"                                                                  . + .                         ",
"                                                                . + @ # .                       ",
"                                                                . $ % & .                       ",
"                                                                  . * .                         ",
"                                                              . . = - ; . . .                   ",
"                                                  . .   . . . - - > > > = - - . .     .         ",
"                                                    . . - , ' ) ) ! ! > > > > = = .   . .       ",
"                                                    . - @ ~ ! { $ $ $ $ $ > { ] ' ^ . .         ",
"                                                  . / ( @ _ ' $ ^ ^ : : : < [ _ ' ' ^ .         ",
"                                                . - @ } | $ ^ ^ : : 1 1 1 1 2 3 4 5 ! _ .       ",
"                                              . - 6 7 8 $ 9 0 : a % 1 b % c : = 9 9 d e / .     ",
"                                            . - f g 8 $ h i $ : j k % 1 % j l m $ 3 n o p .     ",
"                        .   . . .           . o q 8 r s 0 9 + t u v v w x y z A B - $ 9 C .     ",
"                        . . - D o . .       . ! E r [ F : l G H I 2 2 v l 3 J B K 3 B i / .     ",
"                      . - D ) > ! ) D .   . - ! 4 L n 3 M N - - v O H H i / < = 3 t G 3 i .     ",
"                      . ) > = = = P Q .   . R S 3 I T 3 h 0 n 4 : G l U l U N B r V W A .       ",
"                .   . > > = = 1 1 X M Y . R : K Z ` W  .3 K $ S B G : ..U ..9 +.[ W W W .       ",
"              . D . - > = % @.% % t H l ..z #.$.3 %.W &.*.w =.T Z Y : F s : s 3 -.W ;.>.        ",
"    . . . . . =.,.1 = % 1 @.,.b c I O O z +.S n 3 '.W W W W ).3 9 : !.[ S 3 F $ ~.W .           ",
"              . 1 . 1 1 ,.,.b c w H O {.= 3 3 3 ].W W & & W ^.3 S #.- G W 9 A [ 1 /.W >.        ",
"                .   . (.1 % k w w 2 _.:.. . 3 <.W W & & & [.W W $ : X 3 W }.W W W W W |.1.      ",
"                      . 2._.c w t _.3..   . 4.4 W W & & & 5.W 6.3 = <.7.W W W ;.5.& & & 8.      ",
"                      . 9.0.a.b.c.d.e..   . / v f.W ;.& & 5.W / g.W W W W & & 5.& & & |.|.8.    ",
"                        . . h.i.j.. .       . 3 3 k.W W & 5.l.W W W 5.& & & & 5.& & & |.m.8.    ",
"                        .   . . .           . s 3 3 l.W & & & 5.& & & & & & & 5.& & & m.m.8.    ",
"                                            . n.s # o.W & & & 5.& & & & & & & 5.& & |.m.p.8.    ",
"                                              q.r.W W [.& & & 5.& & & & & & & 5.& |.m.m.p.8.    ",
"                                                s.|.|.& & & & 5.& & & & & & & |.|.m.p.t.u.      ",
"                                                  8.m.|.|.|.& 5.& & & & & & v.v.m.p.t.w.        ",
"                                                    x.m.|.|.|.v.|.v.v.|.|.|.|.y.p.t.8.8.        ",
"                                                    x.z.t.m.m.y.|.|.|.|.m.m.m.A.t.B.  8.8.      ",
"                                                  8.C.  D.E.8.t.m.m.t.t.p.t.t.F.8.    8.        ",
"                                                              G.H.% & t.I.J.8.                  ",
"                                                                  8.+ K.                        ",
"                                                                L.+ @ % M.                      ",
"                                                                . + % W N.                      ",
"                                                                  O.W P.                        ",
"                                                                    .                           ",
"                                                                                                ",
"                                                                                                ",
"                                                                                                ",
"                                                                                                "};
