/* XPM */
static char*mini[]={
"16 16 3 1",
"# c #000000",
"a c #0000c0",
". c None",
"................",
"................",
"...........#....",
"..........##....",
"........##aa##..",
".......#aaaaaa#.",
"....##.#aaaaaa#.",
"...#aa#aaaaaaa#.",
".#.#aa#aaaaaaa#.",
"....##.#aaaaaa#.",
".......#aaaaaa#.",
"........##aa##..",
"..........##....",
"...........#....",
"................",
"................"};
