/* XPM */
static char * kabalone_xpm[] = {
"32 32 240 2",
"  	c None",
". 	c #020204",
"+ 	c #DEDEDD",
"@ 	c #D9DAD8",
"# 	c #D6D6D0",
"$ 	c #C2C2B8",
"% 	c #FEFEDE",
"& 	c #F6F6D8",
"* 	c #E2E2B4",
"= 	c #DEDEC5",
"- 	c #E2E2DF",
"; 	c #D3D4BC",
"> 	c #9A9A8C",
", 	c #AAAAA3",
"' 	c #22221C",
") 	c #EAEADF",
"! 	c #CAD6C4",
"~ 	c #A2B2A4",
"{ 	c #A4A69C",
"] 	c #A2A2A4",
"^ 	c #9EA4A1",
"/ 	c #A3A27E",
"( 	c #969E8C",
"_ 	c #8D9289",
": 	c #9C9E8D",
"< 	c #C1C2C4",
"[ 	c #FCDABC",
"} 	c #F6AA94",
"| 	c #FEA694",
"1 	c #EE4A2C",
"2 	c #B68A7C",
"3 	c #959A98",
"4 	c #939288",
"5 	c #A89E8C",
"6 	c #EABEAC",
"7 	c #E2725C",
"8 	c #AE7A6C",
"9 	c #959695",
"0 	c #968A7C",
"a 	c #DAAEA4",
"b 	c #F29D8F",
"c 	c #BA6244",
"d 	c #929294",
"e 	c #ADAE9E",
"f 	c #FBC6BC",
"g 	c #FEDEDC",
"h 	c #FEF4EB",
"i 	c #EE6A4C",
"j 	c #DA563C",
"k 	c #889A9C",
"l 	c #888E8A",
"m 	c #FAB6AC",
"n 	c #DA3E20",
"o 	c #898A88",
"p 	c #808A88",
"q 	c #CA9E8C",
"r 	c #F6F6F1",
"s 	c #EA3A1C",
"t 	c #B27664",
"u 	c #FEFEF5",
"v 	c #F4A698",
"w 	c #E63E1C",
"x 	c #86867E",
"y 	c #F28A74",
"z 	c #EE5634",
"A 	c #8E8E90",
"B 	c #BA6E58",
"C 	c #E73615",
"D 	c #8E9A7C",
"E 	c #E8EACE",
"F 	c #F6CEC4",
"G 	c #E6421C",
"H 	c #E22204",
"I 	c #EEB6AC",
"J 	c #B2BEB4",
"K 	c #9EA394",
"L 	c #BA725C",
"M 	c #BE7E64",
"N 	c #959688",
"O 	c #968264",
"P 	c #CC5E44",
"Q 	c #988E88",
"R 	c #F9FAF9",
"S 	c #D2CACC",
"T 	c #D6BEBC",
"U 	c #F6D6D0",
"V 	c #F2F2EE",
"W 	c #BDBEB0",
"X 	c #98A290",
"Y 	c #949A78",
"Z 	c #818260",
"` 	c #827A58",
" .	c #808664",
"..	c #8C967C",
"+.	c #CBCBCC",
"@.	c #9D9E9D",
"#.	c #959A86",
"$.	c #B69E8C",
"%.	c #F2BAAC",
"&.	c #DE6E54",
"*.	c #A8865C",
"=.	c #868E6C",
"-.	c #CEAA94",
";.	c #F8AEA0",
">.	c #FAFADC",
",.	c #D2D2D4",
"'.	c #9B968C",
").	c #F29281",
"!.	c #DA4A2C",
"~.	c #829A74",
"{.	c #BA967C",
"].	c #F24E34",
"^.	c #B6B6B8",
"/.	c #967E74",
"(.	c #EC4628",
"_.	c #DE4624",
":.	c #F28E7C",
"<.	c #8E9498",
"[.	c #C6C6CC",
"}.	c #949676",
"|.	c #A27A5C",
"1.	c #928A6C",
"2.	c #CE462C",
"3.	c #CE522C",
"4.	c #8E8D7F",
"5.	c #8E9684",
"6.	c #EEEEE9",
"7.	c #868460",
"8.	c #817E5C",
"9.	c #828A64",
"0.	c #8E8E6E",
"a.	c #939667",
"b.	c #CCCCB3",
"c.	c #D5C2A4",
"d.	c #F7CA9C",
"e.	c #DE9551",
"f.	c #B9B6A7",
"g.	c #A3A28C",
"h.	c #9E9E78",
"i.	c #9A9A79",
"j.	c #8E8E60",
"k.	c #8A8B67",
"l.	c #929278",
"m.	c #939266",
"n.	c #C2A68C",
"o.	c #FABAAC",
"p.	c #DA5E4C",
"q.	c #82827C",
"r.	c #F2F2C4",
"s.	c #E7E6C9",
"t.	c #FEFAED",
"u.	c #F2984C",
"v.	c #B09684",
"w.	c #FAE6E4",
"x.	c #F6664C",
"y.	c #C6664C",
"z.	c #949E9C",
"A.	c #737374",
"B.	c #3A3A34",
"C.	c #F7C294",
"D.	c #F2B57F",
"E.	c #EE7A14",
"F.	c #BE8254",
"G.	c #A5A67C",
"H.	c #BABA88",
"I.	c #B4B47C",
"J.	c #96A2A0",
"K.	c #BCC49C",
"L.	c #878674",
"M.	c #C07E44",
"N.	c #DE7E28",
"O.	c #BDBE8F",
"P.	c #EAEBBF",
"Q.	c #C5C28F",
"R.	c #ABAE7F",
"S.	c #CECE9C",
"T.	c #BCC288",
"U.	c #CE623C",
"V.	c #DE5234",
"W.	c #6A6A5C",
"X.	c #C5C6B0",
"Y.	c #898A7C",
"Z.	c #EAE6BC",
"`.	c #F6EED4",
" +	c #BCB67C",
".+	c #D0D29C",
"++	c #DADAA8",
"@+	c #BAB29C",
"#+	c #FAD2A4",
"$+	c #D28644",
"%+	c #FEECD0",
"&+	c #FADEBC",
"*+	c #E0C28C",
"=+	c #DEC6A4",
"-+	c #F08220",
";+	c #BA8A54",
">+	c #EAAA6C",
",+	c #EB8B34",
"'+	c #C6C690",
")+	c #D6AA6C",
"!+	c #F6BE94",
"~+	c #B68458",
"{+	c #9E925C",
"]+	c #F2AE74",
"^+	c #F2BE8C",
"/+	c #DF771C",
"(+	c #DE8E48",
"_+	c #E67618",
":+	c #CE823C",
"<+	c #9EA26C",
"[+	c #D09C64",
"}+	c #EA7A19",
"|+	c #F6DABC",
"1+	c #ACAA7C",
"2+	c #AAB68C",
"3+	c #9A9A9C",
"4+	c #B2B29C",
"5+	c #C6CCB4",
"6+	c #9A8E6C",
"7+	c #C2B284",
"8+	c #BE9254",
"9+	c #A2AA7C",
"0+	c #D2D6A0",
"a+	c #FAF2D9",
"b+	c #FAE2BC",
"c+	c #C48244",
"d+	c #8E9264",
"e+	c #929A64",
"f+	c #B08E6C",
"g+	c #CEAE7C",
"h+	c #BE863C",
"i+	c #E6A25C",
"j+	c #CE9654",
"k+	c #EE9E54",
"l+	c #DA8634",
"m+	c #AE8A4C",
"n+	c #E68E40",
"o+	c #EE7E14",
"p+	c #AEB2A4",
"q+	c #9DA584",
"              . . . . . . . . . . . . . . . . . .               ",
"              . + + + @ @ @ @ @ @ @ @ @ @ @ # $ .               ",
"            . $ % & * = - * * - * * - * * ; $ > , '             ",
"            . ) & ! ~ { { { ] ^ ^ { { { , / ( _ : .             ",
"          . < [ } | 1 2 3 4 5 6 7 8 3 9 0 a b c d e .           ",
"          . ) f g h i j k l 6 h m n o p q r h s t 3 .           ",
"        . < u b v v w j k x y f z w A p B f y C 8 D , .         ",
"        . E % F G H C I J K L C w M : N O n s P Q _ > .         ",
"        . % R R S T U V W e ^ 5 5 : X Y D Z `  ..._ 3 .         ",
"      . < % r ) +.) R r ) + , @.#.$.%.&.*.=.` -.;.P 4 , .       ",
"      . ) >.V ,.+.R V u u r W 9 '.U h ).!.~.{.h h ].B ( .       ",
"    . $ % ) ,.^.# V V V V r +.d /.).;.(._.~.B m :.s B <., .     ",
"    . ) >.- [.^.+ - V - + R ) e }.c C _.|.D 1.2.C 3.4.5.N .     ",
"  . $ % V - [.+.# + @ W < 6.< K ( D 7.8.9.0.a.=.8. ._ _ 9 e .   ",
"  . u >.b.{ 9 , c.d.e.9 ] f.g.h.h.i.j.Z 8.k.l.m.8.n.o.p.Q ^ .   ",
". q.r.s.e A x $.& t.u.M l @./ g./ h.}.7.Z k.m.}.v.w.h x.y.z.A.. ",
". B.E ; f.A x *.C.D.E.F.p > g.g.h.G.H.h.m.m.h.I.M b :.C y.J.A.. ",
"  . , b.K.> p L.M.E.N.1.q.4 : / h.O.P.Q.R.O.S.* T.U.C V.Q ] .   ",
"  . W.; X., x Y.Y.( #.l L.Y.'.: R.Z.`. +.+>.>.r.H.T.++@.3 A..   ",
"    . W b.@+c.#+$+4 : l.x Y.m.}.T.%+&+e.*+% % * I..+b.l d .     ",
"    . e ; =+t.t.-+;+#.4 0.L.L.k./ %+>.>+,+% % '+'+P.@.A A..     ",
"      . E )+!+>+E.~+5.#.N }.j.m.{+]+^+/+,+% * I..+S.x @..       ",
"      . $ b.(+_+:+Y.0.'.'.i.a.i.<+[+}+,+|+r.Q.H.P.W A A..       ",
"        . ; X.K Y.Y.L.Y i.h.G.1+/ 2+K.E u Z. +++s.d 3+.         ",
"        . 4+5+4+c.[ (+6+a.h.7+|+>+8+9+0+a+b+d.e.f.A A .         ",
"        . L.; c.`.h u.c+Z d+|+t.d._+j.e+*+h a+E.f+9 W..         ",
"          . ; g+D.]+E.h+=.k.i+C.-+N.d+a.j+C.k+}+f+@..           ",
"          . { 5+j+_+l+j.m.a.m+/+/+m+a.a.G.n+o+F.9 @..           ",
"            . ; p+#.<+G.G.G.q+q+9+9+G.G.R.O.5+<.] .             ",
"            . N > 4.9 N 4 N N 9 N 9 N 9 9 <.A d A..             ",
"              . @.> 3+3+3+3+3+3+3 3+3+3+> 3+3 @..               ",
"              . . . . . . . . . . . . . . . . . .               "};
