/* XPM */
static char * large_kabalone_xpm[] = {
"48 48 256 2",
"  	c None",
". 	c #040403",
"+ 	c #000000",
"@ 	c #020202",
"# 	c #EEEECB",
"$ 	c #FFFFD9",
"% 	c #FCFBD7",
"& 	c #F7F7D3",
"* 	c #F0F0CE",
"= 	c #EEEECD",
"- 	c #EDEDCD",
"; 	c #EBEBCB",
"> 	c #E9E9C9",
", 	c #E0E0C3",
"' 	c #CFCFB5",
") 	c #B6B6A2",
"! 	c #9A9A8C",
"~ 	c #161616",
"{ 	c #050505",
"] 	c #1B1B1A",
"^ 	c #EFEFCE",
"/ 	c #E9E9CA",
"( 	c #D9D9BD",
"_ 	c #BFBFA9",
": 	c #A3A394",
"< 	c #8A8A81",
"[ 	c #656559",
"} 	c #C9C9AF",
"| 	c #C2C2AD",
"1 	c #C1C1AC",
"2 	c #BCBCA6",
"3 	c #B1B19D",
"4 	c #ACAC9A",
"5 	c #8E8E82",
"6 	c #8C8C83",
"7 	c #8A8A85",
"8 	c #070707",
"9 	c #121211",
"0 	c #0A0A0A",
"a 	c #DADAC5",
"b 	c #A5A59C",
"c 	c #A0A095",
"d 	c #A19F8D",
"e 	c #9A9A88",
"f 	c #969681",
"g 	c #8E8E86",
"h 	c #8C8C87",
"i 	c #8B8B86",
"j 	c #444442",
"k 	c #8B8B74",
"l 	c #F9DDB6",
"m 	c #F3A389",
"n 	c #F7B2A3",
"o 	c #E9684C",
"p 	c #D65D43",
"q 	c #AD8E82",
"r 	c #979792",
"s 	c #B58D7D",
"t 	c #E2A998",
"u 	c #D76B51",
"v 	c #B77B67",
"w 	c #98968F",
"x 	c #95958D",
"y 	c #959285",
"z 	c #AF725A",
"A 	c #8E8B85",
"B 	c #242423",
"C 	c #FFDAD1",
"D 	c #FBC6BA",
"E 	c #E34321",
"F 	c #8F8F8D",
"G 	c #AD7162",
"H 	c #8E8E8A",
"I 	c #E24626",
"J 	c #929291",
"K 	c #898989",
"L 	c #D45235",
"M 	c #86867E",
"N 	c #82827D",
"O 	c #FEFED8",
"P 	c #E96B50",
"Q 	c #878786",
"R 	c #858583",
"S 	c #82827A",
"T 	c #D3522F",
"U 	c #383835",
"V 	c #F8F8DB",
"W 	c #E97157",
"X 	c #BFBEB9",
"Y 	c #9D9D93",
"Z 	c #8E8E7A",
"` 	c #A86C50",
" .	c #8D8D88",
"..	c #666666",
"+.	c #F4F4E9",
"@.	c #F8D9D2",
"#.	c #F9DAD4",
"$.	c #C8C8BD",
"%.	c #A8A899",
"&.	c #A1A193",
"*.	c #9C9C8B",
"=.	c #999981",
"-.	c #93937B",
";.	c #8D8A6D",
">.	c #A76B4A",
",.	c #CF4E2C",
"'.	c #D04F2D",
").	c #AC704E",
"!.	c #908E71",
"~.	c #0D0D0D",
"{.	c #222220",
"].	c #FAFAF3",
"^.	c #E7E7E6",
"/.	c #CCCCCC",
"(.	c #C6C6C6",
"_.	c #F4F4F4",
":.	c #FFFFFF",
"<.	c #CCCCC1",
"[.	c #999985",
"}.	c #95957E",
"|.	c #969678",
"1.	c #858561",
"2.	c #7D7D5C",
"3.	c #828261",
"4.	c #8A8A68",
"5.	c #8E8E7D",
"6.	c #FDFDFC",
"7.	c #DCDCDA",
"8.	c #E4E4DA",
"9.	c #D6D6D5",
"0.	c #B0B0AE",
"a.	c #969587",
"b.	c #B47852",
"c.	c #92916E",
"d.	c #807E5B",
"e.	c #AB8464",
"f.	c #EEEEE6",
"g.	c #FFFFFD",
"h.	c #C1C1C0",
"i.	c #8F8F6D",
"j.	c #AAA992",
"k.	c #F3F3D7",
"l.	c #9F9F9F",
"m.	c #76766B",
"n.	c #B8B8B7",
"o.	c #EFEFEB",
"p.	c #DBDBD4",
"q.	c #E0E0E0",
"r.	c #939381",
"s.	c #565655",
"t.	c #959574",
"u.	c #8C8B65",
"v.	c #908D6B",
"w.	c #D1D1D1",
"x.	c #9E9E86",
"y.	c #9A9A7F",
"z.	c #8A8A6E",
"A.	c #767676",
"B.	c #AAAAAA",
"C.	c #C8AE8D",
"D.	c #ECC7A1",
"E.	c #E09B56",
"F.	c #C4A275",
"G.	c #9E9E82",
"H.	c #9E9E7D",
"I.	c #9A9A78",
"J.	c #8F8C86",
"K.	c #C4C4B2",
"L.	c #FFE8D1",
"M.	c #FBD9BA",
"N.	c #E37D21",
"O.	c #9D9D7A",
"P.	c #999975",
"Q.	c #919169",
"R.	c #E3BF99",
"S.	c #D27F32",
"T.	c #929287",
"U.	c #9D9D77",
"V.	c #999971",
"W.	c #838359",
"X.	c #89895D",
"Y.	c #96966C",
"Z.	c #929265",
"`.	c #86867A",
" +	c #D89351",
".+	c #EA9950",
"++	c #A4A47C",
"@+	c #ACAC80",
"#+	c #9D9D70",
"$+	c #8C8C5E",
"%+	c #A8A87A",
"&+	c #A1A176",
"*+	c #8C8C8C",
"=+	c #C6C6AF",
"-+	c #C1C1A9",
";+	c #89897A",
">+	c #828275",
",+	c #AB8458",
"'+	c #B8B88C",
")+	c #D5D59F",
"!+	c #BEBE8F",
"~+	c #A1A16E",
"{+	c #C6C691",
"]+	c #898878",
"^+	c #D58234",
"/+	c #B2B287",
"(+	c #DCDCAE",
"_+	c #FCFCCB",
":+	c #B5B47D",
"<+	c #E5E5B6",
"[+	c #C6895B",
"}+	c #DE5C37",
"|+	c #E05E3B",
"1+	c #8E8B8A",
"2+	c #8B8B7D",
"3+	c #92927E",
"4+	c #CCCCA1",
"5+	c #FFFFCF",
"6+	c #BABA83",
"7+	c #F5F4C2",
"8+	c #F8F8C4",
"9+	c #CACA97",
"0+	c #ADAC78",
"a+	c #C3C3AC",
"b+	c #B39A78",
"c+	c #868677",
"d+	c #F9DFC7",
"e+	c #F6D9A5",
"f+	c #C29B5B",
"g+	c #838372",
"h+	c #EFC992",
"i+	c #F9F9C8",
"j+	c #303030",
"k+	c #83836D",
"l+	c #838366",
"m+	c #919161",
"n+	c #E79441",
"o+	c #D1AA70",
"p+	c #8E8E6B",
"q+	c #959568",
"r+	c #979667",
"s+	c #C4C3A8",
"t+	c #848273",
"u+	c #9F9F74",
"v+	c #E28F3E",
"w+	c #FFFFDA",
"x+	c #FFFEFA",
"y+	c #AB854E",
"z+	c #BBA16D",
"A+	c #B58E51",
"B+	c #D3802D",
"C+	c #9B9B69",
"D+	c #B28B4B",
"E+	c #949267",
"F+	c #9E9E77",
"G+	c #989884",
"                                                                                                ",
"                                                                                                ",
"                      . + + + + + + + + + + + + + + + + + + + + + + + + +                       ",
"                      @ # $ % & * = - - - - - - - - - - - - ; > , ' ) ! ~                       ",
"                    { ] $ $ $ & ^ ; ; / / / / / / / / / / / > , ( _ : < [ +                     ",
"                    + ' $ $ & ' } | | | | | | | | | | | | | 1 2 3 4 5 6 7 8                     ",
"                  9 0 $ $ $ a 3 b c c c c c c c c c c c c c : d e f g h i j @                   ",
"                  + k $ l m n o p q r r r r s t u v w r r x y s t u z A i 7 @                   ",
"                B 0 $ $ m C C D E p r F F s C C D E G F H 6 s C C D E G i i B .                 ",
"                + [ $ $ n C C D E I J K K t C C D E L K 7 M t C C D E L h i N +                 ",
"                . $ $ O o D D P E I J K K u D D P E L Q R S u D D P E T g h i 0 8               ",
"              . U $ $ V W E E E E W X c Y v E E E E v w 5 Z ` E E E E z  .h h ..+               ",
"              + * $ O +.@.P I I W #.$.%.&.d v L L v d *.=.-.;.>.,.'.).!.5  .h i ~.              ",
"            ~.{.$ $ V ].^./.(._.:.+.<.) 4 b &.&.&.*.*.[.}.|.!.1.2.2.3.4.5. .h h U +             ",
"            + ' $ $ +.6.^./.7.6.].+.8.9.$.0.Y Y Y a.s t u b.c.4.3.d.e.t u G A h h @             ",
"          ~.9 $ $ O +.^./.(.^.].f.+.g.:.].h.c r x s C C D E b.i.3.e.C C D E G h i U 8           ",
"          + j.$ $ k.^.7.h.9.6.+.+.g.:.:.:.9.l.x g t C C D E T c.4.t C C D E L h h m.+           ",
"        ] . $ $ O 8.9.(.n.9.o.^.].g.:._._.7.l.F < u D D P E T c.i.u D D P E L  .h i ] ~.        ",
"        @ [ $ $ k.p./.n.X q.8.8.o.q.9.^.:.:.<.&.r.z E E E E ).c.c.).E E E E z  . .g s.+         ",
"      j . $ $ O 8.9.(.n.h.7.p.q.o.q.9.^.:.:.<.&.=.t.).'.,.>.u.i.c.v.>.,.,.>.k  . .h i 8 ~       ",
"      @ U $ O k.^.9.h.h./.9.a 7.w.h.0.w.].<.4 x.y.|.i.3.2.2.1.4.c.c.4.3.2.3.z.5  . .h A.@       ",
"      @ & % & , X 0.l.B.X C.D.E.F.b l.n.X 3 d G.H.I.t.4.3.2.3.4.i.c.i.3.d.e.t u G J.h h @ s.    ",
"    { ] ; = > K.b r F r C.L.L.M.N.e.K c %.d x.G.H.O.P.Q.1.2.d.1.4.Q.c.u.e.C C D E G  .i B .     ",
"    + 5.( , ( ) x  .Q 7 R.L.L.M.N.S.R T.e x.G.G.H.O.U.V.u.W.W.X.u.Y.V.Z.t C C D E L H h N +     ",
"    8 U ' ' ' 2 a.< N `. +M.M..+N.S.M 6 a.x.G.G.H.++++@+#+$+$+$+Z.#+%+&+u D D P E L *+*+s.+     ",
"    j + =+} =+-+d ;+>+>+,+N.N.N.N.,+>+`.r.=.G.G.H.++'+)+!+~+~+%+@+'+{+!+b.E E E E G *+*+{ 0     ",
"      @ j -+-+_ 3 r.;+>+]+,+^+^+,+;+S S 5.f y.H.H./+(+_+)+:+:+{+)+(+<+<+:+[+}+|+v 1+*+A.+       ",
"      B ~.2 _ -+2 *.2+`.`.2+f f 5 2+`.>+;+3+y.H.++4+$ 5+{+6+)+7+5+8+8+9+0+6+)+2 *+*+*+9 {       ",
"      w.+ m.a+a+a+j.b+R. +,+3+f r.5.`.S c+Z |.P.@+7+d+e+E.f+)+8+_+_+7+{+:+9+(+b *+*+R +         ",
"        ~.] a+=+} C.L.L.M.N.,+r.f 5.;+>+g+z.i.Y.@+e+L.L.M.N.h+5+i+_+)+:+6+)+} *+*+*+j+.         ",
"          @ ) } } D.L.L.M.N.S.3+}.3+Z k k+l+1.X.m+D.L.L.M.N.n+_+_+7+{+6+)+<+b *+*+*+{           ",
"          @ B =+} E.M.M..+N.S.Z 3+3+3+Z k 4.u.$+m+E.M.M..+N.n+i+_+)+:+6+)+} *+*+*+s.+           ",
"            . =+} o+N.N.N.N.,+c+3+}.}.|.t.p+u.q+r+f+N.N.N.N.h+_+8+{+6+)+7+_ *+*+*+0 ~           ",
"            + m.a+s+o+^+S.,+t+c+Z 3+}.|.t.Y.Y.u+~+%+o+v+n+h+O 5+)+:+6+)+<+b *+*+A.+             ",
"            9 8 _ _ _ 3 r.;+>+>+]+-.|.P.P.&+u+++++%+/+!+(+w+].O {+6+)+7+' *+*+*+] .             ",
"              + e _ -+2 d b+R. +,+!.t.t.&+%+F.R. +f+%+@+{+5+x+e+h+E.o+<+b *+*+*+@               ",
"              8 B _ a+s+C.L.L.M.N.y+p+Q.Y.z+L.L.M.N.A+#+@+(+l L.L.M.N.o+*+*+*+j+@               ",
"              s.@ 3 a+a+D.L.L.M.N.B+d.W.$+R.L.L.M.N.B+$+m+C+h+L.L.M.N.^+*+*+*+@                 ",
"                @ U -+a+E.M.M..+N.B+W.X.$+ +M.M..+N.B+$+m+C+E.M.M..+N.^+*+*+A.+                 ",
"                U { _ _ F.N.N.N.N.y+X.$+m+D+N.N.N.N.D+m+m+C+f+N.N.N.N.e.*+*+0 8                 ",
"                  + m.2 2 F.^+^+A+E+Z.q+q+r+D+B+B+D+r+q+q+q+0+o+v+v+e.H *+R + *+                ",
"                  ~.~.2 ) 4 =.t.F+&+u+u+u+u+u+u+u+u+u+u+u+u+@+/+4+_ *+*+*+B .                   ",
"                    + %.4 ! 5 3+f G+[.G+G+G+G+G+G+G+G+G+G+G+G+[.*.J *+*+*+@                     ",
"                    @ {.! 6 6  .*+*+*+*+*+*+*+*+*+*+*+*+*+*+*+*+*+*+*+*+j @                     ",
"                      @ < 6 h *+*+*+*+*+*+*+*+*+*+*+*+*+*+*+*+*+*+*+*+*+0                       ",
"                      . + + + + + + + + + + + + + + + + + + + + + + + + +                       ",
"                                                                                                ",
"                                                                                                "};
