/* XPM */
/* Drawn  by Nico Shirwing for the K Desktop Environment */
/* See http://www.kde.org */
static char*kabalone[]={
"16 16 10 1",
"# c #000000",
"a c #c0c0c0",
"c c #ffffff",
"b c #c00000",
"d c #ff0000",
"e c #ffc0c0",
"f c #c05800",
"g c #ffa858",
"h c #ffdca8",
". c None",
"....########....",
"...#aaaaaaaa#...",
"...#abababac#...",
"..#aadededeac#..",
"..#aaaaaaaaac#..",
".#aaaaaababaac#.",
".#aaafaadedeac#.",
"#aaaaghaaaaaaac#",
"#aaaaaaaaaabaac#",
".#aafaaafaadec#.",
".#aaghaaghaaac#.",
"..#aaaaaaaaac#..",
"..#aafafafaac#..",
"...#aghghghc#...",
"...#cccccccc#...",
"....########...."};

