/* XPM */
static char * apples_xpm[] = {
/* width height num_colors chars_per_pixel */
"32 16 7 1",
/* colors */
" 	s None	c None",
".	c green",
"X	c #ff0000",
"o	c #800000",
"O	c #ffff00",
"+	c gold4",
"@	c white",
/* pixels */
"          .               .     ",
"         ..              ..     ",
"         ..              ..     ",
"       ....            ....     ",
"       ....            ....     ",
"   XXoo..XXXXX     OO++..OOOOO  ",
"   XXoo..oXXXXX    OO++..oOOOOO ",
" XXOOooooXXX++   OO@@++++OOO++  ",
" XXOOXXXXXXX++   OO@@OOOOOOO++  ",
" XXOOXXXXXXXo+   OO@@OOOOOOO++  ",
" XXXXOOXXXXoooo  OOOO@@OOOO++++ ",
" XXXXOOXXXXoooo  OOOO@@OOOO++++ ",
"   XXXXXXoooo      OOOOOO++++   ",
"   XXXXXXoooo      OOOOOO++++   ",
"     XXXXXX          OOOOOO     ",
"     XX XXX          OO OOO     "};
