/* XPM */
static char * ball_xpm[] = {
"64 16 3 1",
" 	s None	c None",
".	c red4",
"X	c red1",
"                                                                ",
"                                                                ",
"    ........        ........        ........        ........    ",
"    ........        ........        ........        ........    ",
"  ..XXXXXX....    .......XXX..    ............    ....XX......  ",
"  ..XXXXXX....    .......XXX..    ............    ....XX......  ",
"  ..XXXXXXXX..    .......XXX..    ............    ..XXXX......  ",
"  ........XX..    .......XXX..    ..XX........    ..XXX.......  ",
"  ........XX..    .......XXX..    ..XX........    ..XXX.......  ",
"  ............    .......XXX..    ..XXXXXXXX..    ..XXX.......  ",
"  ............    .....XXX....    ....XXXXXX..    ..XXX.......  ",
"  ............    .....XXX....    ....XXXXXX..    ..XXX.......  ",
"    ........        ........        ........        ........    ",
"    ........        ........        ........        ........    ",
"                                                                ",
"                                                                "};
