/* XPM */
static char * samy_xpm[] = {
/* width height num_colors chars_per_pixel */
"19 47 9 1",
/* colors */
" 	s None	c None",
".	c #cdad00",
"X	c #eeee00",
"o	c #5050f8",
"O	c #8c8c8c",
"+	c #00008b",
"@	c #ffff00",
"#	c #8b2252",
"$	c #ff3e96",
/* pixels */
"                   ",
"  .........        ",
"  ...XX....        ",
".....XX......      ",
"..ooo...ooo..      ",
"..ooo...ooo..OOO   ",
"..+++...+++..OOO   ",
"..@@@........OOO   ",
"..@@@........OOO   ",
"..@@@........OOO   ",
"..@@@........OOO   ",
"..@@@........OOO   ",
"..@@@........OOO   ",
"..@@@........OOO   ",
"..@@@........OOO   ",
"..@@@........OOO   ",
"..@@@........OOO   ",
"..@@@........OOO   ",
"..@@@........OOO   ",
"..@@@........OOO   ",
"..@@@........OOO   ",
"..@@@........OOO   ",
"..@@@........OOO   ",
"..@@@........OOO   ",
"..@@@........OOO   ",
"..@@@........OOO   ",
"..@@@........OOO   ",
"..@@@........OOO   ",
"..@@@........OOO   ",
"..@@@........OOO   ",
"..@@@........OOO   ",
"..@@@........OOO   ",
"..@@@........OOO   ",
"..@@@........OOO   ",
"..@@@........OOO   ",
"##$$$########OOO   ",
"##$$$########OOO   ",
"..@@@........OOO   ",
"##$$$########OOO   ",
"##$$$########OOO   ",
"..@@@........OOO   ",
"..@@@........OOO   ",
"  #########OOOOO   ",
"  #########OOOOO   ",
"      OOOOOOOOOO   ",
"      OOOOOOO      ",
"      OOOOOOO      "};
