/* XPM */
static char * snake1_xpm[] = {
/* width height num_colors chars_per_pixel */
"288 16 7 1",
/* colors */
" 	s None	c None",
".	c #008b00",
"X	c #00ff00",
"o	c #8b7500",
"O	c #ffd700",
"+	c red",
"@	c #000000",
/* pixels */
"  ..XX........      oooooooo                                        ........      ..XX........                                                                    ..XX........    ..XX........                    ..XX........      ........        oooooooo                                    ",
"  ..XX........      oooooooo                                        ........      ..XX........                                                                    ..XX........    ..XX........                    ..XX........      ........        oooooooo                                    ",
"  ..XX........    ....XX......    ..oo..oo............oo..oo..    ....XX......    ..XX........  ..............    ..........................        ................XX........    ..XX..........................  ..XX........    ....XX......    ....XX......    ..oo........    ........oo..  ",
"  ..XX........    ....XX......    ..oo..oo............oo..oo..    ....XX......    ..XX........  ..............    ..........................        ................XX........    ..XX..........................  ..XX........    ....XX......    ....XX......    ..oo........    ........oo..  ",
"  ..XX........    ooOOoooooooo  oo..OOXXOOXXXXXXXXXXXXOOXXOO..oo  ..++....++..    ..XX........  XXXXXXXXX@++........++@XXXXXXXXXXXXXXXXXXX....    ....XXXXXXXXXXXXXXXX........    ..XX......XXXXXXXXXXXXXXXXXXXX  ..XX........    ..++....++..    ooOOoooooooo  oo..OOXXX@++........++@XXXOO..oo",
"  ..XX........    ooOOoooooooo  oo..OOXXOOXXXXXXXXXXXXOOXXOO..oo  ..++....++..    ..XX........  XXXXXXXXX@++........++@XXXXXXXXXXXXXXXXXXX....    ....XXXXXXXXXXXXXXXX........    ..XX......XXXXXXXXXXXXXXXXXXXX  ..XX........    ..++....++..    ooOOoooooooo  oo..OOXXX@++........++@XXXOO..oo",
"  ooOOoooooooo    ..XX........  ooXXoo..oo............oo..ooXXoo  ..@@....@@..    ..XX........  ..................XX..........................    ..XXXX......................    ..XX..XX......................  ..XX........    ..@@....@@..    ..XX........  ooXXoo....................ooXXoo",
"  ooOOoooooooo    ..XX........  ooXXoo..oo............oo..ooXXoo  ..XX........    ..XX........  ..................XX..........................    ..XXXX......................    ..XX..XX......................  ..XX........    ..XX........    ..XX........  ooXXoo....................ooXXoo",
"  ..XX........    ooOOoooooooo  oo..oo..oo............oo..oo..oo  ..XX........    ..XX........  ............XX........................XX......    ..XX........................    ..XX..........................  ..XX........    ..XX........    ..XX........  oo..oo......XX....XX......oo..oo",
"  ..XX........    ooOOoooooooo  oo..oo..oo............oo..oo..oo  ..XX........    ..@@....@@..  ............XX........................XX......    ..XX........................    ..XX..........................  ..XX........    ..XX........    ..@@....@@..  oo..oo......XX....XX......oo..oo",
"  ooOOoooooooo    ..XX........  oo..oo..oo............oo..oo..oo  ..XX........    ..++....++..  .........@++........++@.......................    ..XX........................    ..............................  ..XX........    ooOOoooooooo    ..++....++..  oo..oo...@++........++@...oo..oo",
"  ooOOoooooooo    ..XX........  oo..oo..oo............oo..oo..oo  ..XX........    ..++....++..  .........@++........++@.......................    ..XX........................    ..............................  ..XX........    ooOOoooooooo    ..++....++..  oo..oo...@++........++@...oo..oo",
"  ....XX......    ..XX........    ..oo..oo............oo..oo..    ..XX........    ....XX......  ..............    ..................XX........    ..XX......................        ............................  ..XX........    ....XX......    ......XX....    ..oo........    ........oo..  ",
"  ....XX......    ..XX........    ..oo..oo............oo..oo..    ..XX........    ....XX......  ..............    ..................XX........    ..XX......................        ............................  ..XX........    ....XX......    ......XX....    ..oo........    ........oo..  ",
"    oooooooo      ..XX........                                    ..XX........      ........                                      ..XX........    ..XX..........                                                  ..XX........      oooooooo        ........                                    ",
"    oooooooo      ..XX........                                    ..XX........      ........                                      ..XX........    ..XX..........                                                  ..XX........      oooooooo        ........                                    "};
