/* XPM */
static char * closed_xpm[] = {
"15 13 5 1",
" 	c None",
".	c #808080",
"X	c #ffa858",
"o	c #ffffff",
"O	c #000000",
"        .....  ",
"       .XXXXX. ",
".............. ",
".oooooooooooo.O",
".oXXXXXXXXXXX.O",
".oXXXXXXXXXXX.O",
".oXXXXXXXXXXX.O",
".oXXXXXXXXXXX.O",
".oXXXXXXXXXXX.O",
".oXXXXXXXXXXX.O",
".oXXXXXXXXXXX.O",
"..............O",
" OOOOOOOOOOOOOO"};
