/* XPM */
static char * kdat_select_none_xpm[] = {
"12 12 2 1",
" 	c #000000000000",
".	c #FFFFFFFFFFFF",
"            ",
" .......... ",
" .......... ",
" .......... ",
" .......... ",
" .......... ",
" .......... ",
" .......... ",
" .......... ",
" .......... ",
" .......... ",
"            "};
