/* XPM */
static char * kdat_unmounted_xpm[] = {
"16 16 5 1",
"       c none",
",	c #FFFFFF",
".	c #000000",
"X	c #585858",
"o	c #808080",
"                ",
"                ",
"                ",
"  ............  ",
" .,,,,,,,,,,,X. ",
" .,ooooooooooX. ",
" .,o,,,,,,,ooX. ",
" .,o,,,,,,,ooX. ",
" .,ooooooooooX. ",
" .,ooooooooooX. ",
" .,ooooooooooX. ",
" .XXXXXXXXXXXX. ",
"  ............  ",
"                ",
"                ",
"                "};
