/* XPM */
static char * kdat_mounted_xpm[] = {
"16 16 6 1",
" 	c none",
",	c #FFFFFF",
".	c #000000",
"X	c #585858",
"o	c #808080",
"O	c #00ff00",
"                ",
"                ",
"                ",
"  ............  ",
" .,,,,,,,,,,,X. ",
" .,ooooooooooX. ",
" .,o.......ooX. ",
" .,o.......ooX. ",
" .,ooooooooooX. ",
" .,oooooooOOoX. ",
" .,oooooooOOoX. ",
" .XXXXXXXXXXXX. ",
"  ............  ",
"                ",
"                ",
"                "};
