/* XPM */
static char * kdat_xpm[] = {
"34 34 161 2",
"  	c None",
". 	c #000000",
"+ 	c #F6F6F6",
"@ 	c #D5D5D5",
"# 	c #636363",
"$ 	c #DFDFDF",
"% 	c #CDCDCD",
"& 	c #777777",
"* 	c #898989",
"= 	c #6C6C6C",
"- 	c #F2F2F2",
"; 	c #DEDEDE",
"> 	c #6E6E6E",
", 	c #424242",
"' 	c #1C1C1C",
") 	c #111111",
"! 	c #0B0B0B",
"~ 	c #202020",
"{ 	c #E9E9E9",
"] 	c #686868",
"^ 	c #414141",
"/ 	c #343434",
"( 	c #292929",
"_ 	c #1A1A1A",
": 	c #0C0C0C",
"< 	c #030303",
"[ 	c #0F0F0F",
"} 	c #535353",
"| 	c #E1E1E1",
"1 	c #D9D9D9",
"2 	c #868686",
"3 	c #6D6D6D",
"4 	c #656565",
"5 	c #4C4C4C",
"6 	c #373737",
"7 	c #333333",
"8 	c #1E1E1E",
"9 	c #060606",
"0 	c #FFFFFF",
"a 	c #8A8A8A",
"b 	c #ECECEC",
"c 	c #C5C5C5",
"d 	c #ACACAC",
"e 	c #939393",
"f 	c #989898",
"g 	c #878787",
"h 	c #7A7A7A",
"i 	c #959595",
"j 	c #9D9D9D",
"k 	c #7E7E7E",
"l 	c #5E5E5E",
"m 	c #8F8F8F",
"n 	c #848484",
"o 	c #888888",
"p 	c #D0D0D0",
"q 	c #A6A6A6",
"r 	c #ADADAD",
"s 	c #A3A3A3",
"t 	c #B3B3B3",
"u 	c #9A9A9A",
"v 	c #979797",
"w 	c #8B8B8B",
"x 	c #D7D7D7",
"y 	c #BDBDBD",
"z 	c #AAAAAA",
"A 	c #AEAEAE",
"B 	c #9F9F9F",
"C 	c #A4A4A4",
"D 	c #B5B5B5",
"E 	c #A2A2A2",
"F 	c #9B9B9B",
"G 	c #9C9C9C",
"H 	c #909090",
"I 	c #858585",
"J 	c #7D7D7D",
"K 	c #494949",
"L 	c #3F3F3F",
"M 	c #B1B1B1",
"N 	c #818181",
"O 	c #919191",
"P 	c #949494",
"Q 	c #7F7F7F",
"R 	c #828282",
"S 	c #A7A7A7",
"T 	c #9E9E9E",
"U 	c #999999",
"V 	c #8D8D8D",
"W 	c #3A3A3A",
"X 	c #3C3C3C",
"Y 	c #696969",
"Z 	c #7B7B7B",
"` 	c #A5A5A5",
" .	c #747474",
"..	c #626262",
"+.	c #A0A0A0",
"@.	c #8C8C8C",
"#.	c #434343",
"$.	c #323232",
"%.	c #575757",
"&.	c #666666",
"*.	c #787878",
"=.	c #616161",
"-.	c #8E8E8E",
";.	c #545454",
">.	c #404040",
",.	c #363636",
"'.	c #2D2D2D",
").	c #4E4E4E",
"!.	c #595959",
"~.	c #353535",
"{.	c #606060",
"].	c #929292",
"^.	c #555555",
"/.	c #2E2E2E",
"(.	c #282828",
"_.	c #484848",
":.	c #161616",
"<.	c #040404",
"[.	c #0E0E0E",
"}.	c #131313",
"|.	c #0D0D0D",
"1.	c #515151",
"2.	c #3D3D3D",
"3.	c #383838",
"4.	c #4F4F4F",
"5.	c #505050",
"6.	c #303030",
"7.	c #838383",
"8.	c #3E3E3E",
"9.	c #454545",
"0.	c #313131",
"a.	c #080808",
"b.	c #525252",
"c.	c #6B6B6B",
"d.	c #6A6A6A",
"e.	c #272727",
"f.	c #171717",
"g.	c #5F5F5F",
"h.	c #393939",
"i.	c #464646",
"j.	c #262626",
"k.	c #0A0A0A",
"l.	c #565656",
"m.	c #4B4B4B",
"n.	c #4A4A4A",
"o.	c #2C2C2C",
"p.	c #050505",
"q.	c #2B2B2B",
"r.	c #3B3B3B",
"s.	c #6F6F6F",
"t.	c #727272",
"u.	c #737373",
"v.	c #767676",
"w.	c #707070",
"x.	c #2F2F2F",
"y.	c #4D4D4D",
"z.	c #222222",
"A.	c #444444",
"B.	c #141414",
"C.	c #242424",
"D.	c #101010",
"                                                                    ",
"                                                                    ",
"                                                                    ",
"                                                                    ",
"                                  . . .                             ",
"                                . + @ # . .                         ",
"                              . $ % # & * = . .                     ",
"                            . - ; # > , ' ) ! ~ . .                 ",
"                          . { @ # ] ^ / ( _ : < [ } . .             ",
"                        . | 1 # 2 3 4 5 6 7 8 9 6 0 a a . .         ",
"                      . b c # d e f g h i j k l 0 e e m n o . .     ",
"                    . p c # q r s r f t q * a 0 u v e w 2 n w } .   ",
"                  . x y # v z A B C e D E 2 0 F G v H * I J K L .   ",
"                . y M # N O s E m P Q R S 0 j T U P V * a 5 W X .   ",
"              . D d K Y Z g i ` N  .l ..0 +.+.G i H @.* } #.L $..   ",
"            . t j K %.&.*.n V U F =.4 0 T +.G f O -.V ;.>.L ,.'..   ",
"          . f v X ).!.5 ~.~.>.{.n O 0 T T G f e m ].^.>.L / /..     ",
"        . ` * (.5 _.:.. <.[.}.|./ 0 i G U i O m w 1.2.#.3.( .       ",
"      . o k (.#._._ . . #.4.6 2.0 ].v v P H V O 5.X / 3.6..         ",
"    . 7.Z (.8.9.0.<.a.b.& c.k 0 H e ].m V @.a b.2.$.6.0..           ",
"  . d.d.(.W 2.#.e.. f.> 5 g.0 7.@.V w * * @.5.h.6 6.6..             ",
"  . 4.i.$.~.3.L j.. k.l.3 0 N g o g I n o b.~./ / /..               ",
"  . ;.} m.n.3.,.o.p.. 3.0  .N R R N Q Q 5.X / 6 q..                 ",
"  . } l.;.b.} >.8.) r.0 s.& h h h Z Q 4.h.~.~.6..                   ",
"  . b.b.b.b.b.l.5.4.+.= t.u.t.t.t.v.n.3.6 / q..                     ",
"    . . m.m.m.).;.b.8.m.w.w.3 = w.9.6.7 $.x..                       ",
"        . . #.#._.5 y.i.6 ^ ] c.K 7 $./ 6..                         ",
"            . z.r.X #.i.i.A.6 $.r.'./.x..                           ",
"                . B.r.,.r.>.9.~.$.x.0..                             ",
"                    . . C.o./ o.q.( .                               ",
"                        . D.8 ~ (..                                 ",
"                            . . .                                   ",
"                                                                    ",
"                                                                    "};
