/* XPM */
static char * kdat_select_some_xpm[] = {
"12 12 3 1",
" 	c #000000000000",
".	c #FFFFFFFFFFFF",
"X	c #808080",
"            ",
" .......... ",
" .XX....XX. ",
" .XXX..XXX. ",
" ..XXXXXX.. ",
" ...XXXX... ",
" ...XXXX... ",
" ..XXXXXX.. ",
" .XXX..XXX. ",
" .XX....XX. ",
" .......... ",
"            "};
