/* XPM */
static char * kdat_file_xpm[] = {
"14 11 5 1",
" 	c none",
",	c #ffffff",
".	c #000000",
"X	c #ffff00",
"o	c #c0c000",
"       ..     ",
"      .X,..   ",
"     .,,XX,.. ",
"    .Xo,,,XX,.",
"   .,,Xoo,,,. ",
"  .XoX,,Xo,.  ",
" .XXXooX,,.   ",
".XXXXXXoX.    ",
" ..XXXXX.     ",
"   ..XX.      ",
"     ..       "};
