/* XPM */
static char * kdat_eject_xpm[] = {
"22 22 5 1",
" 	c none",
",	c #ffffff",
".	c #000000",
"X	c #808080",
"o	c #585858",
"                      ",
"        ..            ",
"       .XX..          ",
"      .,,,XX..        ",
"     .X,.,XXXX.       ",
"    .XX,,,XXX..       ",
"   .,,,XXXXX.o.       ",
"  .X,.,XXXX.oo.       ",
" ..X,,,XXX.oo.        ",
" .X..XXXX.oo.         ",
" .XXX..X.oo.          ",
"  ..XXX.oo.           ",
"    ..X.o.     .      ",
"      ...     ...     ",
"             .....    ",
"            .......   ",
"           .........  ",
"           .........  ",
"                      ",
"           .........  ",
"           .........  ",
"                      "};
