/* XPM */
static char * kdat_backup_xpm[] = {
"22 22 7 1",
" 	c none",
",      c #ffffff",
".	c #000000",
"X	c #ffff00",
"o	c #c0c000",
"O	c #808080",
"+	c #585858",
"                      ",
"        ..            ",
"       .X,..   ....   ",
"      .,,XX,..    .   ",
"     .Xo,,,XX,.   .   ",
"    .,,Xoo,,,.    .   ",
"   .XoX,,Xo,.   ..... ",
"  .XXXooX,,.     ...  ",
" .XXXXXXoX.   ..  .   ",
"  ..XXXXX.   .OO..    ",
"    ..XX.   .,,,OO..  ",
"      ..   .O,.,OOOO. ",
"          .OO,,,OOO.. ",
"         .,,,OOOOO.+. ",
"        .O,.,OOOO.++. ",
"       ..O,,,OOO.++.  ",
"       .O..OOOO.++.   ",
"       .OOO..O.++.    ",
"        ..OOO.++.     ",
"          ..O.+.      ",
"            ...       ",
"                      "};
