/* XPM */
static char * kdat_verify_xpm[] = {
"22 22 7 1",
" 	c none",
",	c #ffffff",
".	c #000000",
"X	c #808080",
"o	c #585858",
"O	c #ffff00",
"+	c #c0c000",
"                      ",
"        ..            ",
"       .XX..     ...  ",
"      .,,,XX..  .   . ",
"     .X,.,XXXX.     . ",
"    .XX,,,XXX..    .  ",
"   .,,,XXXXX.o.   .   ",
"  .X,.,XXXX.oo.   .   ",
" ..X,,,XXX.oo.        ",
" .X..XXXX.oo.     .   ",
" .XXX..X.oo.  ..      ",
"  ..XXX.oo.  .O,..    ",
"    ..X.o.  .,,OO,..  ",
"      ...  .O+,,,OO,. ",
"          .,,O++,,,.  ",
"         .O+O,,O+,.   ",
"        .OOO++O,,.    ",
"       .OOOOOO+O.     ",
"        ..OOOOO.      ",
"          ..OO.       ",
"            ..        ",
"                      "};
