/* XPM */
static char * large_kdat_xpm[] = {
"48 48 183 2",
"  	c None",
". 	c #000000",
"+ 	c #C1C1C1",
"@ 	c #C7C7C7",
"# 	c #C4C4C4",
"$ 	c #636363",
"% 	c #CECECE",
"& 	c #CBCBCB",
"* 	c #676767",
"= 	c #666666",
"- 	c #D5D5D5",
"; 	c #D2D2D2",
"> 	c #727272",
", 	c #6F6F6F",
"' 	c #6E6E6E",
") 	c #6B6B6B",
"! 	c #686868",
"~ 	c #DBDBDB",
"{ 	c #D9D9D9",
"] 	c #7B7B7B",
"^ 	c #696969",
"/ 	c #464646",
"( 	c #282828",
"_ 	c #121212",
": 	c #0B0B0B",
"< 	c #060606",
"[ 	c #030303",
"} 	c #2A2A2A",
"| 	c #DFDFDF",
"1 	c #848484",
"2 	c #575757",
"3 	c #393939",
"4 	c #2E2E2E",
"5 	c #272727",
"6 	c #1B1B1B",
"7 	c #050505",
"8 	c #010101",
"9 	c #3D3D3D",
"0 	c #8C8C8C",
"a 	c #5D5D5D",
"b 	c #525252",
"c 	c #494949",
"d 	c #414141",
"e 	c #333333",
"f 	c #111111",
"g 	c #0A0A0A",
"h 	c #141414",
"i 	c #232323",
"j 	c #FFFFFF",
"k 	c #929292",
"l 	c #9E9E9E",
"m 	c #7A7A7A",
"n 	c #737373",
"o 	c #6C6C6C",
"p 	c #616161",
"q 	c #4F4F4F",
"r 	c #404040",
"s 	c #383838",
"t 	c #969696",
"u 	c #8D8D8D",
"v 	c #888888",
"w 	c #A2A2A2",
"x 	c #989898",
"y 	c #858585",
"z 	c #777777",
"A 	c #717171",
"B 	c #767676",
"C 	c #1C1C1C",
"D 	c #9A9A9A",
"E 	c #919191",
"F 	c #878787",
"G 	c #838383",
"H 	c #7E7E7E",
"I 	c #9F9F9F",
"J 	c #ACACAC",
"K 	c #959595",
"L 	c #9C9C9C",
"M 	c #A7A7A7",
"N 	c #949494",
"O 	c #909090",
"P 	c #808080",
"Q 	c #999999",
"R 	c #8B8B8B",
"S 	c #868686",
"T 	c #828282",
"U 	c #7D7D7D",
"V 	c #787878",
"W 	c #747474",
"X 	c #434343",
"Y 	c #BABABA",
"Z 	c #BDBDBD",
"` 	c #A3A3A3",
" .	c #B2B2B2",
"..	c #A6A6A6",
"+.	c #ABABAB",
"@.	c #B1B1B1",
"#.	c #979797",
"$.	c #A1A1A1",
"%.	c #939393",
"&.	c #8F8F8F",
"*.	c #8A8A8A",
"=.	c #818181",
"-.	c #7C7C7C",
";.	c #B3B3B3",
">.	c #B7B7B7",
",.	c #A5A5A5",
"'.	c #B4B4B4",
").	c #B0B0B0",
"!.	c #7F7F7F",
"~.	c #353535",
"{.	c #AEAEAE",
"].	c #ADADAD",
"^.	c #757575",
"/.	c #424242",
"(.	c #A9A9A9",
"_.	c #9D9D9D",
":.	c #898989",
"<.	c #6D6D6D",
"[.	c #9B9B9B",
"}.	c #474747",
"|.	c #3C3C3C",
"1.	c #3A3A3A",
"2.	c #585858",
"3.	c #626262",
"4.	c #5B5B5B",
"5.	c #555555",
"6.	c #454545",
"7.	c #303030",
"8.	c #4E4E4E",
"9.	c #505050",
"0.	c #5E5E5E",
"a.	c #3B3B3B",
"b.	c #313131",
"c.	c #252525",
"d.	c #8E8E8E",
"e.	c #4C4C4C",
"f.	c #4D4D4D",
"g.	c #4B4B4B",
"h.	c #242424",
"i.	c #1D1D1D",
"j.	c #2C2C2C",
"k.	c #5A5A5A",
"l.	c #2F2F2F",
"m.	c #484848",
"n.	c #090909",
"o.	c #0F0F0F",
"p.	c #171717",
"q.	c #202020",
"r.	c #222222",
"s.	c #3E3E3E",
"t.	c #3F3F3F",
"u.	c #292929",
"v.	c #444444",
"w.	c #262626",
"x.	c #0C0C0C",
"y.	c #373737",
"z.	c #323232",
"A.	c #797979",
"B.	c #6A6A6A",
"C.	c #5C5C5C",
"D.	c #151515",
"E.	c #363636",
"F.	c #343434",
"G.	c #2D2D2D",
"H.	c #161616",
"I.	c #040404",
"J.	c #595959",
"K.	c #535353",
"L.	c #606060",
"M.	c #1A1A1A",
"N.	c #656565",
"O.	c #5F5F5F",
"P.	c #131313",
"Q.	c #4A4A4A",
"R.	c #545454",
"S.	c #515151",
"T.	c #A0A0A0",
"U.	c #707070",
"V.	c #646464",
"W.	c #2B2B2B",
"X.	c #1F1F1F",
"Y.	c #191919",
"Z.	c #212121",
"                                                                                                ",
"                                                                                                ",
"                                                                                                ",
"                                                                                                ",
"                                                                                                ",
"                                                  .                                             ",
"                                                . + . .                                         ",
"                                              . @ # + $ . .                                     ",
"                                            . % & @ $ * = * . .                                 ",
"                                          . - ; % $ > , ' ) ! = . .                             ",
"                                        . ~ { - $ ] ^ / ( _ : < [ } . .                         ",
"                                      . ~ | ~ $ 1 2 3 4 5 6 _ : 7 8 _ 9 . .                     ",
"                                    . - { ~ $ 0 a b c d e ( 6 f g 7 h i j k . .                 ",
"                                  . % ; - $ l m n o p q r s s } h g : j t k u v . .             ",
"                                . @ & % $ w x v 0 y z p A y y B b C j D t E 0 F G H . .         ",
"                              . + # @ $ I J K D l D v L M L N O P j l Q K O R S T U V W X .     ",
"                            . Y Z + $ x `  .x ..+.I x @.` #.y B j $.L x %.&.*.y =.-.z > X .     ",
"                          . ;.>.Y $ 0 x ,.'.Q $.` D K ).M #.z j ` I D t k u v 1 !.] > ~.d .     ",
"                        . J ).;.$ !.*.t $.{.E Q #.&.T $.].$.j ,.$.L x N O R F T H ^.~./.~..     ",
"                      . ,.(.J $ W ] S &._...u v R !.W A -.j ,.w l D t k u :.y P m ~.c e s .     ",
"                    . I w ,.$ $ <.B !.:.k [.` > W <.$ 2 j ,.w I [.#.%.&.R F G -.s }.|.1.} .     ",
"                  . x [.I c 2.a * , z H F O Q 0 3.4.5.j ,.w I [.x N O 0 v 1 H 1.6.|.s 7.( .     ",
"                . E N x c 8.9.2 0.= , z U 1 R O 0 0.j ` $.l [.x N E u *.S =.3 6.a.s b.5 c..     ",
"              . H d.E ( c e.f.g.e h.i.c.j.d k.U T j $.I L D #.N E d.*.S =.3 / a.s l.( i .       ",
"            . G F *.( 6./ m.4 [ 7 n.o.p.6 q.r.h.j l L D x t %.O u *.F P 3 /.s.t.b.u.q..         ",
"          . -.P G ( d /.v.w.. 8 8 [ : x.: o.f j D Q x t N k &.0 *.S H y.v.s a.z.j.r..           ",
"        . B A.-.( t.r d ~.. . . : 2 B.B.C.D.j t t K %.k O u R v S !.E./ F.G.b.j.i .             ",
"      . , > B ( a.9 t.r H.. . H.p , B.n o j k k E O &.u R :.F 1 P y.X ~.j.G.l.h..               ",
"    . ! ) , ( y.3 a.|.9 I.. . a.o J.K.5.j u u u 0 R *.v F y G H E.d s 4 G.G.w..                 ",
"    . c ! ( F.E.y.3 1.a.. . . ~.) L.m.j v :.v v F S y 1 T P U y.|.~.7.4 5 h..                   ",
"    . g.d m.z.F.E.y.s 3 [ . . M.N.O.j G 1 1 1 G G T =.!.H A.E.|.l.b.b.( h..                     ",
"    . m.c b v.m.e ~.E.y.P.. . : w.j H H !.!.!.H H U -.] z s X 7.b.e 5 h..                       ",
"    . k.K.b Q.K.X m.F.~.} . . . j V A.m m m m m A.V z n 3 X 7.e z.w.h..                         ",
"    . K.K.9.R.q Q.R.v.m.F.C . j n W W ^.^.^.^.^.W W , 3 t.e F.b.w.5 .                           ",
"    . 6.c f.f.8.q f.S.S.r 6.T.<.' , U.U.U.U.U.U.U.' ~.a.e E.7.w.w..                             ",
"    . . a.r 6.c Q.Q.9.R.S.9.a.6.! B.) ) o o o ) B.E.~.z.z.l.( 5 .                               ",
"        . . y.a.r X /./ Q.8.g./ E.d 3.N.* * * V.e b.b.4 l.w.5 .                                 ",
"            . . z.y.a.r v.}.m./ 6./.y.d 3.3.p ~.F.~.W.b.u.( .                                   ",
"                . . G.z.y.a.r v.v.X /.r b.E.3 a.z.( l.} ( .                                     ",
"                    . . ( G.z.y.a.s.t.t.9 3 w.E.5 } } 5 .                                       ",
"                        . . h.( G.z.y.1.s.1.c.4 G.j.c..                                         ",
"                            . . X.h.( G.z.b.r.} w.w..                                           ",
"                                . . M.X.h.c.C c.r..                                             ",
"                                    . . D.Y.Y.Z..                                               ",
"                                        . . i .                                                 ",
"                                            .                                                   ",
"                                                                                                ",
"                                                                                                "};
