/* XPM */
static char * open_xpm[] = {
"16 13 5 1",
" 	c None",
".	c #808080",
"X	c #ffa858",
"o	c #000000",
"O	c #ffffff",
"         .....  ",
"        .XXXXX. ",
" ........XXXXX. ",
" .XXXXXXXXXXXX.o",
" .XOOOOOOOOOOX.o",
".............X.o",
".XXXXXXXXXX.oX.o",
".XXXXXXXXXXXo..o",
" .XXXXXXXXXX.o.o",
" .XXXXXXXXXXXo.o",
"  .XXXXXXXXXX.oo",
"  ............oo",
"   ooooooooooooo"};
