/* XPM */
static char * grpadd_xpm[] = {
"22 22 11 1",
" 	c None",
".	c blue",
"X	c orange",
"o	c yellow",
"O	c red",
"+	c black",
"@	c #848284",
"#	c #000084",
"$	c cyan",
"%	c #848200",
"&	c magenta",
"       .   ...   ...  ",
"      . .  .  .  .  . ",
"   X .   . .  .  .  . ",
"   X ..... .  .  .  . ",
" o X .   . .  .  .  . ",
"  oXo.   . ...   ...  ",
"XXXOXXX    +++++      ",
"  oXo     +ooooo++++  ",
" o X o   +ooo++++++++ ",
"   X    +ooo+   ++@++ ",
"   X    +ooo+ @++@@@+ ",
"     ++++oo+     +@++ ",
"    +    oo+    +@@@@+",
"    + ###oo+    +@@@+ ",
"    + #$.oo+ @++@@@@+ ",
"    + #$..%o+ +++@++  ",
"    + .....oo+ ++@+   ",
"    +        && +$@+  ",
"    ++++++++++&&&+  + ",
"   +          ++      ",
"   +          ++      ",
"   +++++++++++++      "};
