/* XPM */
static char * grpdel_xpm[] = {
"22 22 9 1",
" 	c None",
".	c blue",
"X	c red",
"o	c black",
"O	c yellow",
"+	c #848284",
"@	c #000084",
"#	c cyan",
"$	c magenta",
"      ...  .... .     ",
"      .  . .    .     ",
"      .  . ..   .     ",
"      .  . .    .     ",
"      .  . .    .     ",
"      ...  .... ....  ",
"    X      ooooo   X  ",
"     X    oOOOOOooXo  ",
"      X  oOOOooooXooo ",
"       XoOOOo   Xo+oo ",
"        XOOOo +Xo+++o ",
"     ooooXOo  X  o+oo ",
"    o    OXo X  o++++o",
"    o @@@OOXX   o+++o ",
"    o @#.OOXX+oo++++o ",
"    o @#..XOoXooo+oo  ",
"    o ...X.OOoXoo+o   ",
"    o   X    $$Xo#+o  ",
"    oooXoooooo$$Xo  o ",
"   o  X       oo X    ",
"   o X        oo  X   ",
"    Xooooooooooo   X  "};
