/* XPM */
static char * grpedit_xpm[] = {
"22 22 10 1",
" 	c None",
".	c blue",
"X	c black",
"o	c yellow",
"O	c #848284",
"+	c #c6c3c6",
"@	c #000084",
"#	c cyan",
"$	c #848200",
"%	c magenta",
"    .... ...  . ..... ",
"    .    .  . .   .   ",
"    ..   .  . .   .   ",
"    .    .  . .   .   ",
"    .    .  . .   .   ",
"    .... ...  .   .   ",
"           XXXXX      ",
"          XoooooXXXX  ",
"         XoooXXXXXXXX ",
"        XoooX   XXOXX ",
"        XoooX OXXOOOX ",
"     XXXXooX     XOXX ",
"    X++++ooX   +XOOOOX",
"    X+@@@ooX    XOOOX ",
"    X+@#.ooX OXXOOOOX ",
"    X+@#..$oX XXXOXX  ",
"    X+.....ooX XXOX   ",
"    X++++++++%% X#OX  ",
"    XXXXXXXXXX%%%X  X ",
"   X          XX      ",
"   X++++++++++XX      ",
"   XXXXXXXXXXXXX      "};
