/* XPM */
static char * userdel_xpm[] = {
"22 22 6 1",
" 	c None",
".	c blue",
"X	c red",
"o	c black",
"O	c #808080",
"+	c cyan",
"      ...  .... .     ",
"      .  . .    .     ",
"      .  . ..   .     ",
"      .  . .    .     ",
"      .  . .    .     ",
"      ...  .... ....  ",
"    X   ooooooo   X   ",
"     X ooooooooo X    ",
"      X o OoooooX     ",
"       X    OooXo     ",
"       oX   ooXoo     ",
"      o .X ooXooo     ",
"     o    X Xoooo     ",
"      o    Xoooo      ",
"      oo  X Xoo       ",
"      o  X  oXo       ",
"       oXoo  oX       ",
"       Xo   oooX      ",
"      Xoo  o++ooX     ",
"     X+o+oo++o++oX    ",
"    X++oo++oo+++  X   ",
"   X               X  "};
