/* XPM */
static char * useredit_xpm[] = {
"22 22 5 1",
" 	c None",
".	c blue",
"X	c black",
"o	c #808080",
"O	c cyan",
"   .... ...  . .....  ",
"   .    .  . .   .    ",
"   ..   .  . .   .    ",
"   .    .  . .   .    ",
"   .    .  . .   .    ",
"   .... ...  .   .    ",
"        XXXXXXX       ",
"       XXXXXXXXX      ",
"        X oXXXXXX     ",
"       X    oXXXX     ",
"       XX   XXXXX     ",
"      X .  XXXXXX     ",
"     X       XXXX     ",
"      X     XXXX      ",
"      XX    XXX       ",
"      X     XXX       ",
"       XXXX  X        ",
"        X   XXX       ",
"      XXX  XOOXX      ",
"     XOXOXXOOXOOX     ",
"     OOXXOOXXOOO      ",
"                      "};
