/* XPM */
static char * useradd_xpm[] = {
"22 22 8 1",
" 	c None",
".	c blue",
"X	c orange",
"o	c yellow",
"O	c red",
"+	c black",
"@	c #808080",
"#	c cyan",
"       .   ...   ...  ",
"      . .  .  .  .  . ",
"   X .   . .  .  .  . ",
"   X ..... .  .  .  . ",
" o X .   . .  .  .  . ",
"  oXo.   . ...   ...  ",
"XXXOXXX +++++++       ",
"  oXo  +++++++++      ",
" o X o  + @++++++     ",
"   X   +    @++++     ",
"   X   ++   +++++     ",
"      + .  ++++++     ",
"     +       ++++     ",
"      +     ++++      ",
"      ++    +++       ",
"      +     +++       ",
"       ++++  +        ",
"        +   +++       ",
"      +++  +##++      ",
"     +#+#++##+##+     ",
"     ##++##++###      ",
"                      "};
