/* XPM */
static char * large_kuser_xpm[] = {
"48 48 211 2",
"  	c None",
". 	c #020204",
"+ 	c #FEFEFC",
"@ 	c #7E7E7C",
"# 	c #EEEEEC",
"$ 	c #EAEAEC",
"% 	c #E6E6E4",
"& 	c #E2E2E4",
"* 	c #DEDEDC",
"= 	c #DADADC",
"- 	c #D6D6D4",
"; 	c #D2D2D4",
"> 	c #CECECC",
", 	c #CACACC",
"' 	c #C6C6C4",
") 	c #C2C2C4",
"! 	c #BEBEBC",
"~ 	c #BABABC",
"{ 	c #B6B6B4",
"] 	c #3E3E3C",
"^ 	c #B2B2B4",
"/ 	c #828284",
"( 	c #AEAEAC",
"_ 	c #5AD64C",
": 	c #1A0A04",
"< 	c #361604",
"[ 	c #2A1204",
"} 	c #1E0E04",
"| 	c #220E04",
"1 	c #0E0604",
"2 	c #3A1A04",
"3 	c #7A3604",
"4 	c #8E4204",
"5 	c #9E4604",
"6 	c #B65204",
"7 	c #C25A04",
"8 	c #BE5604",
"9 	c #BA5204",
"0 	c #AE4E04",
"a 	c #8E3E04",
"b 	c #6A2E04",
"c 	c #0A0204",
"d 	c #AAAAAC",
"e 	c #060204",
"f 	c #421A04",
"g 	c #9A4604",
"h 	c #BA5604",
"i 	c #B25204",
"j 	c #B25604",
"k 	c #C25604",
"l 	c #763604",
"m 	c #120604",
"n 	c #AE5204",
"o 	c #AA5204",
"p 	c #A64E04",
"q 	c #A64A04",
"r 	c #8A4204",
"s 	c #7A3A04",
"t 	c #0E0A04",
"u 	c #868684",
"v 	c #723204",
"w 	c #BE5A04",
"x 	c #BA5A04",
"y 	c #B6560C",
"z 	c #AA5604",
"A 	c #A65204",
"B 	c #AA4E04",
"C 	c #723E14",
"D 	c #62320C",
"E 	c #5E3E24",
"F 	c #5A3E24",
"G 	c #524234",
"H 	c #221204",
"I 	c #C25E0C",
"J 	c #BA621C",
"K 	c #B2560C",
"L 	c #66360C",
"M 	c #4E2E14",
"N 	c #1A0E04",
"O 	c #0A0604",
"P 	c #060604",
"Q 	c #121214",
"R 	c #3A3A3C",
"S 	c #5A5A5C",
"T 	c #2E1604",
"U 	c #C66E24",
"V 	c #CE8644",
"W 	c #6A360C",
"X 	c #4A260C",
"Y 	c #1A1A14",
"Z 	c #262624",
"` 	c #A68A64",
" .	c #E7BE8B",
"..	c #F2D0A1",
"+.	c #EBBE8B",
"@.	c #C27A34",
"#.	c #0A0A0C",
"$.	c #1E1E1C",
"%.	c #1A1A1C",
"&.	c #2E2A24",
"*.	c #925E34",
"=.	c #C69254",
"-.	c #CE9A5C",
";.	c #E7B683",
">.	c #A68E6C",
",.	c #76563C",
"'.	c #2A1604",
").	c #161614",
"!.	c #DCB674",
"~.	c #DBA663",
"{.	c #DCAF6D",
"].	c #4A3E34",
"^.	c #0A0A04",
"/.	c #4E3A2C",
"(.	c #72563C",
"_.	c #3E362C",
":.	c #1E1A14",
"<.	c #E3BA83",
"[.	c #423A2C",
"}.	c #EFD0A1",
"|.	c #5E4E3C",
"1.	c #322A24",
"2.	c #221E1C",
"3.	c #0E0E0C",
"4.	c #262214",
"5.	c #EBC99A",
"6.	c #AA8E64",
"7.	c #664224",
"8.	c #8E7A5C",
"9.	c #9E8E6C",
"0.	c #BEA684",
"a.	c #8E7E5C",
"b.	c #EFCD9A",
"c.	c #EFCDA1",
"d.	c #3A2E24",
"e.	c #AE966C",
"f.	c #AA966C",
"g.	c #EFC18B",
"h.	c #F2CDA1",
"i.	c #EBC592",
"j.	c #DFB274",
"k.	c #5A4234",
"l.	c #66563C",
"m.	c #76624C",
"n.	c #EFC59A",
"o.	c #36322C",
"p.	c #827254",
"q.	c #5E3A24",
"r.	c #F2D4A1",
"s.	c #EFC99A",
"t.	c #362A1C",
"u.	c #222224",
"v.	c #E7C592",
"w.	c #E3BE8C",
"x.	c #AA3A04",
"y.	c #B64E0C",
"z.	c #E3B683",
"A.	c #826E54",
"B.	c #D7B182",
"C.	c #16120C",
"D.	c #DFB67C",
"E.	c #E3BE8B",
"F.	c #DBAD6B",
"G.	c #EBCD9A",
"H.	c #CFB07F",
"I.	c #B29A74",
"J.	c #AE9674",
"K.	c #6E5A44",
"L.	c #BA9E7C",
"M.	c #E7C192",
"N.	c #626264",
"O.	c #D1A76C",
"P.	c #927E64",
"Q.	c #7E6654",
"R.	c #8E765C",
"S.	c #767674",
"T.	c #727274",
"U.	c #7E664C",
"V.	c #BEAA84",
"W.	c #E0BA84",
"X.	c #E7C18B",
"Y.	c #E7C183",
"Z.	c #DFBA84",
"`.	c #3E3224",
" +	c #725E4C",
".+	c #BEA284",
"++	c #B29A7C",
"@+	c #E0B684",
"#+	c #E0BB84",
"$+	c #464234",
"%+	c #323234",
"&+	c #AE9A84",
"*+	c #CFAC7F",
"=+	c #36261C",
"-+	c #2E261C",
";+	c #EBC59A",
">+	c #AE9A7C",
",+	c #5E523C",
"'+	c #363634",
")+	c #4A4A4C",
"!+	c #5E5E5C",
"~+	c #6E6E6C",
"{+	c #969694",
"]+	c #A6A6A4",
"^+	c #A2A2A4",
"/+	c #A68E74",
"(+	c #7E6E54",
"_+	c #A69274",
":+	c #E3BA84",
"<+	c #AA926C",
"[+	c #6E5A4C",
"                                                                                                ",
"                                                                                                ",
"      . . . . . . . . . . . . . . . . . . . . . . . . . . . . . . . . . . . . . . . . . .       ",
"    . + + + + + + + + + + + + + + + + + + + + + + + + + + + + + + + + + + + + + + + + + @ .     ",
"    . + # # $ $ $ % % & & & * * * = = - - - ; ; ; > > , , , ' ' ' ) ) ! ! ! ~ ~ ~ { { @ ] .     ",
"    . + # $ $ $ % % & % & * * * = = - = - ; ; ; > > > > , ' , ' ) ) ) ) ! ~ ! ~ { { { @ ] .     ",
"    . + # # % % % % & & & & = = = = - - - - > > > , , , , ' ) ' ) ! ! ! ! ~ { ~ { ^ { @ ] .     ",
"    . + $ % / / @ @ @ @ @ @ / / @ @ @ @ @ @ / / @ / @ @ @ @ / @ @ / @ @ @ @ / @ % { ^ / ] .     ",
"    . + $ % @ . . . . . . . . . . . . . . . . . . . . . . . . . . . . . . . . . + ^ ( @ ] .     ",
"    . + $ % @ . _ . . . . . . . . . . . . . . . . . . . . . . . . . . . . . . . + ^ ^ / ] .     ",
"    . + $ % @ . . _ . . . . . . . . . . . . . . . . . . . . . . . . . . . . . . + ( ( @ ] .     ",
"    . + % % @ . . . _ . . . . . . . . . . . . . . . . : < [ } } | : 1 1 . . . . + ^ ( / ] .     ",
"    . + % % @ . . _ . . . . . . . . . . . . . | [ < 2 3 4 5 6 7 8 9 0 a b c . . + ( d @ ] .     ",
"    . + & & @ . _ . . . _ _ _ . . . . . . e f g 8 7 7 h 6 i i 6 j i 9 k 5 l m . + ( d / ] .     ",
"    . + & & @ . . . . . . . . . . . . . e f i k k 8 8 h i n o p i h 6 8 q r s t ) u d @ ] .     ",
"    . + & * @ . . . . . . . . . . . . . e v k w w 8 x y z A A o 0 0 B 4 C D E F G @ @ / ] .     ",
"    . + & * @ . . . . . . . . . . . . . . H 5 k I I J x K A p B p r L M N . O P . Q R S ] .     ",
"    . + * * @ . . . . . . . . . . . . . . . T g g U V U g 8 p r W X N . . . . . . . e Y Z .     ",
"    . + * * @ . . . . . . . . . . . . . . . . t `  ...+.@.g C X H . . . . #.$.%.&.#.. . . .     ",
"    . + * = @ . . . . . . . . . . . . . . . . . *.=.-.;.>.,.'.1 . . . . ).%.Q Q $.).P . . .     ",
"    . + * = @ . . . . . . . . . . . . . . . . . !.....~.{.].. . . . . . P P . . ^.).Q . . .     ",
"    . + = = @ . . . . . . . . . . . . . . . . . /.(.;....._.^.. . . . . . . . . . Q Q P . .     ",
"    . + = = @ . . . . . . . . . . . . . . . . :.<.[.}.....|._.1.2.3.4.2.).. . . . . P Q . .     ",
"    . + - - @ . . . . . . . . . . . . . . . 1.!.5.}.....}.6.7.2.8.9.0.8._.).. . . . . . . .     ",
"    . + - - @ . . . . . . . . . . . . . . ).a.....b.....c.+.@.d.e.....<.a.&.. . P 3.^.. . .     ",
"    . + - ; @ . . . . . . . . . . . . . . P ....f.g.h.....i.j.k.l.m...n.i.Y . o.p.a.8.O . .     ",
"    . + - ; @ . . . . . . . . . . . . . . . . q.7.-.g...r.s.{.t.<.[...b.... u.a.v.v.w.8.P .     ",
"    . + ; ; @ . . . . . . . . . . . . . . . . x.y.J @...s.z.A.B.b.s...r...C.[.0.i.l.v.9.^..     ",
"    . + ; ; @ . . . . . . . . . . . . . . . . D.r.......E.p.F.s.b.5.b...G.H.<.b.[.8...I.P .     ",
"    . + ; > ( + + + + + + + + + + + + + + + ) e.......z.J.K.L.....m.b.....h...c.M. ...8.. .     ",
"    . + ; > > , , ' ' ' ) ) ) ! ! ~ ~ ~ { ~ { N.z...O.P.Q.R.|./.8.E...s.}.......}...8.Y . .     ",
"    . + > > , , , , ' ) ' ) ! ! ! ! ~ { ~ ^ { { S.N.N.T.U.V.P.|.W.......8...r.....s.X.:.. .     ",
"    . + > > , ' ' ' ' ) ) ) ! ~ ~ ~ ~ { { ^ ^ ^ ( ( ^ ( T.Y.Z.K.[.[.m.8.}.....h.b.c.i.9.e .     ",
"    . + , , , , ' ' ) ) ! ! ! ! ~ ~ { { { ^ ^ ( ^ ( d d N.5.5.f.`.W.E.b...c.i.M...b.c.a. +.     ",
"    . + @ @ @ @ @ @ @ @ @ @ @ @ @ / @ @ / @ / @ @ @ / N.E.c.s..+|.t.++@+#+B.9.9...b.5.p.|..     ",
"    . / ] $+] $+] $+] $+] $+] $+] ] ] ] ] ] ] ] $+] %+&+b.b.5.*+U.=+-+u.u.m.J.;+..s..+U.m..     ",
"      . . . . . . . . . . . . . . . . . . . . . . . >+E.i.z.f.A.,+. e e . . @+h.b.X.9.U.|..     ",
"                          . . Z '+)+!+~+/ {+]+{ ^+. /+A.(+ +l.. . .   . . ++s.G.W.a.A.|..       ",
"                          . Q Z '+)+!+~+/ {+]+{ ^+. . . . e '+'+%.. . _+0.E.:+<+8.|.. .         ",
"                          . ).Z '+)+!+~+/ {+]+{ ^+{+/ ~+)+R R R $.. . f.p.p.[+,+. .             ",
"                  . . . . . . . . . . . . . . . . . . . . . . . . . . . . . e .                 ",
"                . + + + + + + + + + + + + + + + + + + + + + + + + + + + + + .                   ",
"                . ! ! ! ! ! ! ! ! ! ! ! ! ! ! ! ! ! ! ! ! ! ! ! ! ! ! ! ! ! .                   ",
"                . @ @ @ / @ / @ @ @ @ @ @ @ @ @ @ @ @ @ / @ @ @ @ @ @ @ / @ .                   ",
"                . $+] ] ] ] $+] $+] $+] $+] $+] $+] ] ] $+] $+] $+] ] ] ] ] .                   ",
"                . . . . . . . . . . . . . . . . . . . . . . . . . . . . . . .                   ",
"                                                                                                ",
"                                                                                                "};
