/* XPM */
static char * kpoker_xpm[] = {
"32 32 230 2",
"  	c None",
". 	c #020204",
"+ 	c #FEE294",
"@ 	c #FEF2A1",
"# 	c #FEDE92",
"$ 	c #FCD284",
"% 	c #FEDA8C",
"& 	c #FEEAA4",
"* 	c #FEEA98",
"= 	c #FEFAAA",
"- 	c #FEE6A4",
"; 	c #222224",
"> 	c #0B0A0C",
", 	c #060604",
"' 	c #121212",
") 	c #323234",
"! 	c #76724A",
"~ 	c #FEF6BC",
"{ 	c #FED689",
"] 	c #FEE697",
"^ 	c #2A2A2C",
"/ 	c #2E2E2C",
"( 	c #363636",
"_ 	c #3A3A3C",
": 	c #FEEAAC",
"< 	c #A27A3C",
"[ 	c #1A1A1A",
"} 	c #3E4244",
"| 	c #161614",
"1 	c #161214",
"2 	c #120E0C",
"3 	c #241E20",
"4 	c #FEFEAC",
"5 	c #FEEEB3",
"6 	c #FAEEBC",
"7 	c #EAD294",
"8 	c #BE8A50",
"9 	c #9E662C",
"0 	c #EADA93",
"a 	c #1E2220",
"b 	c #525254",
"c 	c #FEEEA3",
"d 	c #F2C674",
"e 	c #F2BA64",
"f 	c #CC9A60",
"g 	c #A66A2C",
"h 	c #1B1E1F",
"i 	c #4E4E4C",
"j 	c #1A1614",
"k 	c #FEE2A4",
"l 	c #EEB64C",
"m 	c #F2BE6C",
"n 	c #CE9E44",
"o 	c #D29E5C",
"p 	c #4E5254",
"q 	c #AA9A64",
"r 	c #FAF28C",
"s 	c #FEC2BC",
"t 	c #FEAAAC",
"u 	c #FAD6D4",
"v 	c #7A5A2C",
"w 	c #4E3E2C",
"x 	c #666E6C",
"y 	c #9EA2A4",
"z 	c #FEFEFC",
"A 	c #FEB6B4",
"B 	c #F62A34",
"C 	c #FE8E8C",
"D 	c #F6DAD8",
"E 	c #EAC280",
"F 	c #4E362C",
"G 	c #524E54",
"H 	c #0E0E0C",
"I 	c #727A6C",
"J 	c #D6D2D4",
"K 	c #EE6AC4",
"L 	c #C68684",
"M 	c #828264",
"N 	c #8AB2CC",
"O 	c #8E9690",
"P 	c #DAD6D4",
"Q 	c #F8CE88",
"R 	c #EEC674",
"S 	c #CC9E64",
"T 	c #BA864C",
"U 	c #D69E5C",
"V 	c #6E5A48",
"W 	c #6A6A6C",
"X 	c #929294",
"Y 	c #9EBABC",
"Z 	c #7E9E9C",
"` 	c #528E8C",
" .	c #FA3634",
"..	c #FE167C",
"+.	c #C2AEB4",
"@.	c #B6A6AC",
"#.	c #F2FEFC",
"$.	c #EABA74",
"%.	c #C6A264",
"&.	c #BA7A3C",
"*.	c #928E8C",
"=.	c #C7C6C5",
"-.	c #8ABEBC",
";.	c #5A4A44",
">.	c #6A1E1C",
",.	c #A6B6B4",
"'.	c #B7B6B7",
").	c #8A4624",
"!.	c #3E465C",
"~.	c #5E2214",
"{.	c #C2E68C",
"].	c #F2C274",
"^.	c #E6B264",
"/.	c #CA9244",
"(.	c #E8EAF0",
"_.	c #DBDADC",
":.	c #EAB6B4",
"<.	c #2E3E04",
"[.	c #AE5A04",
"}.	c #66AAB4",
"|.	c #265624",
"1.	c #763614",
"2.	c #76AE84",
"3.	c #2A3244",
"4.	c #7A8224",
"5.	c #AECE8C",
"6.	c #BEAA5C",
"7.	c #EABA64",
"8.	c #E6CEAC",
"9.	c #F6F2F4",
"0.	c #8AAEAC",
"a.	c #AEAE8C",
"b.	c #7E8654",
"c.	c #668204",
"d.	c #6E7264",
"e.	c #7A965C",
"f.	c #869634",
"g.	c #767664",
"h.	c #5E6A7C",
"i.	c #965E4C",
"j.	c #969694",
"k.	c #F6F6F4",
"l.	c #DED6BC",
"m.	c #E6B654",
"n.	c #FAF6E4",
"o.	c #D6DADC",
"p.	c #964A6C",
"q.	c #7682C4",
"r.	c #CABEBC",
"s.	c #2A360C",
"t.	c #6A6E8C",
"u.	c #822E24",
"v.	c #A66E6C",
"w.	c #8E323C",
"x.	c #D2D69C",
"y.	c #CEC6B4",
"z.	c #B2AE54",
"A.	c #C1C2C4",
"B.	c #8EB67C",
"C.	c #3E228C",
"D.	c #AE5244",
"E.	c #6E8284",
"F.	c #DEDEDC",
"G.	c #422A0C",
"H.	c #E2E2E4",
"I.	c #72727C",
"J.	c #9A9A24",
"K.	c #828E64",
"L.	c #526A3C",
"M.	c #868684",
"N.	c #686A60",
"O.	c #AEB26C",
"P.	c #2A1A34",
"Q.	c #BA6E7C",
"R.	c #322A1C",
"S.	c #8E8654",
"T.	c #367E7C",
"U.	c #866E24",
"V.	c #5E5234",
"W.	c #5E6664",
"X.	c #7E7674",
"Y.	c #E2B2AC",
"Z.	c #D2D2D4",
"`.	c #D6D6D4",
" +	c #CFCECE",
".+	c #7272D4",
"++	c #AEAA0C",
"@+	c #6E6224",
"#+	c #A6A29C",
"$+	c #9A868C",
"%+	c #4A0E2C",
"&+	c #9A8E14",
"*+	c #7A2634",
"=+	c #B63A0C",
"-+	c #6E3A0C",
";+	c #4E6E6C",
">+	c #F2F2F0",
",+	c #BEBEBC",
"'+	c #CACACC",
")+	c #4A5A7C",
"!+	c #766E6C",
"~+	c #AA9284",
"{+	c #C29A8C",
"]+	c #B6B6E4",
"^+	c #6666AC",
"/+	c #BE5E54",
"(+	c #6A6A34",
"_+	c #92E284",
":+	c #EAFEFC",
"<+	c #BABABC",
"[+	c #4C5650",
"}+	c #D67264",
"|+	c #FE0244",
"1+	c #C6022C",
"2+	c #96DADC",
"3+	c #86969C",
"4+	c #C2C6C4",
"5+	c #C6C2C4",
"6+	c #B1B2B4",
"7+	c #5A5A5C",
"8+	c #BED2DC",
"9+	c #8ACED4",
"0+	c #F64A4C",
"a+	c #FAB2B4",
"b+	c #B2B6B4",
"c+	c #C6CEDC",
"d+	c #E2AAA4",
"e+	c #D67E7C",
"f+	c #D2DAD4",
"g+	c #EAD6D4",
"                                                                ",
"                                                                ",
"                          . . .               . . .             ",
"                      . . . . . . .       . . + + + . .         ",
"                    . . . . . . . . .   . @ # $ $ % & * .       ",
"                    . . . . . . . . . . = # $ # + + # - + .     ",
"                    . ; > . . . , ' ) ! ~ % # * % % { # ] .     ",
"        . . .       . ^ / ) ( _ ( ( ; ! ~ + + + % + : ~ < .     ",
"    . . + + + . .   . [ } [ | [ 1 2 3 ! 4 - 5 5 - 6 7 8 9 .     ",
"  . * @ + # + * 0 . . a b [ [ | > 2 3 ! 4 c - d e f 8 f g .     ",
". 0 ] % { # + + ] * . h i ' | j , 2 3 ! 4 c k l m n o l .       ",
". 0 + % + # % % { 5 b h p | | j > ' [ / q r ~ s t u v .         ",
". 0 & # ] # # + @ + w h i ' | | . , 1 x y z A B C D .           ",
". 0 c : + - # 6 E 8 F h G | H H ; I J z K L M N O P z .         ",
". 0 @ 5 % Q R S T U V ' ^ [ W X z z z Y Z `  ...+.@.#.z .       ",
". 0 @ 5 Q m $.%.S &.V } *.=.z z z -.;.>.,.'.A ).!.~.{.z z .     ",
". 0 @ 5 $ ].^./.T %.(.z z z _.:.<.[.}.|.1.2.G _.,.3.4.5.z z .   ",
". 6.= 5 $ 7.E 8.9.z z z 0.a.b.c.d.x e.f.X g.h '.( h.i.p j.k.z . ",
"  . 6.l.0 m.n.z z o.d.p.q.r.; s.t.u.v.s.w.x.y.z.A.B.C.D.E.z F.. ",
"    . . . G.H.z z I.J.K.L.M.N.O.P.Q.R.S.T.U.4.V.W.X.Y.#.k.Z.Z.. ",
"          . `. +z z .+++@+'.#+(.$+%+&+*+=+-+;+ +k.z >+=.,+9.k.. ",
"          . >+`.'+z k.)+W.!+~+{+]+^+/+(+_+:+k.z _.=.<+9.k. +`.. ",
"          . Z.>+_.'+z z [+}+|+1+2+3+H.4+z z A.5+9.k.k.<+`._.6+. ",
"            . '+k.P  +z 6+7+8+9+0+a+z z A.'.k.k.`.6+Z.'+b+X . . ",
"              . =.k.`.c+A d+e+s z z A.=.9.k.=.'+=.6+*.. . .     ",
"                . Z.k.f+r.u g+A.'.F.k.k.6+F.b+*.. . .           ",
"                  . ,+k.`. +<+k.k.`.<+6+X . . .                 ",
"                    . _.k.k.Z.A.6+X . . .                       ",
"                      . Z.6+*.. . .                             ",
"                        . . .                                   ",
"                                                                ",
"                                                                "};
