/* XPM */
static char * large_kpoker_xpm[] = {
"48 48 249 2",
"  	c None",
". 	c #020000",
"+ 	c #000000",
"@ 	c #121313",
"# 	c #151414",
"$ 	c #FFDC81",
"% 	c #FFE696",
"& 	c #FFE191",
"* 	c #FFE295",
"= 	c #F5CD7D",
"- 	c #1A1919",
"; 	c #F6DE83",
"> 	c #FFE493",
", 	c #FFDB90",
"' 	c #FFD285",
") 	c #FFD98C",
"! 	c #FFEE99",
"~ 	c #A8955B",
"{ 	c #201B1C",
"] 	c #FFFD9E",
"^ 	c #FFDD8F",
"/ 	c #FFDF92",
"( 	c #FFF1A1",
"_ 	c #85653B",
": 	c #111110",
"< 	c #0C0A0A",
"[ 	c #2D2C2C",
"} 	c #EDD0A0",
"| 	c #FFDB8E",
"1 	c #FFDB8D",
"2 	c #FFD98B",
"3 	c #161412",
"4 	c #2B2927",
"5 	c #070505",
"6 	c #38393A",
"7 	c #272626",
"8 	c #E4C886",
"9 	c #FFD78A",
"0 	c #FFD588",
"a 	c #FFD689",
"b 	c #3D3D3E",
"c 	c #313030",
"d 	c #222222",
"e 	c #0F0E0E",
"f 	c #474646",
"g 	c #FFEAB1",
"h 	c #FFE09A",
"i 	c #FFDE91",
"j 	c #FFE2A2",
"k 	c #FCFAAB",
"l 	c #E8B771",
"m 	c #0C1023",
"n 	c #0A090A",
"o 	c #353637",
"p 	c #191314",
"q 	c #000008",
"r 	c #FFE7A8",
"s 	c #FFDE96",
"t 	c #FFDD91",
"u 	c #FFF8B3",
"v 	c #9F610E",
"w 	c #3D3623",
"x 	c #CDAD6B",
"y 	c #BCA858",
"z 	c #14161A",
"A 	c #030303",
"B 	c #0A0708",
"C 	c #140E0E",
"D 	c #000003",
"E 	c #FFEDAB",
"F 	c #CF9A65",
"G 	c #B47B3F",
"H 	c #161310",
"I 	c #FFDD92",
"J 	c #1E1715",
"K 	c #00021D",
"L 	c #121515",
"M 	c #43474A",
"N 	c #F1C275",
"O 	c #C59356",
"P 	c #BE8A50",
"Q 	c #010012",
"R 	c #424242",
"S 	c #E7D48A",
"T 	c #C5965C",
"U 	c #14120A",
"V 	c #FFE991",
"W 	c #0D1117",
"X 	c #D9C373",
"Y 	c #F1BE62",
"Z 	c #C99547",
"` 	c #2C281B",
" .	c #46494B",
"..	c #686868",
"+.	c #FEE98A",
"@.	c #FFFFF5",
"#.	c #FFFFFD",
"$.	c #FFB6B2",
"%.	c #EFE8F6",
"&.	c #443706",
"*.	c #16150C",
"=.	c #4B4B4B",
"-.	c #313234",
";.	c #0E0C0B",
">.	c #E4DFB6",
",.	c #FFFFFA",
"'.	c #FBD7F2",
").	c #FF0000",
"!.	c #FF6455",
"~.	c #FFD7DA",
"{.	c #0F0001",
"].	c #727171",
"^.	c #C8C8C8",
"/.	c #FAFFFF",
"(.	c #FDFFFF",
"_.	c #FFE3EB",
":.	c #E02C4C",
"<.	c #FFFFFF",
"[.	c #E9DA91",
"}.	c #4F4E51",
"|.	c #B1B0AF",
"1.	c #FF2EBB",
"2.	c #96F7EF",
"3.	c #A25650",
"4.	c #F6F6F6",
"5.	c #FCD997",
"6.	c #FAD794",
"7.	c #EEEDED",
"8.	c #7A7B7B",
"9.	c #50B3B8",
"0.	c #CBFCFB",
"a.	c #C5D3D9",
"b.	c #ECECEC",
"c.	c #D8D7D7",
"d.	c #5E4236",
"e.	c #9D9B9B",
"f.	c #98A2ED",
"g.	c #A30F01",
"h.	c #E3E3E3",
"i.	c #FED58B",
"j.	c #94898D",
"k.	c #CBBFFF",
"l.	c #3A977B",
"m.	c #520609",
"n.	c #FF2321",
"o.	c #BCD7F5",
"p.	c #010F55",
"q.	c #9CE209",
"r.	c #D2D2D2",
"s.	c #171617",
"t.	c #CFC1A8",
"u.	c #DAD9D9",
"v.	c #F8F5FF",
"w.	c #0A2C05",
"x.	c #37C80D",
"y.	c #7CBF8E",
"z.	c #FDF4D4",
"A.	c #5B7277",
"B.	c #5A6E02",
"C.	c #FFF7FF",
"D.	c #C1C0C1",
"E.	c #E8E697",
"F.	c #FDD589",
"G.	c #E4AF5A",
"H.	c #D4984D",
"I.	c #E4D9D0",
"J.	c #CFD09A",
"K.	c #FF0C00",
"L.	c #401236",
"M.	c #050000",
"N.	c #2D0002",
"O.	c #525473",
"P.	c #F2F0F1",
"Q.	c #2C3745",
"R.	c #A3A3A3",
"S.	c #F6FAFC",
"T.	c #FFDD9D",
"U.	c #E9FB01",
"V.	c #DEF4CD",
"W.	c #8691A1",
"X.	c #001B03",
"Y.	c #656153",
"Z.	c #4638D7",
"`.	c #F4FDE6",
" +	c #818485",
".+	c #000501",
"++	c #FF9382",
"@+	c #000301",
"#+	c #E3FD8A",
"$+	c #C4AD9F",
"%+	c #A4A015",
"&+	c #E4E5FE",
"*+	c #87D666",
"=+	c #ECEBEC",
"-+	c #FFFDFF",
";+	c #543F67",
">+	c #F9FD44",
",+	c #FCFBFB",
"'+	c #E6E6E6",
")+	c #C4C3C6",
"!+	c #200625",
"~+	c #99968C",
"{+	c #ACAC9C",
"]+	c #FF050D",
"^+	c #913F8A",
"/+	c #FFFF67",
"(+	c #E59C00",
"_+	c #1F031F",
":+	c #EFEDEE",
"<+	c #EBEAEA",
"[+	c #D0CFCF",
"}+	c #ADADAD",
"|+	c #ECEBEB",
"1+	c #000A00",
"2+	c #C3071A",
"3+	c #DA2800",
"4+	c #D0C8D4",
"5+	c #FDFCFC",
"6+	c #DCDCDC",
"7+	c #BCBBBC",
"8+	c #B8B8B8",
"9+	c #F5F4F4",
"0+	c #E0E0E2",
"a+	c #185470",
"b+	c #FEFEFE",
"c+	c #CCCCCC",
"d+	c #E9E8E8",
"e+	c #F9F8F8",
"f+	c #F4F3F3",
"g+	c #A9A9A9",
"h+	c #446658",
"i+	c #FF092B",
"j+	c #FF2000",
"k+	c #A7B1BD",
"l+	c #D4D4D4",
"m+	c #B2B1B2",
"n+	c #FAFAFA",
"o+	c #113339",
"p+	c #ED0D1F",
"q+	c #C5C4C4",
"r+	c #B5B5B5",
"s+	c #F8F7F7",
"t+	c #D5D5D5",
"u+	c #EAEBEC",
"v+	c #C5C6C7",
"w+	c #ACAAAB",
"x+	c #EFEEEE",
"y+	c #FAF9F9",
"z+	c #959698",
"                                                                                                ",
"                                                                                                ",
"                                                                                                ",
"                                                                                                ",
"                                                                                                ",
"                                        . . + @ .               + + + + + + #                   ",
"                                    + + + . . + + + +       + + $ % & * & $ = + -               ",
"                                  + . . . . . . . . + +   + ; > , , ' ' ' ) ) ! ~ {             ",
"                                + . . . . . . . . . . + + ] ^ / , ' ' ) ) / ) , ( _ +           ",
"                                : . . . . . . . . . . < [ } ! | ) ' / / 1 1 | 2 ) & 3           ",
"                                4 { . . . . . . . . 5 6 7 8 ( 9 2 ) % 1 0 a 9 9 1 > :           ",
"                                # b c d - : : e - 4 f [ + 8 g h 1 i / 1 i & * j k l 5           ",
"            . + 4 4 + .         m n < c o b f f b 7 5 p q 8 ] r j s t ) ) h s u ' v e           ",
"        . w ~ x x x x y w .     m z o o 5 A A A 5 B C { D 8 ] % E g g j j g h F G G :           ",
"      H y % / I 0 0 0 a % x J   K L M b @ L : : B < C { q 8 ] ! r j = N N F O P O G -           ",
"    . N > * , ' ' ' ) I 0 > k . Q z R b : @ : e B < C { D S ] ! r j N l l x T T O v +           ",
"    U 8 ) , 9 ' / i | t ^ 1 V ! K W M o e @ : e 5 < C { q X ] ! j h Y Y N Z O T Z `             ",
"    U S s 2 9 | * ) a 0 0 0 ^ k m W  .6 # @ : : B < C { D ..X +.+.E @.#.$.%.P &.`               ",
"    *.} j / 2 * * ) | t > * u ' K W =.-.;.L : e 5 < C J + ....>.,.'.).).!.~...7                 ",
"    *.S r h | i ^ 1 ^ / t ( r G m W =.-.: : e e 5 + + {.].^./.(._.!.:.<.<.<.<.+                 ",
"    *.[.% g g h j h a r u l G P m W }.-.: : A + + 7 |.<.<.<.1.).2._ 2.2.3.<.<.4.[               ",
"    *.[.V E r s 5.6.= 8 T P O O Q q  .d + + B ].7.<.<.<.<.<.8.9.0.).1.).2.a.<.<.b.d             ",
"    *.[.V E r 2 N l l F T O O G ..W + D }.c.<.<.<.<.<.0.d.9.e.+ ).).).<.f.g.0.<.<.h.-           ",
"    *.[.V E r i.N N l x T T P v ....j.<.<.<.<.<.<.k.l.m.&.n.2.o.<.<._ p.+ m.q.k.<.<.r.s.        ",
"    *.[.V E r ) N N l F Z G G t.u.<.<.<.<.<.<.v.. q.).9.w.x.g.y.(.+ 0.z.A.m B.q.C.<.<.D.s.      ",
"    U E.V E r F.N l G.H.x I.(.<.<.<.<.<.2.J.K K.w.B.L.f.w.1.M.N.m.O.P.+ t.Q.:.q.O.<.<.<.R.4     ",
"    e y ! E r ) N Y } S.<.<.<.<.<.<.2.m.F 8.B.x.T.{ 0.B.U.x.V.<.B.q %.=.c W.X._.K Y.<.<.<.[     ",
"      d y u E 1 N Y <.<.<.<.<.0.p.g.Z.z.`.D + K  +.+g.++Q @+g.#+,.$+%+P.&+*+Z.+ !.A.<.<.<.d     ",
"        - . d._ _ _ =+<.<.<.].+ %+-+q.K 8.R.K U.Q.;+>+w.&.>+Z.X.j.q.Q W.` + 3.<.<.<.<.,+'+#     ",
"            . . . { )+b.<.<.<.f.%+Q !+W.~+R {+f.+ ]+^+.+/+p.x.(+v _+~ X.~.<.<.<.<.:+^.|.<+#     ",
"                  s.[+}+|+<.<.&+Z.U.(+{.@.~+%.`.<.1+m.U.K 2+3+@+g.9.4+<.<.<.5+6+7+8+6+9+9+#     ",
"                  s.0+|+}+|+<.<.'.a+N.k..+0.l.&+I.Z.C.g.v B.*+0.<.<.<.b+P.c+}+^.d+e+f+r.|+5     ",
"                  s.g+'+<+|.|+<.<.<.h+X.<.i+).)._.` + (.A.k.<.<.<.5+0+7+|.c.f+e+'+D.g+^.f+5     ",
"                  + D.7+'+d+|.|+<.<.&+Q.!.j+1.g.2.k+<.<.<.<.b+f+[+}+D.'+e+f+l+m+m+u.n+7. +{     ",
"                    + l+7+'+d+m+b.<.<.8.o+/.2.2.p+).<.<.,+'+D.}+r.P.e+d+q+g+q+=+<.r++ s.+       ",
"                      + c+8+d+d+m+b.<.<.a.2.i+$.z.'.S.l+|.7+0+s+4.u.r+m+t+n+0+8.d +             ",
"                        + c.8+<+'+m+b.).++).~./.u+v+g+c+7.e+=+^.w+D.|+b+8.+ # +                 ",
"                          + '+r+|+'+m+x+~.S.6+r+m+u.4.s+6+r+}+t+e+6+].{ +                       ",
"                            + b.8+|+'+m+[+g+q+<+y+x+c+g+D.'+e+e.+ - +                           ",
"                              + b.7+|+7.7.9+e+0+7+|.l+4.r...s.+                                 ",
"                                + x+7+d+u.h.w+D.h.7.z++ + +                                     ",
"                                  + 9+7.c+n+P.q+..+ + |.                                        ",
"                                    -.8.7.8.+ { +                                               ",
"                                      + + +                                                     ",
"                                                                                                ",
"                                                                                                ",
"                                                                                                ",
"                                                                                                "};
