/* XPM */
/* Drawn  by Nico Shirwing for the K Desktop Environment */
/* See http://www.kde.org */
static char*kpoker[]={
"16 16 13 1",
"# c #000000",
"h c #ffffff",
"k c #808080",
"a c #c0c0c0",
"b c #a0a0a4",
"j c #ff0000",
"e c #808000",
"g c #c0c000",
"f c #ffff00",
"i c #ffc0c0",
"d c #ffffc0",
"c c #ffdca8",
". c None",
"....####........",
"..##aaab###.....",
".#cc#abbdde#....",
"#edde#abee##....",
"#feeg#bb##h#....",
"#egge###hijh#...",
"#fee##hhhhihh#..",
"#g##hhhhhhhhih#.",
"##hihhhijhhijh#.",
"#khjihhhhhhhhkh#",
"#hkhhihhhhhkkhh#",
".#hkhjihhkkhh##.",
"..#hkhhkkhh##...",
"...#hkkhh##.....",
"....#hh##.......",
".....##........."};

