/* XPM */
static char * kview_xpm[] = {
"34 34 256 2",
"  	c None",
". 	c #020204",
"+ 	c #3A825C",
"@ 	c #868686",
"# 	c #8ACE88",
"$ 	c #F62624",
"% 	c #434342",
"& 	c #C6C2A4",
"* 	c #CA826C",
"= 	c #CCE4CC",
"- 	c #3A6264",
"; 	c #06E6EC",
"> 	c #96A5A9",
", 	c #FAF2AC",
"' 	c #202220",
") 	c #528284",
"! 	c #564848",
"~ 	c #9EE29C",
"{ 	c #5D6269",
"] 	c #A6A4A4",
"^ 	c #2523CC",
"/ 	c #FAC2A4",
"( 	c #EAE6CC",
"_ 	c #6A727C",
": 	c #949484",
"< 	c #E0A460",
"[ 	c #4EAA54",
"} 	c #B2B4A8",
"| 	c #B6C2B4",
"1 	c #62C66C",
"2 	c #5050DC",
"3 	c #D0D4D2",
"4 	c #6EF26C",
"5 	c #2E3430",
"6 	c #6AC674",
"7 	c #E6F2DC",
"8 	c #46BE44",
"9 	c #8E7E84",
"0 	c #6462E0",
"a 	c #F8F8FA",
"b 	c #55575B",
"c 	c #FEEAD4",
"d 	c #8692DC",
"e 	c #F2AAB4",
"f 	c #8AD2B4",
"g 	c #E9E9F8",
"h 	c #C2BEFC",
"i 	c #D9DDD2",
"j 	c #7ED4B4",
"k 	c #06B2BC",
"l 	c #2E52AC",
"m 	c #E2E2E1",
"n 	c #B8BABA",
"o 	c #6DB669",
"p 	c #3A32CC",
"q 	c #BEF6E4",
"r 	c #AE9284",
"s 	c #3B3C40",
"t 	c #8A82EC",
"u 	c #CA9ECC",
"v 	c #B5DFB1",
"w 	c #AEAEBC",
"x 	c #7672DC",
"y 	c #929E9C",
"z 	c #6E6D6C",
"A 	c #7B7B7F",
"B 	c #CEBA7C",
"C 	c #6EC2BC",
"D 	c #FA564C",
"E 	c #5C5D5E",
"F 	c #9CD69C",
"G 	c #1216CC",
"H 	c #A28880",
"I 	c #2E548C",
"J 	c #7E8284",
"K 	c #C2AE84",
"L 	c #FDFEFC",
"M 	c #EDEEF8",
"N 	c #1E2264",
"O 	c #AAAAA5",
"P 	c #767379",
"Q 	c #AACE9C",
"R 	c #4BB7B4",
"S 	c #D9DBF9",
"T 	c #C2BCB4",
"U 	c #B6E6C4",
"V 	c #061214",
"W 	c #12969C",
"X 	c #8D8E89",
"Y 	c #2E4A8C",
"Z 	c #CAC6CC",
"` 	c #CFECE8",
" .	c #86B6BC",
"..	c #2A2C30",
"+.	c #626261",
"@.	c #2E2ACC",
"#.	c #F2D6C4",
"$.	c #635BE1",
"%.	c #323664",
"&.	c #F1F2F5",
"*.	c #C66E5C",
"=.	c #56B8B4",
"-.	c #F54C44",
";.	c #367460",
">.	c #A2A39F",
",.	c #2C25CE",
"'.	c #929295",
").	c #D6D6F4",
"!.	c #383437",
"~.	c #7868E4",
"{.	c #FEFAF8",
"].	c #2EAAA4",
"^.	c #DCEAE8",
"/.	c #CEB6C0",
"(.	c #6ACABC",
"_.	c #625C64",
":.	c #F0F6EC",
"<.	c #898A8C",
"[.	c #4A4A4C",
"}.	c #EA8E34",
"|.	c #272525",
"1.	c #72523C",
"2.	c #E6EEDC",
"3.	c #B4B5B5",
"4.	c #C1C2C5",
"5.	c #54C4BC",
"6.	c #D7D6D4",
"7.	c #F2B6C4",
"8.	c #8ADAD4",
"9.	c #F28A84",
"0.	c #FE6E6C",
"a.	c #2E5694",
"b.	c #D69644",
"c.	c #76AAAC",
"d.	c #549270",
"e.	c #0AFEFC",
"f.	c #EE6A7C",
"g.	c #368E9C",
"h.	c #527C74",
"i.	c #62BEBC",
"j.	c #F49A94",
"k.	c #DEA68C",
"l.	c #4646DC",
"m.	c #4ED64C",
"n.	c #FA9A7C",
"o.	c #2EBAAC",
"p.	c #827ABC",
"q.	c #9A9AFC",
"r.	c #6E8E84",
"s.	c #4A96A4",
"t.	c #FED2C4",
"u.	c #2E96AC",
"v.	c #7EC68C",
"w.	c #52A29C",
"x.	c #CA7E64",
"y.	c #E2BEB4",
"z.	c #566264",
"A.	c #2E3EBC",
"B.	c #F2CAA4",
"C.	c #F2DEDC",
"D.	c #A2C69C",
"E.	c #CACACC",
"F.	c #1C181C",
"G.	c #9A8EE4",
"H.	c #A8E0D8",
"I.	c #0E0E10",
"J.	c #515152",
"K.	c #AACED4",
"L.	c #B6DEDC",
"M.	c #9ADAD4",
"N.	c #FA626C",
"O.	c #F43024",
"P.	c #7AC6C0",
"Q.	c #3D3BC9",
"R.	c #6E6AC4",
"S.	c #62C2C4",
"T.	c #221ECC",
"U.	c #3EB7B6",
"V.	c #DAAEB4",
"W.	c #80908C",
"X.	c #C6BECC",
"Y.	c #7EDAD4",
"Z.	c #5A56D4",
"`.	c #FE9294",
" +	c #E6D2EC",
".+	c #C2DEC4",
"++	c #3E4A6C",
"@+	c #F69634",
"#+	c #F6DADC",
"$+	c #F6CED4",
"%+	c #B6AEEC",
"&+	c #78B874",
"*+	c #DCBE7C",
"=+	c #7ACACC",
"-+	c #525A7C",
";+	c #3EAEAC",
">+	c #2E9EA8",
",+	c #F65244",
"'+	c #265E94",
")+	c #5ABEB4",
"!+	c #52668C",
"~+	c #96CC98",
"{+	c #D6E6D4",
"]+	c #F0EAE0",
"^+	c #76C28C",
"/+	c #A2A2C4",
"(+	c #AED6A4",
"_+	c #4CBEBC",
":+	c #766EDC",
"<+	c #4A4ED4",
"[+	c #82CE94",
"}+	c #FE6A64",
"|+	c #5ECABC",
"1+	c #5EAA5C",
"2+	c #8DD5D1",
"3+	c #7DD2CF",
"4+	c #3E3E5C",
"5+	c #828A84",
"6+	c #FEA6A8",
"7+	c #AFADAF",
"8+	c #E1DDF1",
"9+	c #C0EACC",
"0+	c #FEBAB8",
"a+	c #E29A54",
"b+	c #867AE4",
"c+	c #C1BBC9",
"d+	c #C8C2E8",
"e+	c #4692C4",
"f+	c #5A52E0",
"g+	c #6E66E4",
"h+	c #9C9C9F",
"i+	c #121418",
"j+	c #FE9E9C",
"k+	c #B2A2A4",
"l+	c #A696FC",
"m+	c #AEC6CC",
"n+	c #323244",
"o+	c #D0CEE0",
"p+	c #C6C6C4",
"q+	c #E2E4F8",
"r+	c #9292EC",
"s+	c #727374",
"t+	c #EEEAF4",
"u+	c #DEDEDC",
"v+	c #BADEB4",
"w+	c #CE724C",
"x+	c #96959C",
"y+	c #E2EEDC",
"z+	c #72CECC",
"A+	c #423ACC",
"B+	c #46454F",
"C+	c #CEE6E4",
"D+	c #E7E7E4",
"E+	c #6AC6D4",
"F+	c #656570",
"G+	c #3A8AB4",
"                                                                    ",
"                                          . .                       ",
"                                      . . O A .                     ",
"                                  . . @ a :.n .                     ",
"                              . . ] u+{.L L M J..                   ",
"                          . . ] a L L L L L L i .                   ",
"                      . . ] D+T @ s+z s+@ 4.L &.] .                 ",
"                  . . ] m n s % s 4+s !.!.s B+@ n .                 ",
"              . . ] g a @ s @ /.0+6+j+6+t.3.+.' '.] .               ",
"          . . h+3 q+C.9 !.} $+j+}+-.$ O.,+/ ( <...A .               ",
"      . . @ M M M #+H s 3 0+`.}+-.O.D f./.y.*+, 5+s ] .             ",
"  . . <.o+&.t+g 7.j.s <.#.n.0.N.-.-.e  +S h p.B ( J.7+.             ",
"  . P q+).g M g V.k+5 3 Q K B.j.9.u q.S &.d+g+R.O : ' ] .           ",
"    . 8+S M :.M &+!.J :.F D.y+D+v 3.l+%+d+G.g+l.2 X.!.5+.           ",
"    . P 8+t+a = ~+4+<..+v ~+U U F G+~.d r+x 2 Q.p t s z ] .         ",
"      . 4.M a 1+{+s <.v # o ^+f Y.e+<+$.$.f+A+@.T.$.B+E E..         ",
"      . '.&.:.o o s @ .+v.&+j 3+2+R >+$.f+Q.,.^ ^ b+4+E M ] .       ",
"        . 8+a L q % P 7 [+j C+9+8.z+5.>+A.^ ^ G @.:+5 P q+h+.       ",
"        . <.M &.L h+s i v M.D+L.=+P.5.i.u.Q.,.,.0 x+|.4.).o+P .     ",
"          . u+&.a D+|.h+:.H.H.3+|+5.=.R ;+l Z./+c+s 5 t+ .z _.E     ",
"          . O &.a a P F.4.` 3+(.C U.R o.;+].T i +.V 6 > q E+++4+.   ",
"            . D+L . e.[.B+n {+3+(._+=.U.R =+3 z i++ 1 h.^.s.I N .   ",
"            . x+3 . X ; s F.@ 4.^.2+2+2+K.> n+I.d.4 + h.m+g.I %..   ",
"              P . X _.- k B+!.|.E z.z.z.s I.! r ~ m.;.W.C W Y F+.   ",
"              . '.s % ' . 7+c.>.s ..|.|.s+b.w+c # 8 ;.> ;+'+-+F+.   ",
"            . X J.% . _.p+&.{.&.6.} n z.*+@+* a (+[ h.y w.I { b .   ",
"          . '.E !.. J.] :.{.{.{.{.&.6.s 7+< *.a i d.W.] !+{ +.J..   ",
"        . X J.s i+[.X a {.a {.L a L o+!.>.a+x.:.6.r.3.} @ P F+E .   ",
"      . '.b s .   E k+a a a {.a {.m n 5 & a+k.&.3 n d+O ] J z { .   ",
"    . X J.s .       . 3 L L L g p+. P . H }.]+D+3 4.4.3.} '.<._..   ",
"  . '.J.s .         . O a &.O . .     . [.1.x+O X.O '.s+z E J.s .   ",
"  . s s .             . n . .         . B+F+>.3.3.O h+X P J.s [..   ",
"    . .               . .               . . . . . . . . . . . .     ",
"                                                                    "};
