/* XPM */
static char * kview_xpm[] = {
"48 48 256 2",
"  	c None",
". 	c #020204",
"+ 	c #22829C",
"@ 	c #8E8664",
"# 	c #86C994",
"$ 	c #C6C2D4",
"% 	c #EA120C",
"& 	c #CAE6C4",
"* 	c #D6864C",
"= 	c #1A4A44",
"- 	c #5AC284",
"; 	c #9EE2CC",
"> 	c #FEE274",
", 	c #A2C2C4",
"' 	c #F2C26C",
") 	c #326A5C",
"! 	c #86A694",
"~ 	c #628284",
"{ 	c #BA4E2C",
"] 	c #EAF2E4",
"^ 	c #DEAA7C",
"/ 	c #222224",
"( 	c #0AE2E4",
"_ 	c #52AE54",
": 	c #C2D6D4",
"< 	c #56C2B4",
"[ 	c #9287FC",
"} 	c #A2D69C",
"| 	c #F24A54",
"1 	c #9AD294",
"2 	c #4A4A4C",
"3 	c #62626C",
"4 	c #62B274",
"5 	c #6EC2BC",
"6 	c #CE7A54",
"7 	c #D6966C",
"8 	c #E2D2C4",
"9 	c #A6A6A4",
"0 	c #D6D6B4",
"a 	c #9E9A7C",
"b 	c #EEE2CC",
"c 	c #EEFAFC",
"d 	c #2622CC",
"e 	c #CAEEE4",
"f 	c #4E4AD4",
"g 	c #727274",
"h 	c #02A6AC",
"i 	c #92CA94",
"j 	c #EEAEB4",
"k 	c #4AAEB4",
"l 	c #AEB6AC",
"m 	c #DADADC",
"n 	c #FEEAE4",
"o 	c #1212CC",
"p 	c #B2C694",
"q 	c #F6F2DC",
"r 	c #B6D2B4",
"s 	c #7ED0D4",
"t 	c #F2EECC",
"u 	c #F2322C",
"v 	c #FE8E34",
"w 	c #A6DEDC",
"x 	c #6262DC",
"y 	c #EE664C",
"z 	c #EEDED4",
"A 	c #52BEBC",
"B 	c #12120C",
"C 	c #D2E2CC",
"D 	c #323234",
"E 	c #A2D6CC",
"F 	c #FA625C",
"G 	c #84DABC",
"H 	c #725E4C",
"I 	c #9E9E7C",
"J 	c #B6B6B4",
"K 	c #D2DEDC",
"L 	c #BECABC",
"M 	c #FE7A74",
"N 	c #8A86AC",
"O 	c #C2CAD4",
"P 	c #4646D4",
"Q 	c #FACAAC",
"R 	c #52969C",
"S 	c #5ACAC4",
"T 	c #A29ADC",
"U 	c #565654",
"V 	c #7ECAC4",
"W 	c #EE9E5C",
"X 	c #EAD2E4",
"Y 	c #3636B4",
"Z 	c #2AB2AC",
"` 	c #92CECC",
" .	c #FABA8C",
"..	c #56AEAC",
"+.	c #EE463C",
"@.	c #B6DEB4",
"#.	c #92D6DC",
"$.	c #B9CED1",
"%.	c #329634",
"&.	c #82C6C4",
"*.	c #225A54",
"=.	c #7EC27C",
"-.	c #427A74",
";.	c #F2F2FA",
">.	c #D2B684",
",.	c #2A2A2C",
"'.	c #EE564C",
").	c #6ABABC",
"!.	c #6ECAD4",
"~.	c #E6E6FC",
"{.	c #E2EEE4",
"].	c #5E56E4",
"^.	c #96CE94",
"/.	c #F6F6FC",
"(.	c #EAEAFC",
"_.	c #FC8284",
":.	c #666EDC",
"<.	c #FA6664",
"[.	c #1A1E5C",
"}.	c #BAB6E4",
"|.	c #C2C2FC",
"1.	c #C6E6DC",
"2.	c #D68A94",
"3.	c #424244",
"4.	c #A2BA84",
"5.	c #8276DC",
"6.	c #CEDAD4",
"7.	c #6AC6CC",
"8.	c #AADAAC",
"9.	c #7E92DC",
"0.	c #0EFEFC",
"a.	c #129E9C",
"b.	c #EA2A1C",
"c.	c #52D654",
"d.	c #BAB2F4",
"e.	c #8AF294",
"f.	c #7A72DC",
"g.	c #6AD264",
"h.	c #46BE44",
"i.	c #EA9AB4",
"j.	c #C6BECC",
"k.	c #FE9694",
"l.	c #324A84",
"m.	c #F2C2CC",
"n.	c #362ECC",
"o.	c #B2EADC",
"p.	c #2A6294",
"q.	c #6A6AA4",
"r.	c #1E1ECC",
"s.	c #BEEACC",
"t.	c #4E9ED4",
"u.	c #3AB2B4",
"v.	c #7A8694",
"w.	c #FA8E74",
"x.	c #E68E34",
"y.	c #463ECC",
"z.	c #BADADC",
"A.	c #FEEA9C",
"B.	c #269A9C",
"C.	c #FEC29C",
"D.	c #DEDECC",
"E.	c #1A1A14",
"F.	c #868E94",
"G.	c #9EBABC",
"H.	c #9E9AAC",
"I.	c #F6B6BC",
"J.	c #6ACEAC",
"K.	c #AEAEB4",
"L.	c #A6BEBC",
"M.	c #DAF6F4",
"N.	c #AAA284",
"O.	c #D6EAD4",
"P.	c #7ABAA4",
"Q.	c #827EF4",
"R.	c #0A0A0C",
"S.	c #525254",
"T.	c #7A7A7C",
"U.	c #F6362C",
"V.	c #3A3A3C",
"W.	c #BEBEBC",
"X.	c #5E5E5C",
"Y.	c #5EB6B4",
"Z.	c #72B674",
"`.	c #FAFAFC",
" +	c #6A6A6C",
".+	c #E2B28C",
"++	c #FA6E74",
"@+	c #B2E2C4",
"#+	c #DEDEDC",
"$+	c #A6CACC",
"%+	c #06AEB4",
"&+	c #7AD6CC",
"*+	c #3EBABC",
"=+	c #A69AFC",
"-+	c #FE9E9C",
";+	c #527A74",
">+	c #FE564C",
",+	c #FAAAA4",
"'+	c #AEDADC",
")+	c #D6D6F4",
"!+	c #AED2A4",
"~+	c #564ED4",
"{+	c #9EC69C",
"]+	c #6E66DC",
"^+	c #CECECC",
"/+	c #8ECACC",
"(+	c #969694",
"_+	c #E6E6E4",
":+	c #868684",
"<+	c #E6DEF4",
"[+	c #FA4E44",
"}+	c #76C2BC",
"|+	c #8AD6CC",
"1+	c #EEC6E4",
"2+	c #5EBEBC",
"3+	c #BEC6D4",
"4+	c #CED6EC",
"5+	c #D6D6D4",
"6+	c #12122C",
"7+	c #9E9E9C",
"8+	c #DEDEFC",
"9+	c #EAD2C4",
"0+	c #FA2E24",
"a+	c #322A2C",
"b+	c #DEF2F4",
"c+	c #3E36C4",
"d+	c #BECEC4",
"e+	c #FEB6AC",
"f+	c #C6C6C4",
"g+	c #6EC6AC",
"h+	c #92DACC",
"i+	c #F66274",
"j+	c #F24654",
"k+	c #EEF6EC",
"l+	c #E6D6BC",
"m+	c #4A4EDC",
"n+	c #6666E4",
"o+	c #A6DAD4",
"p+	c #5A5A5C",
"q+	c #5AB2B4",
"r+	c #2E2E34",
"s+	c #FE6A6C",
"t+	c #CAEAD4",
"u+	c #4EB2B4",
"v+	c #EED6E4",
"w+	c #EEEEFC",
"x+	c #BEBAE4",
"y+	c #FEFEFC",
"z+	c #AA9EFC",
"A+	c #D2E2E4",
"B+	c #5EC2BC",
"C+	c #9ECE9C",
"D+	c #FEF6F4",
"E+	c #8E8E8C",
"F+	c #FE7E7C",
"G+	c #EEE6E4",
"                                                                                                ",
"                                                                                                ",
"                                                            . .                                 ",
"                                                        R.R.f+9 .                               ",
"                                                    R.R.f+#+#+f+.                               ",
"                                                R.R.J /.y+y+y+_+9 .                             ",
"                                            R.R.J /.y+y+y+y+y+D+f+.                             ",
"                                        R.R.J /./.y+y+y+y+y+y+y+_+9 .                           ",
"                                    R.R.W.w+/./.y+y+y+y+y+y+y+y+/.W..                           ",
"                                B R.9 D./.J g 2 3.V.V.V.2 3 K.y+y+#+9 .                         ",
"                            R.B K.w+_+9 p+2 2 2 3.3.3.V.V.V.V.V.E+(+W..                         ",
"                        R.R.H._+/.w+3 2 2 3 9+m.m.,+,+-+e+8 p+D D 2 #+9 .                       ",
"                    R.R.H.)+~.w+v+S.2 2 G+z k._.++<.++_.k.Q n _+D D D W..                       ",
"                ,.D K.~.8+)+_+j S.2 7+G+m.-+F+F '.0+% b.u y Q q q g D D 9 .                     ",
"            6+R.K.~.~.~.~.w+j 3 2 l z e+-+F+<.+.U.+.U.j+2.I. .' A.q  +D W..                     ",
"        E.R.K.~.~.~.~.8+v+-+9 3.2 8 -+_.F+F [++.b.>+k.i.3+d.}.(+>.> b / / 9 .                   ",
"    . 6+(+)+)+~.~.~.(.X _.-+p+2 5+8 .+w.s+++i+[+| 2.1+8+8+<+d.f.N >.t f+/ W.6+                  ",
"    E.T.4+)+)+~.~.(.(.)+_.J 3. +O.!+N.^ C.-+s+M i.Q.d.<+/._+}.5.x N J l+D E.9 .                 ",
"      R.j.)+)+~.w+w+(.$.a  +2 m {.} {+p D.9+0 ^+W.[ =+d.8+d.T 5.].P P 0 E+E.W..                 ",
"      R.K.)+)+~.w+;.w+i %.S.S.w+C } {+{+{.y+& ^.L.[ z+T x+T 5.]+m+P P f.d.E.2 E+.               ",
"        R.j.8+~.w+`.M.Z.$.2 p+w+r @.^.1 @+s.8.# B.].5.9.[ 9.]+m+P Y n.f T r+D J .               ",
"        R.F.)+~.w+;.Z.i ;.3.X.O.C+} Z.=.=.# G !.t.y.].n+n+].].P c+d r.c+f.V.E._+E+.             ",
"          R.j.~.~.w+%.L ] 3.p+& C+# _ Z.g+&.h+&+k B.f x x ~+P n.n.r.r.c+f.V.R.~.K..             ",
"          R.H.#+~.w+i Z.%.V.U e r # Z.# G |+|+s A k h ].~+P n.d r.r.r.f T V.R.~.#+E+.           ",
"            R.j.w+;.`.M.J.3.3.{.& # - h+z.s.w |+!.< k B.Y n.d d r.o r.f f.r+D 8+)+H..           ",
"            R.K.~.(./.c t+ +V.w+C 8.P.z.{.: w &.&.< ).k h Y n.d r.o c+f.g R.2 )+)+)+E+.         ",
"              R.5+~.w+y+k+9 V.T.{.& ; w K w E S }+B+*+).k + c+n.n.f :.K.3 . ~.)+|.|.T..         ",
"              . K._+w+w+y+k+V.D w+w+& #.w ` S B+< *+Y.*+k B.Y f x J $ g . . 8+)+R 3 3 3  +      ",
"                . D.~.w+y+y+E+D D w+#+h+s S < 2+*+q+u+Z q+h B.F.W.^+7+R.R.e.9 O o.7.q.D p+      ",
"                . J _+/.y+y+l 2 D  +w+1./+&.V ).u.u+Z Z Z k k W.5+K.a+. *.c.~ 7.b+7.R [.[.T.    ",
"                  . #+/./.y+0.E+V.D  +_+A+E 7.2+A q+..u.u+u+/+: (+a+. = g.4 ) G._+R p.l.[..     ",
"                  ,.9 _+_+R.E+( p+D D / O A+6.o+&.5 5 5 /+$+$. +R.. *.e.c.-.*.J G.R p.l.[..     ",
"                    D ^+. E+ +p+%+p+3./ / a+W.e '+'+'+$+,  +E.. . S.^.c.c.) ) J 7.a.p.l.3 R.    ",
"                    p+. E+ +S.p+D %+R.E+2 E.E.E./ / / E.R.R.. 3 6 y+8.c._ ) ~ J u.a.l.l. +R.    ",
"                    . E+ +S.3.D E.R.E+9 R 9 T.2 / E.R.E.V.E+v {  .y+^.h._ ) 9 R u.p.l. +3 R.    ",
"                  . E+ +S.3.D .  +(+f+w+b+_+f+9 (+(+(+p+4.v v 6 9+/.^.h._ ;+7+R u.p.l. +p+R.    ",
"                . E+ +S.3.D . p+T.^+/.y+/./.y+_+f+f+K.V.J W x.{ n /.D.Z.;+;+7+~ ~ l.3 3 S.R.    ",
"              . E+ +S.3.D . 2 g f+y+/.y+y+y+/.y+y+/.K.E.7+I W { n w+#+Z.;+(+9 7+l. +3 p+S..     ",
"            . E+ +S.3.D . 2 p+f+/.y+/././.y+/./.y+y+K.E.7+@ W { n w+#+! ;+J K.9 3 g 3 3 S.R.    ",
"          . E+ +S.3.D .   p+g _+/./.y+y+y+/.y+y+/._+E+R.7+I W 6 /._+5+l F.j.K.9 (+v. +g 3 R.    ",
"        . E+ +S.3.D .       D f+y+/././.y+/./.w+f+f+T.. 7+' * 7 /._+5+f+d+j.K.9 7+:+g g 3 R.    ",
"      . E+p+S.3.D .         . E+/.y+y+y+/./.w+5+T.. D . T.* x.9+w+#+5+j.j.W.K.K.9 E+:+T.p+.     ",
"    . E+p+S.3.D .             . #+w+/./._+J T.. .   K.. p+H * 5+5+j.j.J J K.9 9 9 E+:+T.2 .     ",
"    . S.S.3.D .               . E+_+_+f+:+. .         . V.V.V.p+g K.W.9 (+T.p+S.3.V.,.,.D .     ",
"    . 3.3.D .                   . K.9 . .             3 V.S.g 9 K.W.J K.9 7+(+:+g p+2 3.3.3     ",
"      . . .                     . . .                   D . . R./ / 6+R.. . . . . . . . 3       ",
"                                                                                                ",
"                                                                                                "};
