/* XPM */
static char * kpm_xpm[] = {
"32 32 191 2",
"  	c None",
". 	c #000000",
"+ 	c #E6E6E6",
"@ 	c #E0E0E0",
"# 	c #DBDBDB",
"$ 	c #EDEDED",
"% 	c #EAEAEA",
"& 	c #E4E4E4",
"* 	c #DFDFDF",
"= 	c #D9D9D9",
"- 	c #D4D4D4",
"; 	c #CECECE",
"> 	c #737373",
", 	c #BBBBBB",
"' 	c #CFCFCF",
") 	c #CACACA",
"! 	c #C4C4C4",
"~ 	c #BEBEBE",
"{ 	c #E8E8E8",
"] 	c #E3E3E3",
"^ 	c #DDDDDD",
"/ 	c #D8D8D8",
"( 	c #D2D2D2",
"_ 	c #CDCDCD",
": 	c #C7C7C7",
"< 	c #C2C2C2",
"[ 	c #B5B5B5",
"} 	c #BCBCBC",
"| 	c #AFAFAF",
"1 	c #DCDCDC",
"2 	c #FFFFFF",
"3 	c #E7E7E7",
"4 	c #E1E1E1",
"5 	c #D6D6D6",
"6 	c #D1D1D1",
"7 	c #CBCBCB",
"8 	c #C6C6C6",
"9 	c #C0C0C0",
"0 	c #ADADAD",
"a 	c #A8A8A8",
"b 	c #B4B4B4",
"c 	c #AEAEAE",
"d 	c #A7A7A7",
"e 	c #A1A1A1",
"f 	c #D5D5D5",
"g 	c #BFBFBF",
"h 	c #B9B9B9",
"i 	c #A9A9A9",
"j 	c #9B9B9B",
"k 	c #A6A6A6",
"l 	c #9F9F9F",
"m 	c #999999",
"n 	c #929292",
"o 	c #0A2A4C",
"p 	c #C9C9C9",
"q 	c #C3C3C3",
"r 	c #B8B8B8",
"s 	c #B2B2B2",
"t 	c #A2A2A2",
"u 	c #9C9C9C",
"v 	c #939393",
"w 	c #8E8E8E",
"x 	c #979797",
"y 	c #919191",
"z 	c #8B8B8B",
"A 	c #848484",
"B 	c #DADADA",
"C 	c #B7B7B7",
"D 	c #B1B1B1",
"E 	c #ACACAC",
"F 	c #A0A0A0",
"G 	c #959595",
"H 	c #909090",
"I 	c #868686",
"J 	c #818181",
"K 	c #898989",
"L 	c #838383",
"M 	c #7D7D7D",
"N 	c #4261D7",
"O 	c #4664DA",
"P 	c #D7D7D7",
"Q 	c #B0B0B0",
"R 	c #AAAAAA",
"S 	c #A5A5A5",
"T 	c #9A9A9A",
"U 	c #949494",
"V 	c #8F8F8F",
"W 	c #C5C5C5",
"X 	c #767676",
"Y 	c #4A69DD",
"Z 	c #4C6CDF",
"` 	c #D3D3D3",
" .	c #A3A3A3",
"..	c #9E9E9E",
"+.	c #989898",
"@.	c #4766DB",
"#.	c #5272E4",
"$.	c #4260D6",
"%.	c #D0D0D0",
"&.	c #9D9D9D",
"*.	c #415FD6",
"=.	c #3C59D1",
"-.	c #3653CD",
";.	c #CCCCCC",
">.	c #969696",
",.	c #3E5CD4",
"'.	c #3A57D0",
").	c #3552CC",
"!.	c #304CC8",
"~.	c #2B46C4",
"{.	c #878787",
"].	c #C0C000",
"^.	c #3B58D1",
"/.	c #3754CE",
"(.	c #334FCA",
"_.	c #2E4AC6",
":.	c #2944C2",
"<.	c #243FBE",
"[.	c #1F39BA",
"}.	c #A0A0A4",
"|.	c #727272",
"1.	c #8C8C8C",
"2.	c #888888",
"3.	c #808080",
"4.	c #00FF00",
"5.	c #FFFF00",
"6.	c #2F4BC8",
"7.	c #2B47C4",
"8.	c #FF0000",
"9.	c #1D37B8",
"0.	c #8D8D8D",
"a.	c #6D6D6D",
"b.	c #858585",
"c.	c #797979",
"d.	c #00C000",
"e.	c #2C48C5",
"f.	c #2843C1",
"g.	c #FFA858",
"h.	c #1B34B6",
"i.	c #8A8A8A",
"j.	c #686868",
"k.	c #7F7F7F",
"l.	c #828282",
"m.	c #7E7E7E",
"n.	c #7A7A7A",
"o.	c #314DC9",
"p.	c #1831B4",
"q.	c #636363",
"r.	c #7B7B7B",
"s.	c #777777",
"t.	c #6F6F6F",
"u.	c #6B6B6B",
"v.	c #243EBE",
"w.	c #213BBB",
"x.	c #152EB2",
"y.	c #5D5D5D",
"z.	c #787878",
"A.	c #747474",
"B.	c #707070",
"C.	c #6C6C6C",
"D.	c #696969",
"E.	c #646464",
"F.	c #2742C0",
"G.	c #2641BF",
"H.	c #1F3ABA",
"I.	c #1C36B8",
"J.	c #122AAF",
"K.	c #7C7C7C",
"L.	c #585858",
"M.	c #717171",
"N.	c #656565",
"O.	c #626262",
"P.	c #0E26AC",
"Q.	c #C1C1C1",
"R.	c #757575",
"S.	c #535353",
"T.	c #666666",
"U.	c #C8C8C8",
"V.	c #162FB3",
"W.	c #142CB1",
"X.	c #0D25AC",
"Y.	c #4E4E4E",
"Z.	c #5F5F5F",
"`.	c #494949",
" +	c #5A5A5A",
".+	c #474747",
"++	c #DADADC",
"@+	c #6A6A6A",
"#+	c #009000",
"$+	c #38FB30",
"%+	c #565254",
"            . . .                                               ",
"        . . + @ # . . . . . . . . . .                           ",
"    . . $ % & * = - ; > > , , ' ) ! ~ . .                       ",
"  . $ $ $ { ] ^ / ( _ : < > > , [ < } [ | . .                   ",
". 1 2 2 $ 3 4 1 5 6 7 8 9 , [ > > 0 a b c d e . .               ",
". 1 1 1 2 2 @ # f ' ) ! g h b c i > > e j k l m n . .           ",
". 1 o 1 1 # 2 2 - ; p q ~ r s 0 d t u > > v w x y z A . .       ",
". 1 o o o B = / 2 2 : < } C D E k F j G H > > I J K L M M . .   ",
". 1 o N O o o P 5 f 2 2 , [ Q R S l T U V V W X [ [ [ [ [ [ [ . ",
". # o O Y Z Y o o - ` ( 2 2 c i  ...+.v W W t X G t t t t F u . ",
". B o @.Z #.Z @.$.o o 6 %.' 2 2 t u W W t t e X G t t e &.m G . ",
". / o O Y Z Y O *.=.-.o o ; _ ;.2 W t t F ..j X G t ..T >.n w . ",
". P o N O @.O N ,.'.).!.~.o o ) ) t l &.j m >.X v j x v V z {.. ",
". 5 o ,.].].*.,.^./.(._.:.<.[.}.p &.j m >.U n |.1.U H 1.2.A 3.. ",
". f o '.4.4.=.'.5.5.6.7.8.8.9.2 : +.>.U n V 0.a.I 0.K b.J M c.. ",
". - o ).d.d.-.).].].e.f.g.g.h.2 8 v y V 0.i.2.j.k.I l.m.n.X |.. ",
". ( o !.d.d.o.!.4.4.f.<.5.5.p.2 W w 1.i.2.b.L q.c.k.r.s.> t.u.. ",
". 6 }.2 e.e.e.~.d.d.v.w.].].x.2 ! K {.b.L J m.y.|.z.A.B.C.D.E.. ",
". %.' ; 2 2 F.G.d.d.H.I.4.4.J.2 q b.L J m.K.n.L.C.M.a.D.N.O.O.. ",
". . ; _ ;.7 2 2 [.9.h.p.d.d.P.2 Q.3.m.r.c.s.R.S.N.u.T.O.O.O.O.. ",
"    . . 7 ) p U.2 2 V.W.d.d.X.2 9 r.c.X A.|.B.Y.Z.q.O.O.O.O..   ",
"        . . U.: 8 W 2 2 X.X.X.2 g X A.M.t.a.u.`. +O.O.O.. .     ",
"          . . . W ! q < 2 2 X.2 g M.t.a.u.D.T..+ +O.. .         ",
"        . ++++2 . . < Q.9 g 2 2 g a.@+j.T.E.O..+. .             ",
"        . 9 9 ++++2 . . g #+$+g g j.N.q.O.O.. . 3.3..           ",
"        . . }.9 9 ++++2 . . g g g O.O.O.. . 3.}.}.3..           ",
"            . . }.9 9 ++++2 . . g O.. . 3.}.}.1.3.%+.           ",
"                . . }.9 9 ++++2 . . 3.}.}.1.3.%+. .             ",
"                    . . }.9 9 ++2 }.}.1.3.%+. .                 ",
"                        . . }.9 9 1.3.%+. .                     ",
"                            . . }.%+. .                         ",
"                                . .                             "};
