/* XPM */
static char * large_kpm_xpm[] = {
"48 48 125 2",
"  	c None",
". 	c #020204",
"+ 	c #262624",
"@ 	c #E6E6E4",
"# 	c #E2E2E4",
"$ 	c #DEDEDC",
"% 	c #0A325C",
"& 	c #060604",
"* 	c #222224",
"= 	c #EAEAEC",
"- 	c #DADADC",
"; 	c #D2D2D4",
"> 	c #525254",
", 	c #5E5E64",
"' 	c #CECECC",
") 	c #CACACC",
"! 	c #C6C6C4",
"~ 	c #C2C2C4",
"{ 	c #BEBEBC",
"] 	c #EEEEEC",
"^ 	c #D6D6D4",
"/ 	c #5A5A5C",
"( 	c #BABABC",
"_ 	c #B6B6B4",
": 	c #5E5E5C",
"< 	c #B2B2B4",
"[ 	c #AEAEAC",
"} 	c #AAAAAC",
"| 	c #FEFEFC",
"1 	c #4E524C",
"2 	c #A6A6A4",
"3 	c #A2A2A4",
"4 	c #9E9E9C",
"5 	c #9A9A9C",
"6 	c #969694",
"7 	c #929294",
"8 	c #8E8E8C",
"9 	c #66666C",
"0 	c #8A8A8C",
"a 	c #868684",
"b 	c #828284",
"c 	c #0A2A4C",
"d 	c #727274",
"e 	c #7E7E7C",
"f 	c #7A7A7C",
"g 	c #4262D4",
"h 	c #4662DC",
"i 	c #4666DC",
"j 	c #6E6E6C",
"k 	c #4A6ADC",
"l 	c #4E6EE4",
"m 	c #425ED4",
"n 	c #767674",
"o 	c #5272E4",
"p 	c #3E5ED4",
"q 	c #3A56D4",
"r 	c #4262DC",
"s 	c #3E5AD4",
"t 	c #3A56CC",
"u 	c #3652CC",
"v 	c #3A5AD4",
"w 	c #324ECC",
"x 	c #2A46C4",
"y 	c #DABE14",
"z 	c #EA8E0C",
"A 	c #3656CC",
"B 	c #AE0E0C",
"C 	c #2E4AC4",
"D 	c #223EBC",
"E 	c #8A7A0C",
"F 	c #B66E0C",
"G 	c #720A0C",
"H 	c #2A42C4",
"I 	c #EAD214",
"J 	c #0E8A0C",
"K 	c #FE9A0C",
"L 	c #E20E0C",
"M 	c #2642C4",
"N 	c #263EBC",
"O 	c #666664",
"P 	c #12EE14",
"Q 	c #0A5E0C",
"R 	c #12A614",
"S 	c #1E3ABC",
"T 	c #626264",
"U 	c #6A6A6C",
"V 	c #223ABC",
"W 	c #1A32B4",
"X 	c #1E36BC",
"Y 	c #1A36B4",
"Z 	c #2E2E34",
"` 	c #2642BC",
" .	c #162EB4",
"..	c #2A2E2C",
"+.	c #2A2A2C",
"@.	c #122AB4",
"#.	c #4E4E4C",
"$.	c #26262C",
"%.	c #1632B4",
"&.	c #122AAC",
"*.	c #4A4A4C",
"=.	c #0E2AAC",
"-.	c #0E26AC",
";.	c #464644",
">.	c #1E1E24",
",.	c #565654",
"'.	c #1A1A1C",
").	c #029204",
"!.	c #0EEE0C",
"~.	c #7A7674",
"{.	c #16161C",
"].	c #161614",
"^.	c #969294",
"/.	c #868284",
"(.	c #7E827C",
"_.	c #A6A2A4",
":.	c #565254",
"<.	c #0A0A0C",
"[.	c #8A8684",
"}.	c #9E9A9C",
"|.	c #928E8C",
"1.	c #827E7C",
"2.	c #666264",
"3.	c #767274",
"4.	c #726E6C",
"                                                                                                ",
"                                                                                                ",
"                      . . .                                                                     ",
"                  . + @ # $ % & & . . & . . & & & & &                                           ",
"              & * = = @ # $ - ; > , ' ' ' ' ' ) ! ~ { & &                                       ",
"          . * = = ] = @ # - ^ ^ ' ) / / ' ' ' ) ! ~ { ( _ & &                                   ",
"      & * = ] ] ] ] = @ # $ ^ ; ' ) ! ~ : / ' ) ! ~ ( _ < [ } . .                               ",
"    . - | | ] ] ] ] = # $ - ^ ; ' ) ! { { _ 1 / ~ { ( _ < [ } 2 3 & &                           ",
"    . - $ - | | ] = @ # $ - ^ ; ) ! ! { { _ < [ 1 / ( _ < [ 2 3 4 5 6 . .                       ",
"    . $ - $ $ - | | @ # $ - ^ ' ) ! ~ { ( _ < } 2 2 1 / [ } 2 3 4 5 6 7 8 & &                   ",
"    . $ - - $ - - - | | - ^ ^ ; ) ! ~ ( _ < < [ 2 3 4 5 1 9 2 3 4 5 7 8 0 a b & &               ",
"    . - $ c c c - - - - | | ; ' ) ! { { ( < [ } 2 3 4 5 6 7 1 d 5 6 6 8 0 a b e f & &           ",
"    . - - c g g c c ^ - ^ ^ | | ! ! { ( _ < } } 3 4 5 6 7 8 8 8 1 f 7 8 0 a e e f f f .         ",
"    . $ $ c h h i i c c ^ ^ ^ ^ | | { ( _ < [ 2 2 4 5 6 7 7 8 ! j 7 _ _ _ _ _ < _ _ _ < .       ",
"    . - - c i i k k i i c c ^ ^ ; ; | | < [ [ 2 3 4 5 6 8 ! ! 0 d 7 3 4 4 3 3 3 4 4 5 6 .       ",
"    . - - % k k k l l k h m c c ^ ; ; ; | | } 2 3 4 6 ! ! 7 8 0 n 7 4 3 3 3 3 4 4 6 6 7 .       ",
"    . ^ ^ c i k k o l k i m p q c c ; ; ; ' | | 3 ! ~ 4 6 7 7 8 n 6 3 3 4 4 5 6 6 7 7 8 .       ",
"    . - - c k k l l k k i r s s t u c c ; ' ; ; | 4 4 4 5 6 7 8 d 7 3 4 4 5 6 6 7 7 0 a .       ",
"    . ^ ^ c i i i k k i h r p v u u w x c c ' ' ' 4 4 4 5 6 7 8 d 7 4 5 5 6 7 8 0 0 0 b .       ",
"    . - ^ c h h i y y h g z z t A B B C x D | ' ' 4 4 5 5 7 7 8 d 8 5 6 7 7 8 8 0 a b b .       ",
"    . - ^ c g g y y E m z z F u B B G x H D | ) ) 5 5 5 5 7 7 8 j 0 6 7 8 0 a a b e e f .       ",
"    . ^ ^ c s s I I J p K K F u L L G x M N | ' ' 6 6 7 7 7 8 0 O a 8 0 0 0 a b e e n n .       ",
"    . ^ ^ c s s P P Q q K K E w L L F M D D | ) ) 7 7 7 8 8 0 0 O b 8 0 b b e e f f d d &       ",
"    . ^ ; c u u R R Q t I I J w K K F M D S | ! ) 8 8 8 8 0 0 a T e a b b e f f n d d U .       ",
"    . ^ ^ c u w R R u w P P Q C K K E N V S | ! ) 0 0 0 0 0 a b : n b e f f n d j j j O .       ",
"    . ; ; 0 | w w w C w R R Q x I I J V S W | ! ! 0 0 a a b a b : n f f f n d j j U O T .       ",
"    . ; ^ ; ; | | C C C R R H M P P Q X X Y | ! ! b a b b e e e / d f d d j j U O T T T .       ",
"    . Z ; ; ' ; ' | | M x ` ` N R R Q X Y  .| ! ! e e e e e e f > U d d j U O O T T T T .       ",
"        . ..' ' ; ' ' | | D D V R R Y W W  .| ~ ! f e f f f n f > O j U U O T T T T T T .       ",
"            . +.' ' ' ) ) | | S X Y W  .@.@.| ! ~ n n f f n n d #.O U O O T T T T T . .         ",
"                . $.' ) ) ) ! | | W %. .&.@.| ~ ! n d d d d d d *.T O T T T T T . .             ",
"                    . + ) ) ) ) ! | | =.=.-.| ~ ~ j d d j j j U ;./ T T T T . .                 ",
"                . . ;.;.. >.! ! ! ! ~ | | -.| { ~ U U j j U U U ;./ T T . .                     ",
"              . - - ,.,.;.;.. >.! ~ ! ~ ~ | | { { U U O O O O O ;./ . . .                       ",
"              . ^ $ $ - / / ;.;.. '.~ ).!.~ ~ ~ { T O O O T T T . . ~.4 4 .                     ",
"              . _ ! ) ^ - - / ,.;.;.. {.~ ~ { { { T T T T T ].. n 4 4 ^./..                     ",
"              . 2 [ _ { ! ) ^ - ,./ ;.;.. ].~ ~ ~ T T T +.. (.a _.^.b d :..                     ",
"                . . 5 2 [ _ _ ! ' ^ / ,.;.;.. <.~ T * . [.}.3 |.1.d :.:.:..                     ",
"                    . . 5 4 2 [ < _ ! ) ,.,.;.;.. . 4 3 3 |.b d 2.:.:.:..                       ",
"                        . . 8 6 3 2 } _ _ ! ,.,.b 3 _.|.1.3.2.> > > . .                         ",
"                            . . 0 8 7 3 3 } < ( e 7 b d T > :.> . .                             ",
"                                . . 8 0 8 6 4 3 b 4.T :.> > . .                                 ",
"                                    . . 8 8 8 0 b :.1 > . .                                     ",
"                                        . . 8 8 e > . .                                         ",
"                                            . . . .                                             ",
"                                                                                                ",
"                                                                                                ",
"                                                                                                "};
