/* XPM */
/* Drawn for the K Desktop Environment */
/* See http://www.kde.org */
static char*kpm[]={
"16 16 10 1",
"d c #808080",
". c None",
"e c #000080",
"a c #c0c0c0",
"b c #a0a0a4",
"g c #00c000",
"# c #000000",
"h c #ffa858",
"f c #c0c000",
"c c #ffffff",
"..#######.......",
"##aaaabbb##.....",
"#ccaaaaabbb##...",
"#ddccaaaaabbb##.",
"#eeddccaaabbbbb#",
"#eeeeddcbbbdbbb#",
"#efeeeecbbbdbbb#",
"#egefehcbbbdbbb#",
"#eeegefcbbbdbbb#",
"#aaeeegcbbbdbbb#",
".##aaeecbbbdbb#.",
".#a##agcbbb###..",
".##aa##ab##dd#..",
"...##aa##dd##...",
".....##ad##.....",
".......##......."};
