/* XPM */
static char * ksame_xpm[] = {
"36 36 195 2",
"  	c None",
". 	c #000000",
"+ 	c #585858",
"@ 	c #595959",
"# 	c #5A5A5A",
"$ 	c #585751",
"% 	c #555958",
"& 	c #545858",
"* 	c #66799F",
"= 	c #7A9CF3",
"- 	c #578DFC",
"; 	c #366FEF",
"> 	c #4C7DD7",
", 	c #3D5EA2",
"' 	c #A16968",
") 	c #F57E7B",
"! 	c #FE5858",
"~ 	c #F13C37",
"{ 	c #D94E4F",
"] 	c #A43E3F",
"^ 	c #5968B0",
"/ 	c #90A8F5",
"( 	c #C1D0FC",
"_ 	c #A3BEFC",
": 	c #1B5EF6",
"< 	c #255AD2",
"[ 	c #2655B5",
"} 	c #253F92",
"| 	c #B26B5B",
"1 	c #F79991",
"2 	c #FEC8C3",
"3 	c #FEA6A4",
"4 	c #F8241D",
"5 	c #D52926",
"6 	c #B82827",
"7 	c #943026",
"8 	c #4861FB",
"9 	c #BBCFFC",
"0 	c #EFF1FC",
"a 	c #EDF2FC",
"b 	c #2161F2",
"c 	c #275BD0",
"d 	c #2246A3",
"e 	c #092E98",
"f 	c #FD684A",
"g 	c #FEC0BD",
"h 	c #FEF3F1",
"i 	c #FEEFEF",
"j 	c #F42822",
"k 	c #D32D28",
"l 	c #A72622",
"m 	c #9C1209",
"n 	c #2452FB",
"o 	c #7FA8FC",
"p 	c #D7E0FC",
"q 	c #99B0FA",
"r 	c #2056DF",
"s 	c #2854C3",
"t 	c #224593",
"u 	c #082173",
"v 	c #FD3C26",
"w 	c #FE8081",
"x 	c #FEDBD8",
"y 	c #FCA19A",
"z 	c #E12B21",
"A 	c #C62C28",
"B 	c #952423",
"C 	c #761409",
"D 	c #2855FB",
"E 	c #1656F7",
"F 	c #1251F1",
"G 	c #1855E1",
"H 	c #2255C9",
"I 	c #2952AE",
"J 	c #213E80",
"K 	c #091658",
"L 	c #FD4029",
"M 	c #F92117",
"N 	c #F31913",
"O 	c #E41C18",
"P 	c #CB2823",
"Q 	c #B12A29",
"R 	c #822322",
"S 	c #5B160A",
"T 	c #3553D4",
"U 	c #2157DE",
"V 	c #275EDA",
"W 	c #285ECB",
"X 	c #234AAC",
"Y 	c #21448C",
"Z 	c #182A5D",
"` 	c #070F46",
" .	c #D64A37",
"..	c #E02823",
"+.	c #DC2D28",
"@.	c #CD2B29",
"#.	c #AF2A24",
"$.	c #8F2322",
"%.	c #5F201A",
"&.	c #481609",
"*.	c #565959",
"=.	c #54595A",
"-.	c #545A5A",
";.	c #555B5B",
">.	c #565B5B",
",.	c #585A5A",
"'.	c #4C5475",
").	c #2C58B1",
"!.	c #224BB1",
"~.	c #1F4BA4",
"{.	c #1A3585",
"].	c #1A2E61",
"^.	c #152044",
"/.	c #2C2F4D",
"(.	c #77534D",
"_.	c #B3302D",
":.	c #B32723",
"<.	c #A52421",
"[.	c #88231B",
"}.	c #64201B",
"|.	c #461B16",
"1.	c #4F362E",
"2.	c #575A5A",
"3.	c #374A5E",
"4.	c #062F6D",
"5.	c #062A4F",
"6.	c #04273F",
"7.	c #032230",
"8.	c #283741",
"9.	c #60393F",
"0.	c #70060E",
"a.	c #530614",
"b.	c #410515",
"c.	c #320514",
"d.	c #432930",
"e.	c #A09B67",
"f.	c #F4ED7B",
"g.	c #FDEF58",
"h.	c #F0E537",
"i.	c #D8C94D",
"j.	c #A3993E",
"k.	c #AAB15A",
"l.	c #F6F591",
"m.	c #FDFCC2",
"n.	c #FDF6A4",
"o.	c #F7EA1C",
"p.	c #D3C526",
"q.	c #B6AA27",
"r.	c #939226",
"s.	c #EDFC49",
"t.	c #FDF9BC",
"u.	c #FCFDF0",
"v.	c #FDFCEE",
"w.	c #F3E622",
"x.	c #D1C728",
"y.	c #A59E22",
"z.	c #9A9509",
"A.	c #F9FC25",
"B.	c #FDF080",
"C.	c #FDFDD8",
"D.	c #FBFA9A",
"E.	c #E0D921",
"F.	c #C5BC28",
"G.	c #948B23",
"H.	c #737409",
"I.	c #F9FC29",
"J.	c #F8EB17",
"K.	c #F2E513",
"L.	c #E3D318",
"M.	c #CBC122",
"N.	c #B0A529",
"O.	c #817A22",
"P.	c #555A09",
"Q.	c #CFD536",
"R.	c #DFD422",
"S.	c #DBD028",
"T.	c #CDBF28",
"U.	c #ADA524",
"V.	c #8E8521",
"W.	c #5E5D19",
"X.	c #404708",
"Y.	c #74764D",
"Z.	c #B2A72D",
"`.	c #B2AA23",
" +	c #A59A20",
".+	c #87851A",
"++	c #63601A",
"@+	c #454516",
"#+	c #494E2D",
"$+	c #5F5538",
"%+	c #6F5D06",
"&+	c #513D06",
"*+	c #402B05",
"=+	c #311D04",
"-+	c #423929",
". . . . . . . . . . . . . . . . . . . . . . . . . . . . . . . . . . . . ",
". + + + + + + + + + + + + + + + + + + + + + + + + + + + + + + + + + + . ",
". + @ @ @ # @ # @ @ @ @ @ @ @ @ @ @ $ + + + + + + + % & + + + + + + + . ",
". + @ @ # @ @ # @ @ @ @ @ @ @ @ @ + + * = - ; > , + + ' ) ! ~ { ] + + . ",
". + @ @ @ @ # # @ @ @ @ @ @ @ @ @ + ^ / ( _ : < [ } | 1 2 3 4 5 6 7 + . ",
". + @ @ @ @ @ # @ @ @ @ @ @ @ @ @ + 8 9 0 a b c d e f g h i j k l m + . ",
". + @ @ # @ @ # @ @ @ @ @ @ @ @ @ + n o p q r s t u v w x y z A B C + . ",
". + # @ # @ @ # @ @ @ @ @ @ @ @ @ + D E F G H I J K L M N O P Q R S + . ",
". + @ @ @ @ @ # @ @ @ @ @ @ @ @ @ + T U V W X Y Z `  ...+.@.#.$.%.&.+ . ",
". + @ *.=.-.;.>.,.@ @ @ @ @ @ @ @ + '.).!.~.{.].^./.(._.:.<.[.}.|.1.+ . ",
". + + + + + + + + 2.+ @ @ @ @ @ @ + + 3.4.5.6.7.8.+ + 9.0.a.b.c.d.+ + . ",
". + + ' ) ! ~ { ] + + @ @ @ @ @ @ + + e.f.g.h.i.j.+ + ' ) ! ~ { ] + + . ",
". + | 1 2 3 4 5 6 7 + @ @ @ @ @ @ + k.l.m.n.o.p.q.r.| 1 2 3 4 5 6 7 + . ",
". + f g h i j k l m + @ @ @ @ @ @ + s.t.u.v.w.x.y.z.f g h i j k l m + . ",
". + v w x y z A B C + @ @ @ @ @ @ + A.B.C.D.E.F.G.H.v w x y z A B C + . ",
". + L M N O P Q R S + @ @ @ @ @ @ + I.J.K.L.M.N.O.P.L M N O P Q R S + . ",
". +  ...+.@.#.$.%.&.+ @ @ @ @ @ @ + Q.R.S.T.U.V.W.X. ...+.@.#.$.%.&.+ . ",
". + (._.:.<.[.}.|.1.+ @ @ @ @ @ @ + Y.Z.`. +.+++@+#+(._.:.<.[.}.|.1.+ . ",
". + + 9.0.a.b.c.d.+ + + + + + + + + + $+%+&+*+=+-++ + 9.0.a.b.c.d.+ + . ",
". + + ' ) ! ~ { ] + + * = - ; > , + + ' ) ! ~ { ] + + ' ) ! ~ { ] + + . ",
". + | 1 2 3 4 5 6 7 ^ / ( _ : < [ } | 1 2 3 4 5 6 7 | 1 2 3 4 5 6 7 + . ",
". + f g h i j k l m 8 9 0 a b c d e f g h i j k l m f g h i j k l m + . ",
". + v w x y z A B C n o p q r s t u v w x y z A B C v w x y z A B C + . ",
". + L M N O P Q R S D E F G H I J K L M N O P Q R S L M N O P Q R S + . ",
". +  ...+.@.#.$.%.&.T U V W X Y Z `  ...+.@.#.$.%.&. ...+.@.#.$.%.&.+ . ",
". + (._.:.<.[.}.|.1.'.).!.~.{.].^./.(._.:.<.[.}.|.1.(._.:.<.[.}.|.1.+ . ",
". + + 9.0.a.b.c.d.+ + 3.4.5.6.7.8.+ + 9.0.a.b.c.d.+ + 9.0.a.b.c.d.+ + . ",
". + + * = - ; > , + + * = - ; > , + + e.f.g.h.i.j.+ + e.f.g.h.i.j.+ + . ",
". + ^ / ( _ : < [ } ^ / ( _ : < [ } k.l.m.n.o.p.q.r.k.l.m.n.o.p.q.r.+ . ",
". + 8 9 0 a b c d e 8 9 0 a b c d e s.t.u.v.w.x.y.z.s.t.u.v.w.x.y.z.+ . ",
". + n o p q r s t u n o p q r s t u A.B.C.D.E.F.G.H.A.B.C.D.E.F.G.H.+ . ",
". + D E F G H I J K D E F G H I J K I.J.K.L.M.N.O.P.I.J.K.L.M.N.O.P.+ . ",
". + T U V W X Y Z ` T U V W X Y Z ` Q.R.S.T.U.V.W.X.Q.R.S.T.U.V.W.X.+ . ",
". + '.).!.~.{.].^./.'.).!.~.{.].^./.Y.Z.`. +.+++@+#+Y.Z.`. +.+++@+#++ . ",
". + + 3.4.5.6.7.8.+ + 3.4.5.6.7.8.+ + $+%+&+*+=+-++ + $+%+&+*+=+-++ + . ",
". . . . . . . . . . . . . . . . . . . . . . . . . . . . . . . . . . . . "};
