/* XPM */
static char * large_ksame_xpm[] = {
"48 48 149 2",
"  	c None",
". 	c #020204",
"+ 	c #585858",
"@ 	c #6B7CC8",
"# 	c #597FEA",
"$ 	c #4671ED",
"% 	c #3B62D2",
"& 	c #325CB1",
"* 	c #C9796B",
"= 	c #EB655A",
"- 	c #EE5346",
"; 	c #D3493C",
"> 	c #B23432",
", 	c #627ECF",
"' 	c #90ADF7",
") 	c #89ACFA",
"! 	c #5691FD",
"~ 	c #2668ED",
"{ 	c #275FD2",
"] 	c #D06D63",
"^ 	c #F89691",
"/ 	c #FB8F8A",
"( 	c #FE575A",
"_ 	c #EE2A27",
": 	c #D32A27",
"< 	c #C8D6FD",
"[ 	c #D4E0FD",
"} 	c #ACC3FD",
"| 	c #2665F3",
"1 	c #2661D9",
"2 	c #2459BB",
"3 	c #1C3F99",
"4 	c #FECDC8",
"5 	c #FED7D5",
"6 	c #FEB2AD",
"7 	c #F42F27",
"8 	c #DA2A27",
"9 	c #BC2427",
"0 	c #9A241C",
"a 	c #98B9FD",
"b 	c #DCE6FD",
"c 	c #C6DBFD",
"d 	c #2755B4",
"e 	c #1B3E8C",
"f 	c #FE9A98",
"g 	c #FEDDDC",
"h 	c #FEC6C8",
"i 	c #B52A27",
"j 	c #8C1F1C",
"k 	c #326DF3",
"l 	c #B4CCFD",
"m 	c #729DFD",
"n 	c #275EDC",
"o 	c #275CC8",
"p 	c #2353AA",
"q 	c #1B3878",
"r 	c #1B346C",
"s 	c #F43A32",
"t 	c #FEB5B4",
"u 	c #FE7973",
"v 	c #DD2F27",
"w 	c #C92A27",
"x 	c #AB2427",
"y 	c #791F1C",
"z 	c #6D1F1C",
"A 	c #326BED",
"B 	c #2666F7",
"C 	c #2764E0",
"D 	c #275DCC",
"E 	c #2757B8",
"F 	c #24519B",
"G 	c #1B2C56",
"H 	c #EE3A32",
"I 	c #F82F27",
"J 	c #E12A27",
"K 	c #CD2A27",
"L 	c #B92A27",
"M 	c #9D2427",
"N 	c #571F1C",
"O 	c #2763DC",
"P 	c #24529F",
"Q 	c #1B3A80",
"R 	c #1B2848",
"S 	c #DD2A27",
"T 	c #A12427",
"U 	c #811F1C",
"V 	c #491F1C",
"W 	c #3B5692",
"X 	c #265AC3",
"Y 	c #2456B1",
"Z 	c #1C3B83",
"` 	c #1C305F",
" .	c #933F3C",
"..	c #C32A27",
"+.	c #B22427",
"@.	c #841F1C",
"#.	c #601F1C",
"$.	c #1B3E8E",
"%.	c #8F1F1C",
"&.	c #B9C76A",
"*.	c #E0E958",
"=.	c #DEEC45",
"-.	c #C5D13A",
";.	c #BDC158",
">.	c #AFAE32",
",.	c #C5CE61",
"'.	c #F0F68F",
").	c #F8F988",
"!.	c #FCF655",
"~.	c #ECEA25",
"{.	c #CFD126",
"].	c #F9FCC7",
"^.	c #FBFCD3",
"/.	c #F9FCAB",
"(.	c #EFF225",
"_.	c #D8D625",
":.	c #B9B824",
"<.	c #90981B",
"[.	c #FBFC97",
"}.	c #FBFCDB",
"|.	c #FCF9C5",
"1.	c #B1B326",
"2.	c #898A1B",
"3.	c #EBF231",
"4.	c #FBFCB3",
"5.	c #FAFC71",
"6.	c #D5DB26",
"7.	c #C4C627",
"8.	c #A8A423",
"9.	c #76771A",
"0.	c #6A6B1A",
"a.	c #E5EC31",
"b.	c #F3F625",
"c.	c #DFDD26",
"d.	c #C9CB26",
"e.	c #B6B527",
"f.	c #999224",
"g.	c #53551A",
"h.	c #DBD926",
"i.	c #9D9924",
"j.	c #7D7F1A",
"k.	c #45471A",
"l.	c #90913A",
"m.	c #C1BF26",
"n.	c #AFAA24",
"o.	c #7E821B",
"p.	c #5B5E1B",
"q.	c #888C1B",
"r.	c #C3605A",
"                                                                                                ",
"                                                                                                ",
"    . . . . . . . . . . . . . . . . . . . . . . . . . . . . . . . . . . . . . . . . . . . .     ",
"    . + + + + + + + + + + + + + + + + + + + + + + + + + + + + + + + + + + + + + + + + + + .     ",
"    . + + + + + + + + + + + + + + + + + + + + + + + + + + + + + + + + + + + + + + + + + + .     ",
"    . + + + + + + + + + + + + + + + + + + + + + + + @ # $ % & & + + + + * = - ; > > + + + .     ",
"    . + + + + + + + + + + + + + + + + + + + + + + , ' ) ! ~ { & & + + ] ^ / ( _ : > > + + .     ",
"    . + + + + + + + + + + + + + + + + + + + + + , ) < [ } | 1 2 3 3 ] / 4 5 6 7 8 9 0 0 + .     ",
"    . + + + + + + + + + + + + + + + + + + + + + $ a [ b c ~ { d e e - f 5 g h _ : i j j + .     ",
"    . + + + + + + + + + + + + + + + + + + + + + k ! l < m n o p q r s ( t 4 u v w x y z + .     ",
"    . + + + + + + + + + + + + + + + + + + + + + A B B ~ C D E F r G H I I _ J K L M z N + .     ",
"    . + + + + + + + + + + + + + + + + + + + + + % C C O D E P Q G R ; J J S K L T U N V + .     ",
"    . + + + + + + + + + + + + + + + + + + + + + W X o X Y 3 Z ` R R  ...w ..+.0 @.#.V V + .     ",
"    . + + + + + + + + + + + + + + + + + + + + + + W P 3 $.q ` R R + +  .T 0 %.y #.V V + + .     ",
"    . + + + + + + + + + + + + + + + + + + + + + + + q q ` G R R + + + + y y #.N V V + + + .     ",
"    . + + + * = - ; > > + + + + + + + + + + + + + + &.*.=.-.;.>.+ + + + * = - ; > > + + + .     ",
"    . + + ] ^ / ( _ : > > + + + + + + + + + + + + ,.'.).!.~.{.>.>.+ + ] ^ / ( _ : > > + + .     ",
"    . + ] / 4 5 6 7 8 9 0 0 + + + + + + + + + + ,.).].^./.(._.:.<.<.] / 4 5 6 7 8 9 0 0 + .     ",
"    . + - f 5 g h _ : i j j + + + + + + + + + + =.[.^.}.|.~.{.1.2.2.- f 5 g h _ : i j j + .     ",
"    . + s ( t 4 u v w x y z + + + + + + + + + + 3.!.4.].5.6.7.8.9.0.s ( t 4 u v w x y z + .     ",
"    . + H I I _ J K L M z N + + + + + + + + + + a.b.b.~.c.d.e.f.0.g.H I I _ J K L M z N + .     ",
"    . + ; J J S K L T U N V + + + + + + + + + + -.c.c.h.d.e.i.j.g.k.; J J S K L T U N V + .     ",
"    . +  ...w ..+.0 @.#.V V + + + + + + + + + + l.m.7.m.n.<.o.p.k.k. ...w ..+.0 @.#.V V + .     ",
"    . + +  .T 0 %.y #.V V + + + + + + + + + + + + l.i.<.q.9.p.k.k.+ +  .T 0 %.y #.V V + + .     ",
"    . + + + y y #.N V V + + + + + + + + + + + + + + 9.9.p.g.k.k.+ + + + y y #.N V V + + + .     ",
"    . + + + * = - ; > > + + + + @ # $ % & & + + + + * = - ; r.> + + + + @ # $ % & & + + + .     ",
"    . + + ] ^ / ( _ : > > + + , ' ) ! ~ { & & + + ] ^ / ( _ : > > + + , ' ) ! ~ { & & + + .     ",
"    . + ] / 4 5 6 7 8 9 0 0 , ) < [ } | 1 2 3 3 ] / 4 5 6 7 8 9 0 0 , ) < [ } | 1 2 3 3 + .     ",
"    . + - f 5 g h _ : i j j $ a [ b c ~ { d e e - f 5 g h _ : i j j $ a [ b c ~ { d e e + .     ",
"    . + s ( t 4 u v w x y z k ! l < m n o p q r s ( t 4 u v w x y z k ! l < m n o p q r + .     ",
"    . + H I I _ J K L M z N A B B ~ C D E F r G H I I _ J K L M z N A B B ~ C D E F r G + .     ",
"    . + ; J J S K L T U N V % C C O D E P Q G R ; J J S K L T U N V % C C O D E P Q G R + .     ",
"    . +  ...w ..+.0 @.#.V V W X o X Y 3 Z ` R R  ...w ..+.0 @.#.V V W X o X Y 3 Z ` R R + .     ",
"    . + +  .T 0 %.y #.V V + + W P 3 $.q ` R R + +  .T 0 %.y #.V V + + W P 3 $.q ` R R + + .     ",
"    . + + + y y #.N V V + + + + q q ` G R R + + + + y y #.N V V + + + + q q ` G R R + + + .     ",
"    . + + + @ # $ % & & + + + + @ # $ % & & + + + + &.*.=.-.;.>.+ + + + &.*.=.-.;.>.+ + + .     ",
"    . + + , ' ) ! ~ { & & + + , ' ) ! ~ { & & + + ,.'.).!.~.{.>.>.+ + ,.'.).!.~.{.>.>.+ + .     ",
"    . + , ) < [ } | 1 2 3 3 , ) < [ } | 1 2 3 3 ,.).].^./.(._.:.<.<.,.).].^./.(._.:.<.<.+ .     ",
"    . + $ a [ b c ~ { d e e $ a [ b c ~ { d e e =.[.^.}.|.~.{.1.2.2.=.[.^.}.|.~.{.1.2.2.+ .     ",
"    . + k ! l < m n o p q r k ! l < m n o p q r 3.!.4.].5.6.7.8.9.0.3.!.4.].5.6.7.8.9.0.+ .     ",
"    . + A B B ~ C D E F r G A B B ~ C D E F r G a.b.b.~.c.d.e.f.0.g.a.b.b.~.c.d.e.f.0.g.+ .     ",
"    . + % C C O D E P Q G R % C C O D E P Q G R -.c.c.h.d.e.i.j.g.k.-.c.c.h.d.e.i.j.g.k.+ .     ",
"    . + W X o X Y 3 Z ` R R W X o X Y 3 Z ` R R l.m.7.m.n.<.o.p.k.k.l.m.7.m.n.<.o.p.k.k.+ .     ",
"    . + + W P 3 $.q ` R R + + W P 3 $.q ` R R + + l.i.<.q.9.p.k.k.+ + l.i.<.q.9.p.k.k.+ + .     ",
"    . + + + q q ` G R R + + + + q q ` G R R + + + + 9.9.p.g.k.k.+ + + + 9.9.p.g.k.k.+ + + .     ",
"    . . . . . . . . . . . . . . . . . . . . . . . . . . . . . . . . . . . . . . . . . . . .     ",
"                                                                                                ",
"                                                                                                "};
