/* XPM */
/* Drawn  by Nico Shirwing for the K Desktop Environment */
/* See http://www.kde.org */
static char*ksame[]={
"16 16 12 1",
"# c #585858",
"d c #800000",
"g c #000080",
"j c #808000",
"e c #c00000",
"a c #0000c0",
"h c #c0c000",
"b c #ff0000",
"f c #ffc0c0",
"c c #c0c0ff",
"i c #ffffc0",
". c #000000",
"................",
".########a##bb#.",
".#######aacdefb.",
".#######aaadeeb.",
".########g##dd#.",
".bfb####hih#ff#.",
".eef####hhideeb.",
".ded####jhj#ee#.",
".#b##aa##b##aa#.",
".eefgacaeefgaca.",
".eeegaaaeeegaaa.",
".#d##gg##d##gg#.",
".aca#cc#hih#ii#.",
".aacgaaahhijhhh.",
".gag#aa#jhj#hh#.",
"................"};

