/* XPM */
static char * korn_xpm[] = {
"34 34 181 2",
"  	c None",
". 	c #000000",
"+ 	c #BFBFBF",
"@ 	c #F2F2F2",
"# 	c #D7D7D7",
"$ 	c #CECECE",
"% 	c #C4C4C4",
"& 	c #C2C2C2",
"* 	c #C0C0C0",
"= 	c #F6F6F6",
"- 	c #ECECEC",
"; 	c #DFDFDF",
"> 	c #D6D6D6",
", 	c #D1D1D1",
"' 	c #C9C9C9",
") 	c #C8C8C8",
"! 	c #BFC2C2",
"~ 	c #F9F9F9",
"{ 	c #FDFDFD",
"] 	c #F7F7F7",
"^ 	c #F0F0F0",
"/ 	c #E9E9E9",
"( 	c #E2E2E2",
"_ 	c #CFCFCF",
": 	c #CCCCCC",
"< 	c #C2CDCD",
"[ 	c #FA7A7A",
"} 	c #940909",
"| 	c #AD6666",
"1 	c #FAFAFA",
"2 	c #FBFBFB",
"3 	c #FEFEFE",
"4 	c #E0E0E0",
"5 	c #D8D8D8",
"6 	c #CADADA",
"7 	c #F76F6F",
"8 	c #F56767",
"9 	c #F25F5F",
"0 	c #E7E7E7",
"a 	c #EEEEEE",
"b 	c #F5F5F5",
"c 	c #FCFCFC",
"d 	c #EFEFEF",
"e 	c #E8E8E8",
"f 	c #DDEEEE",
"g 	c #F46464",
"h 	c #F25C5C",
"i 	c #EF5555",
"j 	c #ED4D4D",
"k 	c #C1C5C5",
"l 	c #C3C3C3",
"m 	c #CDCDCD",
"n 	c #E6E6E6",
"o 	c #EDEDED",
"p 	c #F4F4F4",
"q 	c #EFF8F8",
"r 	c #EF5252",
"s 	c #EC4A4A",
"t 	c #EA4242",
"u 	c #C2C8C8",
"v 	c #C6C6C6",
"w 	c #CBCBCB",
"x 	c #DEDEDE",
"y 	c #FBFDFD",
"z 	c #F5FAFA",
"A 	c #E73737",
"B 	c #910909",
"C 	c #CFD4D4",
"D 	c #C1C1C1",
"E 	c #CACACA",
"F 	c #C7C7C7",
"G 	c #FCFEFE",
"H 	c #F5F9F9",
"I 	c #8E0808",
"J 	c #DED8D8",
"K 	c #D2D2D2",
"L 	c #BBBBBB",
"M 	c #A8A8A8",
"N 	c #4F4F4F",
"O 	c #3C3C3C",
"P 	c #464646",
"Q 	c #474747",
"R 	c #737373",
"S 	c #DBDBDB",
"T 	c #8C0707",
"U 	c #E0DADA",
"V 	c #E5E5E5",
"W 	c #636363",
"X 	c #747475",
"Y 	c #4C4C4C",
"Z 	c #505050",
"` 	c #575757",
" .	c #585857",
"..	c #890606",
"+.	c #CCD2D2",
"@.	c #8F8F90",
"#.	c #999999",
"$.	c #A0A0A1",
"%.	c #9A9A9D",
"&.	c #848485",
"*.	c #5B5B5B",
"=.	c #535353",
"-.	c #5D5D5D",
";.	c #C5C5C5",
">.	c #BCBCBC",
",.	c #860505",
"'.	c #BAC0C0",
").	c #9F9FA1",
"!.	c #9F9FA2",
"~.	c #A2A2A8",
"{.	c #A4A4A9",
"].	c #9E9EA0",
"^.	c #AFAFAF",
"/.	c #6E6E6E",
"(.	c #616161",
"_.	c #606060",
":.	c #840404",
"<.	c #727272",
"[.	c #A3A3A4",
"}.	c #A1A1A7",
"|.	c #9F9FA3",
"1.	c #A3A3A9",
"2.	c #8E8E90",
"3.	c #676767",
"4.	c #898989",
"5.	c #B2B2B2",
"6.	c #810404",
"7.	c #BABABB",
"8.	c #666667",
"9.	c #666666",
"0.	c #979797",
"a.	c #7E0303",
"b.	c #B1B1B2",
"c.	c #A1A1A4",
"d.	c #7F7F7F",
"e.	c #8B8B8B",
"f.	c #EBEBEB",
"g.	c #3E3E3E",
"h.	c #565656",
"i.	c #7B0202",
"j.	c #A2A2A2",
"k.	c #808080",
"l.	c #B5B5B5",
"m.	c #2B2B2B",
"n.	c #9A9A9A",
"o.	c #790101",
"p.	c #8C8C8C",
"q.	c #272727",
"r.	c #404040",
"s.	c #5A5A5A",
"t.	c #BEBEBE",
"u.	c #760000",
"v.	c #BBBBBA",
"w.	c #DCDCDC",
"x.	c #2F2F2F",
"y.	c #484848",
"z.	c #730000",
"A.	c #515151",
"B.	c #9D9DA0",
"C.	c #A6A6A6",
"D.	c #363636",
"E.	c #4D4D4D",
"F.	c #595959",
"G.	c #740000",
"H.	c #909090",
"I.	c #383838",
"J.	c #525252",
"K.	c #AF8383",
"L.	c #B1B1B3",
"M.	c #494949",
"N.	c #757575",
"O.	c #7B7B7B",
"P.	c #656565",
"Q.	c #444444",
"R.	c #585858",
"S.	c #545454",
"T.	c #6B6B6B",
"U.	c #858585",
"V.	c #787878",
"W.	c #868686",
"X.	c #5C5C5C",
"                                                                    ",
"                                                                    ",
"                                                                    ",
"                . . . .                                             ",
"            . . + + + + . . .                                       ",
"          . @ # $ % & * + + + . .                                   ",
"        . = - ; > , ' ) * ! + + + . .                               ",
"      . ~ { ] ^ / ( > _ : < [ } | + + . .                           ",
"    . 1 = 2 3 2 = ^ / 4 5 6 7 8 9 } | + + . .                       ",
"    . 0 0 a b 2 { c b d e f g h i j } k l + + . .                   ",
"  . m # # 4 n o p 1 3 c = q h r s t } u & * % + + . .               ",
"  . v w m # # x e a b 2 3 y z : h A B C ' ) + D E + + . .           ",
"  . F * l w w # # ; n o p 1 { G H A I J 5 _ K L M N O P Q . R       ",
"  . F * * * l w w # # x e a b S / A T U V V : W W X N Y Z ` .  .    ",
"  . v * * * * * * w m # # x 0 : S A ..+.; d W @.#.$.%.&.*.=.-..     ",
"  . ;.* * * * * * * * w w # # : >.A ,.'.( : W ).!.~.{.].^./.(.. _.  ",
"  . ;.* * * * * * * * * * w w # >.A :.* b <.[.}.|.1.2.3.4.; 5.N .   ",
"  . ;.* * * * * * D * + * * * w w A 6.^.7.W ~.~.~.~.8.9.0.3 , N .   ",
"  . v * * * * * * * * * * * * % D A a.^.b.W ~.~.~.c.d.e.f.> g.h..   ",
"  . * * * * * * * * * * * * * * * A i.j.W ~.~.k.~.m o 3 3 l.m.` .   ",
"  . n.* * * * * * * * * * * * * * A o.j.W k.|.|.p.k.f.3 0 q.r.s..   ",
"    . . n.* * * * t.* * * * * * * A u.j._.|.p.k.v.w.3 3 l.x.y.s..   ",
"        . . n.* * * * * * * * * * A z.j.A.k.B.B.C.= 3 , N D.E.F..   ",
"            . . n.* * * % * * * * A G.j.A.|.H.k./ 3 3 l.I.D.J.F..   ",
"                . . n.* * * * * * A K.* A.n.+ L.L.3 / Z M.-.N.` .   ",
"                    . . n.* * * * ^.j.* A.y.O./ 3 3 l.M.P.d.d..     ",
"                        . . n.* * * * * Q.A.R.P.& K <.P.d.. .       ",
"                            . . n.* * * Q.S.T./.d.U.d.. .           ",
"                                . . n.* Q.T.V.p.W.. .               ",
"                                    . . Q.X.d.. .                   ",
"                                        . . .                       ",
"                                                                    ",
"                                                                    ",
"                                                                    "};
