/* XPM */
static char * large_korn_xpm[] = {
"48 48 211 2",
"  	c None",
". 	c #000000",
"+ 	c #080808",
"@ 	c #070707",
"# 	c #BFBFBF",
"$ 	c #191919",
"% 	c #D2D2D2",
"& 	c #C9C9C9",
"* 	c #E2E2E2",
"= 	c #DCDCDC",
"- 	c #010101",
"; 	c #F0F0F0",
"> 	c #EBEBEB",
", 	c #E7E7E7",
"' 	c #C0C0C0",
") 	c #FEFEFE",
"! 	c #F9F9F9",
"~ 	c #F4F4F4",
"{ 	c #FB7A7A",
"] 	c #980B0B",
"^ 	c #D18989",
"/ 	c #F2F2F2",
"( 	c #F7F7F7",
"_ 	c #FBFBFB",
": 	c #F77070",
"< 	c #F66969",
"[ 	c #F46363",
"} 	c #970B0B",
"| 	c #E5E5E5",
"1 	c #E9E9E9",
"2 	c #EEEEEE",
"3 	c #F56666",
"4 	c #F36262",
"5 	c #F25959",
"6 	c #F15454",
"7 	c #EF4E4E",
"8 	c #950A0A",
"9 	c #940A0A",
"0 	c #101010",
"a 	c #090909",
"b 	c #CBCBCB",
"c 	c #D7D7D7",
"d 	c #E1E1E1",
"e 	c #F25B5B",
"f 	c #F05555",
"g 	c #EF5050",
"h 	c #ED4A4A",
"i 	c #EB4444",
"j 	c #E93E3E",
"k 	c #920909",
"l 	c #BABABA",
"m 	c #F05353",
"n 	c #EE4B4B",
"o 	c #EC4545",
"p 	c #EA4141",
"q 	c #E93A3A",
"r 	c #E73838",
"s 	c #900909",
"t 	c #BEBEBE",
"u 	c #1F1F20",
"v 	c #E89999",
"w 	c #E93C3C",
"x 	c #8E0808",
"y 	c #2B2B2C",
"z 	c #CDCDCD",
"A 	c #8C0707",
"B 	c #040404",
"C 	c #030303",
"D 	c #C1C1C1",
"E 	c #C3C3C3",
"F 	c #8A0707",
"G 	c #797979",
"H 	c #444444",
"I 	c #9A9A9A",
"J 	c #DBDBDB",
"K 	c #880606",
"L 	c #636363",
"M 	c #4C4C4C",
"N 	c #4F4F4F",
"O 	c #D5D5D5",
"P 	c #717171",
"Q 	c #BCBCBC",
"R 	c #CCCCCC",
"S 	c #850505",
"T 	c #858586",
"U 	c #8E8E8E",
"V 	c #939393",
"W 	c #919192",
"X 	c #515151",
"Y 	c #575757",
"Z 	c #E6E6E6",
"` 	c #9D9D9D",
" .	c #CFCFCF",
"..	c #8F8F8F",
"+.	c #830404",
"@.	c #999999",
"#.	c #9D9DA0",
"$.	c #595959",
"%.	c #585858",
"&.	c #EFEFEF",
"*.	c #A7A7A7",
"=.	c #828282",
"-.	c #F1F1F1",
";.	c #C2C2C2",
">.	c #CECECE",
",.	c #C4C4C4",
"'.	c #AFAFAF",
").	c #810404",
"!.	c #E3E3E3",
"~.	c #9F9FA3",
"{.	c #A1A1A2",
"].	c #B1B1B1",
"^.	c #5F5F5F",
"/.	c #C5C5C5",
"(.	c #BDBDBD",
"_.	c #7F0303",
":.	c #7F7F7F",
"<.	c #9D9D9E",
"[.	c #A4A4A4",
"}.	c #9C9C9C",
"|.	c #5C5C5C",
"1.	c #B8B8B8",
"2.	c #858585",
"3.	c #7C7C7C",
"4.	c #7D0202",
"5.	c #666666",
"6.	c #5E5E5E",
"7.	c #979797",
"8.	c #929292",
"9.	c #B3B3B3",
"0.	c #BBBBBB",
"a.	c #B9B9B9",
"b.	c #7B0202",
"c.	c #969699",
"d.	c #6E6E6E",
"e.	c #353535",
"f.	c #D6D6D6",
"g.	c #959595",
"h.	c #8D8D8D",
"i.	c #C6C6C6",
"j.	c #DEDEDE",
"k.	c #790101",
"l.	c #9E9EA1",
"m.	c #AEAEAE",
"n.	c #FCFCFC",
"o.	c #B5B5B5",
"p.	c #E8E8E8",
"q.	c #A5A5A5",
"r.	c #686868",
"s.	c #770000",
"t.	c #EAEAEA",
"u.	c #F3F3F3",
"v.	c #740000",
"w.	c #B0B0B0",
"x.	c #A1A1A5",
"y.	c #D1D1D1",
"z.	c #A2A2A2",
"A.	c #ABABAB",
"B.	c #848484",
"C.	c #949494",
"D.	c #707070",
"E.	c #959598",
"F.	c #8C8C8C",
"G.	c #D3D3D3",
"H.	c #4A4A4A",
"I.	c #0B0B0B",
"J.	c #B6B6B6",
"K.	c #808080",
"L.	c #A3A3A3",
"M.	c #0E0E0E",
"N.	c #D0D0D0",
"O.	c #646464",
"P.	c #9C9C9F",
"Q.	c #B4B4B4",
"R.	c #474747",
"S.	c #121212",
"T.	c #A5A5A8",
"U.	c #929295",
"V.	c #818181",
"W.	c #A1A1A1",
"X.	c #151515",
"Y.	c #989899",
"Z.	c #ACACAC",
"`.	c #AF8383",
" +	c #D8D8D9",
".+	c #FAFAFA",
"++	c #9F9F9F",
"@+	c #484848",
"#+	c #1D1D1D",
"$+	c #606060",
"%+	c #B3B3B4",
"&+	c #A9A9AD",
"*+	c #E7E7E8",
"=+	c #FDFDFD",
"-+	c #222222",
";+	c #B7B7B7",
">+	c #6A6A6A",
",+	c #EDEDED",
"'+	c #616161",
")+	c #262626",
"!+	c #ADADAD",
"~+	c #747474",
"{+	c #2A2A2A",
"]+	c #565656",
"^+	c #303030",
"/+	c #545454",
"(+	c #7B7B7B",
"_+	c #7A7A7A",
":+	c #626262",
"<+	c #6B6B6B",
"[+	c #727272",
"                                                                                                ",
"                                                                                                ",
"                                                                                                ",
"                                                                                                ",
"                                                                                                ",
"                    . + + + + + @ @                                                             ",
"                . . # # # # # # # # . . .                                                       ",
"              $ % % & & & # # # # # # # # . .                                                   ",
"            $ % * = % % & & & # # # # # # # # . .                                               ",
"          - ; ; > , * = % % & & & ' # # # # # # # . .                                           ",
"        @ ; ) ! ~ ; > , * = % % & & & # { ] ] ^ # # # . .                                       ",
"      . % / ( _ ) ! ~ ; > , * = % % & & : < [ ] } ^ ' # # . .                                   ",
"      . | 1 2 / ( _ ) ! ~ ; > , * = % % 3 4 5 6 7 8 9 ' # # # 0 a                               ",
"    . b c d | 1 2 / ( _ ) ! ~ ; > , * = e f g h i j k ' ' l # # # . .                           ",
"    . b b c c d | 1 2 / ( _ ) ! ~ ; > , m n o p q r s # # t # # # # # u .                       ",
"    . ' b b b c c d | 1 2 / ( _ ) ! ~ ; > v w r r r x & & # # # # # # # # y .                   ",
"    . ' ' ' z b b c c d | 1 2 / ( _ ) ! ~ ; > v r r A % & & & # # # # ' ' ' ' B C               ",
"    . ' D ' E ' b b b c c d | 1 2 / ( _ ) ! ~ ; > r F = % % & & & # ' G H H H H H . .           ",
"    . ' ' I l ' ' ' b b b c c d | 1 2 / ( _ ) 1 J r K , * = % % & L L M M M M M M N N .         ",
"    . ' ' O P Q ' ' # ' b b b c c d | 1 2 / 1 J R r S J J , * = L T U V W N N N N X Y Y .       ",
"    . ' ' Z X `  ...' # # ' b b b c c d | 1 J R Q r +.R J J > L T V V @.@.#.` $.%.Y Y Y .       ",
"    . ' ' &.*.=.-.c P # # # E ;.b b b c c J >.,.'.r ).Q R !.~ L V @.@.~.~.~.~.{.` Y Y Y Y .     ",
"    . ' ' / ].X Z * ^.# # # # # # # b b b /.J (.'.r _.Q J _ L @.@.~.~.~.~.~.:.<.[.}.}.|.Y .     ",
"    . ' ' / 1.2.l ) X # # :.3.# # # # # b b b c J r 4.Q !./ L @.~.~.~.~.~.:.5.6.7.) ! 8.Y .     ",
"    . ' ' / 9.}.l ) H # > 0.I a.# # # # # # b b b r b.'.| T @.~.~.~.~.~.c.5.6.d.7.) b e.Y .     ",
"    . ' ' &.2.Z *.) H # f.g.b h.i.j.P # # # # # b r k.'.c T l.l.~.~.~.~.:.6.d.m.* n.o.e.Y .     ",
"    . ' D j.X p.3.) X # q.|.Z r././ ^.# Q # # # # r s.}.b 3.~.~.~.~.~.~.1.[.:.f._ t.e.e.Y .     ",
"    . ' ' # # (.X u.^.f.l X ) X /./ X t j.P # # # r v.}.w.3.~.~.2.x.~.# y.) ) ) -.o.e.e.Y .     ",
"    . ;.' ' ' # ' E P z.) A.) B.# ) H Q u.^.# # ' r v.C.w.D.~.~.E.F.2.w.y.) ) ) G.e.e.H.Y .     ",
"    . I.I D ' ' ' # # l X 0.J.'.K.) H (./ X # # # r v.C.w.D.2.~.~.~.L.F.2.) ) > 9.e.e.H.Y .     ",
"        . M.I D ' # # # # # N.) O.) X (.) H # # # r v.C.w.r.~.F.2.P.Q.= Q.) ) y.R.e.e.Y Y .     ",
"            . S.I ' ' ' # # # # X u.^.t ) H # # # r v.C.w.r.T.T.U.F.V.= ) ) ) W.R.e.e.Y Y .     ",
"                . X.I ' ' # # # # > P t ) X # # # r v.C.w.L 2.2.Y.a., ) ) n.N.e.e.e.H.Y Y .     ",
"                    . $ I ' ' ' ' # Z.# -.^.9.# # r `.z.w.L W.W.2.2. +) ) .+++@+H e.H.Y Y .     ",
"                        . #+I ' ' # # # c ) B.B.0.'.z.w.# $+l l %+&+&+*+=+-.5.H.H.X K.Y Y .     ",
"                            . -+I ' ' ' # # ;+) >+# w.w.# $+@+z.z.) ) ) ,+0.'+H.X %.K.:.:..     ",
"                                . )+I ' ' ' ' D !+# ' # # |.@+X %.z.z.| c ~+H.%.K.:.K.. .       ",
"                                    . {+I ' ' ' ' # # # # |.X %.'+'+'+;.1.L ]+:.K.. .           ",
"                                        . ^+I ' ' # # # # X /+|.O.O.:.(+_+~+K.. .               ",
"                                            . e.@.,.' ' (.X :+<+<+:.:.:.:.. .                   ",
"                                                . . I ' ' H r.[+K.:.:.. .                       ",
"                                                    . . # H [+K.:.. .                           ",
"                                                        . . . . .                               ",
"                                                                                                ",
"                                                                                                ",
"                                                                                                ",
"                                                                                                ",
"                                                                                                "};
