/* XPM */
static char * kedit_xpm[] = {
"32 32 148 2",
"  	c None",
". 	c #000000",
"+ 	c #39CC3B",
"@ 	c #01BE03",
"# 	c #3FC03B",
"$ 	c #3CC53B",
"% 	c #02BC03",
"& 	c #020204",
"* 	c #46AF3B",
"= 	c #44B63B",
"- 	c #0CA803",
"; 	c #08AF03",
"> 	c #05B603",
", 	c #02BD03",
"' 	c #D88D4B",
") 	c #DFC19D",
"! 	c #D69D7C",
"~ 	c #4CA53B",
"{ 	c #159303",
"] 	c #129A03",
"^ 	c #0FA103",
"/ 	c #0BA803",
"( 	c #FE7E04",
"_ 	c #FEBA84",
": 	c #F7984F",
"< 	c #FEE2D4",
"[ 	c #4EA13B",
"} 	c #188D03",
"| 	c #159403",
"1 	c #129B03",
"2 	c #0EA203",
"3 	c #0BA903",
"4 	c #08B003",
"5 	c #04B703",
"6 	c #FE8205",
"7 	c #FEDEAC",
"8 	c #F36F07",
"9 	c #CC6E2C",
"0 	c #B58369",
"a 	c #53963B",
"b 	c #1F7F03",
"c 	c #1B8603",
"d 	c #119C03",
"e 	c #0EA303",
"f 	c #0BAA03",
"g 	c #07B103",
"h 	c #04B803",
"i 	c #FE8611",
"j 	c #E27A04",
"k 	c #8E4204",
"l 	c #55913B",
"m 	c #227903",
"n 	c #1E8003",
"o 	c #1B8703",
"p 	c #188E03",
"q 	c #149503",
"r 	c #0AAA03",
"s 	c #863E04",
"t 	c #5A863B",
"u 	c #286B03",
"v 	c #257303",
"w 	c #217A03",
"x 	c #1E8103",
"y 	c #1B8803",
"z 	c #178F03",
"A 	c #149603",
"B 	c #119D03",
"C 	c #0DA403",
"D 	c #E67E04",
"E 	c #5C813B",
"F 	c #2B6503",
"G 	c #286C03",
"H 	c #247303",
"I 	c #1A8803",
"J 	c #179003",
"K 	c #149703",
"L 	c #109E03",
"M 	c #62773B",
"N 	c #315803",
"O 	c #2E5F03",
"P 	c #2B6603",
"Q 	c #276D03",
"R 	c #247403",
"S 	c #217B03",
"T 	c #1D8203",
"U 	c #1A8903",
"V 	c #FA7604",
"W 	c #EA7A04",
"X 	c #7A3604",
"Y 	c #64723B",
"Z 	c #345103",
"` 	c #2A6703",
" .	c #276E03",
"..	c #247503",
"+.	c #207C03",
"@.	c #C0C0C0",
"#.	c #6A2E04",
"$.	c #FABE84",
"%.	c #F67614",
"&.	c #E27204",
"*.	c #924604",
"=.	c #68683B",
"-.	c #3B4403",
";.	c #374B03",
">.	c #345203",
",.	c #315903",
"'.	c #2D6003",
").	c #FFFFFF",
"!.	c #C29A84",
"~.	c #FACEB4",
"{.	c #E66E04",
"].	c #8A4204",
"^.	c #3D3D03",
"/.	c #3A4503",
"(.	c #374C03",
"_.	c #345303",
":.	c #000080",
"<.	c #B76E50",
"[.	c #F6CEB4",
"}.	c #FEDEC4",
"|.	c #EA8E54",
"1.	c #D2763C",
"2.	c #823A04",
"3.	c #3D3E03",
"4.	c #F6DECC",
"5.	c #E6AE8C",
"6.	c #BA765C",
"7.	c #86523C",
"8.	c #52261C",
"9.	c #0000FF",
"0.	c #7F4F48",
"a.	c #EECABC",
"b.	c #EAB694",
"c.	c #B26A4C",
"d.	c #76422C",
"e.	c #76463C",
"f.	c #46423C",
"g.	c #725E4C",
"h.	c #824A3C",
"i.	c #585858",
"j.	c #BEBEBC",
"k.	c #DEDEDC",
"l.	c #808080",
"m.	c #D2D2D4",
"n.	c #004040",
"o.	c #027E04",
"p.	c #004000",
"q.	c #008000",
"                                    . . .                       ",
"                                . . + + .                       ",
"                            . . + + @ @ .                       ",
"                        . . + + @ @ @ .                         ",
"                    . . + + @ @ @ @ @ .                         ",
"                . . # $ % @ @ @ @ @ .                 & & &     ",
"              . * = - ; > , @ @ @ @ .               & ' ) ! &   ",
"            . ~ { ] ^ / ; > @ @ @ .               & ( _ : < ! & ",
"            . [ } | 1 2 3 4 5 @ @ .             & 6 _ 7 8 9 0 & ",
"          . a b c } | d e f g h .             & 6 _ 7 i j k &   ",
"          . l m n o p q d e r g .           & 6 _ 7 i j s &     ",
"        . t u v w x y z A B C .           & ( _ 7 ( D s &       ",
"        . E F G H w x I J K L .         & 6 _ 7 6 D k &         ",
"      . M N O P Q R S T U J . . .     & ( _ 7 V W X &           ",
"      . Y Z N O `  ...+.. . @.@.@.. #.6 _ $.%.&.*.&             ",
"    . =.-.;.>.,.'.` . . @.@.@.).).).!.~.$.V {.].&               ",
"    . =.^./.(._.. . @.@.:.@.@.).).<.[.}.|.1.2.&                 ",
"  . =.^.^.3.. . @.@.@.:.:.:.).).).!.4.5.6.7.8.. .               ",
"  . =.^.. . @.@.@.@.@.:.@.:.).9.0.a.b.c.d.e.).).@.. .           ",
". =.. . @.@.@.@.@.@.:.:.@.:.9.9.f.g.h.e.).).).).).).@.. .       ",
". . @.@.@.@.@.@.@.@.:.@.@.9.9.).& f.).).).).).).).).).).@.. .   ",
". . i.i.@.@.@.@.@.:.:.@.).).).).j.k.).).).).).).).).@.i.i..     ",
". i.l.l.i.i.@.@.@.:.@.@.).).).k.j.m.k.).).).).).@.i.i.@.@.. .   ",
". . i.i.l.l.i.i.@.@.@.).).).).k.j.j.m.k.).).@.i.i.@.@.i.i..     ",
". . n.n.i.i.l.l.i.i.@.).).).k.m.j.j.@.m.k.i.i.@.@.i.i.o.o.. .   ",
"    . . n.n.i.i.l.l.i.i.).).k.m.j.j.@.i.i.l.@.i.i.o.o.. .       ",
"        . . n.n.i.i.l.@.i.i.m.j.@.i.i.l.l.i.i.o.o.. .           ",
"            . . n.n.i.i.@.@.i.i.i.l.l.i.i.p.p.. .               ",
"                . . n.o.i.i.l.l.l.i.i.p.p.. .                   ",
"                    . . o.o.i.i.i.p.p.. .                       ",
"                        . . o.o.q.. .                           ",
"                            . . .                               "};
