/* XPM */
static char * large_kedit_xpm[] = {
"48 48 142 2",
"  	c None",
". 	c #020204",
"+ 	c #62D664",
"@ 	c #62D264",
"# 	c #52CA54",
"$ 	c #02BE04",
"% 	c #66CE64",
"& 	c #62CA64",
"* 	c #4EC64C",
"= 	c #66C264",
"- 	c #56BE4C",
"; 	c #0AAA04",
"> 	c #0AAE04",
", 	c #06B604",
"' 	c #02BA04",
") 	c #6ABA5C",
"! 	c #129A04",
"~ 	c #0EA204",
"{ 	c #0AA604",
"] 	c #06B204",
"^ 	c #62B254",
"/ 	c #168E04",
"( 	c #129604",
"_ 	c #0E9E04",
": 	c #DA8E4C",
"< 	c #F6C2A4",
"[ 	c #D69E7C",
"} 	c #66A654",
"| 	c #1A8604",
"1 	c #169204",
"2 	c #EE9A54",
"3 	c #EEAE7C",
"4 	c #F6A254",
"5 	c #FEE2D4",
"6 	c #1E8204",
"7 	c #FEAA5C",
"8 	c #F6B684",
"9 	c #FEDEAC",
"0 	c #E66A04",
"a 	c #6A9E54",
"b 	c #227E04",
"c 	c #FEBA84",
"d 	c #EE7204",
"e 	c #CE7244",
"f 	c #B6826C",
"g 	c #227604",
"h 	c #227A04",
"i 	c #1A8A04",
"j 	c #FA7A04",
"k 	c #F27604",
"l 	c #9A4604",
"m 	c #662E04",
"n 	c #6E9654",
"o 	c #266E04",
"p 	c #267204",
"q 	c #FE7E04",
"r 	c #FE8204",
"s 	c #7A3604",
"t 	c #2A6A04",
"u 	c #129E04",
"v 	c #728E54",
"w 	c #2E5E04",
"x 	c #2A6604",
"y 	c #169604",
"z 	c #325A04",
"A 	c #2E6204",
"B 	c #728A54",
"C 	c #365204",
"D 	c #3A4E04",
"E 	c #325604",
"F 	c #FA7E04",
"G 	c #7A7A54",
"H 	c #3A4604",
"I 	c #3A4A04",
"J 	c #1E8604",
"K 	c #F67A04",
"L 	c #3E4204",
"M 	c #024244",
"N 	c #3E3E04",
"O 	c #5A5A5C",
"P 	c #BEBEBC",
"Q 	c #FABE84",
"R 	c #D2D2D4",
"S 	c #FEFEFC",
"T 	c #BABABC",
"U 	c #6A2E04",
"V 	c #FEDACC",
"W 	c #EA6E04",
"X 	c #B6766C",
"Y 	c #FACEB4",
"Z 	c #EE8A34",
"` 	c #3939A0",
" .	c #2E2E8C",
"..	c #5050AA",
"+.	c #D2D2E4",
"@.	c #FAFAFC",
"#.	c #E2E2FC",
"$.	c #C6C6E4",
"%.	c #6E3E24",
"&.	c #FFE2D3",
"*.	c #4E2204",
"=.	c #061E04",
"-.	c #AEAEBC",
";.	c #6A6AA4",
">.	c #9A9AB4",
",.	c #020284",
"'.	c #8E8EFC",
").	c #FAD6C4",
"!.	c #D2926E",
"~.	c #B66E54",
"{.	c #925A3C",
"].	c #022A04",
"^.	c #C2C2C4",
"/.	c #7F7FE0",
"(.	c #7A4A3C",
"_.	c #8A8AAC",
":.	c #6262A4",
"<.	c #9E9EC4",
"[.	c #B69284",
"}.	c #D2926C",
"|.	c #723B1F",
"1.	c #5E2702",
"2.	c #A6A6B4",
"3.	c #6E6EA4",
"4.	c #060684",
"5.	c #C6C6C4",
"6.	c #AEAED4",
"7.	c #827A64",
"8.	c #4E4A3C",
"9.	c #828284",
"0.	c #E2E2E4",
"a.	c #3E3A2C",
"b.	c #DEDEDC",
"c.	c #F6F6F4",
"d.	c #027E04",
"e.	c #021214",
"f.	c #021E1C",
"g.	c #A6A6A4",
"h.	c #020E04",
"i.	c #021A1C",
"j.	c #020E0C",
"k.	c #021604",
"                                                                                                ",
"                                                                                                ",
"                                                            . . .                               ",
"                                                      . . . + + .                               ",
"                                                . . . + @ # $ .                                 ",
"                                          . . . + @ # $ $ $ $ .                                 ",
"                                    . . . + @ # $ $ $ $ $ $ .                                   ",
"                              . . . % & * $ $ $ $ $ $ $ $ $ .                                   ",
"                          . . = = - ; > , ' $ $ $ $ $ $ $ .                                     ",
"                        . ) ) ! ! ~ { > > ] ' $ $ $ $ $ $ .                     . . .           ",
"                        . ^ / ( ! _ ~ ; > ] , $ $ $ $ $ .                     . : < [ .         ",
"                      . } | / 1 ( ! _ ~ { > ] , $ $ $ $ .                   . 2 3 4 5 < .       ",
"                      . } 6 | / 1 ( ! ~ ~ ; > ] ' $ $ .                   . 7 8 9 0 4 5 [ .     ",
"                    . a b 6 | | / 1 ( ! _ ~ ; > ] ' $ .                 . 7 c 9 d d 0 e f .     ",
"                    . a g h 6 | i / 1 ! ! _ { { ; ] .                 . 7 c 9 j j k l m .       ",
"                  . n o p g h b | i / 1 ! _ _ { ; > .               . 7 c 9 q r j l s .         ",
"                  . n t o g g h 6 | i / 1 ( u ~ { .               . 7 c 9 r q q l s .           ",
"                . v w x t o g h h b 6 i / y ( ! _ .             . 7 c 9 r r q l s .             ",
"                . v z A x t o p h b 6 | i / 1 ! .             . 7 c 9 q r q l s .               ",
"              . B C z w A x t p p h h b | / 1 1 .           . 7 c 9 q r q l s .                 ",
"              . B D C E z A x o o g h h 6 | / .           . 7 c 9 F F r l s .                   ",
"            . G H I C E z w A x t o g h h 6 J .         . 7 c 9 K K F l s .                     ",
"            . G L H I C E E w A t t p g g M .         . 2 8 9 d k K l s .                       ",
"          . G N N L I I D E z w A x M . . O P . .   . : 3 Q d d k l s .                         ",
"          . G L L N L I D C E M . . O P P R S S T U < V 4 W d d l s .                           ",
"        . G L N N N L L M . . O P P P P R S S S S X 5 Y Z 0 0 l s .                             ",
"        . G N N N M . . O P P P P `  ...+.@.#.$.%.&.Y < [ 0 l m *.                              ",
"      . G N M =.. O P P P P P -.` ;.>.,.$.$.'.'.X ).< !.~.{.m *.O                               ",
"      ].. . O P P P P ^.^.P P ..,.;.>.,.$./.` %.&.Y !.~.{.(.U S T . .                           ",
"      . P P P ^.^.^.^.P P ^._.,.:.>.<.` /.` $.~.[.}.~.{.|.1.S S S S T . .                       ",
"    . O ^.^.P P P P ^.^.P 2.3.4.-.5.6./.` $.S 7.8.{.|.1.S S S S S S S S T . .                   ",
"    . 9.O O ^.^.P ^.P P ^...,.;.P 0.S S S S S . a.U S S S S S S S S S S @.S T . .               ",
"    . O 7.9.O O P ^.^.P P  ...P R 0.S S S S b.P R c.S S S S S S S S S S S S S S P . .           ",
"    . 9.O O 9.9.O O P ^.^.3.P ^.0.S S S S c.b.^.P b.S S S S S S S S S S S S S S S S P .         ",
"    . d.d.9.8.O 9.9.O O ^.^.P R 0.@.S S S b.R P P b.c.S S S S S S S S S S S S ^.O O .           ",
"      . d.d.d.9.8.O 9.9.O O ^.0.S @.S S c.0.P P P R b.S S S S S S S S S P O O O P P P .         ",
"        . e.d.d.d.9.8.O 9.9.O O P S S S b.R P P P P 0.c.@.S S S S ^.O O O T P P O O .           ",
"            . f.d.d.d.9.8.O g.P O O P c.b.P P P P P R b.c.@.b.O O O P P P O O O P P d..         ",
"                . . d.d.d.9.O O T ^.O O ^.P P P P P P b.O O O T P P O O O P P d.d.d.d..         ",
"                    . h.d.d.d.P O O P P O O P P P O O O P P P O O O P P d.d.d.d.. . .           ",
"                        . i.d.d.d.P O O T P O O O P P ^.O O O P P d.d.d.d.. . .                 ",
"                            . j.d.d.d.P O O P P P O O O P P d.d.d.d.. . .                       ",
"                                . . d.d.d.^.O O O P P d.d.d.d.. . .                             ",
"                                    h.k.d.d.d.P d.d.d.d.. . .                                   ",
"                                        . . d.d.d.k.. .                                         ",
"                                            . . .                                               ",
"                                                                                                ",
"                                                                                                "};
