/* XPM */
/* Drawn for the K Desktop Environment */
/* See http://www.kde.org */
static char*kedit[]={
"16 16 11 1",
"f c #808080",
"a c #008000",
". c None",
"b c #ffffc0",
"g c #c0c0c0",
"i c #585858",
"# c #000000",
"c c #ffa858",
"e c #004000",
"d c #404000",
"h c #ffffff",
"........##......",
"......##a#......",
"....##aa#....##.",
"...#aaaa#...#bc#",
"..#ddaa#...#bc#.",
"..#aaaa#..#bc#..",
".#dddde#.#bc#...",
".#dde#fg#bc#....",
"#de#fggh#h##....",
"##fggggg##hg##..",
"#fgggghhghhhhf#.",
"#iifghhhgghfii#.",
".##iifhhgfii##..",
"...##iifii##....",
".....##i##......",
".......#........"};
