/* XPM */
static char * ksysv_xpm[] = {
"34 34 187 2",
"  	c None",
". 	c #020204",
"+ 	c #8E8E8C",
"@ 	c #B6B6B4",
"# 	c #DADADC",
"$ 	c #AAAAAC",
"% 	c #FAFAFC",
"& 	c #FEFEFC",
"* 	c #C6C6C4",
"= 	c #828284",
"- 	c #BABABC",
"; 	c #3E3E3C",
"> 	c #B7B7B6",
", 	c #C6C6CC",
"' 	c #818180",
") 	c #737372",
"! 	c #363634",
"~ 	c #D2D2D4",
"{ 	c #EEEEEC",
"] 	c #A4A4A4",
"^ 	c #969696",
"/ 	c #898988",
"( 	c #7B7B7A",
"_ 	c #6E6E6C",
": 	c #666663",
"< 	c #565654",
"[ 	c #C1C1C4",
"} 	c #B9B9BB",
"| 	c #ACACAD",
"1 	c #9E9E9F",
"2 	c #919191",
"3 	c #838383",
"4 	c #767674",
"5 	c #F6F6F4",
"6 	c #E6E6E4",
"7 	c #C2C2C4",
"8 	c #525254",
"9 	c #DEDEDC",
"0 	c #B2B2B4",
"a 	c #B4B4B5",
"b 	c #A6A6A7",
"c 	c #999999",
"d 	c #CBCBCB",
"e 	c #B5B5B5",
"f 	c #666664",
"g 	c #BCBCBE",
"h 	c #BEBEBC",
"i 	c #CACACC",
"j 	c #BDBDBD",
"k 	c #B3B3B3",
"l 	c #A5A5A5",
"m 	c #B5B5B4",
"n 	c #DBDBDB",
"o 	c #727274",
"p 	c #8A8A8C",
"q 	c #E3E3E3",
"r 	c #D5D5D5",
"s 	c #AFAFAE",
"t 	c #F8F8F7",
"u 	c #E2E2E4",
"v 	c #F2F2EC",
"w 	c #D3D3D3",
"x 	c #5A5A5C",
"y 	c #929294",
"z 	c #8A8E8C",
"A 	c #AAAAA9",
"B 	c #F0F0EF",
"C 	c #FBFBF9",
"D 	c #D4D4D4",
"E 	c #524E4C",
"F 	c #725A5C",
"G 	c #7E262C",
"H 	c #820E14",
"I 	c #622A2C",
"J 	c #9F9F9F",
"K 	c #A3A3A3",
"L 	c #E9E9E8",
"M 	c #EEEEED",
"N 	c #F3F3F2",
"O 	c #D6D6D4",
"P 	c #EAEAEC",
"Q 	c #CDCDCD",
"R 	c #9E1624",
"S 	c #A61E2C",
"T 	c #6E3234",
"U 	c #E1E1E0",
"V 	c #E6E6E5",
"W 	c #EBEBEA",
"X 	c #9A9A9C",
"Y 	c #CECECC",
"Z 	c #C9C9C9",
"` 	c #CCCCCC",
" .	c #9E3E44",
"..	c #961E2C",
"+.	c #96222C",
"@.	c #D9D9D9",
"#.	c #DEDEDE",
"$.	c #9E9E9C",
"%.	c #C6C7C4",
"&.	c #BFBFBF",
"*.	c #AE9294",
"=.	c #8A1E1C",
"-.	c #862224",
";.	c #7A5A5C",
">.	c #ADADAD",
",.	c #939394",
"'.	c #D1D1D2",
").	c #D6D6D7",
"!.	c #DCDCDC",
"~.	c #BEBFBC",
"{.	c #BCBCBC",
"].	c #B7B7B7",
"^.	c #BBBBBB",
"/.	c #968E8C",
"(.	c #665A5C",
"_.	c #7A6E6C",
":.	c #8D8D8E",
"<.	c #C9C9CA",
"[.	c #CECECF",
"}.	c #B6B7B4",
"|.	c #A9A9A9",
"1.	c #9B9B9B",
"2.	c #AFAFAF",
"3.	c #939393",
"4.	c #878789",
"5.	c #C1C1C3",
"6.	c #C7C7C8",
"7.	c #CCCCCD",
"8.	c #AEAFAC",
"9.	c #A7A7A7",
"0.	c #ABABAB",
"a.	c #6A6A64",
"b.	c #868687",
"c.	c #B9B9BC",
"d.	c #BFBFC0",
"e.	c #C4C4C5",
"f.	c #A6A8A4",
"g.	c #777777",
"h.	c #9EA09C",
"i.	c #ACACAC",
"j.	c #668264",
"k.	c #2ABA2C",
"l.	c #0AC60C",
"m.	c #2A762C",
"n.	c #7E7E7C",
"o.	c #969894",
"p.	c #959595",
"q.	c #1AF61C",
"r.	c #26F62C",
"s.	c #1EFA24",
"t.	c #2E9A34",
"u.	c #6D6D6D",
"v.	c #7A7A7C",
"w.	c #8E908C",
"x.	c #8D8D8D",
"y.	c #26D624",
"z.	c #12EA14",
"A.	c #12E21C",
"B.	c #0EDE14",
"C.	c #2A9A2C",
"D.	c #6F6F6F",
"E.	c #A6A6A4",
"F.	c #868984",
"G.	c #B6B6BC",
"H.	c #8B8B8B",
"I.	c #6E8E6C",
"J.	c #0ABE14",
"K.	c #1A9E1C",
"L.	c #5A725C",
"M.	c #696969",
"N.	c #AEAEAC",
"O.	c #7E817B",
"P.	c #666E64",
"Q.	c #717171",
"R.	c #5D5D5D",
"S.	c #000000",
"T.	c #767973",
"U.	c #7C7C7C",
"V.	c #7F7F7F",
"W.	c #818181",
"X.	c #757575",
"Y.	c #424644",
"Z.	c #6E726B",
"`.	c #898989",
" +	c #7D7D7D",
".+	c #535353",
"++	c #66666C",
"                                                                    ",
"                                  . . .                             ",
"                              . . + @ # . .                         ",
"                        . . . $ % . . . @ # . .                     ",
"                        . & * . . = - % . . @ # . .                 ",
"                        . & & & & . . = - % . . @ # . .             ",
"                    . . ; > & & & & , . . = - % . . @ # . .         ",
"                . . ' ) . . > > & & & & . ! + ~ ~ % . . # { .       ",
"            . . ] ^ / ( _ : . . > & & & . - < $ ~ ~ { % . $ % .     ",
"        . . [ } | 1 2 3 4 5 5 . > & & & . 6 7 8 $ 9 6 5 . 0 5 .     ",
"    . . [ [ [ [ a b c 5 5 d e . > & & & . 5 6 7 f $ # 6 . 0 6 .     ",
"    . 5 [ [ [ [ g 5 5 h e e e . > & & & . . . . . . $ { . 0 { .     ",
"    . 6 5 5 [ 5 5 i j k e k l . m & & & 5 h 7 h - . $ 6 . $ 6 .     ",
"    . 6 6 6 5 # n i o p k q r . s t & & & & & & & . $ u . $ u .     ",
"    . 6 6 6 v r w x = y z ; c . A B 5 C & & & & & . 0 u . 0 u .     ",
"    . 9 9 9 { w D E F G H I J . K L M N t & & & & . $ # . $ # .     ",
"    . O O O P d Q ; R S S T ] . J U V W B 5 C & & . X # . X # .     ",
"    . Y Y Y u Z `  ...+.+.T ] . c @.#.q L M N t & . $.~ . $.~ .     ",
"    . %.%.%.9 &.Z *.=.=.-.;.>.. ,.'.).!.U V W B 5 . y ~ . y ~ .     ",
"    . ~.~.~.O {.].^./.(._.] J . :.<.[.D @.#.q L M . y i . y i .     ",
"    . }.}.}.~ e k k |.1.J 2.3.. 4.5.6.7.'.).!.U V . p i . p i .     ",
"    . 8.8.8.i 9.k 0.a.p 0 u O . b.c.d.e.<.[.D @.#.. p 7 . p 7 .     ",
"    . f.f.f.* J 0.x = y z ; g.. b.c.c.g 5.6.7.'.).. = h . = h .     ",
"    . h.h.h.7 J i.E j.k.l.m.g.. b.c.c.c.c.d.e.<.[.. n.- . n.- .     ",
"    . o.o.o.- p.K ; q.r.s.t.u.. b.c.c.c.c.c.g 5.6.. v.@ . v.@ .     ",
"    . w.w.w.h x.c y.z.A.B.C.D.. b.c.c.c.c.c.c.c.d.. o E.. o E..     ",
"    . F.F.F.G.H.x.I.l.J.K.L.M.. . . c.c.c.c.c.c.c.. _ N.. f $ .     ",
"    . O.O.O.h 3.H.x.4 P.P.Q.R..     . . c.c.c.c.c.. f $ . S.X .     ",
"    . T.T.T.0 3.U.V.W.W.X.Y.. .         . . c.c.c.. S.X .   . .     ",
"    . Z.Z.Z.N.`.g. +M..+. .                 . . c..   . .           ",
"    . . Z.Z.N.V.g.; . .                         . .                 ",
"        . . N.++. .                                                 ",
"            . .                                                     ",
"                                                                    "};
