/* XPM */
static char * large_ksysv_xpm[] = {
"48 48 137 2",
"  	c None",
". 	c #020204",
"+ 	c #E6E6E4",
"@ 	c #D2D2D4",
"# 	c #8E8E8C",
"$ 	c #B6B6B4",
"% 	c #FEFEFC",
"& 	c #868684",
"* 	c #DADADC",
"= 	c #828284",
"- 	c #7E7E7C",
"; 	c #0A0A0C",
"> 	c #EEEEEC",
", 	c #BABABC",
"' 	c #F6F6F4",
") 	c #161614",
"! 	c #666664",
"~ 	c #BEBEBC",
"{ 	c #B2B2B4",
"] 	c #D6D6D4",
"^ 	c #8A8A8C",
"/ 	c #A6A6A4",
"( 	c #EAEAEC",
"_ 	c #FAFAFC",
": 	c #262624",
"< 	c #060604",
"[ 	c #767674",
"} 	c #6E6E6C",
"| 	c #AEAEAC",
"1 	c #121214",
"2 	c #9A9A9C",
"3 	c #929294",
"4 	c #6A6A6C",
"5 	c #CACACC",
"6 	c #A2A2A4",
"7 	c #C2C2C4",
"8 	c #DEDEDC",
"9 	c #AAAAAC",
"0 	c #A2A29C",
"a 	c #969694",
"b 	c #AEAEB4",
"c 	c #A6A6AC",
"d 	c #9E9E9C",
"e 	c #BABAB4",
"f 	c #F2F2F4",
"g 	c #CECECC",
"h 	c #C6C6C4",
"i 	c #7A7A7C",
"j 	c #E2E2E4",
"k 	c #5A5A5C",
"l 	c #E2E2DC",
"m 	c #EEEEF4",
"n 	c #323234",
"o 	c #3A3A3C",
"p 	c #727274",
"q 	c #DADAD4",
"r 	c #524E4C",
"s 	c #6E0E1C",
"t 	c #6A0E1C",
"u 	c #62121C",
"v 	c #52464C",
"w 	c #BAB6BC",
"x 	c #3E3E3C",
"y 	c #A6162C",
"z 	c #9E1A2C",
"A 	c #9A1E2C",
"B 	c #624E54",
"C 	c #D2D2CC",
"D 	c #B2A6A4",
"E 	c #9E1E2C",
"F 	c #961E2C",
"G 	c #564E4C",
"H 	c #6E726C",
"I 	c #BAAEAC",
"J 	c #92222C",
"K 	c #5A4E4C",
"L 	c #626264",
"M 	c #9A565C",
"N 	c #8A262C",
"O 	c #8E262C",
"P 	c #862624",
"Q 	c #6E5A5C",
"R 	c #C2C2BC",
"S 	c #8E3E3C",
"T 	c #862A2C",
"U 	c #6E5254",
"V 	c #968A8C",
"W 	c #625254",
"X 	c #6E5E5C",
"Y 	c #9A9694",
"Z 	c #A29E9C",
"` 	c #5E5E5C",
" .	c #565654",
"..	c #969A94",
"+.	c #424244",
"@.	c #4A4A4C",
"#.	c #12A214",
"$.	c #129A0C",
"%.	c #0E7E0C",
"&.	c #4A664C",
"*.	c #C6C6CC",
"=.	c #2AFA2C",
"-.	c #22F624",
";.	c #0EAE14",
">.	c #46664C",
",.	c #767A74",
"'.	c #525654",
").	c #96969C",
"!.	c #0E760C",
"~.	c #12E614",
"{.	c #22FA24",
"].	c #0EDE14",
"^.	c #666E64",
"/.	c #4E524C",
"(.	c #12CE14",
"_.	c #12E214",
":.	c #0ED614",
"<.	c #467244",
"[.	c #626E64",
"}.	c #4E4E4C",
"|.	c #4A4E4C",
"1.	c #525254",
"2.	c #86868C",
"3.	c #6E826C",
"4.	c #12B614",
"5.	c #0ABE14",
"6.	c #667A64",
"7.	c #5A625C",
"8.	c #464644",
"9.	c #4A6A4C",
"0.	c #6A766C",
"a.	c #626A64",
"b.	c #7E7E84",
"c.	c #7A7A74",
"d.	c #76767C",
"e.	c #B2B2AC",
"f.	c #0E0E0C",
"                                                                                                ",
"                                                                                                ",
"                                                . .                                             ",
"                                          . .   . + . .                                         ",
"                                  . . .   . @ . . # $ @ . .                                     ",
"                                  . % % . . & $ * . . = $ * . .                                 ",
"                                  . % % % % . . & $ * . . & $ * . .                             ",
"                                  . % % % % % % . . - $ * . . # $ * . .                         ",
"                                  . * % % % % % % % . . - $ * . . # $ * ; .                     ",
"                              . . . $ @ > % % % % % % % . . = , ' . ) # $ * . .                 ",
"                          . . ! ! . . ~ { ] % % % % % % % . . ^ / ( _ . : = $ * . .             ",
"                      . < - [ } ! ! ! . . ~ | ( % % % % % . | . & $ @ ' _ . 1 = { % . .         ",
"                  . . 2 3 ^ - [ 4 ! ! ! ! . . $ % % % % % . 5 6 . & 7 8 * % % . 2 @ % .         ",
"              . ; { 9 0 2 # ^ - [ 4 ! ' ' # . $ % % % % % . + 5 6 . & , 8 > _ . 2 8 _ .         ",
"          . . ~ 7 , { 9 0 a # & - ' ' ~ $ # . $ % % % % % . > + 7 / . = , + ' . 6 @ ' .         ",
"      . . ~ ~ 7 7 7 , b c d a ' ' e $ , { # . | ( % % % % . ' f * 6 | . # * + . 6 ] f .         ",
"      . + ' ' ~ 7 ~ 7 e b ' ' 7 , , { { / # . { f % % % % . . . . . . . - g > . 9 ] 8 .         ",
"      . + + + ' ' 7 7 ' ' 5 h ~ ~ , $ | 6 ^ . $ ( % % % % @ a 6 6 d , . [ 5 + . / * 8 .         ",
"      . + + + + + f > ] @ g { 4 i & $ d d # . | ( % % % % _ j * ] * h . [ 7 j . 6 ] 5 .         ",
"      . + + + j j _ * ] @ | k & 3 d * % * # . / + ' % % % % % ' f ' f . - , j . d g 5 .         ",
"      . j j l l 8 m ] @ , k [ = # 2 n o 3 ^ . | j f _ _ % % % % % % % . p , * . a g g .         ",
"      . q * * * q > @ @ | r p - s t u v 3 & . 6 8 > f ' ' % % % % % % . } , * . ^ ] 7 .         ",
"      . ] ] @ @ ] > 5 5 w x t t y z A B d # . 6 * ( > f f _ % % % % % . p 9 @ . ^ 7 ~ .         ",
"      . C g C C g > 5 5 D u z z E A F G 2 # . 6 ] + ( > f f ' _ % % % . H 9 @ . & , g .         ",
"      . g 5 5 5 h j 5 7 I J F F F J J K 2 ^ . 2 @ j + ( > > f ' _ % % . L 9 5 . # { 5 .         ",
"      . h h h h h + 7 7 ~ M N J O N P Q / - . 6 g 8 j j + ( > f ' ' _ . ! { 5 . # { h .         ",
"      . 7 7 R ~ ~ 8 ~ ~ , D S P P T U V 6 i . d 5 * 8 j + ( ( ( f f ' . ! 9 7 . ^ | 7 .         ",
"      . ~ , , ~ , ] ~ $ $ { / Q W X Y d a ! . a ~ @ * * 8 j + ( ( f f . L 2 ~ . ^ 9 ~ .         ",
"      . e $ $ $ $ @ $ { { | | | 9 / / Z # 4 . # , g ] ] * 8 j + + ( > . L d , . = / , .         ",
"      . { { b | | C { | | 9 6 ` i = h / 2 } < ^ { g g @ ] * 8 8 j + + . ! 3 $ . = 6 { .         ",
"      . | | | 9 9 5 / / 9 6 ` & 3 6 * % 8 } . # $ 5 g g @ @ * 8 8 j j . ! 3 / . - 6 | .         ",
"      . c / c / 6 5 / / d  .[ = # ..+.@.# } . = | 7 h 5 g @ @ ] * 8 j . ` ^ | . i d | .         ",
"      . / 6 6 6 0 R d Z a x } - #.$.%.&.H k . = 9 7 7 h 5 g g @ ] * * . ` ^ 9 . [ a d .         ",
"      . d d d d 2 *.d d a o $.$.=.-.;.>.,.'.. - | , 7 7 h h g @ @ ] * . k = 2 . [ ^ 3 .         ",
"      . 2 a a ).a , a a a !.~.{.{.-.].&.^./.. - 6 $ , , 7 7 h 5 5 g @ .  .- # . 4 & # .         ",
"      . 3 3 3 3 3 R 3 3 3 (.~.~._.].:.<.[. .. p d { $ , , ~ 7 h 5 g g . }.i d . ` = 3 .         ",
"      . # # # ^ # ~ # # ^ (.:.:.:.(.;.<.^.|.. [ # | { $ , , ~ 7 h 5 5 . }.p a . 1.= a .         ",
"      . ^ 2.2.& 2., ^ ^ ^ 3.4.5.;.#.>.6.7.@.. . ; 9 | { { , , ~ ~ 7 h . +.} a . 8.i 3 .         ",
"      . & = = = = R 3 & ^ = 3.9.<.9.0.a.'.8..     . . | | { $ , ~ ~ 7 . +.! ^ . 1.4 = .         ",
"      . b.- b.i i h 3 = = = - - c.[ a.'.}.< .         . . | { $ $ ~ ~ . o L } . . . # .         ",
"      . i i c.d.d., # ,.c.,.c.c.} ` 1.1 .                 . . { { $ , . . . } .     . .         ",
"      . [ p p p p $ ^ [ [ i 4 k  .1 .                         . . { { .     . .                 ",
"      . . p p p p e.= [ 4 k  .. .                                 . . .                         ",
"          . : p H ~ p L ` f..                                                                   ",
"              . < d 4 . .                                                                       ",
"                  . .                                                                           ",
"                                                                                                ",
"                                                                                                "};
