/* XPM */
static char * large_kscd_xpm[] = {
"48 48 169 2",
"  	c None",
". 	c #000000",
"+ 	c #FFFFFF",
"@ 	c #C0C0C0",
"# 	c #8B8B8B",
"$ 	c #575757",
"% 	c #333333",
"& 	c #0F0F0F",
"* 	c #070707",
"= 	c #939393",
"- 	c #E2E2E2",
"; 	c #CECECE",
"> 	c #ADADAD",
", 	c #6F6F6F",
"' 	c #004040",
") 	c #888888",
"! 	c #797979",
"~ 	c #5F5F5F",
"{ 	c #686868",
"] 	c #979797",
"^ 	c #636363",
"/ 	c #015E5E",
"( 	c #FF0000",
"_ 	c #717171",
": 	c #5A5A5A",
"< 	c #484848",
"[ 	c #5C5C5C",
"} 	c #545454",
"| 	c #404040",
"1 	c #FFA858",
"2 	c #626262",
"3 	c #565656",
"4 	c #292929",
"5 	c #676767",
"6 	c #585858",
"7 	c #494949",
"8 	c #131313",
"9 	c #3C3C3C",
"0 	c #5D5D5D",
"a 	c #282828",
"b 	c #3B3B3B",
"c 	c #00E309",
"d 	c #00F602",
"e 	c #00F502",
"f 	c #00E308",
"g 	c #161616",
"h 	c #0A0A04",
"i 	c #020204",
"j 	c #161604",
"k 	c #E6BEE4",
"l 	c #D6BED4",
"m 	c #C1C2C4",
"n 	c #C6C6C4",
"o 	c #0B0B0B",
"p 	c #BFBFBF",
"q 	c #F2CEFC",
"r 	c #FABEFC",
"s 	c #EBBEEC",
"t 	c #CABEBC",
"u 	c #CACACC",
"v 	c #D2D2D4",
"w 	c #BEF6F9",
"x 	c #DAE6FC",
"y 	c #EED2FC",
"z 	c #FAC6FC",
"A 	c #C2BEC2",
"B 	c #CECECC",
"C 	c #D6D6D4",
"D 	c #DADADC",
"E 	c #BEFEE6",
"F 	c #BEFEFA",
"G 	c #CEF2FC",
"H 	c #E2DEFC",
"I 	c #F6CAFC",
"J 	c #F6BEF4",
"K 	c #DABEDC",
"L 	c #DEDEDC",
"M 	c #E6E6E4",
"N 	c #BEFEC4",
"O 	c #BEFED2",
"P 	c #EAD6FC",
"Q 	c #DEBEDF",
"R 	c #EEEEEC",
"S 	c #F6F6F4",
"T 	c #BEEEBC",
"U 	c #BEFABC",
"V 	c #E2BEE4",
"W 	c #F2F2F4",
"X 	c #FAFAFC",
"Y 	c #FEFEFB",
"Z 	c #1E1E1E",
"` 	c #BEDEBC",
" .	c #BEF6BC",
"..	c #D6EAFC",
"+.	c #E2E2E4",
"@.	c #EAEAEC",
"#.	c #101010",
"$.	c #BECABC",
"%.	c #BECEBC",
"&.	c #BED6BC",
"*.	c #D2EEFC",
"=.	c #A28AAC",
"-.	c #9E829C",
";.	c #3A3634",
">.	c #6A625C",
",.	c #8A8A8C",
"'.	c #BEE2BC",
").	c #5E5654",
"!.	c #060604",
"~.	c #5E7644",
"{.	c #A2A2A4",
"].	c #4E4E4C",
"^.	c #666664",
"/.	c #090909",
"(.	c #171717",
"_.	c #727274",
":.	c #728284",
"<.	c #BEDADC",
"[.	c #EBEBEB",
"}.	c #487248",
"|.	c #00C000",
"1.	c #767294",
"2.	c #BEEEFC",
"3.	c #BEEEEC",
"4.	c #BEE2E4",
"5.	c #BED2BC",
"6.	c #BECACC",
"7.	c #010101",
"8.	c #191919",
"9.	c #00FF00",
"0.	c #7E7274",
"a.	c #927274",
"b.	c #C6BEF4",
"c.	c #BED2FC",
"d.	c #BEE6FC",
"e.	c #040404",
"f.	c #1B1B1B",
"g.	c #434343",
"h.	c #D0BEBC",
"i.	c #FABEBF",
"j.	c #DABEE4",
"k.	c #BEC2FC",
"l.	c #BEE2FC",
"m.	c #BEF2FC",
"n.	c #363636",
"o.	c #E6BED4",
"p.	c #D3BEEC",
"q.	c #BEDEFC",
"r.	c #A1A1A1",
"s.	c #DAD6CC",
"t.	c #F2BEBC",
"u.	c #F2BECC",
"v.	c #CABEF4",
"w.	c #BEC6FC",
"x.	c #020202",
"y.	c #E2BEBC",
"z.	c #F6BEC4",
"A.	c #004545",
"B.	c #225D5D",
"C.	c #457373",
"D.	c #688B8B",
"E.	c #206F6F",
"F.	c #468989",
"G.	c #6FA3A3",
"H.	c #96BDBD",
"I.	c #007F7F",
"J.	c #3FAAAA",
"K.	c #7FD4D4",
"L.	c #BFFFFF",
"                                                                                                ",
"                                                                                                ",
"      . . . . . . . . . . . . . . . . . . . . . . . . . . . . . . . . . . . . . . . . . .       ",
"    . + @ @ @ @ @ @ @ @ @ @ @ @ @ @ @ @ @ @ @ @ @ @ @ @ @ @ @ @ @ @ @ @ @ @ @ @ @ @ @ @ # .     ",
"    . @ $ $ $ $ $ $ $ $ $ $ $ $ $ $ $ $ $ $ $ $ $ $ $ $ $ $ $ $ $ $ $ $ $ $ $ $ $ $ $ $ % .     ",
"    . @ $ & * * * * * * * * * * * * * * * * * * * * * * * * * * $ $ $ = - ; > , $ $ $ $ % .     ",
"    . @ $ * ' ' ' ' ' ' ' ' ' ' ' ' ' ' ' ' ' ' ' ' ' ' ' ' ' @ $ $ ) + ! ~ { ] ^ $ $ $ % .     ",
"    . @ $ * ' / / / / / ' / / / / / ' ( ( ( ( ( ' / / / / / ' @ $ $ - _ $ $ $ : < $ $ $ % .     ",
"    . @ $ * ' ' ' ' ' ' ' ' ' ' ' ' ' ' ' ' ' ' ' ' ' ' ' ' ' @ $ $ ; [ $ $ $ } | $ $ $ % .     ",
"    . @ $ * ' / / / / / ' / / / / / ' 1 1 1 1 1 ' / / / / / ' @ $ $ > 2 $ $ 3 < 4 $ $ $ % .     ",
"    . @ $ * ' ' ' ' ' ' ' ' ' ' ' ' ' ' ' ' ' ' ' ' ' ' ' ' ' @ $ $ 5 > 6 } 7 8 9 $ $ $ % .     ",
"    . @ $ * ' / / / / / ' 1 1 1 1 1 ' 1 1 1 1 1 ' / / / / / ' @ $ $ $ 0 < 9 a b $ $ $ $ % .     ",
"    . @ $ * ' ' ' ' ' ' ' ' ' ' ' ' ' ' ' ' ' ' ' ' ' ' ' ' ' @ $ $ $ $ $ $ $ $ $ $ $ $ % .     ",
"    . @ $ * ' c c c c c ' c c c c c ' c c c c c ' c c c c c ' @ $ $ $ = - ; > , $ $ $ $ % .     ",
"    . @ $ * ' ' ' ' ' ' ' ' ' ' ' ' ' ' ' ' ' ' ' ' ' ' ' ' ' @ $ $ ) + ! ~ { ] ^ $ $ $ % .     ",
"    . @ $ * ' d d d c d ' e d d d d ' e d f d d ' d d d d d ' @ $ $ - _ $ $ $ : < $ $ $ % .     ",
"    . @ $ * ' ' ' ' ' ' ' ' ' ' ' ' ' ' ' ' ' ' ' ' ' ' ' ' ' @ $ $ ; [ $ $ $ } | $ $ $ % .     ",
"    . @ $ * ' ' ' ' ' ' ' ' ' ' ' ' ' ' ' ' ' ' ' ' ' ' ' ' ' @ $ $ > 2 $ $ 3 < 4 $ $ $ % .     ",
"    . @ $ g @ @ @ @ @ @ @ @ @ @ @ @ @ @ @ @ @ @ @ @ @ @ @ @ @ @ $ $ 5 > 6 } 7 8 9 $ $ $ % .     ",
"    . @ $ $ $ $ $ $ $ $ $ $ $ $ $ $ $ $ $ $ $ $ $ $ $ $ $ $ $ $ $ $ $ 0 < 9 a b $ $ $ $ % .     ",
"    . @ $ $ $ $ $ $ $ $ $ $ $ $ $ $ $ $ $ $ $ $ $ $ $ $ $ $ $ $ $ $ $ $ $ $ $ $ $ $ $ $ % .     ",
"    . # % % % % % % % % h i i i j % % % % % % % % % % % % % % % % % % % % % % % % % % % . .     ",
"      . 8 8 8 8 8 8 i i k l m m n i i 8 8 8 8 8 8 8 8 8 8 8 8 8 8 8 8 8 8 8 8 8 8 8 8 o .       ",
"    . + @ p @ @ i i q r s l t n u u v i i p p p p @ p p p p p p p p p p p p p p p p p @ # .     ",
"    . p $ $ $ i w x y z s l A m u B v C D i $ $ $ $ $ $ $ $ $ $ $ $ $ $ $ $ $ $ $ $ $ $ % .     ",
"    . p $ $ i E F G H I J K A n B v C D L M i $ $ $ $ $ $ $ $ $ $ $ $ $ $ $ $ $ $ $ $ $ % .     ",
"    . p $ i N O E F x P z Q A n u v D L M R S i @ @ @ @ @ @ @ @ @ @ @ @ @ @ @ @ @ $ $ $ % .     ",
"    . p i T U N O E w H z V m n v C D M W X Y W i $ $ $ $ $ $ $ $ $ $ $ $ $ $ $ Z $ $ $ % .     ",
"    . p i ` T  .O O E ..q s A n v D +.R X S W @.i $ $ $ $ $ $ $ $ $ $ $ $ $ $ $ #.$ $ $ % .     ",
"    . i $.%.&.` T N E *.=.-.;.>.,.D R Y S R M L L i $ $ $ $ $ $ $ $ $ $ $ $ $ $ #.$ $ $ % .     ",
"    . i A m $.%.` '.N ).>.!.!.!.!.>.W R M L L D D i $ $ $ $ $ $ $ $ $ $ $ $ $ $ #.$ $ $ % .     ",
"    . m n m A A m $.~.>.,.{.n {.].!.,.L D D D C v v i $ $ $ $ $ $ $ $ $ $ $ $ $ #.$ $ $ % .     ",
"    . n u u u n n n ^.!.{.% % % {.!.>.C C v v v v B i $ $ $ $ $ $ $ $ $ $ $ $ $ #.$ $ $ % .     ",
"    . B u u u B B u ;.!.u /././.u !.;.B u u u B B B i /././././././.#./././././.(.$ $ $ % .     ",
"    . v v v v v C v >.!.{.$ $ $ {.!._.m n n n n n n i $ $ $ $ $ $ $ $ $ $ $ $ $ $ $ $ $ % .     ",
"    . v C C C D D L ,.!.].{.n {.,.>.:.<.$.m A m m n i [.@ @ ] $ $ [.@ @ ] $ }.|.}.$ $ $ % .     ",
"    . i D D D L M @.D >.!.!.!.!.>.1.2.F 3.4.5.6.m i $ @ $ $ 7.$ $ @ $ $ 8.$ |.9.|.$ $ $ % .     ",
"    . i D L M @.R X S W ,.>.;.0.a.b.c.d.w w 3.4.<.i $ ] e.e.e.$ $ ] e.e.f.$ }.|.}.$ $ $ % .     ",
"    . g.i M R S Y S M L L u m h.i.j.k.c.l.m.F w i $ $ $ $ $ $ $ $ $ $ $ $ $ $ $ $ $ $ $ % .     ",
"    . n.i W X Y S @.+.D v B n h.i.o.p.k.c.q.2.w i $ $ $ $ $ $ $ $ $ $ $ $ $ $ $ $ $ $ $ % .     ",
"    . . r.i Y S R +.D s.v u m A t.u.V v.w.c.q.i % % % % % % % % % % % % % % % % % % % % . .     ",
"      . . x.i R M L D C B u n m y.i.o.j.v.w.i . . . . . . . . . . . . . . . . . . . . . .       ",
"              i +.L D v B u m m y.z.u.V p.i                   . A.B.C.D.D.C.B.A..               ",
"              . . . C v B u n m h.t.z.i i                     . E.F.G.H.H.G.F.E..               ",
"              . I.J.. . u u m m h.!.i                         . I.J.K.L.L.K.J.I..               ",
"              . . . . . i i i i i                             . . . . . . . . . .               ",
"                                                                                                ",
"                                                                                                "};
