/* XPM */
static char*mini[]={
"16 16 13 1",
"k c #008000",
"d c #ffa858",
"a c #a0a0a4",
"g c #c0c0c0",
"f c #00ff00",
"j c #ffc0c0",
"i c #00ffff",
"# c #000000",
". c None",
"c c #004040",
"h c #c0ffff",
"b c #585858",
"e c #ff0000",
".##############.",
"#aaaaaaaaaaaaaa#",
"#a##########bbb#",
"#a#cccdceccabbb#",
"#a#cfcfcfccabbb#",
"#a#cfcfcfccabbb#",
"#a#aaaaaaaaabbb#",
"################",
"#b#ggg#aaaaaaaa#",
"##higgg#bbbbbbb#",
"#gjh#ggg#bbbb#b#",
"#gg#g#gg######b#",
"#ggg#hjg#ababff#",
".#gggih##bbbbkk#",
"..#ggg#####bbb#.",
"...###.....###.."};
