/* XPM */
static char * people_xpm[] = {
"24 24 9 1",
" 	c None",
".	c #000000",
"+	c #0000FF",
"@	c #00C300",
"#	c #0000C0",
"$	c #00C000",
"%	c #008000",
"&	c #FF0000",
"*	c #C00000",
"   ....          ....   ",
"  .++++.        .@@@@.  ",
" .+++++#.      .@$$$$%. ",
" .+.++.#.      .@.$$.%. ",
" .+.++.#.      .@.$$.%. ",
" .+++++#. .... .@$$$$%. ",
"  .####. .&&&&. .%%%%.  ",
"   .... .&&&&&*. ....   ",
"  .++++..&.&&.*..@@@@.  ",
" .+++++#.&.&&.*.@$$$$%. ",
" .+++++#.&&&&&*.@$$$$%. ",
" .+++++#..****..@$$$$%. ",
" .+++++#. .... .@$$$$%. ",
" .+++++#..&&&&..@$$$$%. ",
" .+++++#.&&&&&*.@$$$$%. ",
" .+++++#.&&&&&*.@$$$$%. ",
" .+++++#.&&&&&*.@$$$$%. ",
" .+++++#.&&&&&*.@$$$$%. ",
" .+++++#.&&&&&*.@$$$$%. ",
" .+++++#.&&&&&*.@$$$$%. ",
" .######.&&&&&*.%%%%%%. ",
"  .......&&&&&*.......  ",
"        .******.        ",
"        ........        "};
