/* XPM */
static char * channel_xpm[] = {
"24 24 10 1",
" 	c None",
".	c #000000",
"+	c #DFDFDF",
"@	c #A6A2A6",
"#	c #C7C3FF",
"$	c #008080",
"%	c #FFC3FF",
"&	c #FFDFAE",
"*	c #C75900",
"=	c #FFAA59",
" ..........             ",
".+++++++++@.            ",
".+........@.            ",
".+.######.@.            ",
".+.######.@.            ",
".+.######.@.            ",
".+.######.@.            ",
".+.######.@.            ",
".+........@.            ",
".@@@@@@@@@@.            ",
" ..........             ",
"    .$.                 ",
"    .$.                 ",
"    .$.      .......... ",
"    .$.     .+++++++++@.",
"    .$.     .+........@.",
"    .$.     .+.%%%%%%.@.",
"    ...     .+.%%%%%%.@.",
"   .&&*......+.%%%%%%.@.",
"   .&=*.$$$$.+.%%%%%%.@.",
"   .***......+.%%%%%%.@.",
"    ...     .+........@.",
"            .@@@@@@@@@@.",
"             .......... "};
