/* XPM */
static char * klpq_xpm[] = {
"32 32 213 2",
"  	c None",
". 	c #020204",
"+ 	c #7E7E7C",
"@ 	c #4E4E54",
"# 	c #000000",
"$ 	c #72726C",
"% 	c #7A7A7C",
"& 	c #767674",
"* 	c #DEDEBB",
"= 	c #909028",
"- 	c #D0D0AB",
"; 	c #040406",
"> 	c #0A0A0C",
", 	c #222224",
"' 	c #A2A29C",
") 	c #BEBEBC",
"! 	c #E5E5D3",
"~ 	c #DFDFC9",
"{ 	c #888825",
"] 	c #8E8E3F",
"^ 	c #AFAF79",
"/ 	c #060607",
"( 	c #EEEED4",
"_ 	c #F2F2DC",
": 	c #F1F1E3",
"< 	c #F9F9FA",
"[ 	c #EDEDD6",
"} 	c #858548",
"| 	c #A0A078",
"1 	c #C3C387",
"2 	c #D8D893",
"3 	c #D0D08B",
"4 	c #030305",
"5 	c #FEFEDC",
"6 	c #87872B",
"7 	c #F1F1E6",
"8 	c #FEFEF4",
"9 	c #FEFEE4",
"0 	c #E8E8C4",
"a 	c #D3D3A6",
"b 	c #DEDEA4",
"c 	c #DADAAC",
"d 	c #C2C285",
"e 	c #B4B47C",
"f 	c #72724D",
"g 	c #8A8A35",
"h 	c #FEFEFC",
"i 	c #FBFBF0",
"j 	c #FAFAE4",
"k 	c #F2F2CC",
"l 	c #EAEABC",
"m 	c #E2E2AC",
"n 	c #D1D1A2",
"o 	c #B7B77D",
"p 	c #888840",
"q 	c #94945E",
"r 	c #9E9E5C",
"s 	c #0D0D0D",
"t 	c #9F9F96",
"u 	c #FBFBF7",
"v 	c #FDFDF3",
"w 	c #DADAB4",
"x 	c #CACAA4",
"y 	c #909049",
"z 	c #9F9F68",
"A 	c #B6B67C",
"B 	c #8D8D1D",
"C 	c #5F5F35",
"D 	c #8E8E8C",
"E 	c #F2F2E4",
"F 	c #CECEAC",
"G 	c #A2A277",
"H 	c #ADAD84",
"I 	c #959541",
"J 	c #8D8D36",
"K 	c #7B7B49",
"L 	c #AAAA54",
"M 	c #090907",
"N 	c #858563",
"O 	c #D6D6B9",
"P 	c #888847",
"Q 	c #888842",
"R 	c #9D9D6B",
"S 	c #868617",
"T 	c #B2B25C",
"U 	c #A2A25C",
"V 	c #9E9E7C",
"W 	c #969694",
"X 	c #9A9A94",
"Y 	c #A2A2A4",
"Z 	c #82827C",
"` 	c #111113",
" .	c #838368",
"..	c #E4E4BF",
"+.	c #CCCC9D",
"@.	c #B5B586",
"#.	c #84842C",
"$.	c #919168",
"%.	c #CACA7C",
"&.	c #B4B46B",
"*.	c #A2A28C",
"=.	c #A6A684",
"-.	c #AEAEAC",
";.	c #AAAAA4",
">.	c #9E9E9C",
",.	c #08080A",
"'.	c #717171",
").	c #D2D2CC",
"!.	c #EEEEB4",
"~.	c #E6E6B9",
"{.	c #B7B77F",
"].	c #B2B2B4",
"^.	c #B6B6B4",
"/.	c #BABABC",
"(.	c #828284",
"_.	c #665E7C",
":.	c #E5E5E3",
"<.	c #F9F9F7",
"[.	c #E7E7E9",
"}.	c #E2E2E4",
"|.	c #DEDED4",
"1.	c #E6E6C4",
"2.	c #D2D2B4",
"3.	c #C6C6B4",
"4.	c #C2C2C4",
"5.	c #A6A6A4",
"6.	c #564A6C",
"7.	c #5A5274",
"8.	c #76767C",
"9.	c #FBFBFC",
"0.	c #FDFDFB",
"a.	c #FBFBFA",
"b.	c #F7F7F5",
"c.	c #E6E6E4",
"d.	c #DEDEE4",
"e.	c #D6D6DC",
"f.	c #CECECC",
"g.	c #D2D2D4",
"h.	c #C2C2BC",
"i.	c #BABAB4",
"j.	c #B2B2AC",
"k.	c #AAAAAC",
"l.	c #6A6A6C",
"m.	c #F6F6F4",
"n.	c #F4F4F5",
"o.	c #F5F5F7",
"p.	c #F1F1EF",
"q.	c #C6C6C4",
"r.	c #BEBEC4",
"s.	c #F2F2F4",
"t.	c #EAEAE4",
"u.	c #DADADC",
"v.	c #666664",
"w.	c #EAEAEC",
"x.	c #DEDEDC",
"y.	c #727274",
"z.	c #9A9A9C",
"A.	c #929294",
"B.	c #92928C",
"C.	c #8E8E94",
"D.	c #9E9EA4",
"E.	c #96969C",
"F.	c #EEEEEC",
"G.	c #CACACC",
"H.	c #8A8A8C",
"I.	c #585858",
"J.	c #D6D6D4",
"K.	c #929274",
"L.	c #565654",
"M.	c #2A2A2C",
"N.	c #12120C",
"O.	c #B2B284",
"P.	c #B2B26C",
"Q.	c #A2A274",
"R.	c #8E8E74",
"S.	c #3A3A34",
"T.	c #B2B274",
"U.	c #BEBE84",
"V.	c #BEBE9C",
"W.	c #BABA94",
"X.	c #B6B694",
"Y.	c #5E5E5C",
"Z.	c #8E8E7C",
"`.	c #B6B68C",
" +	c #C2C2AC",
".+	c #C6C6AC",
"++	c #B6B69C",
"@+	c #AAAA7C",
"#+	c #BABA84",
"$+	c #CACA8C",
"%+	c #B2B294",
"&+	c #DADAD4",
"*+	c #878789",
"=+	c #DEDEC4",
"-+	c #D6D6B4",
";+	c #CECEB4",
">+	c #E2E2CC",
",+	c #E6E6AC",
"'+	c #CACAAC",
")+	c #6E6E6C",
"!+	c #575757",
"~+	c #EAEACC",
"{+	c #FAFAEC",
"]+	c #FEFED4",
"^+	c #F6F6CC",
"/+	c #EAEAC4",
"(+	c #9E9E8C",
"_+	c #E6E6D4",
":+	c #F6F6E4",
"<+	c #EAEADC",
"[+	c #EEEEE4",
"}+	c #D2D2BC",
"|+	c #C6C6CC",
"              . .                                               ",
"            . + @ .     # . .                                   ",
"            . $ % & . . * = - ;                                 ",
"          > , ' ) ! ~ { * * ] ^ /                               ",
"      . . ( _ : < : [ * } | 1 2 3 4                             ",
"    . 5 5 5 5 6 7 8 9 0 a b c d e f .                           ",
"    / 5 5 5 g h i j k l m n o p q r .                           ",
"      s 5 t u v j w x m m y z A A B C .                         ",
"        / . D E F G A H I A A J K L L $ . . .                   ",
"            M N O P Q A A R S T T U V W X Y Z .                 ",
"            `  ...+.@.#.$.%.&.*.=.*.-.) -.;.>.W .               ",
"        . ,.'.).!.~.{.%.%.;.;.].^./.) -.(._._.W .               ",
"      . :.<.[.}.|.1.2.3.) 4.) ) ^.-.-.5.6.7.8.W .               ",
"      . 9.0.a.b.c.d.e.f.g.h.i.].j.k.k.5.Y Y Y l..               ",
"      . m.n.o.p.d.q.q.r.i.i.^.j.-.-.k.Y Z l.l.+ .               ",
"      . s.s.s.t.u.q.) ) i.].^.-.-.-.l.v.l.>.>.D .               ",
"      . k.s.w.w.x.q.) /.^.].^.^.y.$ Y 5.Y >.z.D .               ",
"      . A.+ u.u.u.q.) /.;.l.l.l.;.;.5.5.' z.>.B..               ",
"      . t.f.C.& u.) ) l.l.D.;.-.k.;.5.Y D.>.E.A..               ",
"      . F.t.c.G.l.l.l.].^.].j.-.k.5.z.H.(.I.v.B..               ",
"      . F.c.c.}.J./.i.^.^.].-.;.Y (.I.I.I.K.L.M.N.              ",
"      . w.}.}.}.J./.i.^.^.-.z.I.I.I.K.O.P.P.Q.R.S..             ",
"      . c.c.}.x.e././.].;.I.I.K.T.U.V.V.W.X.O.r R.Y..           ",
"      . x.}.}.x.J./.i.^.-.Z.=.`.V. + +.+V.++@+`.#+$+%+.         ",
"        . 4.&+u.g././.*+^.j.*.*.3.|.=+-+.+;+=+>+l l ,+'+.       ",
"          . )+) J././.!+D j.i.=.%+F w ~+E {+9 5 ]+^+/+/+) .     ",
"            . . f./.# . . . X 4.++(+ +_+{+{+:+_ <+>+).Y .       ",
"                # .         . . ]./.^.) |.[+_ <+}+].+ .         ",
"                                . D q.;.].&+G.Y C.5.z.+ .       ",
"                                  . . ' |+].L.. . + E.z.>..     ",
"                                      . . . .     # . $ + #     ",
"                                                      . #       "};
