/* XPM */
static char*mini[]={
"16 16 13 1",
"j c #808080",
"h c #a0a0a0",
"k c #c3c3c3",
"b c #c0c000",
"# c #000000",
". c None",
"e c #ffff00",
"d c #303030",
"g c #ffdca8",
"c c #ffffc0",
"i c #585858",
"f c #dcdcdc",
"a c #ffffff",
"....###.........",
"..##abcd#.......",
".#abacbce###....",
"..#abbceeeff##..",
"...#cccgffffhh#.",
"..##gcffffhidh#.",
".#aaffffhhhiii#.",
".#faafhhhhiihh#.",
".#jffhhhiihhhh#.",
".#hhjhiihhhhhh#.",
".#ffhihhhkkh##..",
".#fffhhhkfeeh#..",
".#fffhh#heccch#.",
"..#ffh###hcccf#.",
"...###...#hcfd..",
"..........#dd..."};
