/* XPM */
static char *clear[] = {
/* width height num_colors chars_per_pixel */
"    22    22        8            1",
/* colors */
". c none",
"# c #000000",
"a c #808080",
"b c #c0c0c0",
"c c #595959",
"d c #ffffff",
"e c #b30000",
"f c #ff0000",
/* pixels */
".####################.",
"#aaaaaaaaaaaaaaaaaaaa#",
"#abbbbbbbbbbbbbbbbbba#",
"#abcccccccccccccccdba#",
"#abc###e##########dba#",
"#abc#defe#dddd#ee#dba#",
"#abc#efffe####effedba#",
"#abcefffffeddeffffeba#",
"#abefffffffeeffffffea#",
"#abceffffffeffffffeba#",
"#abc#effffeffffffedba#",
"#abc##effeffffffe#dba#",
"#abc###efefffffee#dba#",
"#abdddddefffffeffedba#",
"#abbbbbefffffeffffeba#",
"#abbbbeffffffefffffea#",
"#aaaaeffffffefffffeaa#",
".###effffffe#efffe###.",
".....effffedbaefe.....",
"..####eefeddbaae####..",
"..#aaaaaeaaaaaaaaaa#..",
"..#cccccccccccccccc#.."
};
