/* XPM */
static char *ksysv[] = {
/* width height num_colors chars_per_pixel */
"    16    16       12            1",
/* colors */
". c none",
"# c #000000",
"a c #c0c0c0",
"b c #ffc66b",
"c c #595959",
"d c #ffaa25",
"e c #966200",
"f c #ffffff",
"g c #ffe2b1",
"h c #00ff00",
"i c #a0a0a4",
"j c #808080",
/* pixels */
".##############.",
"#aaaaaaaaaaaa#b#",
"#acccccccccc#bde",
"#a##########bde#",
"#a#fff#fff#bde##",
"#a########bde#f#",
"#a#fffff#bde#ff#",
"#a#######ge###f#",
"#a#fff#f######f#",
"#a############f#",
"#aaaaaaaaaaaaaa#",
"#aaaaaaaaaaaaha#",
".##############.",
"....#ciafaj#....",
"..#jjjjjjjjjj#..",
"..############.."
};
