/* XPM */
static char *save[] = {
/* width height num_colors chars_per_pixel */
"    22    22        8            1",
/* colors */
". c none",
"# c #000000",
"a c #808080",
"b c #c0c0c0",
"c c #008000",
"d c #595959",
"e c #00ff00",
"f c #ffffff",
/* pixels */
".####################.",
"#aaaaaaaaaaaaaaaaaaaa#",
"#abbbbbbbbbbbbbbbbcba#",
"#abddddddddddddddccba#",
"#abd############ceeca#",
"#abd#ffff#ffff#fceeca#",
"#abd###########ceeeec#",
"#abd#ff#fffff#ceeeeec#",
"#abd#c#######ceeeeeca#",
"#abdcecfff#ffceeeecba#",
"#abceec#####ceeeecfba#",
"#aceeeec###ceeeec#fba#",
"#abceeeec#ceeeec##fba#",
"#abfceeecfceeecffffba#",
"#abbbceeeceeecbbbbbba#",
"#abbbbceeeeecbdbc.cba#",
"#aaaaaaceeecaaaaaaaaa#",
".#######cec##########.",
".....#daacffbaad#.....",
"..####daabffbaad####..",
"..#aaaaaaaaaaaaaaaa#..",
"..#dddddddddddddddd#.."
};
