/* XPM */
static char *toggle[] = {
/* width height num_colors chars_per_pixel */
"    22    22        7            1",
/* colors */
". c none",
"# c #000000",
"a c #808080",
"b c #c0c0c0",
"c c #595959",
"d c #ffffff",
"e c #008000",
/* pixels */
".####################.",
"#aaaaaaaaaaaaaaaaaaaa#",
"#abbbbbbbbbbbbbbbbbba#",
"#abcccccccccccccccdba#",
"#abc##############dba#",
"#abc#dddd#dddd#dd#dba#",
"#abc##############dba#",
"#abc#dd#ddddd#ddd#dba#",
"#abc##############dba#",
"#abc#ddddd#ddd#dd#dba#",
"#abc##############dba#",
"#abc##############dba#",
"#abc##############dba#",
"#abddddddddddddddddba#",
"#abbbbbbbbbbbbbbbbbba#",
"#abbbbbbbbcbcbcbe.eba#",
"#aaaaaaaaaaaaaaaaaaaa#",
".####################.",
".....#caabddbaac#.....",
"..####caabddbaac####..",
"..#aaaaaaaaaaaaaaaa#..",
"..#cccccccccccccccc#.."
};
