/* XPM */
static char*media[]={
"16 16 12 1",
"a c #008000",
"j c #ffa858",
"f c #00ff00",
"d c #808000",
"i c #404000",
"c c #c05800",
"# c #000000",
"g c #ff8000",
"h c #800000",
". c None",
"e c #c00000",
"b c #00c000",
"....########....",
"..##abababab##..",
".#baccccbbccbb#.",
"#bbbdceebcccefb#",
"#bddbbbbfbedfbf#",
"#becceb##fbfbdb#",
"#bbcebfbfbccggf#",
".#bdbfcccfdcgf#.",
"#hfbfeggdbfbfbh#",
"#dccbfbfbfbfhhd#",
"#bdcgicgcchhhdb#",
".#bdcjiggcchbb#.",
"..#bicjibbbbb#..",
"...###cj#####...",
"......#cj#......",
".......#cj#....."};
