/* XPM */
static char * kmedia_xpm[] = {
"32 32 151 2",
"  	c None",
". 	c #020204",
"+ 	c #129A3C",
"@ 	c #12A244",
"# 	c #16AA44",
"$ 	c #16B64C",
"% 	c #16BE4C",
"& 	c #1AC654",
"* 	c #1ACE54",
"= 	c #12963C",
"- 	c #6E461C",
"; 	c #16C254",
"> 	c #1ACA54",
", 	c #BA4E1C",
"' 	c #C65E24",
") 	c #662614",
"! 	c #6E4214",
"~ 	c #5A4A1C",
"{ 	c #1EF264",
"] 	c #1EF664",
"^ 	c #626264",
"/ 	c #16A644",
"( 	c #D66214",
"_ 	c #FE7A2C",
": 	c #BA722C",
"< 	c #CE6E2C",
"[ 	c #EE822C",
"} 	c #E26A24",
"| 	c #8A6A24",
"1 	c #1EFA6C",
"2 	c #A29EA4",
"3 	c #7E7E7C",
"4 	c #868684",
"5 	c #4A4A4C",
"6 	c #16AE44",
"7 	c #1AD254",
"8 	c #92762C",
"9 	c #FA7A2C",
"0 	c #F69634",
"a 	c #1EF66C",
"b 	c #828284",
"c 	c #323234",
"d 	c #565654",
"e 	c #BE521C",
"f 	c #963A14",
"g 	c #824A1C",
"h 	c #0E4A24",
"i 	c #1ADA5C",
"j 	c #1AE25C",
"k 	c #1EEA64",
"l 	c #121214",
"m 	c #7A7A7C",
"n 	c #3E3E3C",
"o 	c #464644",
"p 	c #767674",
"q 	c #C24614",
"r 	c #FA6224",
"s 	c #16B24C",
"t 	c #16BA4C",
"u 	c #1AD65C",
"v 	c #1EE664",
"w 	c #723614",
"x 	c #C25A1C",
"y 	c #CE5E14",
"z 	c #A27A2C",
"A 	c #525254",
"B 	c #363634",
"C 	c #4E4E4C",
"D 	c #5E5E5C",
"E 	c #666664",
"F 	c #129E3C",
"G 	c #8E3E1C",
"H 	c #CA6A24",
"I 	c #AA8234",
"J 	c #1EEE64",
"K 	c #D6862C",
"L 	c #E6AA34",
"M 	c #162A24",
"N 	c #6A6264",
"O 	c #3A3A3C",
"P 	c #6A6A6C",
"Q 	c #064E1C",
"R 	c #52AE5C",
"S 	c #A66A34",
"T 	c #06822C",
"U 	c #2E2E2C",
"V 	c #0A521C",
"W 	c #925E3C",
"X 	c #665A34",
"Y 	c #4A5E1C",
"Z 	c #3A7E54",
"` 	c #1ADE5C",
" .	c #426254",
"..	c #A28644",
"+.	c #D6563C",
"@.	c #5A5A5C",
"#.	c #6A5234",
"$.	c #AA7A4C",
"%.	c #56320C",
"&.	c #6E463C",
"*.	c #96524C",
"=.	c #663234",
"-.	c #7A424C",
";.	c #DE6E24",
">.	c #C27A34",
",.	c #DE6E1C",
"'.	c #0ACE5C",
").	c #126E34",
"!.	c #424244",
"~.	c #0E0E0C",
"{.	c #0A1A0C",
"].	c #CA8E5C",
"^.	c #262624",
"/.	c #86320C",
"(.	c #9A522C",
"_.	c #02E65C",
":.	c #1AB24C",
"<.	c #DADADC",
"[.	c #1E1E1C",
"}.	c #DEC26C",
"|.	c #2A5624",
"1.	c #925A24",
"2.	c #26C65C",
"3.	c #222224",
"4.	c #CACACC",
"5.	c #EEEEEC",
"6.	c #DEA264",
"7.	c #B69664",
"8.	c #161614",
"9.	c #EAEAEC",
"0.	c #C29E5C",
"a.	c #FEE27C",
"b.	c #927A54",
"c.	c #CECECC",
"d.	c #3E3A3C",
"e.	c #E6E67C",
"f.	c #E2E2E4",
"g.	c #C6C6C4",
"h.	c #8A8A8C",
"i.	c #6E6E6C",
"j.	c #EAE69C",
"k.	c #727274",
"l.	c #FEF284",
"m.	c #D6B274",
"n.	c #1A1A1C",
"o.	c #FEAE64",
"p.	c #926A4C",
"q.	c #D2965C",
"r.	c #A2764C",
"s.	c #725234",
"t.	c #4A361C",
"              . . . . . . .                                     ",
"          . . + @ # $ % & * . .                                 ",
"      . . = = - - - $ ; > > > > . .           . .               ",
"    . = = = - - , ' ' > * ) ! ~ { ] .       . ^ ^ .             ",
"  . = = = / / / ( _ : * ' < [ } | 1 ] .   . 2 3 4 5 .           ",
"  . = - ~ + / 6 $ % > 7 8 9 0 0 a 1 ] ] . . b c d b .           ",
"  . = - e , f g % & h i j k { 1 1 a 1 1 l m c n o p .           ",
"  . = = q r s t & ; u u v w x y e z a 1 A ^ B B C D E .         ",
"    . F / 6 $ $ G x H I J 0 K L 1 ] ] M N n B O C D P .         ",
"  . Q . # s % 0 0 0 0 0 { 1 a a 1 R S T E U B O C d ^ .         ",
"  . V W X Y Z > u ` v J 1 a 1  ...+.S T @.B O n A C N o .       ",
"  . V #.$.%.&.G *.=., =.' -.;.>.,.S '.).d B B c ^ !.D @.~..     ",
"    . {.].^.! /.(.>.x >.y >.y S S _.:.. E c U !.<.5 A N [.. .   ",
"      . #.}.|.+ S 1.S 1.S 1.2.'.6 . . . d B 3.4.5.C !.P [.5 A . ",
"        . 6.7.s s s s s :.s 6 . .     . A B 8.9.<.n o D 3.C A . ",
"        . 0.a.b.. . . . . . .         . ^ n [.9.c.d.!.E l A !.. ",
"          . e.6..                     . ^ c 3.f.g.U o p l d.n . ",
"            . .                       . E B c h.4.O o i.3.B B . ",
"            . j..                     . k.5 !.5 2 n P A 3.!.[.. ",
"            . l..                     . 3 5 A d D D m C ^.. .   ",
"          . m.m..                     . m 5 A E m 4 m 5 n..     ",
"          . o..                         . ^ @.i.m b E .         ",
"        . p.0..                         . m ^ p m b A .         ",
"        . q.. .                         . h.k.k.m 3 @..         ",
"        . r..                             . 4 m b P .           ",
"        . r..                             . b 4 3 o .           ",
"        . s..                             . @.D n 5 .           ",
"          .                                 . P @..             ",
"          . .                                 . .               ",
"          . &..                                                 ",
"          . t.w .                                               ",
"          . . .                                                 "};
