/* XPM */
static char * large_kmedia_xpm[] = {
"48 48 236 2",
"  	c None",
". 	c #020204",
"+ 	c #169F42",
"@ 	c #17983E",
"# 	c #1AB24B",
"$ 	c #000000",
"% 	c #0D9034",
"& 	c #15923C",
"* 	c #12963C",
"= 	c #643414",
"- 	c #18A840",
"; 	c #14B949",
"> 	c #0DB842",
", 	c #17C04C",
"' 	c #1BC84D",
") 	c #13C84C",
"! 	c #1E1E1E",
"~ 	c #383838",
"{ 	c #188D40",
"] 	c #4E2A14",
"^ 	c #C55D24",
"/ 	c #6C4014",
"( 	c #49351F",
"_ 	c #663A14",
": 	c #724818",
"< 	c #18D04D",
"[ 	c #18D854",
"} 	c #1F1F1F",
"| 	c #676767",
"1 	c #6B6B6B",
"2 	c #222222",
"3 	c #4C2E14",
"4 	c #86461C",
"5 	c #AA501C",
"6 	c #B0561C",
"7 	c #F0772C",
"8 	c #A26327",
"9 	c #563A14",
"0 	c #7E4117",
"a 	c #B25E24",
"b 	c #CE6E24",
"c 	c #B56220",
"d 	c #85541C",
"e 	c #13DF54",
"f 	c #1EDE5C",
"g 	c #4E4E4E",
"h 	c #8D8D8D",
"i 	c #797979",
"j 	c #2D2D2D",
"k 	c #0E8A34",
"l 	c #10A03C",
"m 	c #BE6624",
"n 	c #DA6E24",
"o 	c #EE822C",
"p 	c #784818",
"q 	c #FE8E34",
"r 	c #E98D31",
"s 	c #C8822C",
"t 	c #1BE759",
"u 	c #14EA58",
"v 	c #959595",
"w 	c #575757",
"x 	c #616161",
"y 	c #5E5E5E",
"z 	c #141414",
"A 	c #36220C",
"B 	c #AA7224",
"C 	c #F49634",
"D 	c #15F75E",
"E 	c #26F66C",
"F 	c #18F15D",
"G 	c #4C4C4C",
"H 	c #373737",
"I 	c #2E2E2E",
"J 	c #363636",
"K 	c #585858",
"L 	c #848484",
"M 	c #3A3A3A",
"N 	c #030303",
"O 	c #9E4E1C",
"P 	c #724210",
"Q 	c #122614",
"R 	c #1AFA60",
"S 	c #20F05E",
"T 	c #404040",
"U 	c #3E3E3E",
"V 	c #505050",
"W 	c #717171",
"X 	c #656565",
"Y 	c #1C1C1C",
"Z 	c #A6561C",
"` 	c #D66424",
" .	c #1CB644",
"..	c #67511C",
"+.	c #916327",
"@.	c #9A6A24",
"#.	c #7A5A1C",
"$.	c #825E1C",
"%.	c #A67E2C",
"&.	c #4A4A4A",
"*.	c #6F6F6F",
"=.	c #525252",
"-.	c #3F3F3F",
";.	c #1D1D1D",
">.	c #0D9739",
",.	c #784214",
"'.	c #BA5C20",
").	c #DA7224",
"!.	c #6C4618",
"~.	c #CE8A2C",
"{.	c #BE9234",
"].	c #17FE69",
"^.	c #1FF96A",
"/.	c #393939",
"(.	c #444444",
"_.	c #606060",
":.	c #11A93F",
"<.	c #8A4A1C",
"[.	c #C67224",
"}.	c #CA7A2C",
"|.	c #AE862C",
"1.	c #E8A838",
"2.	c #EEB63C",
"3.	c #2C2C2C",
"4.	c #464646",
"5.	c #0B0B0B",
"6.	c #0A6020",
"7.	c #0AB241",
"8.	c #9F5D1F",
"9.	c #F29E34",
"0.	c #EE9E34",
"a.	c #333333",
"b.	c #4F4F4F",
"c.	c #825E40",
"d.	c #1ED957",
"e.	c #514131",
"f.	c #03B842",
"g.	c #343434",
"h.	c #8E623C",
"i.	c #A07449",
"j.	c #514742",
"k.	c #AE7644",
"l.	c #4E404C",
"m.	c #BA7428",
"n.	c #B0866C",
"o.	c #B56B24",
"p.	c #0E6A2C",
"q.	c #AA7A48",
"r.	c #784E1C",
"s.	c #804C1C",
"t.	c #816349",
"u.	c #965E24",
"v.	c #5A432C",
"w.	c #927A54",
"x.	c #BA6E2C",
"y.	c #C17A34",
"z.	c #62963C",
"A.	c #030305",
"B.	c #0E722C",
"C.	c #AA764C",
"D.	c #775B41",
"E.	c #A46A30",
"F.	c #A68A6C",
"G.	c #A26A04",
"H.	c #0BBA50",
"I.	c #B6B6B6",
"J.	c #949494",
"K.	c #424242",
"L.	c #02862C",
"M.	c #462604",
"N.	c #925A24",
"O.	c #FEFEFE",
"P.	c #B1B1B1",
"Q.	c #515151",
"R.	c #E29E5C",
"S.	c #FEB264",
"T.	c #F4F4F4",
"U.	c #C4C4C4",
"V.	c #E6A65C",
"W.	c #DCA264",
"X.	c #C2A25C",
"Y.	c #B8B8B8",
"Z.	c #CA9A5C",
"`.	c #FEF084",
" +	c #6A6A6A",
".+	c #9E9E9E",
"++	c #1A1A1A",
"@+	c #FEE27C",
"#+	c #E6E67C",
"$+	c #DED67C",
"%+	c #999999",
"&+	c #867A54",
"*+	c #C2BE7C",
"=+	c #E5E5E5",
"-+	c #242424",
";+	c #FEFE9C",
">+	c #7C7C7C",
",+	c #EBEBEB",
"'+	c #7A7A7A",
")+	c #646464",
"!+	c #262626",
"~+	c #171717",
"{+	c #3D3D3D",
"]+	c #D5D5D5",
"^+	c #989898",
"/+	c #2A2A2A",
"(+	c #EAE69C",
"_+	c #4B4B4B",
":+	c #454545",
"<+	c #888888",
"[+	c #686868",
"}+	c #191919",
"|+	c #B68E5C",
"1+	c #CEB26C",
"2+	c #010101",
"3+	c #787878",
"4+	c #777777",
"5+	c #826A4C",
"6+	c #7D7D7D",
"7+	c #565656",
"8+	c #FEAE64",
"9+	c #737373",
"0+	c #808080",
"a+	c #CA8E54",
"b+	c #727272",
"c+	c #966A44",
"d+	c #B07E4C",
"e+	c #707070",
"f+	c #757575",
"g+	c #624E3C",
"h+	c #765634",
"i+	c #898989",
"j+	c #725234",
"k+	c #282828",
"l+	c #555555",
"m+	c #4E3A4C",
"                                                                                                ",
"                                                                                                ",
"                                                                                                ",
"                      . . . . . . . . . . .                                                     ",
"                . . . + @ # # # # # # # @ + . . .                   $ $                         ",
"            . . % & * & = = = - ; > , , = , ' ) ' . .             $ ! ~ $                       ",
"          . { { % ] = = ^ ^ ^ / # , ; ( _ / : = < [ < .         $ } | 1 } 2                     ",
"        . { % % 3 4 5 6 6 ^ 7 7 8 ) 9 0 a b b c d e e f .     $ g h i i | j 2                   ",
"      . { k k % * l + m n 7 7 o ' < p c o q q r s t u u f .   $ v h w x i y z                   ",
"      . k A ] = _ l # - # , ' ' < e f B r C D E D F D D F . $ G v H I J K L M N                 ",
"      . { ] 0 5 5 O 0 P d ) ) Q Q e u u F R S D S D D R R . $ i T J T U V W X Y                 ",
"      . { % = Z ` ` m  ., ) < < [ u D D ..+.@.+.#.$.%.R R . &.*.T J H T =.x | -.;.              ",
"      . * >.@ ,.'.).# , , !./ !.!...D D ..B ~.~.{.{.R ].^.. y w /.J J (.=.w _.=.N               ",
"        . >.l l :. .> p / <.c [.}.s R R F |.1.2.E ].].D . 3.x T J J J 4.G y | G 5.              ",
"      . 6.. + :.7.; , / 8.}.r C 9.0.R ].].R ].^.].^.E . 7.. X J J a.J 4.b.=._.=.2               ",
"      . 6.. c.. - > , , < d.e F S R ].R ^.^.^.^.E e.8 7.f.. y a.~ J ~ 4.b.=.=._.g.5.            ",
"      . 6.. h.i.. P j.< < < S F S F S F ^.^.k.l.m.n.o.f.7.. w ~ ~ ~ ~ 4.b.G w x J N             ",
"      . p.. h.q.. P j.r.s.t.j.u.u.v.w.c j.x.y.n.[.y.z.f.7.A.w ~ J ~ J U =.4.=.X T z $           ",
"        . B.. C.D.. p s.d t.e.u.8.e.E.c F.x.y.y.G.f.f.H.. x =.~ J a.J I.J.T G X K.;.H $ $       ",
"          . . q.D.. L.M.,.d N.u.@.E.G.G.G.G.G.f.f.H.H.. $ X =.J J J T O.P.(.M _.Q.2 H =.=.$     ",
"              . R.S.. >.>.l :.7.> > f.H.H.H.H.H.H.. .   $ _.4.J J J T.O.U.4.J _.w 2 U G G $     ",
"              . V.W.X.. 7.# # # # # # # # # . . .       $ w T J J I O.O.Y.U U w =.3.J =.G $     ",
"                . Z.w.`.. . . . . . . . . .             $  +G J U J O.O..+M J w =.++T G 4.$     ",
"                  . @+#+$+.                             $ | w T U U O.O.%+J H w K z a.=.~ $     ",
"                  . @+&+*+.                             $ X =.J M M =+O.J.I J y y z -+4.~ 5.    ",
"                    . $+;+.                             $ >+V M K.J Y.,+'+J J x )+!+-+K.a.~+    ",
"                      . .                               $ >+=.M {+{+=.]+^+J M _.b.!+/+~ a.z     ",
"                    . (+.                               $ W _._+:+T T J.<+J w [+T ;.T J }+$     ",
"                    . `..                               $ X *.b.4.b.=.w w G [+[+J 2 J J J $     ",
"                  . |+1+.                                 2+3+b.G =.K X *.4+i X :+!+!+$ $       ",
"                  . W.5+.                                 $ i =.G w x *.6+6+6+7+-.2 $           ",
"                . R.8+.                                   $ i _.=.y [+*.i 6+9+G U ;.            ",
"                . i.R..                                   $ | *._.y *.9+0+'+| U M !+            ",
"              . q.t.a+.                                   $ =.9+X [+b+b+i 6+y T j               ",
"              . c+d+.                                       2+i *.e+b+b+>+4+)+K.$               ",
"              . h.i..                                       $ _.f+4+b+4+i | T G $               ",
"              . g+.                                         $ a.L '+'+i >+y M $                 ",
"              . h+.                                           I (.i+i i | J Q.$                 ",
"              . j+.                                           $ J _+x y M K.$                   ",
"                .                                               $ }+=.{+k+V $                   ",
"                . .                                               $ y V l+$                     ",
"                . v..                                               $ $ $                       ",
"                . e.e..                                                                         ",
"                . m+v.e..                                                                       ",
"                . ( ( .                                                                         ",
"                . . . .                                                                         ",
"                                                                                                ",
"                                                                                                "};
