#define logo_width 60
#define logo_height 48
static unsigned char logo_bits[] = {
  0x00, 0x00, 0x00, 0x00, 0x00, 0x00, 0x00, 0x00, 0x00, 0x00, 0x00, 0x00,
  0x00, 0x00, 0x00, 0x00, 0x00, 0x00, 0x00, 0x00, 0x00, 0x00, 0x00, 0x00,
  0x00, 0x00, 0x00, 0x00, 0x00, 0x00, 0x00, 0x00, 0x00, 0x00, 0xff, 0x00,
  0x00, 0x00, 0x00, 0x00, 0x00, 0xf0, 0x40, 0x00, 0xff, 0xff, 0xff, 0x03,
  0x00, 0x0c, 0x60, 0xc0, 0x01, 0x00, 0x00, 0x00, 0x00, 0x06, 0x30, 0xe0,
  0x00, 0x00, 0x00, 0x00, 0x00, 0x06, 0x30, 0x30, 0x00, 0x00, 0x00, 0x00,
  0x00, 0x06, 0x18, 0x18, 0x00, 0x00, 0x00, 0x00, 0x00, 0x06, 0x18, 0x0c,
  0xe0, 0xff, 0x0f, 0x00, 0x00, 0x06, 0x18, 0x06, 0x20, 0x00, 0x08, 0x00,
  0x00, 0x06, 0x08, 0x03, 0x20, 0xc1, 0x09, 0x00, 0x00, 0x04, 0x8c, 0x01,
  0x20, 0x43, 0x09, 0x00, 0x00, 0x04, 0x4c, 0x00, 0x20, 0x45, 0x09, 0x00,
  0x00, 0x04, 0x3c, 0x00, 0x20, 0x49, 0x09, 0x00, 0x00, 0x00, 0x4c, 0x00,
  0x20, 0x51, 0x09, 0x00, 0x00, 0x00, 0xc4, 0x00, 0x20, 0x61, 0x09, 0x00,
  0x00, 0x00, 0x86, 0x01, 0x20, 0x51, 0x09, 0x00, 0x00, 0x00, 0x86, 0x01,
  0x20, 0x49, 0x09, 0x00, 0x00, 0x00, 0x82, 0x03, 0x20, 0x45, 0x09, 0x00,
  0x00, 0x00, 0x02, 0x03, 0x20, 0x43, 0x09, 0x00, 0x00, 0x00, 0x01, 0x03,
  0x20, 0xc1, 0x09, 0x00, 0xfc, 0xff, 0x00, 0x03, 0x20, 0x00, 0x08, 0x00,
  0x00, 0x00, 0x00, 0x06, 0xe0, 0xff, 0x0f, 0x00, 0x00, 0x00, 0x00, 0x06,
  0x00, 0x00, 0x00, 0x00, 0x00, 0x00, 0x00, 0x06, 0x00, 0x00, 0x00, 0x00,
  0x00, 0x00, 0x00, 0x04, 0x00, 0x70, 0x00, 0x00, 0x00, 0x00, 0x00, 0x08,
  0x00, 0x38, 0x00, 0x00, 0x00, 0x00, 0x00, 0x18, 0xe0, 0x00, 0x00, 0x00,
  0x00, 0x00, 0x00, 0xf0, 0xef, 0xfe, 0xff, 0x01, 0xe0, 0x8e, 0xc3, 0x07,
  0xe0, 0x00, 0x00, 0x00, 0xe0, 0xdf, 0xe7, 0x0f, 0x7f, 0x1c, 0x3f, 0x00,
  0xe0, 0xff, 0x77, 0x9c, 0x7f, 0x9c, 0x71, 0x00, 0x60, 0x3c, 0x73, 0xdc,
  0x71, 0x1c, 0x70, 0x00, 0x70, 0x9c, 0xfb, 0xcf, 0x71, 0x8e, 0x7f, 0x00,
  0x70, 0x9c, 0xfb, 0xc7, 0x30, 0xce, 0x3f, 0x00, 0x70, 0x9c, 0x3b, 0xe0,
  0x30, 0xee, 0x38, 0x00, 0x70, 0x8e, 0x3b, 0xe0, 0x38, 0xe7, 0x38, 0x00,
  0x38, 0xce, 0x39, 0xe4, 0x3f, 0xe7, 0x38, 0x00, 0x38, 0xce, 0xf9, 0xe7,
  0x1f, 0xe7, 0x3f, 0x00, 0x38, 0xce, 0xf1, 0xc3, 0x1b, 0xc7, 0x1f, 0x00,
  0x00, 0x00, 0x00, 0x00, 0x00, 0x00, 0x00, 0x00, 0x00, 0x00, 0x00, 0x00,
  0x00, 0x00, 0x00, 0x00, 0x00, 0x00, 0x00, 0x00, 0x00, 0x00, 0x00, 0x00,
  0x00, 0x00, 0x00, 0x00, 0x00, 0x00, 0x00, 0x00, 0x00, 0x00, 0x00, 0x00,
  0x00, 0x00, 0x00, 0x00, 0x00, 0x00, 0x00, 0x00, 0x00, 0x00, 0x00, 0x00,
  };
