/* XPM */
static char *playpause_play[] = {
/* width height num_colors chars_per_pixel */
"    16    15        3            1",
/* colors */
". c none",
"# c #000000",
"a c #00fc00",
/* pixels */
"................",
"................",
"...#.....###....",
"...##....#.#....",
"...#a#...#.#....",
"...#aa#..#.#....",
"...#aaa#.#.#....",
"...#aaaa##.#....",
"...#aaa#.#.#....",
"...#aa#..#.#....",
"...#a#...#.#....",
"...##....#.#....",
"...#.....###....",
"................",
"................"
};
