/* XPM */
static char *playpause_both[] = {
/* width height num_colors chars_per_pixel */
"    16    15        3            1",
/* colors */
". c none",
"# c #000000",
"a c #f08c00",
/* pixels */
"................",
"................",
"...#.....###....",
"...##....#a#....",
"...#a#...#a#....",
"...#aa#..#a#....",
"...#aaa#.#a#....",
"...#aaaa##a#....",
"...#aaa#.#a#....",
"...#aa#..#a#....",
"...#a#...#a#....",
"...##....#a#....",
"...#.....###....",
"................",
"................"
};
