/* XPM */
static char * prev_xpm[] = {
"22 22 6 1",
" 	c None",
".	c #000000000000",
"X	c #FFFFFFFFFFFF",
"o	c #F7DEF7DEF7DE",
"O	c #082008200820",
"+	c #618561856185",
"                      ",
"                   .  ",
"                  ..  ",
"                 .X.  ",
"                .Xo.  ",
"  ..........   .XXX.  ",
"  ...O...O..  .oX X.  ",
"              +.X X.  ",
"  .........    +.Xo.  ",
"                +.X.  ",
"  .......        +..  ",
"                  +.  ",
"  ..........          ",
"  .OO.O.O.O.          ",
"                      ",
"  ....                ",
"                      ",
"  ..........          ",
"                      ",
"                      ",
"                      ",
"                      "};
