/* XPM */
static char *magick[] = {
/* columns rows colors chars-per-pixel */
"16 16 5 1",
"  c #000000",
". c #0000ff",
"X c #808080",
"o c #ffffff",
"O c None",
/* pixels */
"OOOOOOOOOOOOOOOO",
"          OOOOOO",
" ooooooo   OOOOO",
" ooXXXXo o  OOO.",
" ooooooo    OO..",
" ooXXXXoooo O.. ",
" oooooooooo .. O",
" ooXXXXXXoo.. OO",
" ooooooooo.. OOO",
" ooXXXXXX . OOOO",
" ooooooo    OOOO",
" ooXXXX   o OOOO",
" ooooo oooo OOOO",
" oooooooooo OOOO",
"            OOOO",
"OOOOOOOOOOOOOOOO"
};
