/* XPM */
static char *magick[] = {
/* columns rows colors chars-per-pixel */
"16 16 4 1",
"  c #000000",
". c #808080",
"X c #ffffff",
"o c None",
/* pixels */
"oooooooooooooooo",
"         ooooooo",
" XXXXXXX  oo. .X",
" XXXXXXX X  X .o",
" X.....X X X . o",
" XXXXXXXX X . oo",
" X.....X X . ooo",
" X XXXX X.. oooo",
". X XX.X  . oooo",
" .    X ..  Xooo",
" ..      .  oooo",
"  ..    . X oooo",
" X ..   . X oooo",
" XX .. . XX oooo",
" XXX ... XX oooo",
"      .     oooo"
};
