/* XPM */
static char * kasteroids_xpm[] = {
"32 32 96 2",
"  	c None",
". 	c #000000",
"+ 	c #161715",
"@ 	c #3D3E38",
"# 	c #5C5C55",
"$ 	c #71716A",
"% 	c #75746A",
"& 	c #FFFFC0",
"* 	c #FFDCA8",
"= 	c #1A1B19",
"- 	c #353635",
"; 	c #52534F",
"> 	c #7D7D75",
", 	c #8D8B82",
"' 	c #A0A094",
") 	c #A0A090",
"! 	c #FF0000",
"~ 	c #F6B66C",
"{ 	c #1C1C19",
"] 	c #3C3E3B",
"^ 	c #4B4A45",
"/ 	c #6D6B63",
"( 	c #8C8C85",
"_ 	c #89897D",
": 	c #ABAAA0",
"< 	c #ADADA1",
"[ 	c #FFA858",
"} 	c #1B1B1B",
"| 	c #353732",
"1 	c #54564D",
"2 	c #5A5C54",
"3 	c #717167",
"4 	c #83847A",
"5 	c #8D9086",
"6 	c #BAB8A7",
"7 	c #B3B4A4",
"8 	c #EE7604",
"9 	c #2F302E",
"0 	c #51514B",
"a 	c #53534D",
"b 	c #6E6F66",
"c 	c #85847A",
"d 	c #96958A",
"e 	c #AAAA9E",
"f 	c #C0C0B3",
"g 	c #000001",
"h 	c #3F3E3B",
"i 	c #5E5E56",
"j 	c #585950",
"k 	c #8D8E84",
"l 	c #8B8B83",
"m 	c #9C9B90",
"n 	c #B4B4A4",
"o 	c #C4C1B2",
"p 	c #3A3A39",
"q 	c #52554E",
"r 	c #6E6D66",
"s 	c #99998D",
"t 	c #8B8B7F",
"u 	c #8C8D82",
"v 	c #BFBEB1",
"w 	c #5A5A54",
"x 	c #52534C",
"y 	c #97968C",
"z 	c #84857B",
"A 	c #8F8F83",
"B 	c #898981",
"C 	c #4C4B45",
"D 	c #787870",
"E 	c #67665D",
"F 	c #C0C0C0",
"G 	c #FFFFFF",
"H 	c #5A5A5C",
"I 	c #666664",
"J 	c #7E7E7C",
"K 	c #C6C6C4",
"L 	c #D6D6D4",
"M 	c #A8A8A8",
"N 	c #808080",
"O 	c #828284",
"P 	c #BEBEBC",
"Q 	c #EDEDED",
"R 	c #E5E5E5",
"S 	c #AAAAAC",
"T 	c #CECECC",
"U 	c #FEFEFC",
"V 	c #C2C2C4",
"W 	c #929294",
"X 	c #868684",
"Y 	c #0202DC",
"Z 	c #4E4EE4",
"` 	c #767674",
" .	c #AEAEAC",
"..	c #0202AC",
"+.	c #000080",
"@.	c #1212DC",
"          . . . .       . . .                                   ",
"      . + @ # $ % .     . & * .                                 ",
"    . = - ; > , ' ) .   . * ! ~ .                               ",
"  . { ] ^ / ( _ : < .     . ~ ! [ .                             ",
"  } | 1 2 3 4 5 6 7 .       . [ 8 .                             ",
". 9 0 a b c d e f .         g . . .                             ",
". h i j k l m n o .                                             ",
". p q r s t u v .                   . . .                       ",
". w x y z A B .                     . & * .                     ",
"  . C D E . .                       . * ! ~ .                   ",
"    . . .                             . ~ ! [ .                 ",
"                                        . [ 8 .                 ",
". . .                                     . . .                 ",
". & * .                                         . . .           ",
". * ! ~ . .                                     . F G .         ",
"  . ~ ! [ .                     . . . . .       . H F G .       ",
"    . [ 8 .                   . I J K L M .       . N F G .     ",
"      . . .                   . O P L Q R M .   . J . H F G .   ",
"              . . .           . S T P U Q V M . W F F . N F G . ",
"              . & * .         . X P P Y Y Z F M . F M N . N H . ",
"              . * ! ~ .       . `  .P . ..G Z F M . N .   . .   ",
"                . ~ ! [ .       . N P . +...G Z F M .           ",
"                  . [ 8 .         . N F . +...@.Z F M .         ",
"                    . . .           . N F . +...@.Z F M .       ",
"                          . . .   . J . N F . +.... F N .       ",
"                          . F G . W F F . N F . . F N . .       ",
"                          . H F G . F M N . N F F N . F N .     ",
"                            . N F G . N .   . N N . F M .       ",
"                              . H F G .       . . . N .         ",
"                                . N F G .           .           ",
"                                  . N H .                       ",
"                                    . .                         "};
