/* XPM */
static char * large_kasteroids_xpm[] = {
"48 48 146 2",
"  	c None",
". 	c #020204",
"+ 	c #2E2E2C",
"@ 	c #161614",
"# 	c #2A2A2C",
"$ 	c #464644",
"% 	c #56564C",
"& 	c #5A5E54",
"* 	c #4A4A44",
"= 	c #1E1E1C",
"- 	c #363634",
"; 	c #52524C",
"> 	c #5E5E54",
", 	c #6A6A64",
"' 	c #6E6E64",
") 	c #2E322C",
"! 	c #46463C",
"~ 	c #5A5A54",
"{ 	c #62625C",
"] 	c #76766C",
"^ 	c #7A7A74",
"/ 	c #7E7E74",
"( 	c #828274",
"_ 	c #222624",
": 	c #323234",
"< 	c #4E524C",
"[ 	c #66665C",
"} 	c #8E8E84",
"| 	c #86867C",
"1 	c #929284",
"2 	c #9E9E94",
"3 	c #969684",
"4 	c #22221C",
"5 	c #363A34",
"6 	c #42423C",
"7 	c #8A8A84",
"8 	c #8E8A7C",
"9 	c #9A9A8C",
"0 	c #A6A69C",
"a 	c #A2A294",
"b 	c #323634",
"c 	c #8A8A7C",
"d 	c #AEAEA4",
"e 	c #4A4E44",
"f 	c #62665C",
"g 	c #AEAA9C",
"h 	c #AEAE9C",
"i 	c #AAAA9C",
"j 	c #FEFEBC",
"k 	c #FEDEAC",
"l 	c #8A867C",
"m 	c #82827C",
"n 	c #9A9E94",
"o 	c #B2B2A4",
"p 	c #FAD6A4",
"q 	c #FA3E24",
"r 	c #F6B66C",
"s 	c #B2B2B4",
"t 	c #B6B6A4",
"u 	c #EE922C",
"v 	c #000000",
"w 	c #767A6C",
"x 	c #9E9A8C",
"y 	c #B6B2A4",
"z 	c #BAB6AC",
"A 	c #EE7604",
"B 	c #3A3A34",
"C 	c #4E4E44",
"D 	c #BABAAC",
"E 	c #32322C",
"F 	c #7A766C",
"G 	c #7E8274",
"H 	c #96968C",
"I 	c #B6B6AC",
"J 	c #6A6E64",
"K 	c #66625C",
"L 	c #3E3E3C",
"M 	c #0E0E0C",
"N 	c #AAAAAC",
"O 	c #E6E6E4",
"P 	c #767674",
"Q 	c #0A0A0C",
"R 	c #DEDEDC",
"S 	c #8E8E8C",
"T 	c #666664",
"U 	c #7E7E7C",
"V 	c #C6C6C4",
"W 	c #D6D6D4",
"X 	c #1A1A1C",
"Y 	c #727274",
"Z 	c #CACACC",
"` 	c #9A9A9C",
" .	c #828284",
"..	c #BEBEBC",
"+.	c #FEFEFC",
"@.	c #E5E5E5",
"#.	c #525254",
"$.	c #6E6E6C",
"%.	c #929294",
"&.	c #CECECC",
"*.	c #C2C2C4",
"=.	c #DADADC",
"-.	c #A2A2A4",
";.	c #565654",
">.	c #7A7A7C",
",.	c #868684",
"'.	c #B2B2C4",
").	c #8686D4",
"!.	c #C2C2E4",
"~.	c #A6A6A4",
"{.	c #AEAEAC",
"].	c #5A5A5C",
"^.	c #9292C4",
"/.	c #0202DC",
"(.	c #0202EC",
"_.	c #5A5ADC",
":.	c #C6C6DC",
"<.	c #8A8A8C",
"[.	c #424244",
"}.	c #626264",
"|.	c #02020C",
"1.	c #020274",
"2.	c #0202AC",
"3.	c #5252E4",
"4.	c #02028C",
"5.	c #0202B4",
"6.	c #4E4EEC",
"7.	c #D2D2D4",
"8.	c #0A0A34",
"9.	c #02026C",
"0.	c #1212DC",
"a.	c #4E4EE4",
"b.	c #16164C",
"c.	c #BEBEDC",
"d.	c #5E5E5C",
"e.	c #1A1A4C",
"f.	c #020264",
"g.	c #9292BC",
"h.	c #060604",
"i.	c #262624",
"j.	c #FAFAFC",
"k.	c #121214",
"l.	c #BABABC",
"m.	c #4E4E4C",
"n.	c #969694",
"o.	c #B6B6B4",
"                                                                                                ",
"                            . . . . .                                                           ",
"                          . + + + + + .                                                         ",
"                      . . @ # $ % & * + .                                                       ",
"                    . . = - ; & > , ' > +                                                       ",
"                  . . = ) ! ~ { ] ^ / ( { .                                                     ",
"                . . _ + : < [ ] } | 1 2 3 .                                                     ",
"              . @ 4 - 5 6 { ] 7 1 8 9 0 a .                                                     ",
"          . . = = b $ 6 % , / } c | 2 d 0 .   . . .                                             ",
"          . @ = ) e % < { f ] c / } g h i .   . j k .                                           ",
"        . . = # ! * ; ; ~ , l m m n o h h .   . p q r .                                         ",
"        . + _ 5 * * ~ { , / 1 1 2 d o s t .     . r q u .                                       ",
"      v + 6 - ! ~ ; f w ( 7 1 x g y z t .         . u q A .                                     ",
"      v + ; B e { C [ } } c } 9 0 o D 0 .           . A A .                                     ",
"      v + > E * % * ] 2 } / | 9 0 t y F .             . . .                                     ",
"      . + * + e < ~ m a 1 G ( | 9 y 8 .                                                         ",
"      . + + $ < & ] | / l H c m } I .                       . . .                               ",
"      . + 6 ' ! ~ } } J ^ 1 G ^ , .                         . j k .                             ",
"        . ! K ! * ] , % J , 1 , .                           . p q r .                           ",
"        . + + ! K ] ] ] J % . .                               . r q u .                         ",
"          . . + + + + . . .                                     . u q A .                       ",
"              . . . .                                             . A A .                       ",
"                                                                    . . .                       ",
"                . . .                                                     . . . .               ",
"                . j k .                                                   . # L + .             ",
"                . p q r .                                                 M N O P + .           ",
"                  . r q u .                           . . . . . . .       Q ^ s R S + .         ",
"                    . u q A .                       . T U V W V V B .       X Y s Z ` + .       ",
"                      . A A .                       .  ...W +.@.W N #..   . . * $.s V %.+ .     ",
"                        . . .                       . N &...+.+.*.=.-.;.. . W >.* $.s =.U + .   ",
"                                . . .               . ,...*.'.).).).!.~.T . ..*.T L $.{.s ]..   ",
"                                . j k .             . P {...^./.(.+._.:...T . s <.[.. }.].. .   ",
"                                . p q r .           . }.~...S |.1.2.+.3.&.O T . - .   . . .     ",
"                                  . r q u .           . ].-.%.|.1.4.5.+.6.Z 7.T .               ",
"                                    . u q A .           . ;.S Y 8.9.4.2.0.a.:.s ;..             ",
"                                      . A A .             . ].` }.b.9.4.2./._.c.~.]..           ",
"                                        . . .           . . . d.-.~ e.f.4.2.2.g.&.>..           ",
"                                              . h.4 # . i.U . . }.-.d.b.9.f.= S ,.T .           ",
"                                              . + *.j.. %.R ... . d.-.$.. k.{.S . . .           ",
"                                              . 6 S *.W Y T *.l.. . ;.%.~.-.S . T S #..         ",
"                                              . - 6 <.*...U m.7 .   . #.n.<.. $.*.` .           ",
"                                                . - -  .*.l.P . h.    . T T . P ,..             ",
"                                                  . - 6  .*.*.d..       . . . L .               ",
"                                                    . - 6  .l.o.M             .                 ",
"                                                      . - 6 ].+ .                               ",
"                                                        . . Q .                                 ",
"                                                                                                ",
"                                                                                                "};
