/* XPM */
/* Drawn  by Nico Shirwing for the K Desktop Environment */
/* See http://www.kde.org */
static char*kasteroids[]={
"16 16 10 1",
"# c #000000",
"b c #c0c0c0",
"c c #808080",
"d c #a0a0a4",
"h c #000080",
"g c #0000ff",
"e c #ffff00",
"f c #ffa858",
"a c #ffdca8",
". c None",
".###.#a.........",
"#bcd#.ef........",
"#bbd#..#........",
".###.....#......",
".........ae.....",
"#.........f#....",
"ae..........#...",
".f#.....##...#..",
".......#bb#...#.",
"...#a..#bgg#.#.#",
"....ef..#hhg#...",
".....#...#hhg#..",
"......#...#bb#..",
".......#.#.##...",
"........#.......",
".........#......"};

