/* XPM */
static char * mini_nomail_xpm[] = {
"22 22 8 1",
" 	c None",
".	c #000000000000",
"X	c #A0A0A0A0A0A0",
"o	c #DCDCDCDCDCDC",
"O	c #808080808080",
"+	c #C3C3C3C3C3C3",
"@	c #585858585858",
"w	c #FFFFFFFFFFFF",
"                      ",
"                      ",
"                      ",
"                      ",
"                      ",
"                      ",
"     ............     ",
"    .XooooooooooO.    ",
"    .XooooooooooO.    ",
"   .XXooooooooooO+.   ",
"  .XXXooooooooooO++.  ",
"  .XOOOOOOOOOOOOOOO.  ",
" .XXX++++++++++++OOO. ",
"....X++++++++++++O....",
".w+X.++++++++++++.OO@.",
".w+X.++++++++++++.OO@.",
".w+X.++++++++++++.OO@.",
".w+XO............OOO@.",
".w+XOOOOOOOOOOOOOOOO@.",
".w+XOOOOOOOOOOOOOOOO@.",
" .+XOOOOOOOOOOOOOOOO. ",
"  ..................  "};
