/* XPM */
static char * mini_newmail_xpm[] = {
"22 22 9 1",
" 	c None",
".	c #000000000000",
"X	c #FFFFFFFFFFFF",
"o	c #FFFF00000000",
"O	c #A0A0A0A0A0A0",
"+	c #DCDCDCDCDCDC",
"@	c #808080808080",
"#	c #C3C3C3C3C3C3",
"$	c #585858585858",
"                      ",
"             .        ",
"            .X.       ",
"           .XXX.      ",
"          .XXoXX.     ",
"         .XXooXXX.    ",
"     ....XXoooXXXX.   ",
"    .O+.XXXXoXXXXXX.  ",
"    .O.XXXXXXXXXXXXX. ",
"   .O.XXXXXXXXXXXXX.  ",
"  .O.XXXXXXXXXXOXX..  ",
"  ..XXOXXXXOXXOXX.@.  ",
" ..XXOXXXXOXXOXX.@@@. ",
"....OXXXXOXXOXX.#@....",
".X#O.XXXXXXXXX.##.@@$.",
".X#O.XXXXXXXX.###.@@$.",
".X#O.XXXXXXX.####.@@$.",
".X#O@............@@@$.",
".X#O@@@@@@@@@@@@@@@@$.",
".X#O@@@@@@@@@@@@@@@@$.",
" .#O@@@@@@@@@@@@@@@@. ",
"  ..................  "};
