/* XPM */
static char*mini[]={
"22 22 8 1",
"d c #808080",
"c c #a0a0a0",
"# c #c3c3c3",
"a c #000000",
". c None",
"f c #585858",
"b c #dcdcdc",
"e c #ffffff",
"......................",
"......................",
"......................",
"......................",
"..................#...",
"............#.........",
".....aaab##aaaaaa.....",
"....acbbab#babbbda....",
"....acbbbab#babbda....",
"...accb#bbab#babd#a...",
"..acccbb#ab#babbd##a..",
"..acddddab#badddddda..",
".accc####ab#ba###ddda.",
"aaaac#####ab#ba##daaaa",
"ae#ca####ab#ba###addfa",
"ae#ca###ab#ba####addfa",
"ae#ca##ab#ba#####addfa",
"ae#cdaaaab#baaaaadddfa",
"ae#cdddddab#baddddddfa",
"ae#cddddddab#badddddfa",
".a#cdddddab#badddddda.",
"..aaaaaaab##aaaaaaaa.."};
