/* XPM */
static char * mini_oldmail_xpm[] = {
"22 22 8 1",
" 	c None",
".	c #000000000000",
"X	c #C3C3C3C3C3C3",
"o	c #FFFFFFFFFFFF",
"O	c #808080808080",
"+	c #FFFF00000000",
"@	c #A0A0A0A0A0A0",
"#	c #636363636363",
"                      ",
"                      ",
"                      ",
"                      ",
"   .................  ",
"  .XXXXXXXXXXXXXXXXX. ",
" .................... ",
" .oooooooooooooooooo. ",
" .oOOOOooooooo++o++o. ",
" .oooooooooooo++o++o. ",
" .oooooooooooooooooo. ",
" .oooooooooooooooooo. ",
" .oooooooooooooooooo. ",
"....ooOOOOOOOOoooo....",
".oX@.oooooooooooo.OO#.",
".oX@.oooOOOoOOooo.OO#.",
".oX@.oooooooooooo.OO#.",
".oX@O............OOO#.",
".oX@OOOOOOOOOOOOOOOO#.",
".oX@OOOOOOOOOOOOOOOO#.",
" .X@OOOOOOOOOOOOOOOO. ",
"  ..................  "};
