/* XPM */
static char * newmail_xpm[] = {
"32 32 10 1",
" 	c None",
".	c #000000000000",
"X	c #FFFFFFFFFFFF",
"o	c #FFFF00000000",
"O	c #585858585858",
"+	c #DCDCDCDCDCDC",
"@	c #C3C3C3C3C3C3",
"#	c #A0A0A0A0A0A0",
"$	c #808080808080",
"%	c #636363636363",
"                                ",
"                                ",
"                                ",
"                   .            ",
"                  .X.           ",
"                 .XXX.          ",
"                .XXXXX.         ",
"               .XXXXXXX.        ",
"              .XXXoXXXXX.       ",
"             .XXXoXoXXXXX.      ",
"            .XXXoXoXXXXXXX.     ",
"       .....XXXXXoXXXXXXXXX.    ",
"      .O+@.XXXXXXXXXXXXXXXXX.   ",
"      .O+.XXXXXXXXXXXXXXXXX.    ",
"     .OO.XXXXXXXXXX#XXXXXX.     ",
"     .O.XXXXXXXXXX#XXXXXX.      ",
"    .O.XX#XXXXXXX#XXX#XX..      ",
"    ..XX#X#XXXXX#XXX#XX..O.     ",
"   ..XX#X#XXXXXX#XXX#X.@OO.     ",
"   .XX#X#XXXXXX#XX#XX.@@OOO.    ",
"  ..XXXXXXXXXX#XX#XX.@@OOOO.    ",
"  ...XXXXXXXX#XXX#X.@@@@OOOO.   ",
" ......XXXXXXXXX#X.@@@@......   ",
"...@@@..XXXXXXXXX.@@@@..@@@@@.  ",
".XX@##$..XXXXXXX.@@@@@.@$$$OO.  ",
".XX##$$$.XXXXXX.@@@@@.@$$$$$O.  ",
".XX@##$$..............@$$$$OO.  ",
".XX##$$$$@@@@@@@@@@@@@$$$$$$O.  ",
".XX@##$$$$$$$$$$$$$$$$$$$$$OO.  ",
".XX#@$$$$$$$$$$$$$$$$$$$$$$$O.  ",
" .X@##$$$$$$$$$$$$$$$$$$$$$%.   ",
"  ..........................    "};
