/* XPM */
static char*noconn[]={
"32 32 9 1",
"f c #808080",
"e c #a0a0a0",
"b c #c3c3c3",
"# c #000000",
"g c #636363",
". c None",
"c c #585858",
"a c #dcdcdc",
"d c #ffffff",
"................................",
"................................",
"................................",
"................................",
"................................",
"................................",
"................................",
"................................",
"................................",
"................................",
"................................",
".......######abb########........",
"......#ccbbbb#aba#bbbbc##.......",
"......#ccbbbbb#aba#bbbcc#.......",
".....#cccbbbbbb#aba#bbcc#.......",
".....#cccbbbbb#aba#bbbccc#......",
"....#ccccbbbb#aba#bbbbccc#......",
"....#ccccaab#aba#aaaaacccc#.....",
"...##ccccbbbb#aba#bbbb#ccc#.....",
"...#cccbbbbbbb#aba#bbbbcccc#....",
"..##cccbbbbbbbb#aba#bbbcccc#....",
"..#cccbbbbbbbb#aba#bbbbbcccc#...",
".######bbbbbb#aba#bbbbb######...",
"###bbb#bbbbb#aba#bbbbbb#bbbbb#..",
"#ddbeef##bb#aba#bbbbbb#bfffcc#..",
"#ddeefff#bbb#aba#bbbb#bfffffc#..",
"#ddbeeff######aba#####bffffcc#..",
"#ddeeffffbbbbb#aba#bbbffffffc#..",
"#ddbeefffffffff#aba#fffffffcc#..",
"#ddebfffffffff#aba#fffffffffc#..",
".#dbeefffffff#aba#fffffffffg#...",
"..###########abb############...."};
