/* XPM */
static char * nomail_xpm[] = {
"32 32 9 1",
" 	c None",
".	c #000000000000",
"X	c #585858585858",
"o	c #C3C3C3C3C3C3",
"O	c #DCDCDCDCDCDC",
"+	c #FFFFFFFFFFFF",
"@	c #A0A0A0A0A0A0",
"#	c #808080808080",
"$	c #636363636363",
"                                ",
"                                ",
"                                ",
"                                ",
"                                ",
"                                ",
"                                ",
"                                ",
"                                ",
"                                ",
"                                ",
"       .................        ",
"      .XXoooooooooooooX..       ",
"      .XXoooooooooooooXX.       ",
"     .XXXoooooooooooooXX.       ",
"     .XXXoooooooooooooXXX.      ",
"    .XXXXoooooooooooooXXX.      ",
"    .XXXXOOOOOOOOOOOOOXXXX.     ",
"   ..XXXXooooooooooooo.XXX.     ",
"   .XXXooooooooooooooooXXXX.    ",
"  ..XXXooooooooooooooooXXXX.    ",
"  .XXXooooooooooooooooooXXXX.   ",
" ......oooooooooooooooo......   ",
"...ooo.oooooooooooooooo.ooooo.  ",
".++o@@#..ooooooooooooo.o###XX.  ",
".++@@###.oooooooooooo.o#####X.  ",
".++o@@##..............o####XX.  ",
".++@@####ooooooooooooo######X.  ",
".++o@@#####################XX.  ",
".++@o#######################X.  ",
" .+o@@#####################$.   ",
"  ..........................    "};
