/* XPM */
static char * oldmail_xpm[] = {
"32 32 12 1",
" 	c None",
".	c #000000000000",
"X	c #A0A0A0A0A0A0",
"o	c #808080808080",
"O	c #DEDEDEDEDEDE",
"+	c #BDBDBDBDBDBD",
"@	c #C3C3C3C3C3C3",
"#	c #FFFFFFFFFFFF",
"$	c #FFFF00000000",
"%	c #0000FFFF0000",
"&	c #585858585858",
"*	c #636363636363",
"                                ",
"                                ",
"                                ",
"                                ",
"                                ",
"                                ",
"                                ",
"                                ",
"                                ",
"    .......................     ",
"   .XXXXXXXXXXXXoooooooooo.     ",
" ..OOOOOOOOOOO+@@@@@@@@@@@@.    ",
" ..XXXXXXXXXXXooooooooooooo.    ",
" .##########################.   ",
" .#XX#XX###########$##$##%##.   ",
" .##################$$#$##%#.   ",
" .#XXX#X###########$##$##%##.   ",
" .##########################.   ",
" .##########################.   ",
" .##########################.   ",
" .##########################.   ",
" .##########################.   ",
".......###XXXXX#XXXXX##......   ",
"...@@@..##############..@@@@@.  ",
".##@XXo..#XXX#XXX#XX#..@ooo&&.  ",
".##XXooo.############.@ooooo&.  ",
".##@XXoo..............@oooo&&.  ",
".##XXoooo@@@@@@@@@@@@@oooooo&.  ",
".##@XXooooooooooooooooooooo&&.  ",
".##X@ooooooooooooooooooooooo&.  ",
" .#@XXooooooooooooooooooooo*.   ",
"  ..........................    "};
