/* XPM */
/* this was originally 'audiovol.xpm' from some unknown KDE package */
static char*mini[]={
"14 14 3 1",
"# c #0000ff",
". c None",
"a c #585858",
"......#.......",
"......#.......",
"......##......",
"......###.....",
"......####....",
"......#a###...",
"......#a.a#a..",
"......#a..#a..",
"......#a..a...",
"..###.#a......",
".######a......",
".######a......",
".#####a.......",
"..###a........"};
