/* XPM */
static char * keyboard_xpm[] = {
"63 45 2 1",
" 	c #000000000000",
".	c #FFFFFFFFFFFF",
"                                                               ",
".....       ..       ..... .....       ..       ..       ..... ",
"..... .     .. .     ..... ..... .     .. .     .. .     ..... ",
"..... .     .. .     ..... ..... .     .. .     .. .     ..... ",
"..... .     .. .     ..... ..... .     .. .     .. .     ..... ",
"..... .     .. .     ..... ..... .     .. .     .. .     ..... ",
"..... .     .. .     ..... ..... .     .. .     .. .     ..... ",
"..... .     .. .     ..... ..... .     .. .     .. .     ..... ",
"..... .     .. .     ..... ..... .     .. .     .. .     ..... ",
"..... .     .. .     ..... ..... .     .. .     .. .     ..... ",
"..... .     .. .     ..... ..... .     .. .     .. .     ..... ",
"..... .     .. .     ..... ..... .     .. .     .. .     ..... ",
"..... .     .. .     ..... ..... .     .. .     .. .     ..... ",
"..... .     .. .     ..... ..... .     .. .     .. .     ..... ",
"..... .     .. .     ..... ..... .     .. .     .. .     ..... ",
"..... .     .. .     ..... ..... .     .. .     .. .     ..... ",
"..... .     .. .     ..... ..... .     .. .     .. .     ..... ",
"..... .     .. .     ..... ..... .     .. .     .. .     ..... ",
"..... .     .. .     ..... ..... .     .. .     .. .     ..... ",
"..... .     .. .     ..... ..... .     .. .     .. .     ..... ",
"..... .     .. .     ..... ..... .     .. .     .. .     ..... ",
"..... .     .. .     ..... ..... .     .. .     .. .     ..... ",
"..... .     .. .     ..... ..... .     .. .     .. .     ..... ",
"..... .     .. .     ..... ..... .     .. .     .. .     ..... ",
"..... .     .. .     ..... ..... .     .. .     .. .     ..... ",
".....  .... ..  .... ..... .....  .... ..  .... ..  .... ..... ",
".....       ..       ..... .....       ..       ..       ..... ",
"......     ....     ...... ......     ....     ....     ...... ",
"........ ........ ........ ........ ........ ........ ........ ",
"........ ........ ........ ........ ........ ........ ........ ",
"........ ........ ........ ........ ........ ........ ........ ",
"........ ........ ........ ........ ........ ........ ........ ",
"........ ........ ........ ........ ........ ........ ........ ",
"........ ........ ........ ........ ........ ........ ........ ",
"........ ........ ........ ........ ........ ........ ........ ",
"........ ........ ........ ........ ........ ........ ........ ",
"........ ........ ........ ........ ........ ........ ........ ",
"........ ........ ........ ........ ........ ........ ........ ",
"........ ........ ........ ........ ........ ........ ........ ",
"........ ........ ........ ........ ........ ........ ........ ",
"........ ........ ........ ........ ........ ........ ........ ",
"........ ........ ........ ........ ........ ........ ........ ",
"........ ........ ........ ........ ........ ........ ........ ",
"                                                               ",
"                                                               "};
