/* XPM */
static char * kmid_xpm[] = {
"32 32 143 2",
"  	c None",
". 	c #000000",
"+ 	c #ACACAC",
"@ 	c #AAAAAA",
"# 	c #B0B0B0",
"$ 	c #AEAEAE",
"% 	c #A8A8A8",
"& 	c #A6A6A6",
"* 	c #AFAFAF",
"= 	c #ADADAD",
"- 	c #ABABAB",
"; 	c #A4A4A4",
"> 	c #A2A2A2",
", 	c #A9A9A9",
"' 	c #A7A7A7",
") 	c #A5A5A5",
"! 	c #A3A3A3",
"~ 	c #A1A1A1",
"{ 	c #9F9F9F",
"] 	c #9D9D9D",
"^ 	c #FFFFFF",
"/ 	c #C5C5C5",
"( 	c #9B9B9B",
"_ 	c #999999",
": 	c #D7D7D7",
"< 	c #A0A0A0",
"[ 	c #9E9E9E",
"} 	c #9C9C9C",
"| 	c #9A9A9A",
"1 	c #989898",
"2 	c #949494",
"3 	c #D2D2D2",
"4 	c #020204",
"5 	c #C3C3C3",
"6 	c #939393",
"7 	c #CECECE",
"8 	c #FF0000",
"9 	c #D5D5D5",
"0 	c #C0C0C0",
"a 	c #979797",
"b 	c #C9C9C9",
"c 	c #FFFF00",
"d 	c #D4D4D4",
"e 	c #BDBDBD",
"f 	c #6E6E6E",
"g 	c #676767",
"h 	c #00FF00",
"i 	c #D1D1D1",
"j 	c #B9B9B9",
"k 	c #797979",
"l 	c #727272",
"m 	c #6B6B6B",
"n 	c #646464",
"o 	c #C1C1C1",
"p 	c #C2C2C2",
"q 	c #CCCCCC",
"r 	c #B6B6B6",
"s 	c #7F7F7F",
"t 	c #7D7D7D",
"u 	c #767676",
"v 	c #6F6F6F",
"w 	c #686868",
"x 	c #626262",
"y 	c #585858",
"z 	c #BFBFBF",
"A 	c #C8C8C8",
"B 	c #CFCFCF",
"C 	c #7A7A7A",
"D 	c #737373",
"E 	c #6D6D6D",
"F 	c #666666",
"G 	c #5F5F5F",
"H 	c #EAEAEA",
"I 	c #303030",
"J 	c #BEBEBE",
"K 	c #C4C4C4",
"L 	c #CBCBCB",
"M 	c #787878",
"N 	c #717171",
"O 	c #6A6A6A",
"P 	c #636363",
"Q 	c #5C5C5C",
"R 	c #D6D6D6",
"S 	c #BCBCBC",
"T 	c #7C7C7C",
"U 	c #757575",
"V 	c #606060",
"W 	c #595959",
"X 	c #BBBBBB",
"Y 	c #5D5D5D",
"Z 	c #575757",
"` 	c #CACACA",
" .	c #565656",
"..	c #C7C7C7",
"+.	c #D0D0D0",
"@.	c #E9E9E9",
"#.	c #696969",
"$.	c #D3D3D3",
"%.	c #80E8EC",
"&.	c #74E4E7",
"*.	c #62DEE1",
"=.	c #71E3E6",
"-.	c #5FDEE0",
";.	c #4DD8DA",
">.	c #3BD2D3",
",.	c #5B5B5B",
"'.	c #1C9E9C",
").	c #6EE3E5",
"!.	c #5CDDDF",
"~.	c #4AD7D9",
"{.	c #38D1D2",
"].	c #26CBCC",
"^.	c #14C5C6",
"/.	c #1A9896",
"(.	c #179391",
"_.	c #7EE8EB",
":.	c #6CE2E4",
"<.	c #5ADCDE",
"[.	c #48D6D8",
"}.	c #36D0D1",
"|.	c #24CACB",
"1.	c #12C4C5",
"2.	c #00BFBF",
"3.	c #189594",
"4.	c #15908E",
"5.	c #128A89",
"6.	c #108584",
"7.	c #57DBDD",
"8.	c #45D5D7",
"9.	c #33CFD0",
"0.	c #21C9CA",
"a.	c #0FC4C4",
"b.	c #004040",
"c.	c #118787",
"d.	c #0E8281",
"e.	c #0B7C7C",
"f.	c #087777",
"g.	c #31CED0",
"h.	c #1EC9C9",
"i.	c #0A797A",
"j.	c #077474",
"k.	c #046F6F",
"l.	c #026B6C",
"                                . .                             ",
"                            . . + @ . .                         ",
"                        . . # $ + @ % & . .                     ",
"                    . . # # * = - @ % & ; > . .                 ",
"                . . # # # # * = - , ' ) ! ~ { ] . .             ",
"            . . ^ / # # # # * = - , ' ) ! ~ { ] ( _ . .         ",
"            . : : : ^ / # # $ + @ % & ; > < [ } | 1 2 2 . .     ",
"            . 3 . 4 : : ^ 5 $ + @ % & ; > < [ } | 1 2 2 2 6 . . ",
"            . 7 . 8 . 4 9 : ^ 0 , ' ) ! ~ { ] ( _ a 2 2 2 6 2 . ",
"            . b . c . . . 4 d 9 ^ e ) ! ~ { ] ( _ a 2 2 2 f g . ",
"            . / . h . c . . . i 3 d ^ j < [ } ( _ a 2 k l m n . ",
"            . o p . . h . . . q 7 4 i 3 ^ r } | | s t u v w x . ",
"              . y z o . . h . A b ^ q 4 B i ^ s s s C D E F G . ",
"            . H H I y J z . . K b . A 4 L 4 7 s s s M N O P Q . ",
"            . 9 R H H I y S J z o 4 K 4 p ^ b s s T U f g V W . ",
"            . i . 4 R H H I y X S 4 K ^ p 4 / s s k l m n Y Z . ",
"            . 7 . . . 4 9 H H I y j X 4 J 4 o s t u v w x I .   ",
"            . ` . c . 8 . 4 9 H H I y j j 4 S s C D E I I Q  .. ",
"            . ... h . c . . . 3 d H H I y j j s M I I F V m n . ",
"            . 5 K . . h . . . B +.3 d @.H I y I I m #.u v w x . ",
"            . . o p K . . h . q 4 2 +.i $.@.H m m s C D E F G . ",
"                . . 0 p 5 . . A b L 4 2 B i 3 s s s M N O P Q . ",
"        . . .       . . 0 o 5 K 4 2 b ` 4 2 B s s T U f g V W . ",
"    . . %.&.*.. .       . . z o p K 4 2 A ` q s s k l m n Y Z . ",
". . %.%.%.=.-.;.>.. .       . . z 0 p 5 4 2 A s t u v w x ,.. . ",
". '.%.%.%.).!.~.{.].^.. .       . . z 0 o 5 K s C D E F . .     ",
". './.(._.:.<.[.}.|.1.2.2.. .       . . J z o s M N . .         ",
". . 3.4.5.6.7.8.9.0.a.2.b.b..           . . J T . .             ",
"    . . c.d.e.f.g.h.b.b.b.b..               . .                 ",
"        . . i.j.k.b.b.b.. .                                     ",
"            . . l.b.. .                                         ",
"                . .                                             "};
