/* XPM */
static char * large_kmid_xpm[] = {
"48 48 237 2",
"  	c None",
". 	c #000000",
"+ 	c #ABABAB",
"@ 	c #AAAAAA",
"# 	c #020204",
"$ 	c #ADADAD",
"% 	c #ACACAC",
"& 	c #A9A9A9",
"* 	c #A8A8A8",
"= 	c #A7A7A7",
"- 	c #B0B0B0",
"; 	c #AFAFAF",
"> 	c #A5A5A5",
", 	c #A4A4A4",
"' 	c #B1B1B1",
") 	c #AEAEAE",
"! 	c #A6A6A6",
"~ 	c #A3A3A3",
"{ 	c #A1A1A1",
"] 	c #A2A2A2",
"^ 	c #A0A0A0",
"/ 	c #9E9E9E",
"( 	c #9D9D9D",
"_ 	c #9C9C9C",
": 	c #9F9F9F",
"< 	c #9B9B9B",
"[ 	c #9A9A9A",
"} 	c #999999",
"| 	c #D7D7D7",
"1 	c #E6E6E6",
"2 	c #C4C4C4",
"3 	c #979797",
"4 	c #969696",
"5 	c #B6B6B6",
"6 	c #989898",
"7 	c #FF0000",
"8 	c #060604",
"9 	c #B4B4B4",
"0 	c #FF8000",
"a 	c #1E1E1C",
"b 	c #2A2A2C",
"c 	c #B2B2B2",
"d 	c #545454",
"e 	c #D6D6D6",
"f 	c #FFFF00",
"g 	c #0E0E0C",
"h 	c #5D5D5D",
"i 	c #585858",
"j 	c #CFCFCF",
"k 	c #00FF00",
"l 	c #666666",
"m 	c #616161",
"n 	c #535353",
"o 	c #C9C9C9",
"p 	c #1E321C",
"q 	c #E4E4E4",
"r 	c #6F6F6F",
"s 	c #6A6A6A",
"t 	c #656565",
"u 	c #5C5C5C",
"v 	c #575757",
"w 	c #C2C2C2",
"x 	c #C3C3C3",
"y 	c #C5C5C5",
"z 	c #021A04",
"A 	c #D1D1D1",
"B 	c #D2D2D2",
"C 	c #D5D5D5",
"D 	c #E1E1E1",
"E 	c #787878",
"F 	c #737373",
"G 	c #6E6E6E",
"H 	c #606060",
"I 	c #525252",
"J 	c #303030",
"K 	c #686868",
"L 	c #BEBEBE",
"M 	c #BFBFBF",
"N 	c #C1C1C1",
"O 	c #161614",
"P 	c #022604",
"Q 	c #CACACA",
"R 	c #CBCBCB",
"S 	c #FFFFFF",
"T 	c #CECECE",
"U 	c #CDCDCD",
"V 	c #C7C7C7",
"W 	c #E0E0E0",
"X 	c #7F7F7F",
"Y 	c #7C7C7C",
"Z 	c #777777",
"` 	c #727272",
" .	c #696969",
"..	c #5B5B5B",
"+.	c #EAEAEA",
"@.	c #BABABA",
"#.	c #BBBBBB",
"$.	c #BDBDBD",
"%.	c #7B7B7B",
"&.	c #6D6D6D",
"*.	c #646464",
"=.	c #5F5F5F",
"-.	c #565656",
";.	c #515151",
">.	c #B7B7B7",
",.	c #B9B9B9",
"'.	c #C6C6C6",
").	c #767676",
"!.	c #5A5A5A",
"~.	c #B5B5B5",
"{.	c #BCBCBC",
"].	c #7A7A7A",
"^.	c #717171",
"/.	c #6C6C6C",
"(.	c #636363",
"_.	c #5E5E5E",
":.	c #555555",
"<.	c #505050",
"[.	c #757575",
"}.	c #676767",
"|.	c #595959",
"1.	c #D4D4D4",
"2.	c #7E7E7E",
"3.	c #797979",
"4.	c #707070",
"5.	c #6B6B6B",
"6.	c #626262",
"7.	c #747474",
"8.	c #4F4F4F",
"9.	c #023204",
"0.	c #7D7D7D",
"a.	c #D0D0D0",
"b.	c #D3D3D3",
"c.	c #E9E9E9",
"d.	c #C8C8C8",
"e.	c #CCCCCC",
"f.	c #E8E8E8",
"g.	c #B8B8B8",
"h.	c #C0C0C0",
"i.	c #72E5E6",
"j.	c #69E1E3",
"k.	c #5FDEE0",
"l.	c #81E9EC",
"m.	c #7BE7E9",
"n.	c #71E4E6",
"o.	c #67E1E3",
"p.	c #5DDEDF",
"q.	c #54DBDC",
"r.	c #4AD8D9",
"s.	c #0E0E14",
"t.	c #79E7E9",
"u.	c #6FE4E5",
"v.	c #66E1E2",
"w.	c #5CDDDF",
"x.	c #52DADB",
"y.	c #48D7D8",
"z.	c #3FD4D5",
"A.	c #35D1D2",
"B.	c #1D9E9C",
"C.	c #78E6E8",
"D.	c #6EE3E5",
"E.	c #64E0E2",
"F.	c #5ADDDE",
"G.	c #51DADB",
"H.	c #47D7D8",
"I.	c #3DD3D4",
"J.	c #33D0D1",
"K.	c #2ACDCE",
"L.	c #20CACA",
"M.	c #1C9A98",
"N.	c #80E9EB",
"O.	c #76E6E8",
"P.	c #6CE3E4",
"Q.	c #63E0E1",
"R.	c #59DCDE",
"S.	c #4FD9DA",
"T.	c #45D6D7",
"U.	c #3CD3D4",
"V.	c #32D0D1",
"W.	c #28CDCD",
"X.	c #1EC9CA",
"Y.	c #15C6C7",
"Z.	c #0BC3C3",
"`.	c #1C9B9A",
" +	c #1B9896",
".+	c #199593",
"++	c #179190",
"@+	c #6BE2E4",
"#+	c #61DFE1",
"$+	c #57DCDD",
"%+	c #4ED9DA",
"&+	c #44D6D7",
"*+	c #3AD2D3",
"=+	c #30CFD0",
"-+	c #27CCCD",
";+	c #1DC9C9",
">+	c #13C6C6",
",+	c #09C3C3",
"'+	c #00BFBF",
")+	c #189291",
"!+	c #168F8E",
"~+	c #148C8B",
"{+	c #128888",
"]+	c #56DBDD",
"^+	c #4CD8D9",
"/+	c #42D5D6",
"(+	c #39D2D3",
"_+	c #2FCFD0",
":+	c #25CCCC",
"<+	c #1BC8C9",
"[+	c #12C5C6",
"}+	c #08C2C2",
"|+	c #004040",
"1+	c #138A89",
"2+	c #118686",
"3+	c #0F8383",
"4+	c #0D8080",
"5+	c #41D5D6",
"6+	c #37D1D2",
"7+	c #2DCECF",
"8+	c #24CBCC",
"9+	c #1AC8C8",
"0+	c #10C5C5",
"a+	c #06C2C2",
"b+	c #0E8181",
"c+	c #0C7D7E",
"d+	c #0A7A7B",
"e+	c #097778",
"f+	c #2CCECF",
"g+	c #22CBCB",
"h+	c #18C8C8",
"i+	c #097879",
"j+	c #077576",
"k+	c #067173",
"l+	c #046E6F",
"m+	c #046F71",
"n+	c #036C6D",
"                                                                                                ",
"                                                                                                ",
"                                                . .                                             ",
"                                            . . + @ . .                                         ",
"                                        # . $ % + & * = . #                                     ",
"                                    . # - ; $ % + & * = > , . .                                 ",
"                                . . ' ' - ) $ % @ & * ! > , ~ { . .                             ",
"                            . . ' ' ' ' ; ) $ % @ & * ! > , ] { ^ / . #                         ",
"                        # . ' ' ' ' ' ' ; ) $ + @ & = ! > ~ ] { ^ / ( _ . .                     ",
"                      # ' ' ' ' ' ' ' - ; ) % + @ & = ! > ~ ] { : / ( < [ } . #                 ",
"                      # | 1 2 ' ' ' ' - ; ) % + @ * = ! , ~ ] { : / ( < [ } 3 4 . .             ",
"                      # | | | 1 5 ' ' - ; $ % + & * = ! , ~ ] ^ : / _ < [ 6 3 4 4 4 . .         ",
"                      # | # # | | 1 5 - ; $ % + & * = > , ~ { ^ : / _ < [ 6 3 4 4 4 4 4 . .     ",
"                      # | # 7 . 8 | | 1 9 $ % @ & * ! > , ~ { ^ : ( _ < } 6 3 4 4 4 4 4 4 .     ",
"                      # | # 0 . # a b | | 1 c @ & * ! > , ] { ^ / ( _ < } 6 3 4 4 4 4 4 d .     ",
"                      # e # f . 0 . a g # | | 1 ; = ! > ~ ] { ^ / ( _ [ } 6 4 4 4 4 h i d .     ",
"                      # j # k . f . . # # # . | | 1 % > ~ ] { : / ( < [ } 6 4 4 l m h i n .     ",
"                      . o # p # k . f . # # . | | | | q * ] { : / ( < [ } 3 r s t m u v n .     ",
"                      # w x y # # # k . . z . A B # C e | D = : / _ < [ E F G s t H u v I .     ",
"                        J K L M N # O . k P . Q R S T # U Q V W > _ X Y Z ` G  .t H ..v I .     ",
"                      . +.+.J K @.#.$.# # # . x y # V # y # U T j X X %.Z ` &. .*.=...-.;..     ",
"                      . | B +.+.J K 5 >.,.. . $.L # N # x S '.V o X X %.).` &.K *.=.!.-.;..     ",
"                      . | B B B +.+.J K ~.~.~.5 >.# {.# $.# M N w X X ].).^./.K (._.!.:.<..     ",
"                      . | # . B A A +.+.J K ~.~.~.# #.S 5 # ,.@.#.X X ].[.^./.}.(._.|.:..       ",
"                      . 1.# # # 8 A B | +.+.J K ,.#.$.# ~.# ~.~.~.X 2.3.[.4.5.}.6._.J J .       ",
"                      . j # # # 7 . . | | | +.+.J K ~.~.~.# ~.~.~.X 2.3.7.4.5.l J J ;.8.d .     ",
"                      . Q # f 9.0 . . g # e | | +.+.J K ~.~.~.~.~.X 0.3.7.r J J i d h i n .     ",
"                      . '.8 k . f . . . # # . 1.e | +.+.J K ~.~.~.X 0.E J J =...l m u v I .     ",
"                      . N . # # k . . . 0 # . a.A B 1.C +.+.J 4.~.X J J t m r s t H ..-.n .     ",
"                      . {.M M . # . k . f z . R . # j a.B b.c.+.J J s K E F G  .*.=.!.:.I .     ",
"                        # # @.{.$.. O . k P . '.d.o Q e.U T a.A f.s X Y Z ` &.K (._.|.d :..     ",
"                            . . g.@.#.. # # . w . . '.. . Q R e.T X X %.).^./.}.6.h i n :..     ",
"                                . . 5 g.,.. . $.L h.N w 2 y . # o X 2.3.7.r s l m u v I v .     ",
"                . . .               . . ~.5 >.g.. . {.. . h.w x 2 X 0.E F G  .*.=.!.:.<.v .     ",
"            . . i.j.k.. .               . . ~.~.~.5 g.,.@.{.. # h.X Y Z ` &.K (._.|.d <.. .     ",
"        . . l.m.n.o.p.q.r.. .               . . ~.~.~.. . >.g.@.#.X %.).^./.}.6.h i . s.        ",
"    . . l.l.l.t.u.v.w.x.y.z.A.. .               . . ~.~.~.~.. # 5 X ].[.4.5.l m . .             ",
"    . B.l.l.l.C.D.E.F.G.H.I.J.K.L.. .               . . ~.~.~.~.~.2.3.7.r s . .                 ",
"    . B.B.M.N.O.P.Q.R.S.T.U.V.W.X.Y.Z.. .               . . ~.~.~.0.E F . .                     ",
"    . . `. +.+++@+#+$+%+&+*+=+-+;+>+,+'+'+. .               . . ~.Y . .                         ",
"        . . )+!+~+{+]+^+/+(+_+:+<+[+}+'+'+|+.                   . .                             ",
"            . . 1+2+3+4+5+6+7+8+9+0+a+|+|+|+.                                                   ",
"                . . b+c+d+e+f+g+h+|+|+|+|+. .                                                   ",
"                    . . i+j+k+l+|+|+|+. .                                                       ",
"                        . . m+n+|+. .                                                           ",
"                            . . .                                                               ",
"                                                                                                ",
"                                                                                                "};
