/* XPM */
/* Drawn for the K Desktop Environment */
/* See http://www.kde.org */
static char*mid[]={
"16 16 11 1",
"# c #000000",
"c c #c0c0c0",
"b c #808080",
"f c #585858",
"a c #a0a0a4",
"h c #00c0c0",
"g c #ff0000",
"e c #00ff00",
"d c #ffff00",
"i c #004040",
". c None",
".......###......",
".....##aaa##....",
"...##aaaaaaa##..",
"...#bccaaaaaaa##",
"...#d#bccaaaaab#",
"...##e#afccabbb#",
"...#fa#a#ffbbbb#",
"...#bcfaf#fbbbb#",
"...##gccfafbbaa#",
"...##e#accfaabb#",
"....###aaaabbbb#",
".##...##aaabbbb#",
"#hh##...##abb##.",
"##hhh##...###...",
"..##ii#.........",
"....##.........."};

