/* XPM */
static char * kab_xpm[] = {
"32 32 80 1",
" 	c None",
".	c #000000",
"+	c #6D6D6D",
"@	c #515151",
"#	c #444444",
"$	c #3B3B3B",
"%	c #3F3F3F",
"&	c #2E2E2E",
"*	c #262626",
"=	c #292929",
"-	c #303030",
";	c #393939",
">	c #363636",
",	c #252525",
"'	c #282828",
")	c #333333",
"!	c #404040",
"~	c #474747",
"{	c #191919",
"]	c #353535",
"^	c #4D4D4D",
"/	c #2A2A2A",
"(	c #151515",
"_	c #1C1C1C",
":	c #424242",
"<	c #585858",
"[	c #525252",
"}	c #434343",
"|	c #4B4B4B",
"1	c #242424",
"2	c #565656",
"3	c #606060",
"4	c #686868",
"5	c #4F4F4F",
"6	c #2D2D2D",
"7	c #343434",
"8	c #3E3E3E",
"9	c #5D5D5D",
"0	c #313131",
"a	c #3A3A3A",
"b	c #464646",
"c	c #505050",
"d	c #595959",
"e	c #383838",
"f	c #323232",
"g	c #3D3D3D",
"h	c #454545",
"i	c #373737",
"j	c #272727",
"k	c #484848",
"l	c #2B2B2B",
"m	c #1E1E1E",
"n	c #222222",
"o	c #1D1D1D",
"p	c #181818",
"q	c #1F1F1F",
"r	c #575757",
"s	c #4A4A4A",
"t	c #3C3C3C",
"u	c #2F2F2F",
"v	c #626262",
"w	c #0F0F0F",
"x	c #0B0B0B",
"y	c #2C2C2C",
"z	c #494949",
"A	c #7B7B7B",
"B	c #4E4E4E",
"C	c #1A1A1A",
"D	c #545454",
"E	c #5C5C5C",
"F	c #7E7E7E",
"G	c #646464",
"H	c #737373",
"I	c #5A5A5A",
"J	c #656565",
"K	c #696969",
"L	c #232323",
"M	c #202020",
"N	c #636363",
"O	c #1B1B1B",
"                                ",
"                                ",
"                                ",
"                      ....      ",
"                    ..+@#$..    ",
"                   .+%&*=-;..   ",
"                   .>,,'')!~.   ",
"                  .+,,**{]~@^.  ",
"                  .@**/(_':<[.  ",
"                  .}*'&.|1234.  ",
"                  .5&678.^94;.  ",
"                  .2#0abcd4e*.  ",
"                   .~>f>$g**.   ",
"                   .hi&j****.   ",
"                  =k]fl****.    ",
"                 *[~)mn***/.    ",
"                &2~;&jopqj.     ",
"       ....    'rstu',,*j.      ",
"     ..v@]%.wxy2zg-'*,,,.       ",
"    .A*=&7a}5^B^gf=,,,*.        ",
"   .A*=&f$:|5%t;)/*,,,.         ",
"   .*=&/C]|DE]7y=*,,,.          ",
"  .F=6&ooj:EG)l,*,,,.           ",
"  .H]7a.|.IJK)LM,,1.            ",
"  .@2%}^.EGKa]oL,,.             ",
"  .~d|bcrNN77>O,n.              ",
"   .%be0yj'--m,..               ",
"    ..)'**l-...,                ",
"      .._o....                  ",
"        ....                    ",
"                                ",
"                                "};
