/* XPM */
static char * large_kab_xpm[] = {
"48 48 87 1",
" 	c None",
".	c #000000",
"+	c #636363",
"@	c #5C5C5C",
"#	c #565656",
"$	c #4F4F4F",
"%	c #474747",
"&	c #6D6D6D",
"*	c #656565",
"=	c #262626",
"-	c #292929",
";	c #2E2E2E",
">	c #3A3A3A",
",	c #333333",
"'	c #2D2D2D",
")	c #323232",
"!	c #383838",
"~	c #3F3F3F",
"{	c #6F6F6F",
"]	c #272727",
"^	c #2B2B2B",
"/	c #303030",
"(	c #363636",
"_	c #3D3D3D",
":	c #444444",
"<	c #4B4B4B",
"[	c #717171",
"}	c #2F2F2F",
"|	c #3B3B3B",
"1	c #424242",
"2	c #4A4A4A",
"3	c #515151",
"4	c #585858",
"5	c #6B6B6B",
"6	c #393939",
"7	c #575757",
"8	c #5D5D5D",
"9	c #282828",
"0	c #2C2C2C",
"a	c #373737",
"b	c #454545",
"c	c #545454",
"d	c #626262",
"e	c #5F5F5F",
"f	c #2A2A2A",
"g	c #434343",
"h	c #525252",
"i	c #5A5A5A",
"j	c #616161",
"k	c #686868",
"l	c #343434",
"m	c #414141",
"n	c #505050",
"o	c #5E5E5E",
"p	c #666666",
"q	c #4D4D4D",
"r	c #464646",
"s	c #4E4E4E",
"t	c #646464",
"u	c #5B5B5B",
"v	c #404040",
"w	c #535353",
"x	c #494949",
"y	c #606060",
"z	c #4C4C4C",
"A	c #353535",
"B	c #484848",
"C	c #1F1F1F",
"D	c #171717",
"E	c #141414",
"F	c #555555",
"G	c #131313",
"H	c #737373",
"I	c #7B7B7B",
"J	c #747474",
"K	c #313131",
"L	c #777777",
"M	c #595959",
"N	c #7C7C7C",
"O	c #7E7E7E",
"P	c #232323",
"Q	c #797979",
"R	c #1B1B1B",
"S	c #6E6E6E",
"T	c #696969",
"U	c #3C3C3C",
"V	c #3E3E3E",
"                                                ",
"                                                ",
"                                                ",
"                                                ",
"                                                ",
"                                                ",
"                                 .....          ",
"                               ..+@#$%..        ",
"                              .&*===-;>,.       ",
"                             .&====-')!~-.      ",
"                            .{====]^/(_:<=.     ",
"                           .[=====-}.|1234=.    ",
"                           .5====-'.6.%$78=.    ",
"                           .*===90.a.b.c@d=.    ",
"                           .e==]f}>.g.hijk=.    ",
"                           .i==-;l>m.n7op&=.    ",
"                           .oq-')!~rs#@t5==.    ",
"                           .ucv/(_:<wudk===.    ",
"                           .7nx,'1234y=====.    ",
"                            .zb_(=========;     ",
"                            .uv>,'-======0.     ",
"                           .@9rA}f======fl      ",
"                          .@hBCl'9=====-).      ",
"                         .ocxv(DE=====-/.       ",
"                        .eF2v(}-=GGG=]}.        ",
"           .....       .y#<m!}-======;.         ",
"         ..H&kd@..    .d7z16/-======0.          ",
"        .IJ==-'K3z....d4qg>Kf======f.           ",
"       .I===-'KA>vvL(+M$b>)^======-.            ",
"      .N===-'KA>vr<(*'nb|,0======-.             ",
"     .O===-'KA>vr<h7'3P_l0]=====].              ",
"     .Q==-'KA.vr<h7o-BCl']======.               ",
"     .H=-'KA.v.<h7o+]vR;9======.                ",
"     .S-'K>.v.<.7o+T=(D-======.                 ",
"     .T'KA>>.<.7o+T{=}E======.                  ",
"     .SeA>vrh.7o+T{=>-G=====.                   ",
"     .5yFvr<h7o+T{=AUG=====.                    ",
"     .k8h2:h7o+T==)6vG====.                     ",
"      .u$g66l}f]-}l|G===..                      ",
"       .<v('===]^KaG===..                       ",
"        .Vlf===-;l===..                         ",
"          .-===f9===.                           ",
"            .......                             ",
"                                                ",
"                                                ",
"                                                ",
"                                                ",
"                                                "};
