/* XPM */
static char * kppp_xpm[] = {
"34 34 227 2",
"  	c None",
". 	c #020204",
"+ 	c #9CBAE4",
"@ 	c #8AA6D4",
"# 	c #869ECC",
"$ 	c #7692CC",
"% 	c #6A92AC",
"& 	c #94A6C0",
"* 	c #9EBACC",
"= 	c #9AB6F4",
"- 	c #ACC2FC",
"; 	c #9CBAF4",
"> 	c #AECAE4",
", 	c #B6BEB4",
"' 	c #A6C2BC",
") 	c #6296A4",
"! 	c #3A6674",
"~ 	c #A2AAAC",
"{ 	c #D2D6DC",
"] 	c #CEDAEC",
"^ 	c #C2D6F8",
"/ 	c #BBD2FC",
"( 	c #C8D6FC",
"_ 	c #BED6DC",
": 	c #96AAA4",
"< 	c #A6C6C4",
"[ 	c #4E769C",
"} 	c #467E84",
"| 	c #32666C",
"1 	c #2A5654",
"2 	c #7A927C",
"3 	c #BED2BC",
"4 	c #EAF6FC",
"5 	c #F2FBFC",
"6 	c #DAE6FC",
"7 	c #DAEEDC",
"8 	c #C6DEEC",
"9 	c #ACCEC4",
"0 	c #BEDACC",
"a 	c #7EA294",
"b 	c #769AA4",
"c 	c #ACC2D0",
"d 	c #5A8E94",
"e 	c #3E7274",
"f 	c #E2EEE4",
"g 	c #FCFEFC",
"h 	c #ECFAF8",
"i 	c #CEE4E4",
"j 	c #C2DED4",
"k 	c #B6DEA4",
"l 	c #BEDEB4",
"m 	c #AED29C",
"n 	c #82AA7C",
"o 	c #729A80",
"p 	c #5E9674",
"q 	c #527A44",
"r 	c #6E96EC",
"s 	c #9EAAF4",
"t 	c #DAE2F4",
"u 	c #F2F2F4",
"v 	c #DADEDC",
"w 	c #BECEFC",
"x 	c #C2E6B4",
"y 	c #C2D2B4",
"z 	c #CADEC4",
"A 	c #96CE74",
"B 	c #669A64",
"C 	c #6E8E9C",
"D 	c #627264",
"E 	c #4C524C",
"F 	c #86AAF4",
"G 	c #AABEF4",
"H 	c #E4EAF0",
"I 	c #DEEEFC",
"J 	c #D3DEFC",
"K 	c #7E9EE4",
"L 	c #9EC694",
"M 	c #668E74",
"N 	c #8C8E8C",
"O 	c #757670",
"P 	c #3E66CC",
"Q 	c #708EF8",
"R 	c #C6DBFC",
"S 	c #8EB2F4",
"T 	c #82AEDC",
"U 	c #527ADC",
"V 	c #5A86CC",
"W 	c #B2BE94",
"X 	c #A6AE94",
"Y 	c #5C6A5C",
"Z 	c #666664",
"` 	c #465EAC",
" .	c #7A8ECC",
"..	c #96AAF4",
"+.	c #BACAFC",
"@.	c #DAEAD4",
"#.	c #E2F2B4",
"$.	c #FAFEB4",
"%.	c #96B2A4",
"&.	c #829260",
"*.	c #868A74",
"=.	c #6E725C",
"-.	c #52524C",
";.	c #4A6EB4",
">.	c #8A92EC",
",.	c #86A6F4",
"'.	c #96BAFC",
").	c #C2CEFC",
"!.	c #F6FAB4",
"~.	c #FAF29C",
"{.	c #F6E6A4",
"].	c #F2E28C",
"^.	c #C6B25C",
"/.	c #8A924C",
"(.	c #728E64",
"_.	c #92A2AC",
":.	c #9EAEA4",
"<.	c #7A96EC",
"[.	c #5A7EF4",
"}.	c #76A2FC",
"|.	c #AECEF4",
"1.	c #F8FA98",
"2.	c #E6D67C",
"3.	c #EAE294",
"4.	c #D2BE5C",
"5.	c #8A9E5C",
"6.	c #566E5C",
"7.	c #567E54",
"8.	c #565652",
"9.	c #4A727C",
"0.	c #A2BAFC",
"a.	c #FEFAA4",
"b.	c #F8FE9C",
"c.	c #C6BE6C",
"d.	c #86764C",
"e.	c #968A44",
"f.	c #AEB66C",
"g.	c #76827C",
"h.	c #425C4C",
"i.	c #46663C",
"j.	c #6A86FC",
"k.	c #B2C6FC",
"l.	c #A6CAEC",
"m.	c #DEF2A4",
"n.	c #D6DE74",
"o.	c #514E4B",
"p.	c #7E7E7C",
"q.	c #969696",
"r.	c #666264",
"s.	c #483E3C",
"t.	c #5A764C",
"u.	c #76A664",
"v.	c #8ACA4C",
"w.	c #72A6A4",
"x.	c #6286FC",
"y.	c #7EAACC",
"z.	c #72826C",
"A.	c #9C9A9E",
"B.	c #E2E2E4",
"C.	c #D2D2D0",
"D.	c #CECECD",
"E.	c #CAC6CC",
"F.	c #6A7E5C",
"G.	c #4A622C",
"H.	c #5E8E44",
"I.	c #365ECC",
"J.	c #4266FC",
"K.	c #566EAC",
"L.	c #AAA2A4",
"M.	c #CBCACC",
"N.	c #C2C2BC",
"O.	c #BFBEBC",
"P.	c #62765C",
"Q.	c #464A94",
"R.	c #EAEBEC",
"S.	c #3E4A44",
"T.	c #AEAEAC",
"U.	c #D9DADC",
"V.	c #38423C",
"W.	c #C6C6C6",
"X.	c #A3A6A4",
"Y.	c #B2B2B4",
"Z.	c #DFDEDD",
"`.	c #BABABC",
" +	c #2A2A2C",
".+	c #868A87",
"++	c #8B8A8C",
"@+	c #929291",
"#+	c #9D9E9C",
"$+	c #1C1E20",
"%+	c #242624",
"&+	c #353634",
"*+	c #E6E6E4",
"=+	c #1C2224",
"-+	c #7D827E",
";+	c #F6F6F8",
">+	c #B5B6B7",
",+	c #826E6C",
"'+	c #FA6664",
")+	c #5E2A2C",
"!+	c #868684",
"~+	c #8E9694",
"{+	c #AA2224",
"]+	c #724444",
"^+	c #CE9694",
"/+	c #6A3239",
"(+	c #424644",
"_+	c #9A96A4",
":+	c #828282",
"<+	c #EA2624",
"[+	c #82221C",
"}+	c #A69A94",
"|+	c #7A4A48",
"1+	c #797A74",
"2+	c #72726C",
"3+	c #DE5A5C",
"4+	c #BE1A1C",
"5+	c #6B6A64",
"6+	c #5E4644",
"7+	c #726E6C",
"8+	c #624A44",
"9+	c #B6928C",
"0+	c #E22A2C",
"a+	c #7A3A3C",
"b+	c #C22A2C",
"c+	c #525A54",
"d+	c #121614",
"                                                                    ",
"                          . . . . . .                               ",
"                      . . + @ # $ % $ . .                           ",
"                  . . & * = - ; > , ' ) ! . .                       ",
"                . & ~ { ] ^ / ( _ : < [ } | 1 .                     ",
"              . 2 3 4 5 4 6 7 > 8 9 0 a b c d e .                   ",
"              . < f g g g 5 h i j k l m n o p q .                   ",
"            . r s t 4 g u v w i x y z A B } C D E .                 ",
"            . F G t H I t J 8 x ' K 9 L n M 2 N O .                 ",
"          . P Q w / J R R w _ z > S T U V C W X Y Z .               ",
"          . `  ...= +./ ( +./ @.#.$.f @.y %.&.*.=.-..               ",
"          . ;.$ >.,.'.= ).- i #.!.~.{.].^./.(.*.=.Z .               ",
"          . _.:.<.[.}.}./ |.!.1.1.2.2.3.4.5.6.=.7.8..               ",
"          . 9.%.c Q [.[.0.= 1.a.b.c./.d.e.f.o g.h.8..               ",
"          . i.| a 9 ,.j.k.l.m.n.&.o.p.q.r.o.i.h.Y s..               ",
"            . t.u.v.w.x.- y.z.o.A.B.C.D.B.E.O o.. .                 ",
"            . F.G.H.I.J.K.o.L.M.M.N.N.N.O.D.C.M.o..                 ",
"              . F.P.Q.o.E.D.N.N.N.N.N.N.N.N.N.O.M.R.. .             ",
"              . S.o.T.E.N.N.N.N.N.N.N.N.N.N.N.N.O.O.D.U.. .         ",
"            . V.W.D.N.N.N.N.N.N.N.N.N.N.N.N.N.N.N.N.W.U.M.X..       ",
"        . . Y.W.M.N.N.N.N.N.N.N.N.N.N.N.N.N.N.O.N.B.Z.`.N q..       ",
"       +.+Z.R.U.O.N.N.N.N.N.N.N.N.N.N.N.N.O.N.C.H O.A.++@+#+.       ",
"      $+%+&+#+R.*+D.N.N.N.N.N.N.N.N.O.O.N.D.Z.E.++@+@+@+q.#+.       ",
"      =+E -+&+O W.;+U.`.O.N.N.N.O.`.>+M.B.N.#+N @+N N q.X..         ",
"      $+,+'+)+V.&+N U.B.D.`.>+Y.`.N.v O.N -+!+.+++N ~+. .           ",
"       +s.{+]+^+/+(+&+_+;+B.O.M.Z.U.X.:+-+:+-+!+!+. .               ",
"        =+/+]+<+[+}+|+V.Z >+B.B.T.!+p.O 1+2+O 1+.                   ",
"          . . /+8.3+4+5+6+&+E 5+7+2+O 2+O :+. .                     ",
"              . . /+8+9+0+a+&+-+2+2+2+1+5+.                         ",
"                  . . a+b+|+&+p.O 2+Z . .                           ",
"                      . /+c+ +O O 5+.                               ",
"                        d+. %+5+. .                                 ",
"                            . .                                     ",
"                                                                    "};
