/* XPM */
static char * large_kppp_xpm[] = {
"48 48 245 2",
"  	c None",
". 	c #161614",
"+ 	c #020204",
"@ 	c #8AA2C4",
"# 	c #92AAEC",
"$ 	c #7A92BC",
"% 	c #6682B4",
"& 	c #567694",
"* 	c #6E868C",
"= 	c #6E7A8C",
"- 	c #86A2EC",
"; 	c #9AB6F4",
"> 	c #AEC6FC",
", 	c #9AAEF4",
"' 	c #A2BEFC",
") 	c #B6CACC",
"! 	c #96AA9C",
"~ 	c #869E8C",
"{ 	c #5E8284",
"] 	c #2A5654",
"^ 	c #6A7E5C",
"/ 	c #7E8274",
"( 	c #96A6B4",
"_ 	c #9AB6B4",
": 	c #A6BABC",
"< 	c #9ABAE4",
"[ 	c #A6C2FC",
"} 	c #A6C6CC",
"| 	c #969A9C",
"1 	c #92B2B4",
"2 	c #467E9C",
"3 	c #5E86AC",
"4 	c #3E7274",
"5 	c #727E9C",
"6 	c #8E9EB4",
"7 	c #D6D6D4",
"8 	c #CEDAFC",
"9 	c #D2DEFC",
"0 	c #C6D6FC",
"a 	c #BAD2FC",
"b 	c #9AAEAC",
"c 	c #A6CACC",
"d 	c #96BACC",
"e 	c #4E827C",
"f 	c #2A5E64",
"g 	c #425E64",
"h 	c #221E1C",
"i 	c #425E4C",
"j 	c #82968C",
"k 	c #B2C2B4",
"l 	c #E6F2FC",
"m 	c #D6E6DC",
"n 	c #BED6DC",
"o 	c #AABEFC",
"p 	c #C6E2EC",
"q 	c #AAC2C4",
"r 	c #BEDECC",
"s 	c #A2BEC4",
"t 	c #668A94",
"u 	c #4E7E7C",
"v 	c #7E9AA4",
"w 	c #6E8E94",
"x 	c #6E928C",
"y 	c #CEE2D4",
"z 	c #FAFEFC",
"A 	c #D6EEE4",
"B 	c #B2CEFC",
"C 	c #A2CA9C",
"D 	c #B6D6AC",
"E 	c #AACEB4",
"F 	c #96BAA4",
"G 	c #8EAEB4",
"H 	c #465A34",
"I 	c #526E7C",
"J 	c #E2E6EC",
"K 	c #EEEEF4",
"L 	c #F2F2F4",
"M 	c #BADEB4",
"N 	c #BEE2B4",
"O 	c #7EAE74",
"P 	c #5A965C",
"Q 	c #5E8E6C",
"R 	c #729E7C",
"S 	c #5E6A94",
"T 	c #6286EC",
"U 	c #7A8EF4",
"V 	c #B6C6FC",
"W 	c #D6E2FC",
"X 	c #BECEF4",
"Y 	c #BACEAC",
"Z 	c #C6DABC",
"` 	c #8ECA74",
" .	c #6EA664",
"..	c #566254",
"+.	c #464E3C",
"@.	c #566EAC",
"#.	c #7EA2F4",
"$.	c #AECED4",
"%.	c #626E5C",
"&.	c #4A6ECC",
"*.	c #7A96F4",
"=.	c #C2D6FC",
"-.	c #D2E6AC",
";.	c #6E8EF4",
">.	c #82AA94",
",.	c #6A9244",
"'.	c #7E965C",
").	c #A2A2A4",
"!.	c #666664",
"~.	c #3E5694",
"{.	c #3E66D4",
"].	c #5E7EEC",
"^.	c #B2BAF4",
"/.	c #B6C6C4",
"(.	c #96C2EC",
"_.	c #769ECC",
":.	c #567AF4",
"<.	c #567EA4",
"[.	c #AAB694",
"}.	c #868E74",
"|.	c #565654",
"1.	c #425EA4",
"2.	c #4E62A4",
"3.	c #7282CC",
"4.	c #B6CAFC",
"5.	c #E2EEB4",
"6.	c #8A8E4C",
"7.	c #868674",
"8.	c #6E725C",
"9.	c #3A52AC",
"0.	c #728ABC",
"a.	c #8E9ADC",
"b.	c #829EFC",
"c.	c #DEEEBC",
"d.	c #FEF2BC",
"e.	c #F2E6A4",
"f.	c #D6CE7C",
"g.	c #A29E54",
"h.	c #8692D4",
"i.	c #86AAFC",
"j.	c #EEF2BC",
"k.	c #FAFAA4",
"l.	c #F6EE94",
"m.	c #E2CE7C",
"n.	c #EADE84",
"o.	c #D6BE74",
"p.	c #A2A25C",
"q.	c #6A866C",
"r.	c #727E5C",
"s.	c #666654",
"t.	c #96A294",
"u.	c #7696F4",
"v.	c #EAF294",
"w.	c #F6F294",
"x.	c #E6E294",
"y.	c #DAC66C",
"z.	c #B2A654",
"A.	c #627664",
"B.	c #6E6E6C",
"C.	c #7E7E7C",
"D.	c #3E5A84",
"E.	c #BAAE6C",
"F.	c #C2B65C",
"G.	c #567E54",
"H.	c #8E8E8C",
"I.	c #525254",
"J.	c #EAEA94",
"K.	c #D6D27C",
"L.	c #8A8A44",
"M.	c #6E5E4C",
"N.	c #726244",
"O.	c #B2B674",
"P.	c #463E3C",
"Q.	c #46624C",
"R.	c #DEF27C",
"S.	c #BACA6C",
"T.	c #3E3E3C",
"U.	c #767674",
"V.	c #B2B2B4",
"W.	c #9E9EA4",
"X.	c #524A4C",
"Y.	c #525A54",
"Z.	c #4A6634",
"`.	c #527254",
" +	c #72A27C",
".+	c #92C694",
"++	c #A2BE94",
"@+	c #CECECC",
"#+	c #BABABC",
"$+	c #C6C6C4",
"%+	c #8E928C",
"&+	c #524E4C",
"*+	c #464644",
"=+	c #76AE44",
"-+	c #4E6EE4",
";+	c #628EEC",
">+	c #BEBEBC",
",+	c #A6AAA4",
"'+	c #5E5E5C",
")+	c #262A2C",
"!+	c #5A8254",
"~+	c #365AB4",
"{+	c #3E5AF4",
"]+	c #969694",
"^+	c #D6DADC",
"/+	c #526E54",
"(+	c #3E46AC",
"_+	c #424E7C",
":+	c #AEAEAC",
"<+	c #AAAEA4",
"[+	c #E6EAF4",
"}+	c #DEDEE4",
"|+	c #A6A6A4",
"1+	c #828684",
"2+	c #363634",
"3+	c #322E2C",
"4+	c #363A34",
"5+	c #C6AEB4",
"6+	c #262624",
"7+	c #967674",
"8+	c #FE8284",
"9+	c #E61614",
"0+	c #42363C",
"a+	c #763634",
"b+	c #F60E0C",
"c+	c #CA2224",
"d+	c #AA928C",
"e+	c #624644",
"f+	c #66322C",
"g+	c #964644",
"h+	c #FE7A7C",
"i+	c #E62624",
"j+	c #523A34",
"k+	c #0A0A0C",
"l+	c #8E3634",
"m+	c #D61614",
"n+	c #E6A29C",
"o+	c #AE5254",
"p+	c #864A44",
"q+	c #F62624",
"r+	c #7A3E44",
"s+	c #CE6664",
"t+	c #BA221C",
"u+	c #A22E2C",
"v+	c #6A5254",
"                                                                                                ",
"                                                                                                ",
"                                    . + + + + + + +                                             ",
"                              + + + @ # $ $ $ % & * + + +                                       ",
"                          + + = $ @ - ; > ; , ' ) ! ~ { ] + +                                   ",
"                        + = ^ / ( _ : ' ' < [ } | ! 1 2 3 4 ] +                                 ",
"                      + 5 ( 6 7 8 9 0 0 0 0 a ) b c d & 4 e f g h                               ",
"                    + i j k 9 l l l 8 9 m n o p q r s t u v _ w 4 h                             ",
"                  + i x c y l z z z l l A y B n C D E C F G v 4 4 H +                           ",
"                  + I G ) J K z z z L l l A p M N M D C O P Q R P H h                           ",
"                + S T U V W l z L z J 0 X 8 r N Y Z D `  .Q u t * ..+.+                         ",
"                + @.#.- V W J l l J J 8 B p Z E s $.Z C O x 3 t * %./ +                         ",
"                + &.*.# =.0 W W 8 0 9 =.m -.D # ;.#.s >.>.R ,.'.| ).!.+                         ",
"              + ~.{.].^.B B 0 8 a =.8 [ n y /.B < (._.:.T <.v [.[.}...|.+                       ",
"              + 1.2.3., # ' 4.=.=.0 8 > a y y -.5.A B a $.} 1 j 6.7.8.!.+                       ",
"              + 9.9.0.a.b.# ; [ ' V V o p y c.d.d.d.d.e.f.g.'.'.6.7.8.!.+                       ",
"              + 1.<.0.h.U #.i.; ; 4.> B m j.k.k.l.m.e.n.o.p.6.q.r./ s.|.+                       ",
"              + @.t.~ a.T T u.#.i.X ' p j.k.v.w.f.o.n.x.y.z.'.A.%.B.C.!.+                       ",
"              + D.~ k 1 u.:.T u.T [ i.y k.l.k.v.E.F.f.E.z.z.'.G.A.H.H.I.+                       ",
"              + D.] x _ q b.:.T ;.o ;.A v.k.k.J.K.L.s.M.N.L.O.~ * ..P...+                       ",
"              + Q.] f t >.c ; T U o i.N -.R.S.r.T.U.V.W.U.X.Y.Z.Q.i ..|.+                       ",
"                + Q.`. + .` .+T u.> ; c ++r.X.H.@+7 #+$+7 7 %++.&+*+..+                         ",
"                + Q.H ^ ,.=+P -+].b.;+I X.%+7 $+>+>+>+>+>+$+7 7 ,+'+)+h                         ",
"                + H +.H Z.!+~+{+-+@.X.]+$+$+>+>+>+>+>+>+>+>+>+>+$+7 ^+).+ +                     ",
"                  + %.U.^ /+(+_+X.V.$+#+>+>+>+>+>+>+>+>+>+>+>+>+>+>+$+@+^+).+ +                 ",
"                  + Q.^ %+/ X.#+#+#+>+>+>+>+>+>+>+>+>+>+>+>+>+>+>+>+>+>+$+7 ^+).+ +             ",
"                    + + X.V.#+#+#+>+>+>+>+>+>+>+>+>+>+>+>+>+>+>+>+>+>+>+#+>+$+$+7 $++           ",
"                  + + :+$+$+#+>+>+>+>+>+>+>+>+>+>+>+>+>+>+>+>+>+>+>+>+>+>+#+@+^+#+%+H.+         ",
"              + + <+<+$+#+>+#+>+>+>+>+>+>+>+>+>+>+>+>+>+>+>+>+>+>+>+>+@+@+[+}+#+H.H.H.+         ",
"          + + |+#+$+#+>+>+>+>+>+>+>+>+>+>+>+>+>+>+>+>+>+>+>+>+>+>+>+$+J K #+]+H.H.H.H.+         ",
"        + Y.]+#+$+J }+$+>+>+>+>+>+>+>+>+>+>+>+>+>+>+>+>+>+>+>+>+$+7 J $+%+%+H.H.H.1+H.+         ",
"        + 2+3+*+H.[+L J @+>+>+>+>+>+>+>+>+>+>+>+>+>+>+>+>+>+>+7 J $+]+]+]+H.H.H.H.H.H.+         ",
"        . 4+2+2+3+!.:+z L J @+>+>+>+>+>+>+>+>+>+>+>+#+#+>+@+}+$+H.%+H.H.H.H.H.1+H./ !.+         ",
"        + 4+'+5+X.3+|.C.$+K [+@+#+>+>+>+>+#+#+#+#+#+V.@+}+$+W.%+H.H.H.1+1+/ 1+1+C.+ 6+          ",
"        + 2+7+8+9+4+2+0+!.%+L }+7 @+#+#+#+#+V.#+V.$+}+$+H.H./ 1+1+C.1+1+C.1+C.+ +               ",
"        + *+a+b+c+I.d+e+*+!.I.]+}+K ^+#+V.V.#+@+}+7 |+H.1+C.C.C.1+1+C.1+C.B.+                   ",
"        h 6+4+f+e+g+h+i+j+*+*+I.U.@+L L @+@+J [+$+%+/ C.C.C.C.U.U.U.B.B.+ +                     ",
"          k+. 2+*+l+b+m+T.n+o++.*+I.U.@+J J $+%+1+C.C.B.U.U.B.B.!.!.+ +                         ",
"              + 4+*+e+I.p+h+q+a+*+*+I.|.B.U.U.U.U.U.U.B.B.!.B.!.!.+                             ",
"                k+. 3+*+X.m+m+Y.5+o+r+X.&+C.U.U.B.B.B.B.B.B.B.+ )+                              ",
"                    . + 4+0+X.Y.s+i+t+X.T.U.B.!.B.B.B.B.!.+ +                                   ",
"                        + 4+4+I.u+c+u+X.2+U.B.B.!.'+!.!.+                                       ",
"                          + 6+4+4+X.v+I.)+!.!.!.!.!.+ +                                         ",
"                              + k+6+2++.6+!.!.!.+ +                                             ",
"                                  + 4+2+h X.!..                                                 ",
"                                    + + h h +                                                   ",
"                                                                                                ",
"                                                                                                "};
