/* XPM */
/* Drawn for the K Desktop Environment */
/* See http://www.kde.org */
static char*kppp[]={
"16 16 8 1",
"a c #ffffff",
"# c #000000",
"b c #c0c0ff",
"c c #008000",
"e c #808080",
"d c #c0c0c0",
"f c #ff0000",
". c None",
".....#####......",
"....#abbcc#.....",
"...#aabcccc#....",
"..#cabcccbcc#...",
"..#cbbbbcbbc#...",
"..#bbbcccccc#...",
"..#cbbcc###b#...",
"...#bb##ddd##...",
"...###ddddddd##.",
".###ddddddddde#.",
".#eadddddddeee#.",
".#fdeadddeeee##.",
".##ffdeeeee##...",
"...##ffde##.....",
".....####.......",
"................"};

