/* XPM */
static char * ab_stop_xpm[] = {
"22 22 5 1",
" 	c none",
".	c black",
"X	c white",
"o	c red",
"O	c #820782078207",
"                      ",
"                      ",
"                      ",
"       .......        ",
"      .........       ",
"     ..XXXXXX...      ",
"    ..X o o o ...     ",
"   ..X o o o o ...    ",
"   ..Xo o o o oO..    ",
"   ..X o o o o O..    ",
"   ..Xo o o o oO..    ",
"   ..X o o o o O..    ",
"   ..Xo o o o oO..    ",
"   ... o o o o O..    ",
"    ... o o o O..     ",
"     ...OOOOOO..      ",
"      .........       ",
"       .......        ",
"                      ",
"                      ",
"                      ",
"                      "};
