/* XPM */
static char * ab_start_xpm[] = {
"22 22 6 1",
" 	c None",
".	c black",
"X	c white",
"o	c #820782078207",
"O	c red",
"+	c yellow",
"                      ",
"               .X     ",
"               .X     ",
"       .... .X .X .X  ",
"      ...... .X.X.X   ",
"     ..oOOOo          ",
"     .. OOO o         ",
"    .. o o o .X.X.X   ",
"    ..o o o .X .X .X  ",
"   ..o o o o o .X     ",
"   .. o o o o  .X     ",
"    .. o o o ..       ",
"    ..o o o o..X      ",
"     ..o+++o..X       ",
"     .. +++ ..X       ",
"      .......X        ",
"       .....X         ",
"        XXXX          ",
"                      ",
"                      ",
"                      ",
"                      "};
