/* XPM */
static char * hint_xpm[] = {
"22 22 6 1",
" 	c None",
".	c #000086",
"X	c #868286",
"o	c black",
"O	c red",
"+	c yellow",
"                      ",
"                      ",
"            .....X    ",
"           ..  X..X   ",
"          ..X   ...   ",
"          ..X   ...   ",
"          X..  X..X   ",
"               ..X    ",
"              ..      ",
"     oooo    ..X      ",
"   oooooooo  ..X      ",
"  ooOOOOoooo          ",
"  oOOo  oooo ...      ",
" oOOo oo oooo...      ",
" oOo oooo o+o         ",
" oOo oooo o+o         ",
" oooo oo o++o         ",
"  oooo  o++o          ",
"  ooooo+++oo          ",
"   oooooooo           ",
"     oooo             ",
"                      "};
