/* XPM */
static char * kljettool_xpm[] = {
"32 32 224 2",
"  	c None",
". 	c #000000",
"+ 	c #F2F2F1",
"@ 	c #F5F5F5",
"# 	c #F6F6F6",
"$ 	c #F9F9F9",
"% 	c #FAFAFA",
"& 	c #FFFFFF",
"* 	c #F2F2F2",
"= 	c #EEEEEE",
"- 	c #EAEAE9",
"; 	c #EEEEED",
"> 	c #E6E6E5",
", 	c #E2E2E1",
"' 	c #F0F0EF",
") 	c #F3F3F3",
"! 	c #A2FEA4",
"~ 	c #96FA94",
"{ 	c #E9E9E8",
"] 	c #E5E5E4",
"^ 	c #E1E1E0",
"/ 	c #DDDDDC",
"( 	c #EDEDED",
"_ 	c #24E021",
": 	c #96CA94",
"< 	c #02BA04",
"[ 	c #E3E3E2",
"} 	c #E0E0DE",
"| 	c #DCDCDA",
"1 	c #BFBFBF",
"2 	c #B9B9B9",
"3 	c #E8E8E7",
"4 	c #ECECEC",
"5 	c #E5E5E3",
"6 	c #DEDEDC",
"7 	c #CCCCCB",
"8 	c #C6C6C5",
"9 	c #E7E7E6",
"0 	c #DFDFDE",
"a 	c #D7D7D6",
"b 	c #D2D2D1",
"c 	c #3E3E3C",
"d 	c #969694",
"e 	c #C5C5C4",
"f 	c #DCDCDB",
"g 	c #727273",
"h 	c #E4E4E2",
"i 	c #D9D9D8",
"j 	c #EFEFEE",
"k 	c #B4B4B4",
"l 	c #C3C3C1",
"m 	c #DEDEDD",
"n 	c #DADAD9",
"o 	c #D8D8D7",
"p 	c #F6F6F4",
"q 	c #AEAEAE",
"r 	c #A7A7A8",
"s 	c #BFBFBE",
"t 	c #D8D8D6",
"u 	c #D7D7D5",
"v 	c #D5D5D3",
"w 	c #868684",
"x 	c #BEBEBC",
"y 	c #A2A2A2",
"z 	c #9C9C9C",
"A 	c #BDBDBC",
"B 	c #D3D3D1",
"C 	c #4A4A4C",
"D 	c #585858",
"E 	c #969696",
"F 	c #8F8F91",
"G 	c #DBDBD9",
"H 	c #D9D9D7",
"I 	c #04EFCA",
"J 	c #07DFBF",
"K 	c #8A8A8B",
"L 	c #848485",
"M 	c #DADAD8",
"N 	c #01FED4",
"O 	c #0AD0B6",
"P 	c #0DC1AC",
"Q 	c #7E7E7F",
"R 	c #787879",
"S 	c #C6C6C4",
"T 	c #6F6F71",
"U 	c #6B6B6D",
"V 	c #D6D6D4",
"W 	c #D4D4D2",
"X 	c #D1D1CF",
"Y 	c #CFCFCD",
"Z 	c #CDCDCB",
"` 	c #808080",
" .	c #10B3A2",
"..	c #13A498",
"+.	c #CFCFCE",
"@.	c #7A7A7B",
"#.	c #767677",
"$.	c #6E6E6F",
"%.	c #D0D0CE",
"&.	c #CECECC",
"*.	c #CCCCCA",
"=.	c #C9C9C7",
"-.	c #C7C7C5",
";.	c #D6D6D6",
">.	c #848484",
",.	c #808081",
"'.	c #7C7C7D",
").	c #747475",
"!.	c #707071",
"~.	c #CACAC8",
"{.	c #C8C8C6",
"].	c #C1C1BF",
"^.	c #DFDFDF",
"/.	c #8E8E8E",
"(.	c #8A8A8A",
"_.	c #868687",
":.	c #828283",
"<.	c #F9F9FC",
"[.	c #D0D0D3",
"}.	c #C4C4C2",
"|.	c #C2C2C0",
"1.	c #BDBDBB",
"2.	c #BBBBB9",
"3.	c #E5E5E5",
"4.	c #999998",
"5.	c #959594",
"6.	c #909090",
"7.	c #8C8C8C",
"8.	c #888889",
"9.	c #F7F7F9",
"0.	c #CBCBCC",
"a.	c #BCBCBA",
"b.	c #B9B9B7",
"c.	c #B7B7B5",
"d.	c #B5B5B3",
"e.	c #A3A3A2",
"f.	c #9F9F9E",
"g.	c #9B9B9A",
"h.	c #979796",
"i.	c #939392",
"j.	c #8F8F8E",
"k.	c #8B8B8B",
"l.	c #878787",
"m.	c #F4F4F6",
"n.	c #F0F0F2",
"o.	c #EBEBED",
"p.	c #C1C1C2",
"q.	c #B8B8B6",
"r.	c #B6B6B4",
"s.	c #B4B4B2",
"t.	c #B1B1AF",
"u.	c #AFAFAD",
"v.	c #A9A9A7",
"w.	c #A5A5A4",
"x.	c #A1A1A0",
"y.	c #9D9D9C",
"z.	c #919190",
"A.	c #484644",
"B.	c #464241",
"C.	c #F2F2F4",
"D.	c #EDEDEF",
"E.	c #E8E8EA",
"F.	c #E3E3E5",
"G.	c #DEDEE0",
"H.	c #B6B6B8",
"I.	c #B2B2B0",
"J.	c #B0B0AE",
"K.	c #AEAEAC",
"L.	c #ABABA9",
"M.	c #A7A7A6",
"N.	c #4E4C4A",
"O.	c #4A4846",
"P.	c #5A5755",
"Q.	c #565250",
"R.	c #E6E6E8",
"S.	c #E1E1E3",
"T.	c #DBDBDD",
"U.	c #D7D7D9",
"V.	c #D2D2D4",
"W.	c #ACACAD",
"X.	c #A9A9A8",
"Y.	c #555452",
"Z.	c #51504E",
"`.	c #63615F",
" +	c #5F5C5A",
".+	c #5B5856",
"++	c #585452",
"@+	c #D9D9DB",
"#+	c #D4D4D6",
"$+	c #CFCFD1",
"%+	c #CACACC",
"&+	c #C5C5C7",
"*+	c #A1A1A3",
"=+	c #5D5C5A",
"-+	c #595856",
";+	c #6D6B69",
">+	c #696664",
",+	c #656260",
"'+	c #615E5C",
")+	c #CDCDCF",
"!+	c #C8C8CA",
"~+	c #C2C2C4",
"{+	c #BEBEC0",
"]+	c #B9B9BB",
"^+	c #98989A",
"/+	c #646462",
"(+	c #61605E",
"_+	c #767573",
":+	c #72716F",
"<+	c #6E6D6B",
"[+	c #6B6967",
"}+	c #C1C1C3",
"|+	c #BBBBBD",
"1+	c #B1B1B3",
"2+	c #AFAFB1",
"3+	c #696967",
"4+	c #807F7D",
"5+	c #7C7B79",
"6+	c #787775",
"7+	c #747371",
"8+	c #B5B5B7",
"9+	c #A9A9AC",
"0+	c #82817F",
"a+	c #7E7D7B",
"                                      .                         ",
"                                    . + . .                     ",
"                                    . @ # @ . .                 ",
"                                  . @ $ % $ @ + . .             ",
"                                  . # % & % # * = - . .         ",
"                                . + @ $ % $ @ + ; - > , . .     ",
"                                . ' ) ! # @ ) ' ~ { ] ^ / .     ",
"                          . . . - ( ' _ : + ' _ < : [ } | .     ",
"                      . . 1 2 . 3 - 4 _ < ~ < < 3 5 ^ 6 .       ",
"                  . . 7 8 . . , 5 9 { _ < < ~ 9 5 , 0 | . .     ",
"              . . a b 7 c . d e ^ [ ] _ < > ] [ ^ 0 f . g .     ",
"          . . h 6 a b 7 8 1 c . d e ^ , , , ^ } 6 | i . .       ",
"      . . j { h 6 a b 7 8 1 2 k c . d l m 6 / | n o . g .       ",
"  . . p p j { h & & b 7 8 1 2 k q r c . d s i t u v . .         ",
". & p p p j w w x x w w 8 1 2 k q r y z c . d A B . g . .       ",
". 6 & & p j { h C C b 7 8 1 D D q r y z E F c . d . . g g . .   ",
". 6 G H & & { h 6 a b 7 D D I J D D y z E F K L c . g g g x x . ",
". | M a v B & & 6 a D D N N I J O P D D E F K L Q R g S S T U . ",
". G H V W X Y Z & & b 7 ` ` I J O P  ...D D K L Q +.+.@.#.g $.. ",
"  . . v B %.&.*.=.-.& & 8 1 ` ` O P ` ` E F K ;.;.>.,.'.R ).!.. ",
"    . . . Y Z ~.{.S l ].& & 2 k ` ` y z E ^.^./.(._.:.Q @.#.g . ",
"    . <.[.. . =.-.}.|.s 1.2.& & q r y 3.3.4.5.6.7.8.L ,.'.. .   ",
"    . <.<.9.0.. . l ].x a.b.c.d.& & 3.e.f.g.h.i.j.k.l.. . .     ",
"    . <.<.m.n.o.p.. . 1.2.q.r.s.t.u.v.w.x.y.4.5.z.. . A.B..     ",
"      . . C.D.E.F.G.H.. . c.d.I.J.K.L.M.e.f.g.. . N.O.P.Q..     ",
"          . . R.S.T.U.V.W.. . t.u.K.K.X.w.. . Y.Z.`. +.+++.     ",
"              . . @+#+$+%+&+*+. . K.K.. . =+-+;+>+,+'+. .       ",
"                  . . )+!+~+{+]+^+. . /+(+_+:+<+[+. .           ",
"                      . . }+|+H.1+2+3+4+5+6+7+. .               ",
"                          . . 8+2+9+w 0+a+. .                   ",
"                              . . 2+w . .                       ",
"                                  . .                           "};
