/* XPM */
static char * large_kljettool_xpm[] = {
"48 48 178 2",
"  	c None",
". 	c #020204",
"+ 	c #F3F3F2",
"@ 	c #F4F4F4",
"# 	c #F6F6F5",
"$ 	c #F6F6F6",
"% 	c #F7F7F6",
"& 	c #F8F8F8",
"* 	c #F9F9F9",
"= 	c #F2F2F1",
"- 	c #FBFBFA",
"; 	c #FCFCFC",
"> 	c #F0F0F0",
", 	c #EDEDED",
"' 	c #EBEBEA",
") 	c #FFFFFF",
"! 	c #F3F3F3",
"~ 	c #EEEEED",
"{ 	c #E8E8E7",
"] 	c #E5E5E4",
"^ 	c #E2E2E1",
"/ 	c #262624",
"( 	c #E0E0DE",
"_ 	c #DDDDDB",
": 	c #EFEFEF",
"< 	c #EDEDEC",
"[ 	c #EAEAE9",
"} 	c #E7E7E6",
"| 	c #DFDFDE",
"1 	c #DCDCDB",
"2 	c #A2FEA4",
"3 	c #96E294",
"4 	c #D6FED4",
"5 	c #96FA94",
"6 	c #96CA94",
"7 	c #E6E6E5",
"8 	c #E4E4E3",
"9 	c #E1E1E0",
"0 	c #DFDFDD",
"a 	c #EFEFEE",
"b 	c #16FE14",
"c 	c #02BA04",
"d 	c #02FE04",
"e 	c #1A8E1C",
"f 	c #5AAE5C",
"g 	c #E3E3E2",
"h 	c #E0E0DF",
"i 	c #DEDEDC",
"j 	c #B6B6B4",
"k 	c #B2B2B4",
"l 	c #E9E9E8",
"m 	c #029604",
"n 	c #028204",
"o 	c #E2E2E0",
"p 	c #C2C2C4",
"q 	c #BABABC",
"r 	c #ECECEB",
"s 	c #028604",
"t 	c #02A204",
"u 	c #4EDE4C",
"v 	c #DFE6DE",
"w 	c #CACACC",
"x 	c #C6C6C4",
"y 	c #BEBEBC",
"z 	c #72726C",
"A 	c #464644",
"B 	c #0E860C",
"C 	c #4AA64C",
"D 	c #02D204",
"E 	c #E1E1DF",
"F 	c #D2D2D4",
"G 	c #CECECC",
"H 	c #A2A2A4",
"I 	c #121214",
"J 	c #22FE24",
"K 	c #DBDBD9",
"L 	c #DADADC",
"M 	c #D6D6D4",
"N 	c #424244",
"O 	c #929294",
"P 	c #E6E6E4",
"Q 	c #E2E2E4",
"R 	c #42423C",
"S 	c #2E2E2C",
"T 	c #6A6A6C",
"U 	c #9E9E9C",
"V 	c #D9D9D7",
"W 	c #EEEEEC",
"X 	c #EAEAEC",
"Y 	c #AEAEAC",
"Z 	c #3A3A3C",
"` 	c #6E6E6C",
" .	c #969694",
"..	c #DBDBDA",
"+.	c #DADAD8",
"@.	c #D8D8D7",
"#.	c #D7D7D5",
"$.	c #F6F6F4",
"%.	c #F2F2F4",
"&.	c #868684",
"*.	c #82827C",
"=.	c #AAAAAC",
"-.	c #3E3E3C",
";.	c #1E1E1C",
">.	c #525254",
",.	c #A6A6A4",
"'.	c #DCDCDA",
").	c #DADAD9",
"!.	c #D8D8D6",
"~.	c #D5D5D3",
"{.	c #4A4A4C",
"].	c #9A9A9C",
"^.	c #2A2A2C",
"/.	c #D9D9D8",
"(.	c #D7D7D6",
"_.	c #D6D6D5",
":.	c #8E8E8C",
"<.	c #828284",
"[.	c #5E5E5C",
"}.	c #C9C9C8",
"|.	c #D4D4D2",
"1.	c #7A7A7C",
"2.	c #666664",
"3.	c #8A8A8C",
"4.	c #0E0E0C",
"5.	c #5A5A5C",
"6.	c #52524C",
"7.	c #161614",
"8.	c #767674",
"9.	c #727274",
"0.	c #060604",
"a.	c #C0C0BE",
"b.	c #04EFCA",
"c.	c #07DFBF",
"d.	c #565654",
"e.	c #6A6A64",
"f.	c #C4C4C2",
"g.	c #01FED4",
"h.	c #0AD0B6",
"i.	c #0DC1AC",
"j.	c #4E4E4C",
"k.	c #7E7E7C",
"l.	c #CBCBCA",
"m.	c #C9C9C7",
"n.	c #10B3A2",
"o.	c #13A498",
"p.	c #7A7A74",
"q.	c #D1D1D0",
"r.	c #CFCFCE",
"s.	c #D6D6D6",
"t.	c #D4D4D3",
"u.	c #DDDDDC",
"v.	c #DFDFDF",
"w.	c #E8E8E8",
"x.	c #E5E5E5",
"y.	c #363234",
"z.	c #ECECEC",
"A.	c #5A5A54",
"B.	c #3E3A3C",
"C.	c #3A3634",
"D.	c #FEFEFC",
"E.	c #5A5654",
"F.	c #423E3C",
"G.	c #5E5A5C",
"H.	c #524E4C",
"I.	c #4E4A4C",
"J.	c #56524C",
"K.	c #4E4A44",
"L.	c #FAFAFC",
"M.	c #5E5A54",
"N.	c #626264",
"O.	c #625E5C",
"P.	c #666264",
"Q.	c #6E6A6C",
"R.	c #6A6664",
"S.	c #726E6C",
"T.	c #767274",
"U.	c #827E7C",
"                                                                                                ",
"                                                                                                ",
"                                                    . .                                         ",
"                                                    . + . .                                     ",
"                                                  . @ # $ # . . .                               ",
"                                                  . % & * & % @ = . . .                         ",
"                                                . # & - ; - & # + > , ' . . .                   ",
"                                                . $ * ; ) ; * $ ! > ~ ' { ] ^ . . /             ",
"                                              . + # & - ; - & # + > , ' { ] ^ ( _ .             ",
"                                              . = @ % & * & % @ = : < [ } ] ^ | 1 .             ",
"                                            . ~ > + @ 2 3 # @ + 4 5 6 6 7 8 9 0 .               ",
"                                      . .   . < a > = b c + = > d c e e f g h i .               ",
"                                  . . j k . l ' < ~ : b c > d m n e l 7 8 o | _ .               ",
"                              . . p q j k . } l [ r < b c s t c u v } ] ^ h i .                 ",
"                          . . w x p y k z A ] 7 { l [ b c B C D 5 7 ] g E 0 1 . .               ",
"                      . . F G w x p y H I E ^ 8 ] } } J c D } } ] 8 ^ E 0 _ K . .               ",
"                  . . L L M G w x y y I N O h o g 8 ] ] ] ] ] 8 g o h 0 _ K . .                 ",
"              . . P Q i M F F w x p q j R S T U | 9 ^ ^ ^ ^ ^ 9 h | i 1 K V . .                 ",
"          . . W X P Q i L X X w x p y j k Y Z / `  .| ( ( ( | 0 i _ ..+.@.#..                   ",
"      . . $.%.W X P Q &.*.p y &.&.p y j k Y =.H -.;.>.,._ _ 1 '...).V !.~.. .                   ",
"    . ) ) X $.%.X Q Q i M {.{.w x p X X Y =.,.H U ].-.^.{.].+./.@.(._.~.].. .                   ",
"    . P Q ) ) W X P i L M F G w &.&.p y &.&.,.H U  .:.<.Z ;.[. .}.~.|.U . Z Z . .               ",
"    . Q Q Q P ) ) X i L M F G x p y {.{.Y Y ,.H U ].:.&.1.` Z / 2.].3.4.A 5.6.{.Z 7..           ",
"    . Q Q i i Q Q ) ) i M F w w p y j k k =.,.5.[. .:.<.<.1.8.9.-./ 0.Z 5.[.[.[.5.a.y . .       ",
"    . Q Q i L L L L i ) ) L F x p y q k Y {.{.b.c.d.d.<.*.1.8.9.` [.d.5.e.T ` x f.2.` ` ` 0.    ",
"    . i i i i L L M M M L ) ) F p p j &.{.g.g.b.c.h.i.>.j.1.8.` ` T 9.8.k.l.m.1.8.9.` T e..     ",
"    . i L L L M M M M M F F M ) ) x y k Y g.g.b.c.h.i.n.o.{.{.9.p.k.3.q.r.&.k.8.8.` 9.T 2..     ",
"      . . L L L M M F F F F G F G ) ) y j =.,.b.c.h.i.n.o.p.1.<.:.s.t.].3.<.1.1.8.9.` T T .     ",
"        . . . M F F F G G G w w x w w ) ) j ,.U ].h.i.<.k.:.].u.).U ].:.<.k.1.8.8.9.z T 2..     ",
"        . U ].. . F G F G w G w w x p w w ) ) Y U O :.:.U ^ v.H U  .:.&.<.<.k.1.8.9.` . .       ",
"        . k H 8.p.. . G G w w x x x p p p x x ) ) ].U w.x.Y ,.U ]. .:.3.<.k.1.1.8.. .           ",
"        . y.y.U 8.T 8.. . w w w x x p p y y q p y z.z.j Y ,.H U ].].O 3.<.<.k.4.. .             ",
"      . . A.H P H U 2.` 8.. . x p x y p y y q q q q j Y ,.,.H U ]. .O *.<.. . B.C..             ",
"      . D.E.D.D.D.P H U 8.` ` . . p p y y y q q q j Y Y =.H H H ].:.k.. . A F.-.y..             ",
"      . D.$.G.&.D.D.D.L U  .9.T ` 4.. y q q j j j k Y Y =.,.H ].:.. . H.I.j.J.K.B..             ",
"      . L.$.%.W G.&.D.D.D.w ,. .` [.[.. . q q j k k Y =.=.,.H I . d.I.j.A.M.5.6.H..             ",
"      . $.%.W W X Q 5.3.D.D.D.y ].k.N.N.T . . j j k k Y =.. I [.H.6.G.O.P.O.G.J.H..             ",
"        . . W P Q Q i L G.&.D.D.$. .3.p.N.[.[.^.. k Y . . E.E.[.2.2.Q.R.P.O.E.>.J..             ",
"            . . Q i L L M G {.&.D.D.$.k.k.T [.5.5.4.. T 5.2.z S.T.S.Q.2.P.O.M.I .               ",
"                . . L F G G w p {.3.D.D.D.` T N.N.` T 2.z 8.8.p.z z e.R.N.. .                   ",
"                    . . F w w p y q {.&.X W D.G.5.O <.1.k.U.1.1.9.z ` . .                       ",
"                        . . p p y j j k {.G.].K.K.=.:.&.<.<.k.8.8.. .                           ",
"                            . . y j k Y =.:.O B.B.=.:.3.&.U.U.. .                               ",
"                                . . k Y =.:.3.C.C.=.:.3.<.. .                                   ",
"                                    . . =.:.. . . =.k.. .                                       ",
"                                        . .       . .                                           ",
"                                                                                                ",
"                                                                                                "};
