/* XPM */
static char*mini[]={
"16 16 11 1",
"d c #808080",
"b c #c0c0c0",
"# c #000000",
". c None",
"g c #303030",
"i c #008080",
"e c #585858",
"c c #a0a0a4",
"f c #00c000",
"a c #ffffff",
"h c #00c0c0",
".........##.....",
"........#aa##...",
"........#aaaa##.",
"......##aaaaaa#.",
"....###baaaaa#..",
"..##bcdddaaaed#.",
"##bcbfbcdddgbc#.",
"#abcbfbebcdddb#.",
"#baabehhiebbbdd#",
"##bbaabdhbbbddd#",
".###bbaabbdddd#.",
".#cc##bbbddd###.",
"..##cc##bd##ee#.",
"....##cc##ee##..",
"......##ce##....",
"........##......"};
