/* XPM */
static char * kwrite_xpm[] = {
"32 32 171 2",
"  	c None",
". 	c #020204",
"+ 	c #020604",
"@ 	c #DA7A1C",
"# 	c #F27E0C",
"$ 	c #F28A34",
"% 	c #CA620C",
"& 	c #726E6C",
"* 	c #8E8E94",
"= 	c #9A8A7C",
"- 	c #CE8234",
"; 	c #DAA28C",
"> 	c #F69E64",
", 	c #FA8214",
"' 	c #BEBEBC",
") 	c #D2D2D4",
"! 	c #DADADC",
"~ 	c #A2A2A4",
"{ 	c #7A6E5C",
"] 	c #C27224",
"^ 	c #F67E04",
"/ 	c #D6D6D4",
"( 	c #E2E2E4",
"_ 	c #BABABC",
": 	c #9E9EA4",
"< 	c #B27234",
"[ 	c #F27A04",
"} 	c #E27204",
"| 	c #DA6604",
"1 	c #060204",
"2 	c #C68654",
"3 	c #C69A6C",
"4 	c #D2C2B4",
"5 	c #C6C2C4",
"6 	c #B6B6B4",
"7 	c #C2C2BC",
"8 	c #9A9A9C",
"9 	c #8A6E54",
"0 	c #E67204",
"a 	c #C25204",
"b 	c #FEEADC",
"c 	c #FEDEC4",
"d 	c #FECEA4",
"e 	c #FEF2E4",
"f 	c #C6A68C",
"g 	c #AAAAAC",
"h 	c #7E726C",
"i 	c #7A3E04",
"j 	c #BE5604",
"k 	c #C23A04",
"l 	c #FEEEDC",
"m 	c #FEE2C4",
"n 	c #F6CA94",
"o 	c #FEF2EC",
"p 	c #F2A664",
"q 	c #FEA654",
"r 	c #DA924C",
"s 	c #CEB69C",
"t 	c #5A5A5C",
"u 	c #3A1A04",
"v 	c #BE0E04",
"w 	c #FAB66C",
"x 	c #CEC2B4",
"y 	c #969694",
"z 	c #56565C",
"A 	c #1A1A1C",
"B 	c #360604",
"C 	c #9E1604",
"D 	c #FED2AC",
"E 	c #FEA65C",
"F 	c #FEAA5C",
"G 	c #C6661C",
"H 	c #3E3E3C",
"I 	c #121214",
"J 	c #0A0A0C",
"K 	c #360204",
"L 	c #4E0204",
"M 	c #424244",
"N 	c #FEEACC",
"O 	c #FEAA54",
"P 	c #C25604",
"Q 	c #060A0C",
"R 	c #2A2A2C",
"S 	c #4E4E4C",
"T 	c #2A0604",
"U 	c #FEB26C",
"V 	c #FAA254",
"W 	c #727274",
"X 	c #7E7A7C",
"Y 	c #0E0204",
"Z 	c #FEDEBC",
"` 	c #FAAE64",
" .	c #F27604",
"..	c #D66A04",
"+.	c #222624",
"@.	c #464644",
"#.	c #FEAE6C",
"$.	c #DE6A04",
"%.	c #C25A04",
"&.	c #0A0E0C",
"*.	c #CE5E04",
"=.	c #0E1214",
"-.	c #723204",
";.	c #FEC68C",
">.	c #B25604",
",.	c #060604",
"'.	c #02060C",
").	c #FEBE7C",
"!.	c #FE7E04",
"~.	c #DE6E04",
"{.	c #6A360C",
"].	c #1A0A04",
"^.	c #020A0C",
"/.	c #FEDEB4",
"(.	c #FADAA4",
"_.	c #FECA8C",
":.	c #FEB264",
"<.	c #0E0E0C",
"[.	c #FEFAF4",
"}.	c #FEE2B4",
"|.	c #FECE94",
"1.	c #CA5E04",
"2.	c #B65204",
"3.	c #FEE6C4",
"4.	c #FEFEFC",
"5.	c #FEDAAC",
"6.	c #FEC274",
"7.	c #FE9A34",
"8.	c #FEEED4",
"9.	c #FEDAA4",
"0.	c #FED6A4",
"a.	c #FEBA74",
"b.	c #BA5604",
"c.	c #EA7604",
"d.	c #E26E04",
"e.	c #0A0604",
"f.	c #0E1614",
"g.	c #E6CAA4",
"h.	c #FEF2DC",
"i.	c #FEDEAC",
"j.	c #F6C284",
"k.	c #6E3204",
"l.	c #120A04",
"m.	c #020E14",
"n.	c #BA9E7C",
"o.	c #F6A254",
"p.	c #CA6614",
"q.	c #363634",
"r.	c #3A3A3C",
"s.	c #968E84",
"t.	c #FED29C",
"u.	c #FEAE5C",
"v.	c #E68634",
"w.	c #0E0E14",
"x.	c #525A5C",
"y.	c #262624",
"z.	c #E68A34",
"A.	c #92A2A4",
"B.	c #627274",
"C.	c #462E1C",
"D.	c #B68A54",
"E.	c #F2B26C",
"F.	c #E68A3C",
"G.	c #5E2A04",
"H.	c #0E1A1C",
"I.	c #5E3614",
"J.	c #B26A2C",
"K.	c #7E522C",
"L.	c #1A0E04",
"M.	c #221204",
"N.	c #16161C",
"                                          . . . . .             ",
"                                      + . @ # $ @ % .           ",
"                                    . & * = - ; > , % +         ",
"                                  . ' ) ! ) ~ { ] ^ , % +       ",
"                                . ' / ( ) _ ' : = < [ } | 1     ",
"                              . 2 3 4 5 6 _ 7 _ 8 9 0 | a .     ",
"                            . b c d e 2 f 5 ' g : h i j k .     ",
"                          . l m n o p q r s 7 g * t u k v .     ",
"                        . b c d o w q q q - x y z A B v C .     ",
"                      . b c D o E q E q F > G H I J K C L . M   ",
"                    . N c D o w E F O O q q P Q R S T L . . M M ",
"                  . l m D o U F V V E q q P 0 A W X J Y . . M M ",
"                . b Z d o ` q q O O q q j  ...+.X @.. . + M M M ",
"              . l c D o #.F F E E q q P [ $.%.&.+.J . . . M @.  ",
"            . b c D o U F q q F q q P [ $.*.j . . . . =.M M M   ",
"          . l m d o w E q V q q q j  .$.*.P -.. . + J M M M     ",
"        . c D ;.o F E q q O q q P  .$.*.>.-.,.. '.=.M M M       ",
"      . %.).U F !.q F E q q q j [ ~.% a {.].. ^.=.M M M         ",
"    . %./.l (._.:.!.q F q q P  .$.*.P -.].. . <.M M M           ",
"    . /.e [.e }.|.` !.O q P  .0 1.2.{.Y . . &.M M M             ",
"    . 3.4.[.N }.5.6.7.!.P  .$.1.2.-.1 . + =.M M M               ",
"  1 r 8.[.e m (.9.0.a.b.c.d.*.P -.e.. ^.f.M M M                 ",
"  . g.8.h.N i.9.9.0.j.j $.1.j k.l.+ m.=.M M M                   ",
"  . n.3.i.(.(.9.9.n o.p.%.2.-.. . . <.M M M                     ",
"  . q.r.s.0.9.t.;.u.v.p.b.k.. . + w.M M M                       ",
". . x.y.r.n |.a.F z.% P -.e.. ^.=.M M M                         ",
". A.B.. C.D.E.> F.i k.G.l.^.H.M M M M                           ",
"+.B.Q . . I.J.K.{.Y + . A y.M M M M                             ",
"=.&.. . . L.M.. . . I R M M M M M                               ",
"1 . . . . . . + Q q.M M M M M                                   ",
"      . N.N.N.R M M M M M                                       ",
"      M M M M M M M @.                                          "};
