/* XPM */
static char * large_kwrite_xpm[] = {
"44 44 166 2",
"  	c None",
". 	c #020204",
"+ 	c #CA660C",
"@ 	c #E67A14",
"# 	c #6A4A2C",
"$ 	c #8E663C",
"% 	c #CE7E2C",
"& 	c #FE8204",
"* 	c #FE9644",
"= 	c #FE8A24",
"- 	c #4E2604",
"; 	c #5E5E5C",
"> 	c #8E8E8C",
", 	c #8A8A8C",
"' 	c #7E7A74",
") 	c #DEAAA4",
"! 	c #F6B29C",
"~ 	c #FE9A4C",
"{ 	c #FE7E04",
"] 	c #DE6A04",
"^ 	c #2E1604",
"/ 	c #BEBEBC",
"( 	c #C2C2C4",
"_ 	c #CECECC",
": 	c #EEEEEC",
"< 	c #868684",
"[ 	c #CE761C",
"} 	c #FA7E04",
"| 	c #F27A04",
"1 	c #0E0604",
"2 	c #DADADC",
"3 	c #FEFEFC",
"4 	c #A2A2A4",
"5 	c #828284",
"6 	c #626264",
"7 	c #AA6E2C",
"8 	c #F67A04",
"9 	c #C25A04",
"0 	c #120604",
"a 	c #BABABC",
"b 	c #DEDEDC",
"c 	c #C6C6C4",
"d 	c #AAAAAC",
"e 	c #8E8A84",
"f 	c #1A0E04",
"g 	c #924A04",
"h 	c #C27234",
"i 	c #C67A34",
"j 	c #BA9A7C",
"k 	c #DACEC4",
"l 	c #B2B2B4",
"m 	c #AEAEB4",
"n 	c #8A623C",
"o 	c #CE6204",
"p 	c #FEF2E4",
"q 	c #FEE6CC",
"r 	c #FED29C",
"s 	c #E2822C",
"t 	c #D29664",
"u 	c #BE8A5C",
"v 	c #CACACC",
"w 	c #7E6A5C",
"x 	c #8A4204",
"y 	c #C25604",
"z 	c #BE5604",
"A 	c #120A04",
"B 	c #FEC694",
"C 	c #DA7A2C",
"D 	c #D26E1C",
"E 	c #D28A44",
"F 	c #D2BAA4",
"G 	c #9E9EA4",
"H 	c #96969C",
"I 	c #BE3E04",
"J 	c #120204",
"K 	c #FEF2EC",
"L 	c #FEEEE4",
"M 	c #FED6B4",
"N 	c #FEA654",
"O 	c #FEA65C",
"P 	c #EA8E3C",
"Q 	c #CA762C",
"R 	c #D6CABC",
"S 	c #6E6E6C",
"T 	c #363634",
"U 	c #1A0A04",
"V 	c #C24604",
"W 	c #BE0204",
"X 	c #FEE2BC",
"Y 	c #FEAA4C",
"Z 	c #FEAA5C",
"` 	c #F29A4C",
" .	c #BE6214",
"..	c #DAD6D4",
"+.	c #666664",
"@.	c #2A2A2C",
"#.	c #1A0204",
"$.	c #B60204",
"%.	c #434343",
"&.	c #FAA254",
"*.	c #5E5654",
"=.	c #161614",
"-.	c #924604",
";.	c #2D494B",
">.	c #464646",
",.	c #F2A254",
"'.	c #020A0C",
").	c #262624",
"!.	c #060604",
"~.	c #727274",
"{.	c #0A0204",
"].	c #3E0204",
"^.	c #EE7604",
"/.	c #9A9A9C",
"(.	c #8E8E94",
"_.	c #2E2E2C",
":.	c #384242",
"<.	c #020604",
"[.	c #3E3E3C",
"}.	c #FEAE64",
"|.	c #020E0C",
"1.	c #222224",
"2.	c #021214",
"3.	c #662E04",
"4.	c #FEBE7C",
"5.	c #FEDEAC",
"6.	c #FEDAAC",
"7.	c #0E0E0C",
"8.	c #FEEACC",
"9.	c #FEDAA4",
"0.	c #4A2204",
"a.	c #FEFAF4",
"b.	c #FEF6EC",
"c.	c #FECE8C",
"d.	c #E27204",
"e.	c #1E0E04",
"f.	c #FEBA64",
"g.	c #FE9224",
"h.	c #0A0604",
"i.	c #DA8E44",
"j.	c #F6861C",
"k.	c #FED6A4",
"l.	c #E6A25C",
"m.	c #E28634",
"n.	c #1E1A14",
"o.	c #3A3A3C",
"p.	c #9A9284",
"q.	c #E6CA9C",
"r.	c #FAD69C",
"s.	c #FEB26C",
"t.	c #DE7E2C",
"u.	c #AAB6B4",
"v.	c #627274",
"w.	c #CEA26C",
"x.	c #FECE94",
"y.	c #C6620C",
"z.	c #562604",
"A.	c #92A2A4",
"B.	c #865A2C",
"C.	c #FEC27C",
"D.	c #863E04",
"E.	c #823A04",
"F.	c #7A4E24",
"G.	c #EE9A4C",
"H.	c #DA8E4C",
"I.	c #A24A04",
"                                                                                        ",
"                                                        . . . . .                       ",
"                                                    . . + @ @ @ + . .                   ",
"                                                  . # $ % @ & * * = + -                 ",
"                                                . ; ; > , ' @ ) ! ~ { ] ^               ",
"                                              . / ( ( ( _ : < ; [ } & & | 1             ",
"                                            . / / 2 : 3 : 4 ( 5 6 7 { { 8 9 0           ",
"                                          . a 2 2 2 b c d / / a / e $ 8 ] 8 f           ",
"                                        . g h i j k ( l a / ( / m 5 n 8 ] o 0           ",
"                                      . p p q r s t u j v ( / m d > w x y z A           ",
"                                    . p p q r B 3 C D E F c / G G H 6 f y I J           ",
"                                  . K L q M B 3 N O N P Q R c 4 H S T U V W J           ",
"                                . p L X M B 3 O Y Z O N `  ...4 +.@.. #.W $.J %.        ",
"                              . K L q M B 3 O N O O Y Z N &.z *.=.. . #.$.-.. ;.>.%.    ",
"                            . p p q M B 3 N O Y Z O O Y O ,.z '.. ).T #.$.. . ;.>.%.>.  ",
"                          . K L X M B 3 O Z N O O Y Z O Y 9 & !.@.~.' {.].. . ;.%.>.>.  ",
"                        . p p q M B 3 N N Z N N O O Z O z { ^.. S /.~.. . . . ;.%.%.%.  ",
"                      . K L X M B 3 O N N N Z Y O Y N 9 { ^.] !.(.' _.. . . '.:.>.>.>.  ",
"                    . p p q M B 3 N Z O Z O O Z O Z z & ^.] o <.[.@.. . . <.. %.%.%.    ",
"                  . K L q M B 3 O }.N Y N Z Y N N y & ^.] o y . . . . . . . %.>.%.%.    ",
"                . p L q M B 3 N Z O O O N O Z Z 9 { ^.] o y 9 . . . . <.. >.%.>.>.      ",
"              . K L q M B 3 N Z N N N N Z Z N y { ^.] o y 9 . . . . |.. %.%.>.%.        ",
"            . p p q r B 3 O N Z N N Y O N Z 9 { ^.] o y z 1.. . . 2.. >.>.%.>.          ",
"          .  .` Z Z Z Z O N Z N Z O O N Z y { ^.] o y 9 3.. . . |.. %.%.%.>.            ",
"        1 9 4.5.6.B Z N & N Z N Z Y O N 9 { ^.] o y z 3.. . . |.. >.>.>.%.              ",
"        7.4.6.8.3 8.9.9.4.{ N Z O O Y 9 { ^.] o y 9 0.. . . . . %.%.%.%.                ",
"        7.5.8.a.3 b.8.9.c.4.& Y Z O z { ^.d.o z z e.. . . <.. >.>.>.>.                  ",
"        . 9.3 3 a.p 8.5.6.f.g.g.O 9 { ^.] o y y h.. . . '.. %.%.%.%.                    ",
"      . i.9.3 3 b.8.9.9.9.6.4.j.z & ^.] o z 9 ^ . . . 2.. >.>.>.>.                      ",
"      . 5.8.a.a.8.8.9.9.9.9.c.4.y ^.] o y y 3.. . . 2.. %.%.%.%.                        ",
"      . 5.8.a.8.8.9.6.9.9.9.k.l.y d.o y 9 0.. . 2.2.. >.>.>.>.                          ",
"      . 9.8.8.9.9.9.9.6.9.6.4.m.z o y z f . . . . . >.%.%.%.                            ",
"    . h.n.5.9.9.6.9.9.9.9.4.O m.y z 9 . . . . . . %.>.>.>.                              ",
"    @.o.o.T p.q.9.9.r.4.s.N t.o 9 y ^ . . . |.. %.>.%.%.                                ",
"    . u.v.. o.w.x.r 4.N N m.y.z 9 z.. . . 2.. %.%.>.>.                                  ",
"    . A.. . . B.w.C.N N P x D.E.3.. . 2.2.:.%.%.%.%.                                    ",
"  . o.v.. . . . F.G.H.E I.1 . . . <.. %.%.>.>.>.>.                                      ",
"  . v.. . . . . z.E.. . . . . . . >.%.%.>.%.%.%.                                        ",
"  . . . . . . . . . . . . . . %.%.%.%.%.>.%.                                            ",
"  . . . .   . . . . <.. . %.%.%.%.%.>.%.%.                                              ",
"            . . . . . %.%.>.%.%.%.%.%.                                                  ",
"            %.%.%.%.%.%.%.%.>.>.%.                                                      ",
"            %.%.%.%.%.%.%.%.                                                            ",
"                                                                                        "};
