/* XPM */
static char * kmid_volume_xpm[] = {
"22 22 4 1",
" 	c None",
".	c #000000000000",
"X	c #FFFFFFFFFFFF",
"o	c #808080808080",
"                      ",
"                      ",
"                      ",
"                      ",
"                      ",
"                  ... ",
"                ..XX. ",
"              ..XX X. ",
"            ..XX   X. ",
"          ..XX     X. ",
"        ..XX       X. ",
"      ..XX         X. ",
"    ..XX           X. ",
"  ..XX             X. ",
" .XX  XXXXXXXXXXXXX . ",
" o................... ",
"  ooooooooooooooooo   ",
"                      ",
"                      ",
"                      ",
"                      ",
"                      "};
