/* XPM */
static char * kmid_newcol_xpm[] = {
"22 22 3 1",
" 	c None",
".	c #000000",
"X	c #FFFFFF",
"                      ",
"                      ",
"                      ",
"      ...........     ",
"      .XXXXXXXXX.     ",
"      .XXXXXXXXX.     ",
"      .XXXXXXXXX.     ",
"      .XXXXXXXXX.     ",
"      .XXXXXXXXX.     ",
"      .XXXXXXXXX.     ",
"      .XXXXXXXXX.     ",
"      .XXXXXXXXX.     ",
"      .XXXXXXXXX.     ",
"      .XXXXXXXXX.     ",
"      .XXXXXXXXX.     ",
"      .XXXXXXXXX.     ",
"      .XXXXXXX...     ",
"      .XXXXXXX.X.     ",
"      ...........     ",
"                      ",
"                      ",
"                      "};
