/* XPM */
static char * kmid_chn_xpm[] = {
"22 22 3 1",
" 	c None",
".	c #000000000000",
"X	c #FFFFFFFFFFFF",
"                      ",
"                      ",
"                      ",
"                      ",
"  ....................",
" .XX...X...XX.XX...X..",
" .XX...X...XX.XX...X..",
" .XX...X...XX.XX...X..",
" .XX...X...XX.XX...X..",
" .XX...X...XX.XX...X..",
" .XX...X...XX.XX...X..",
" .XX...X...XX.XX...X..",
" .XX...X...XX.XX...X..",
" .XXX.XXX.XXX.XXX.XXX.",
" .XXX.XXX.XXX.XXX.XXX.",
" .XXX.XXX.XXX.XXX.XXX.",
" .XXX.XXX.XXX.XXX.XXX.",
" .XXX.XXX.XXX.XXX.XXX.",
" .....................",
"                      ",
"                      ",
"                      "};
