/* XPM */
static char * kmid_delcol_xpm[] = {
"22 22 4 1",
" 	c None",
".	c #000000",
"X	c #FF0000",
"o	c #FFFFFF",
"                      ",
"                      ",
"                      ",
"      ........X..     ",
"      .oooooooXo.     ",
"    XXXooooooXXo.     ",
"    XXXXoooooXoo.     ",
"      XXXoooXXoo.     ",
"      .oXXoXXooo.     ",
"      .ooXXXoooo.     ",
"      .oooXXoooo.     ",
"      .ooXXXXooo.     ",
"      .oXXooXXoo.     ",
"      .XXooooXoo.     ",
"      XXoooooXXo.     ",
"      XXooooooXo.     ",
"      XoooooooX..     ",
"      .ooooooo.o.     ",
"      ...........     ",
"                      ",
"                      ",
"                      "};
