/* XPM */
static char * kmid_stop_xpm[] = {
"22 22 4 1",
" 	c None",
".	c #000000",
"X	c #FFFFFF",
"o	c #808080",
"                      ",
"                      ",
"                      ",
"                      ",
"                      ",
"      .........       ",
"     . XXXXXXXX.      ",
"     .X       o.o     ",
"     .X       o.o     ",
"     .X       o.o     ",
"     .X       o.o     ",
"     .X       o.o     ",
"     .X       o.o     ",
"     .X       o.o     ",
"     .Xoooooooo.o     ",
"      ......... o     ",
"      oooooooooo      ",
"                      ",
"                      ",
"                      ",
"                      ",
"                      "};
