/* XPM */
static char *kmid_frewind[] = {
"22 22 4 1",
". c None",
"# c #000000",
"a c #808080",
"b c #FFFFFF",
"......................",
"......................",
"......................",
"......................",
"......................",
"......................",
".........###....###...",
"........#bb#...#bb#a..",
"......##b.b#a##b.b#a..",
".....#bb..b##bb..b#a..",
"....#bb...b#b....b#a..",
"...#b.....b#a....b#a..",
"....#.....b#a....b#a..",
".....#....b##....b#a..",
".....a##..b#a##..b#a..",
".......a#.b#a.a#.b#a..",
"........a###a..a###a..",
".........aaa....aaa...",
"......................",
"......................",
"......................",
"......................"
};
