/* XPM */
static char * kmail_xpm[] = {
"32 32 66 1",
" 	c None",
".	c #000000",
"+	c #5A5A5C",
"@	c #FFFFFF",
"#	c #FEFAF5",
"$	c #FEF5E9",
"%	c #FEF0DD",
"&	c #FEEBD1",
"*	c #FEE6C5",
"=	c #FEE1B9",
"-	c #BEBEBC",
";	c #C0C0C0",
">	c #FEF4E9",
",	c #FEF2E1",
"'	c #FEEDD6",
")	c #FEE8CA",
"!	c #FEE3BE",
"~	c #FEDEB2",
"{	c #FED9A6",
"]	c #FEE8D4",
"^	c #FEE5CD",
"/	c #FEEACE",
"(	c #FEE5C2",
"_	c #FEE0B7",
":	c #FEDBAB",
"<	c #FED7A4",
"[	c #F7F7F7",
"}	c #FEEEDF",
"|	c #FEE2BB",
"1	c #FEDDAF",
"2	c #FEDBB9",
"3	c #FEDAA8",
"4	c #585858",
"5	c #FECDA0",
"6	c #FEC087",
"7	c #FEBD80",
"8	c #FEBA7A",
"9	c #FEB36D",
"0	c #FEA85A",
"a	c #800000",
"b	c #FFDCA8",
"c	c #FEA653",
"d	c #FEA14A",
"e	c #FE9D42",
"f	c #FE993A",
"g	c #FE9532",
"h	c #FE912A",
"i	c #4C0202",
"j	c #FEA34D",
"k	c #FE9F45",
"l	c #FE9B3D",
"m	c #FE9735",
"n	c #FE932D",
"o	c #FE8F25",
"p	c #FF8000",
"q	c #FEA048",
"r	c #FE9C40",
"s	c #FE9838",
"t	c #FE942F",
"u	c #FE9027",
"v	c #FE8C1F",
"w	c #FE8D22",
"x	c #FE891A",
"y	c #FE7E04",
"z	c #D8D8D8",
"A	c #EAEAEA",
"         .      .......         ",
"        .+..   .@#$%&*=.        ",
"        .+-;.. .>@,')!~{.       ",
"       .;+-@@;..]^@/(_:<<.      ",
"       .[+-@@@@;..}@|1<<<<.     ",
"      .;[+-@@@@@@;.2@3<<<<<.    ",
"      .[[+-@@@@@@@;4.@<<<<<<.   ",
"     .;[[+-@@@@@@44.56@<<<<<<.  ",
"     .[[[+-@@@@;4;;.678@<<<<<<. ",
"    .;[[[+-@@@44@@.78990@@@@@@@.",
"    .[[[[+-@;4;@@;.9a000bcdefgh.",
"   .;[[[[+-44@@@@ii0aa00bjklmno.",
"   .[[[[[+-;@@@@;.i0apa0bqrstuv.",
"  .;[[[[[+-@@@@@.i00bppabefghwx.",
"  .[[[[[[+-@@@@;.i000bppaaaaa.. ",
" .;[[[[[[+-@@@@.ia0000bpppppp.  ",
" .[[[[[[[+;@@@;.i000000byyyyyy. ",
".+++++++4+;@@@..a0000000bbbbbbb.",
".----------@@;..a000a000bcdefgh.",
" .zzzzz+;z@@@. .0000aa00bjklmno.",
" .;AAAA+;@@@;. .0000apa0bqrstuv.",
"  .AAAA+;@@@.  .0000bppabefghwx.",
"  .;AAA+;@@;.  .00000bppaaaaa.. ",
"   .AAA+;@@.    .00000bpppppp.  ",
"   .;AA+;@;.     .00000byyyyyy. ",
"    .AA+;@.       .00000bbbbbbb.",
"    .;A+;;.        .0000bcdefgh.",
"     .A+;.          .000bjklmno.",
"     .;+;.           .00bqrstuv.",
"      .+.             .0befghwx.",
"      .+.              ........ ",
"       .                        "};
