/* XPM */
static char * large_kmail_xpm[] = {
"48 48 157 2",
"  	c None",
". 	c #020204",
"+ 	c #000000",
"@ 	c #5A5A5C",
"# 	c #BEBEBC",
"$ 	c #FFFFFF",
"% 	c #FEFBF5",
"& 	c #FEF7EC",
"* 	c #FEF3E3",
"= 	c #FEEFDA",
"- 	c #FEEBD1",
"; 	c #FEE8C8",
"> 	c #FEE4BF",
", 	c #FEE0B6",
"' 	c #C0C0C0",
") 	c #0A0A0C",
"! 	c #FEF9F1",
"~ 	c #FEF5E8",
"{ 	c #FEF1DF",
"] 	c #FEEDD6",
"^ 	c #FEEACC",
"/ 	c #FEE6C3",
"( 	c #FEE2BA",
"_ 	c #FEDEB1",
": 	c #FEDAA8",
"< 	c #1E1E1C",
"[ 	c #FEF4EA",
"} 	c #FEDCAD",
"| 	c #FED8A4",
"1 	c #F7F7F7",
"2 	c #FEFEFD",
"3 	c #FEFBF7",
"4 	c #FEF8F2",
"5 	c #FEF4EB",
"6 	c #FEF1E5",
"7 	c #FEEEDF",
"8 	c #FEE7D2",
"9 	c #FEE4CC",
"0 	c #FEDEBF",
"a 	c #FEDBB9",
"b 	c #FED7B2",
"c 	c #FED4AD",
"d 	c #FED1A7",
"e 	c #FED0A5",
"f 	c #FECDA0",
"g 	c #FECA9A",
"h 	c #FEC794",
"i 	c #FEC999",
"j 	c #FEC693",
"k 	c #FEC38D",
"l 	c #FEC087",
"m 	c #FEBD81",
"n 	c #4C0202",
"o 	c #FEC38C",
"p 	c #FEC086",
"q 	c #FEBD80",
"r 	c #FEBA7A",
"s 	c #FEB774",
"t 	c #FEB46E",
"u 	c #FDFDFD",
"v 	c #FCFCFC",
"w 	c #FEBC7F",
"x 	c #FEB979",
"y 	c #FEB673",
"z 	c #FEB36D",
"A 	c #FEB067",
"B 	c #FEAD62",
"C 	c #FEDAA4",
"D 	c #FEA653",
"E 	c #FEA049",
"F 	c #FE9C3F",
"G 	c #FE9735",
"H 	c #FE912B",
"I 	c #FEB878",
"J 	c #FEB572",
"K 	c #800000",
"L 	c #FEAF66",
"M 	c #FEAC60",
"N 	c #FEA95B",
"O 	c #FEA655",
"P 	c #FE8D21",
"Q 	c #FAFAFA",
"R 	c #FEB26B",
"S 	c #FE8717",
"T 	c #F9F9F9",
"U 	c #FEAA5B",
"V 	c #FEA757",
"W 	c #FE7E04",
"X 	c #FE830D",
"Y 	c #FF8000",
"Z 	c #FE7E03",
"` 	c #FFDCA8",
" .	c #2E1E14",
"..	c #1A120C",
"+.	c #FEA654",
"@.	c #FEA755",
"#.	c #FEA756",
"$.	c #FEA857",
"%.	c #160E04",
"&.	c #FEA858",
"*.	c #FEA959",
"=.	c #FEA95A",
"-.	c #FEAA5C",
";.	c #2E1604",
">.	c #FEAB5D",
",.	c #FEAB5E",
"'.	c #FEAC5F",
").	c #FEAD61",
"!.	c #FEAE63",
"~.	c #FEAE64",
"{.	c #FEAF65",
"].	c #FE9F46",
"^.	c #FE9839",
"/.	c #FE922C",
"(.	c #FE8B1E",
"_.	c #D8D8D8",
":.	c #FEB068",
"<.	c #FEB169",
"[.	c #FE8411",
"}.	c #E2E2E2",
"|.	c #FEB36C",
"1.	c #ECECEC",
"2.	c #EFEFEF",
"3.	c #F1F1F1",
"4.	c #F4F4F4",
"5.	c #F6F6F6",
"6.	c #FEB26A",
"7.	c #FEB570",
"8.	c #FEB571",
"9.	c #E9E9E9",
"0.	c #EEEEEE",
"a.	c #F0F0F0",
"b.	c #F3F3F3",
"c.	c #FEB46F",
"d.	c #FEB775",
"e.	c #EBEBEB",
"f.	c #EDEDED",
"g.	c #FEB672",
"h.	c #E6E6E6",
"i.	c #E8E8E8",
"j.	c #EAEAEA",
"k.	c #FEB877",
"l.	c #E7E7E7",
"m.	c #FEFEFE",
"n.	c #FE9C41",
"o.	c #FE932F",
"p.	c #FE8A1C",
"q.	c #FE810A",
"r.	c #FE9F47",
"s.	c #FE9635",
"t.	c #FE8D22",
"u.	c #FE8410",
"v.	c #FEA24D",
"w.	c #FE993B",
"x.	c #FE9028",
"y.	c #FE8716",
"z.	c #333333",
"                                                                                                ",
"                                                                                                ",
"                            . .                   . . . . . . . . . +                           ",
"                          . @ # + +             + $ $ % & * = - ; > , +                         ",
"                          . @ # $ ' + )         + $ $ ! ~ { ] ^ / ( _ : +                       ",
"                        . ' @ # $ $ $ ' + <     + [ $ $ * = - ; > , } | | +                     ",
"                        + 1 @ # $ $ $ $ $ ' + . + 2 3 4 $ ] ^ / ( _ : | | | +                   ",
"                      . ' 1 @ # $ $ $ $ $ $ $ ' + + 5 6 7 $ ; > , } | | | | | +                 ",
"                      + 1 1 @ # $ $ $ $ $ $ $ $ $ ' + + 8 9 $ ( _ : | | | | | | +               ",
"                    . ' 1 1 @ # $ $ $ $ $ $ $ $ $ $ $ ' + 0 a $ } | | | | | | | | +             ",
"                    + 1 1 1 @ # $ $ $ $ $ $ $ $ $ $ $ $ . b c d $ | | | | | | | | | +           ",
"                  . ' 1 1 1 @ # $ $ $ $ $ $ $ $ $ $ $ @ . e f g h $ | | | | | | | | | +         ",
"                  + 1 1 1 1 @ # $ $ $ $ $ $ $ $ $ @ @ ' + i j k l m $ | | | | | | | | | +       ",
"                . ' 1 1 1 1 @ # $ $ $ $ $ $ $ @ @ ' $ + n o p q r s t $ $ $ $ $ $ $ $ $ $ +     ",
"                + u @ 1 1 1 @ # v $ $ $ $ @ @ ' $ $ ' + n w x y z A B C D D D D D E F G H .     ",
"              . ' v @ 1 1 1 @ # v v $ @ @ ' $ $ $ $ + n I J K L M N O C D D D D E F G H P .     ",
"              + Q @ 1 1 1 1 @ # v @ @ ' $ $ $ $ $ ' + n R B K K D D D C D D D E F G H P S .     ",
"            . ' T @ 1 1 1 1 @ # @ ' $ $ $ $ $ $ $ + n K U V K W K D D C D D E F G H P S X .     ",
"            + 1 @ 1 1 1 1 1 @ # $ $ $ $ $ $ $ $ ' + n K D D K Y Y K D C D E F G H P S X Z .     ",
"          . ' 1 @ 1 1 1 1 1 @ # $ $ $ $ $ $ $ $ + n n D D D ` Y W Y K C E F G H P S X Z Z .     ",
"          + 1 1 1 1 1 1 1 1 @ # $ $ $ $ $ $ $ ' + n n D D D D ` Y Y Y K K K K K K K  . ...      ",
"        . ' 1 1 1 1 1 1 1 1 @ # $ $ $ $ $ $ $ + + n K D D D D D ` Y Y Y Y Y Y Y Y Y . .         ",
"        + 1 1 1 1 1 1 1 1 1 @ # $ $ $ $ $ $ ' + + n K D D +.@.#.$.` Y W W W W W W Y %.          ",
"      . ' 1 1 1 1 1 1 1 1 1 @ # $ $ $ $ $ $ +   + n @.#.$.&.*.=.U -.` W W W W W W W W ;..       ",
"    + @ @ @ @ @ @ @ @ @ @ @ @ # $ $ $ $ $ ' +   + n *.=.U -.>.,.'.M ).` ` ` ` ` ` ` ` ` ` .     ",
"      + # # # # # # # # # # # # $ $ $ $ $ +     + K >.,.'.M ).B !.~.{.C D D D D D ].^./.(..     ",
"      + ' _._._._._._.@ # _._._.$ $ $ $ ' +     + M ).B !.~.K L A :.<.C D D D D ].^./.(.[..     ",
"        + }.}.}.}.}.}.@ # }.}.$ $ $ $ $ +       + ~.{.L A :.K K R |.z C D D D ].^./.(.[.Z .     ",
"        + ' 1.2.3.4.5.@ # $ $ $ $ $ $ ' +       + :.<.6.R |.K Y K 7.8.C D D ].^./.(.[.Z Z .     ",
"          + 9.1.0.a.b.@ # $ $ $ $ $ $ +         + |.z t c.7.K Y W K d.C D ].^./.(.[.Z Z Z .     ",
"          + ' 9.e.f.a.@ # $ $ $ $ $ ' +         + 7.8.g.y s ` Y Y W K C ].^./.(.[.Z Z Z Z .     ",
"            + h.i.j.f.@ # $ $ $ $ $ +           + s d.d.d.k.d.` Y Y Y K K K K K K K  . ...      ",
"            + ' h.l.j.@ # $ $ $ $ ' +             + d.d.d.d.d.d.` Y Y Y Y Y Y Y Y Y . .         ",
"              + h.h.l.@ # $ $ $ $ +                 + d.d.d.d.d.d.` Y W W W W W W Y %.          ",
"              + ' h.h.@ # m.m.$ ' +                   + d.d.d.d.d.d.` W W W W W W W W ;..       ",
"                + h.h.@ # m.m.m.+                       + d.d.d.d.d.d.` ` ` ` ` ` ` ` ` ` .     ",
"                + ' h.@ # m.m.' +                         + d.d.d.d.d.` D D n.o.p.q.Z Z Z .     ",
"                  + h.@ # m.m.+                             + d.d.d.d.` D r.s.t.u.Z Z Z Z .     ",
"                  + ' @ # m.' +                               + d.d.d.` v.w.x.y.Z Z Z Z Z .     ",
"                    z.@ # m.+                                   + d.d.` n.o.p.q.Z Z Z Z Z .     ",
"                    + @ # ' +                                     + d.` s.t.u.Z Z Z Z Z Z .     ",
"                      + # .                                         + ` x.y.Z Z Z Z Z Z Z .     ",
"                      + # .                                           + + + . . . . . . .       ",
"                        .                                                                       ",
"                        .                                                                       ",
"                                                                                                ",
"                                                                                                ",
"                                                                                                "};
